<svg width="41" height="42" viewBox="0 0 41 42" fill="none" xmlns="http://www.w3.org/2000/svg">
<path d="M20.1999 0.839844C9.06575 0.839844 0.0399475 9.86564 0.0399475 20.9998C0.0399475 32.134 9.06575 41.1598 20.1999 41.1598C31.3342 41.1598 40.36 32.134 40.36 20.9998C40.36 9.86564 31.3342 0.839844 20.1999 0.839844ZM15.2649 29.3557H11.1825V16.2181H15.2649V29.3557ZM13.1985 14.6053C11.9091 14.6053 11.0754 13.6918 11.0754 12.562C11.0754 11.4091 11.9343 10.5229 13.251 10.5229C14.5677 10.5229 15.3741 11.4091 15.3993 12.562C15.3993 13.6918 14.5677 14.6053 13.1985 14.6053ZM30.1749 29.3557H26.0926V22.075C26.0926 20.3803 25.5004 19.2295 24.024 19.2295C22.8964 19.2295 22.2264 20.0086 21.9304 20.7583C21.8211 21.025 21.7938 21.403 21.7938 21.7789V29.3536H17.7094V20.4076C17.7094 18.7675 17.6568 17.3962 17.6022 16.216H21.1491L21.3361 18.0409H21.4179C21.9555 17.1841 23.2722 15.9199 25.4752 15.9199C28.1611 15.9199 30.1749 17.7196 30.1749 21.5878V29.3557Z" fill="#006087"/>
</svg>
