<svg width="39" height="40" viewBox="0 0 39 40" fill="none" xmlns="http://www.w3.org/2000/svg">
<path d="M19.2 0.799805C8.596 0.799805 0 9.39581 0 19.9998C0 30.6038 8.596 39.1998 19.2 39.1998C29.804 39.1998 38.4 30.6038 38.4 19.9998C38.4 9.39581 29.804 0.799805 19.2 0.799805ZM27.01 16.5278C27.018 16.6918 27.02 16.8558 27.02 17.0158C27.02 22.0158 23.218 27.7778 16.262 27.7778C14.2066 27.7812 12.1939 27.1909 10.466 26.0778C10.76 26.1138 11.062 26.1278 11.368 26.1278C13.14 26.1278 14.77 25.5258 16.064 24.5098C15.2754 24.4943 14.5113 24.2332 13.8782 23.7628C13.2451 23.2925 12.7745 22.6363 12.532 21.8858C13.0983 21.9935 13.6817 21.9709 14.238 21.8198C13.3821 21.6467 12.6124 21.183 12.0594 20.5071C11.5064 19.8313 11.2042 18.985 11.204 18.1118V18.0658C11.714 18.3478 12.298 18.5198 12.918 18.5398C12.1156 18.0057 11.5476 17.1851 11.3301 16.2461C11.1126 15.307 11.2621 14.3203 11.748 13.4878C12.6979 14.6558 13.8825 15.6113 15.2251 16.2924C16.5678 16.9736 18.0384 17.3651 19.542 17.4418C19.3508 16.6304 19.4331 15.7786 19.776 15.0188C20.1189 14.259 20.7032 13.6338 21.4381 13.2403C22.173 12.8469 23.0173 12.7073 23.8398 12.8431C24.6622 12.979 25.4167 13.3829 25.986 13.9918C26.8323 13.8244 27.644 13.5139 28.386 13.0738C28.1039 13.9501 27.5133 14.6942 26.724 15.1678C27.4737 15.0775 28.2057 14.876 28.896 14.5698C28.389 15.3296 27.7503 15.9927 27.01 16.5278Z" fill="#55ACEE"/>
</svg>