<svg width="642" height="510" viewBox="0 0 642 510" fill="none" xmlns="http://www.w3.org/2000/svg">
<g filter="url(#filter0_d)">
<rect x="307" y="178.548" width="305" height="247" fill="#1C2124"/>
</g>
<path d="M473.463 265.033L451.727 286.769C450.887 287.524 449.797 287.944 448.789 287.944C447.699 287.944 446.607 287.524 445.768 286.769C444.173 285.091 444.173 282.405 445.768 280.81L467.504 259.074C469.099 257.48 471.784 257.48 473.464 259.074C475.057 260.753 475.057 263.439 473.463 265.033Z" fill="#727272"/>
<path d="M473.462 265.033L459.615 278.88V266.963L467.504 259.074C469.098 257.48 471.784 257.48 473.462 259.074C475.057 260.753 475.057 263.439 473.462 265.033Z" fill="#727272"/>
<path d="M435.319 290.149C434.688 290.149 434.049 290.006 433.446 289.707L414.892 280.429C412.818 279.392 411.978 276.872 413.015 274.799C414.056 272.729 416.576 271.885 418.646 272.922L437.2 282.199C439.274 283.236 440.114 285.756 439.077 287.829C438.339 289.301 436.86 290.149 435.319 290.149Z" fill="#97A1A5"/>
<path d="M483.116 255.297C481.838 255.297 480.58 254.72 479.756 253.617C478.363 251.765 478.74 249.134 480.596 247.745L500.741 232.641C502.589 231.248 505.216 231.616 506.614 233.48C508.007 235.332 507.63 237.964 505.773 239.353L485.628 254.457C484.874 255.023 483.994 255.297 483.116 255.297Z" fill="#727272"/>
<path d="M409.261 260.333C402.294 260.333 396.672 265.955 396.672 272.922C396.672 279.887 402.294 285.51 409.261 285.51C416.227 285.51 421.849 279.887 421.849 272.922C421.849 265.955 416.227 260.333 409.261 260.333Z" fill="#D3D3D3"/>
<path d="M442.83 277.118C435.864 277.118 430.242 282.74 430.242 289.707C430.242 296.672 435.864 302.295 442.83 302.295C449.797 302.295 455.419 296.672 455.419 289.707C455.419 282.74 449.797 277.118 442.83 277.118Z" fill="#C6E2E7"/>
<path d="M476.4 243.548C469.434 243.548 463.811 249.171 463.811 256.137C463.811 263.102 469.434 268.726 476.4 268.726C483.366 268.726 488.988 263.102 488.988 256.137C488.988 249.171 483.366 243.548 476.4 243.548Z" fill="#FDBF00"/>
<path d="M509.969 218.371C503.003 218.371 497.381 223.994 497.381 230.96C497.381 237.925 503.003 243.548 509.969 243.548C516.936 243.548 522.558 237.925 522.558 230.96C522.558 223.994 516.936 218.371 509.969 218.371Z" fill="#E63950"/>
<path d="M522.558 264.529V355.558H497.381V264.529C497.381 262.179 499.226 260.333 501.577 260.333H518.362C520.712 260.333 522.558 262.179 522.558 264.529Z" fill="#E63950"/>
<path d="M488.988 289.706V355.558H463.811V289.706C463.811 287.356 465.657 285.51 468.007 285.51H484.792C487.143 285.51 488.988 287.356 488.988 289.706Z" fill="#FDBF00"/>
<path d="M455.419 323.276V355.559H430.242V323.276C430.242 320.926 432.087 319.08 434.438 319.08H451.223C453.573 319.08 455.419 320.926 455.419 323.276Z" fill="#C6E2E7"/>
<path d="M421.849 306.492V355.559H396.672V306.492C396.672 304.141 398.518 302.295 400.868 302.295H417.653C420.004 302.295 421.849 304.141 421.849 306.492Z" fill="#D3D3D3"/>
<path d="M509.969 243.548V218.371C516.936 218.371 522.558 223.994 522.558 230.96C522.558 237.925 516.936 243.548 509.969 243.548Z" fill="#CC2E43"/>
<path d="M522.558 264.529V355.558H509.969V260.333H518.362C520.712 260.333 522.558 262.179 522.558 264.529Z" fill="#CC2E43"/>
<path d="M476.4 268.726V243.548C483.366 243.548 488.988 249.171 488.988 256.137C488.988 263.102 483.366 268.726 476.4 268.726Z" fill="#FF9F00"/>
<path d="M488.988 289.706V355.558H476.4V285.51H484.792C487.143 285.51 488.988 287.356 488.988 289.706Z" fill="#FF9F00"/>
<path d="M442.83 302.295V277.118C449.797 277.118 455.419 282.74 455.419 289.707C455.419 296.672 449.797 302.295 442.83 302.295Z" fill="#A8D3D8"/>
<path d="M455.419 323.276V355.559H442.83V319.08H451.223C453.573 319.08 455.419 320.926 455.419 323.276Z" fill="#A8D3D8"/>
<path d="M409.261 285.51V260.333C416.227 260.333 421.849 265.955 421.849 272.922C421.849 279.887 416.227 285.51 409.261 285.51Z" fill="#A0A9AD"/>
<path d="M421.849 306.492V355.559H409.261V302.295H417.653C420.004 302.295 421.849 304.141 421.849 306.492Z" fill="#A0A9AD"/>
<path d="M531.23 357.405C531.23 359.755 529.384 361.601 527.034 361.601H392.196C389.846 361.601 388 359.755 388 357.405C388 355.055 389.846 353.209 392.196 353.209H527.034C529.384 353.209 531.23 355.055 531.23 357.405Z" fill="#465A61"/>
<path d="M531.23 357.405C531.23 359.755 529.384 361.601 527.034 361.601H459.615V353.209H527.034C529.384 353.209 531.23 355.055 531.23 357.405Z" fill="#3B4A51"/>
<g filter="url(#filter1_d)">
<rect x="181.594" y="26" width="304.988" height="247.048" fill="#1C2124"/>
</g>
<path d="M376.544 142.063C382.633 142.063 387.568 137.128 387.568 131.039C387.568 124.95 382.633 120.015 376.544 120.015C374.227 120.015 371.966 120.73 370.07 122.062C370.637 120.05 370.928 117.971 370.935 115.881C370.704 102.697 359.83 92.197 346.646 92.4278C336.141 92.6118 326.99 99.6422 324.106 109.746C321.546 107.489 318.252 106.241 314.839 106.235C307.161 106.169 300.884 112.338 300.816 120.015C300.822 121.761 301.167 123.49 301.832 125.104C299.752 121.922 296.204 120.007 292.403 120.015C286.314 120.015 281.379 124.95 281.379 131.039C281.379 137.128 286.314 142.063 292.403 142.063" fill="#E6E6E6"/>
<path d="M303.234 162.274H365.704C367.733 162.274 369.378 163.919 369.378 165.949V173.298C369.378 175.328 367.733 176.973 365.704 176.973H303.234C301.204 176.973 299.559 175.328 299.559 173.298V165.949C299.559 163.919 301.204 162.274 303.234 162.274Z" fill="#3B6882"/>
<path d="M360.651 173.184C358.685 173.172 357.1 171.568 357.112 169.601C357.125 167.635 358.729 166.05 360.695 166.062C362.653 166.074 364.234 167.665 364.234 169.623C364.225 171.595 362.622 173.187 360.651 173.184ZM360.651 169.509L360.559 169.623C360.559 169.678 360.596 169.739 360.651 169.739V169.509Z" fill="#ED1C24"/>
<path d="M341.451 171.461H306.541C305.527 171.461 304.704 170.638 304.704 169.623C304.704 168.609 305.527 167.786 306.541 167.786H341.451C342.466 167.786 343.288 168.609 343.288 169.623C343.288 170.638 342.466 171.461 341.451 171.461Z" fill="#F2F2F2"/>
<path d="M352.796 171.461H347.909C346.894 171.461 346.072 170.638 346.072 169.623C346.072 168.609 346.894 167.786 347.909 167.786H352.796C353.811 167.786 354.634 168.609 354.634 169.623C354.634 170.638 353.811 171.461 352.796 171.461Z" fill="#F8CF26"/>
<path d="M303.234 184.322H365.704C367.733 184.322 369.378 185.967 369.378 187.997V195.346C369.378 197.376 367.733 199.021 365.704 199.021H303.234C301.204 199.021 299.559 197.376 299.559 195.346V187.997C299.559 185.967 301.204 184.322 303.234 184.322Z" fill="#06AAE9"/>
<path d="M360.651 195.232C358.685 195.22 357.1 193.616 357.112 191.65C357.125 189.683 358.729 188.099 360.695 188.111C362.653 188.123 364.234 189.714 364.234 191.671C364.225 193.643 362.622 195.235 360.651 195.232ZM360.651 191.558L360.559 191.672C360.559 191.727 360.596 191.787 360.651 191.787V191.558Z" fill="#ED1C24"/>
<path d="M341.451 193.509H306.541C305.527 193.509 304.704 192.686 304.704 191.671C304.704 190.657 305.527 189.834 306.541 189.834H341.451C342.466 189.834 343.288 190.657 343.288 191.671C343.288 192.686 342.466 193.509 341.451 193.509Z" fill="#F2F2F2"/>
<path d="M352.796 193.509H347.909C346.894 193.509 346.072 192.686 346.072 191.671C346.072 190.657 346.894 189.834 347.909 189.834H352.796C353.811 189.834 354.634 190.657 354.634 191.671C354.634 192.686 353.811 193.509 352.796 193.509Z" fill="#F8CF26"/>
<path d="M303.234 140.226H365.704C367.733 140.226 369.378 141.871 369.378 143.901V151.25C369.378 153.28 367.733 154.925 365.704 154.925H303.234C301.204 154.925 299.559 153.28 299.559 151.25V143.901C299.559 141.871 301.204 140.226 303.234 140.226Z" fill="#06AAE9"/>
<path d="M360.091 151.25C358.355 151.249 356.867 150.007 356.556 148.299C356.389 147.371 356.602 146.414 357.148 145.644C358.294 144.025 360.536 143.642 362.155 144.789C362.922 145.332 363.446 146.154 363.613 147.079C363.782 148.008 363.569 148.966 363.022 149.736C362.474 150.52 361.633 151.05 360.69 151.206C360.492 151.237 360.292 151.252 360.091 151.25ZM360.08 147.575L359.997 147.72C359.997 147.759 360.007 147.798 360.089 147.805L360.08 147.575Z" fill="#ED1C24"/>
<path d="M341.083 149.412H306.174C305.159 149.412 304.336 148.59 304.336 147.575C304.336 146.56 305.159 145.738 306.174 145.738H341.083C342.098 145.738 342.921 146.56 342.921 147.575C342.921 148.59 342.098 149.412 341.083 149.412Z" fill="#F2F2F2"/>
<path d="M351.622 149.412H346.735C345.72 149.412 344.898 148.59 344.898 147.575C344.898 146.56 345.72 145.738 346.735 145.738H351.622C352.637 145.738 353.46 146.56 353.46 147.575C353.46 148.59 352.637 149.412 351.622 149.412Z" fill="#F8CF26"/>
<path d="M326.582 120.553L321.069 115.041C320.352 114.323 319.189 114.323 318.471 115.041L312.959 120.553C312.255 121.283 312.275 122.446 313.005 123.151C313.717 123.838 314.845 123.838 315.557 123.151L317.933 120.775V132.876C317.933 133.89 318.756 134.713 319.77 134.713C320.785 134.713 321.608 133.89 321.608 132.876V120.775L323.984 123.151C324.713 123.856 325.877 123.835 326.582 123.105C327.269 122.393 327.269 121.265 326.582 120.553Z" fill="#06AAE9"/>
<path d="M355.979 126.065C355.262 125.348 354.098 125.348 353.381 126.065L351.005 128.441V116.34C351.005 115.325 350.183 114.503 349.168 114.503C348.153 114.503 347.331 115.325 347.331 116.34V128.441L344.955 126.065C344.225 125.36 343.062 125.38 342.357 126.11C341.669 126.822 341.669 127.951 342.357 128.663L347.869 134.175C348.586 134.892 349.749 134.892 350.467 134.175L355.979 128.663C356.696 127.946 356.696 126.783 355.979 126.065Z" fill="#29485A"/>
<g filter="url(#filter2_d)">
<rect x="30" y="142.548" width="406" height="333" fill="#1C2124"/>
</g>
<path d="M333.743 359.397H117V255.04C117 246.173 124.188 238.985 133.055 238.985H317.688C326.555 238.985 333.743 246.173 333.743 255.04V359.397Z" fill="#463C4B"/>
<path d="M317.688 359.397H117V255.04C117 246.173 124.188 238.985 133.055 238.985H301.633C310.5 238.985 317.688 246.173 317.688 255.04V359.397Z" fill="#555A6E"/>
<path d="M133.055 379.466H317.688C326.554 379.466 333.743 372.278 333.743 363.411V359.397H117V363.411C117 372.278 124.188 379.466 133.055 379.466Z" fill="#A5C3DC"/>
<path d="M301.633 379.466H133.055C124.188 379.466 117 372.278 117 363.411V359.397H317.688V363.411C317.688 372.278 310.499 379.466 301.633 379.466Z" fill="#D7E6F0"/>
<path d="M201.289 379.467H237.413V395.522H201.289V379.467Z" fill="#A5C3DC"/>
<path d="M201.289 387.493H225.371V395.521H201.289V387.493Z" fill="#D7E6F0"/>
<path d="M257.481 407.562H177.206V403.549C177.206 399.115 180.8 395.521 185.234 395.521H249.454C253.887 395.521 257.481 399.115 257.481 403.549V407.562Z" fill="#D7E6F0"/>
<path d="M257.481 407.562H233.399V403.549C233.399 399.115 236.993 395.521 241.426 395.521H249.454C253.888 395.521 257.481 399.115 257.481 403.549V407.562Z" fill="#A5C3DC"/>
<path d="M161.151 325.283C159.61 325.283 158.069 324.695 156.894 323.519L136.825 303.45C134.474 301.099 134.474 297.287 136.825 294.936L156.894 274.867C159.245 272.516 163.058 272.516 165.409 274.867C167.76 277.218 167.76 281.03 165.409 283.381L149.597 299.193L165.409 315.005C167.76 317.356 167.76 321.168 165.409 323.519C164.233 324.695 162.692 325.283 161.151 325.283Z" fill="#D7E6F0"/>
<path d="M217.344 325.28C215.803 325.28 214.262 324.692 213.087 323.516C210.735 321.165 210.735 317.353 213.087 315.002L228.898 299.19L213.086 283.379C210.735 281.027 210.735 277.216 213.086 274.864C215.437 272.513 219.25 272.513 221.601 274.864L241.67 294.933C244.021 297.284 244.021 301.096 241.67 303.448L221.601 323.516C220.426 324.692 218.885 325.28 217.344 325.28Z" fill="#D7E6F0"/>
<path d="M181.218 325.282C180.474 325.282 179.718 325.143 178.984 324.85C175.897 323.615 174.395 320.111 175.63 317.024L191.685 276.886C192.92 273.8 196.423 272.297 199.511 273.532C202.599 274.767 204.1 278.271 202.865 281.358L186.81 321.496C185.869 323.85 183.608 325.282 181.218 325.282Z" fill="#D7E6F0"/>
<path d="M304.434 230.957C302.264 230.957 300.324 229.615 299.551 227.587C299.325 226.995 299.083 226.411 298.824 225.836C297.928 223.85 298.343 221.519 299.884 219.979L299.886 219.977C301.928 217.935 301.928 214.624 299.886 212.582L295.928 208.624C294.907 207.603 293.569 207.093 292.231 207.093H278.516C277.904 206.229 277.553 205.183 277.553 204.076C277.553 201.188 275.212 198.847 272.324 198.847H250.672C247.784 198.847 245.443 201.188 245.443 204.076C245.443 205.183 245.092 206.23 244.48 207.093H230.765C229.427 207.093 228.089 207.603 227.068 208.624L223.11 212.582C221.068 214.624 221.068 217.935 223.11 219.977L223.112 219.979C224.653 221.519 225.068 223.85 224.172 225.836C223.913 226.411 223.671 226.995 223.445 227.587C222.672 229.615 220.732 230.957 218.562 230.957C215.674 230.957 213.333 233.298 213.333 236.186V241.784C213.333 244.672 215.674 247.013 218.562 247.013C220.732 247.013 222.672 248.355 223.445 250.383C223.671 250.975 223.913 251.559 224.172 252.134C225.068 254.12 224.653 256.451 223.112 257.991L223.11 257.993C221.068 260.035 221.068 263.346 223.11 265.388L227.068 269.346C228.089 270.367 229.427 270.877 230.765 270.877H244.48C245.092 271.74 245.443 272.786 245.443 273.894C245.443 276.782 247.784 279.123 250.671 279.123H272.324C275.211 279.123 277.552 276.782 277.552 273.894C277.552 272.786 277.903 271.74 278.515 270.877H292.23C293.568 270.877 294.906 270.367 295.927 269.346L299.885 265.388C301.927 263.346 301.927 260.035 299.885 257.993L299.883 257.991C298.342 256.451 297.927 254.12 298.823 252.134C299.082 251.559 299.324 250.975 299.55 250.383C300.323 248.355 302.263 247.013 304.433 247.013C307.321 247.013 309.662 244.672 309.662 241.784V236.186C309.663 233.298 307.322 230.957 304.434 230.957ZM257.523 239.962C257.212 236.015 258.805 232.429 261.482 230.024C263.723 232.032 265.225 234.855 265.473 238.007C265.784 241.954 264.191 245.54 261.514 247.945C259.272 245.937 257.771 243.115 257.523 239.962Z" fill="#D6A202"/>
<path d="M293.605 241.783V236.186C293.605 233.298 291.264 230.957 288.376 230.957C286.206 230.957 284.266 229.614 283.493 227.586C283.267 226.994 283.025 226.411 282.766 225.836C281.87 223.849 282.285 221.519 283.826 219.978L283.828 219.976C285.87 217.934 285.87 214.624 283.828 212.582L279.87 208.624C277.828 206.582 274.517 206.582 272.475 208.624L272.473 208.626C270.933 210.166 268.603 210.581 266.616 209.686C266.042 209.427 265.458 209.184 264.866 208.958C262.838 208.186 261.495 206.246 261.495 204.075C261.495 201.188 259.154 198.847 256.266 198.847H250.669C247.781 198.847 245.44 201.188 245.44 204.076C245.44 206.247 244.098 208.187 242.07 208.959C241.478 209.185 240.894 209.427 240.319 209.687C238.333 210.582 236.002 210.167 234.462 208.627L234.46 208.625C232.418 206.583 229.108 206.583 227.066 208.625L223.108 212.583C221.066 214.625 221.066 217.935 223.108 219.977L223.11 219.979C224.65 221.52 225.065 223.85 224.17 225.837C223.911 226.411 223.668 226.995 223.442 227.587C222.67 229.615 220.73 230.958 218.559 230.958C215.671 230.958 213.33 233.299 213.33 236.187V241.784C213.33 244.672 215.671 247.013 218.559 247.013C220.73 247.013 222.67 248.356 223.442 250.384C223.668 250.976 223.911 251.559 224.17 252.134C225.065 254.121 224.65 256.451 223.11 257.992L223.108 257.994C221.066 260.036 221.066 263.346 223.108 265.388L227.066 269.346C229.108 271.388 232.418 271.388 234.46 269.346L234.462 269.344C236.003 267.803 238.333 267.389 240.319 268.284C240.894 268.543 241.478 268.786 242.07 269.012C244.098 269.784 245.44 271.724 245.44 273.895C245.44 276.783 247.781 279.124 250.669 279.124H256.267C259.155 279.124 261.496 276.783 261.496 273.895C261.496 271.724 262.838 269.784 264.866 269.012C265.458 268.786 266.042 268.543 266.617 268.284C268.603 267.389 270.934 267.803 272.474 269.344L272.476 269.346C274.518 271.388 277.828 271.388 279.87 269.346L283.828 265.388C285.87 263.346 285.87 260.036 283.828 257.994L283.826 257.992C282.285 256.451 281.871 254.121 282.766 252.134C283.025 251.56 283.268 250.976 283.494 250.384C284.266 248.356 286.206 247.013 288.377 247.013C291.264 247.012 293.605 244.671 293.605 241.783ZM265.47 238.007C266.055 245.427 259.91 251.572 252.491 250.987C246.654 250.527 241.926 245.799 241.465 239.962C240.88 232.543 247.025 226.397 254.445 226.982C260.282 227.442 265.01 232.171 265.47 238.007Z" fill="#FDBF00"/>
<path d="M344.572 299.192C342.401 299.192 340.461 297.85 339.688 295.822C339.463 295.23 339.22 294.646 338.961 294.071C338.065 292.085 338.48 289.754 340.021 288.214L340.023 288.212C342.065 286.17 342.065 282.859 340.023 280.817L336.065 276.859C335.044 275.838 333.706 275.328 332.368 275.328H318.653C318.042 274.465 317.691 273.418 317.691 272.311C317.691 269.423 315.35 267.082 312.462 267.082H290.809C287.922 267.082 285.581 269.423 285.581 272.311C285.581 273.418 285.23 274.465 284.618 275.328H270.904C269.566 275.328 268.228 275.838 267.207 276.859L263.249 280.817C261.207 282.859 261.207 286.17 263.249 288.212L263.251 288.214C264.791 289.754 265.206 292.085 264.311 294.071C264.051 294.646 263.809 295.23 263.583 295.822C262.81 297.85 260.87 299.192 258.7 299.192C255.813 299.192 253.472 301.533 253.472 304.421V310.019C253.472 312.907 255.813 315.248 258.7 315.248C260.87 315.248 262.81 316.59 263.583 318.618C263.809 319.21 264.051 319.794 264.311 320.369C265.206 322.355 264.791 324.686 263.251 326.226L263.249 326.228C261.207 328.27 261.207 331.581 263.249 333.623L267.207 337.581C268.228 338.602 269.566 339.112 270.904 339.112H284.618C285.23 339.975 285.581 341.022 285.581 342.129C285.581 345.017 287.922 347.358 290.809 347.358H312.462C315.35 347.358 317.691 345.017 317.691 342.129C317.691 341.022 318.042 339.975 318.653 339.112H332.368C333.706 339.112 335.044 338.602 336.065 337.581L340.023 333.623C342.065 331.581 342.065 328.27 340.023 326.228L340.021 326.226C338.48 324.686 338.065 322.355 338.961 320.369C339.22 319.794 339.463 319.21 339.688 318.618C340.462 316.59 342.401 315.248 344.572 315.248C347.459 315.248 349.8 312.907 349.8 310.019V304.421C349.8 301.533 347.459 299.192 344.572 299.192ZM297.66 308.197C297.349 304.25 298.942 300.664 301.619 298.26C303.861 300.267 305.362 303.09 305.61 306.242C305.921 310.189 304.328 313.775 301.651 316.18C299.409 314.172 297.909 311.35 297.66 308.197Z" fill="#E64178"/>
<path d="M333.742 310.017V304.42C333.742 301.532 331.401 299.191 328.514 299.191C326.343 299.191 324.403 297.848 323.63 295.82C323.405 295.228 323.162 294.645 322.903 294.07C322.007 292.083 322.422 289.753 323.963 288.212L323.965 288.21C326.007 286.168 326.007 282.858 323.965 280.816L320.007 276.858C317.965 274.816 314.655 274.816 312.613 276.858L312.611 276.86C311.07 278.4 308.74 278.815 306.753 277.92C306.179 277.661 305.595 277.418 305.003 277.192C302.975 276.42 301.632 274.479 301.632 272.309C301.632 269.421 299.291 267.08 296.404 267.08H290.806C287.918 267.08 285.577 269.421 285.577 272.309C285.577 274.479 284.234 276.42 282.206 277.192C281.614 277.418 281.031 277.66 280.456 277.92C278.47 278.815 276.139 278.4 274.599 276.86L274.597 276.858C272.555 274.816 269.244 274.816 267.202 276.858L263.244 280.816C261.202 282.858 261.202 286.168 263.244 288.21L263.246 288.212C264.787 289.753 265.202 292.083 264.307 294.07C264.048 294.644 263.805 295.228 263.579 295.82C262.806 297.848 260.866 299.191 258.696 299.191C255.808 299.191 253.467 301.532 253.467 304.42V310.017C253.467 312.905 255.808 315.246 258.696 315.246C260.866 315.246 262.806 316.589 263.579 318.617C263.805 319.209 264.047 319.792 264.307 320.367C265.202 322.353 264.787 324.684 263.246 326.225L263.244 326.227C261.202 328.269 261.202 331.579 263.244 333.621L267.202 337.579C269.244 339.621 272.555 339.621 274.597 337.579L274.599 337.577C276.14 336.036 278.47 335.621 280.456 336.517C281.03 336.776 281.614 337.019 282.206 337.244C284.234 338.017 285.577 339.957 285.577 342.128C285.577 345.016 287.918 347.357 290.806 347.357H296.404C299.291 347.357 301.632 345.016 301.632 342.128C301.632 339.957 302.975 338.017 305.003 337.244C305.595 337.019 306.179 336.776 306.753 336.517C308.74 335.621 311.07 336.037 312.611 337.577L312.613 337.579C314.655 339.621 317.965 339.621 320.007 337.579L323.965 333.621C326.007 331.579 326.007 328.269 323.965 326.227L323.963 326.225C322.422 324.684 322.007 322.353 322.903 320.367C323.162 319.793 323.405 319.209 323.63 318.617C324.403 316.589 326.343 315.246 328.514 315.246C331.401 315.246 333.742 312.905 333.742 310.017ZM305.608 306.241C306.193 313.661 300.048 319.806 292.628 319.221C286.792 318.761 282.063 314.032 281.602 308.196C281.017 300.777 287.162 294.631 294.582 295.216C300.419 295.676 305.147 300.405 305.608 306.241Z" fill="#FF6E91"/>
<defs>
<filter id="filter0_d" x="277" y="152.548" width="365" height="307" filterUnits="userSpaceOnUse" color-interpolation-filters="sRGB">
<feFlood flood-opacity="0" result="BackgroundImageFix"/>
<feColorMatrix in="SourceAlpha" type="matrix" values="0 0 0 0 0 0 0 0 0 0 0 0 0 0 0 0 0 0 127 0"/>
<feOffset dy="4"/>
<feGaussianBlur stdDeviation="15"/>
<feColorMatrix type="matrix" values="0 0 0 0 0 0 0 0 0 0 0 0 0 0 0 0 0 0 0.5 0"/>
<feBlend mode="normal" in2="BackgroundImageFix" result="effect1_dropShadow"/>
<feBlend mode="normal" in="SourceGraphic" in2="effect1_dropShadow" result="shape"/>
</filter>
<filter id="filter1_d" x="151.594" y="0" width="364.988" height="307.048" filterUnits="userSpaceOnUse" color-interpolation-filters="sRGB">
<feFlood flood-opacity="0" result="BackgroundImageFix"/>
<feColorMatrix in="SourceAlpha" type="matrix" values="0 0 0 0 0 0 0 0 0 0 0 0 0 0 0 0 0 0 127 0"/>
<feOffset dy="4"/>
<feGaussianBlur stdDeviation="15"/>
<feColorMatrix type="matrix" values="0 0 0 0 0 0 0 0 0 0 0 0 0 0 0 0 0 0 0.5 0"/>
<feBlend mode="normal" in2="BackgroundImageFix" result="effect1_dropShadow"/>
<feBlend mode="normal" in="SourceGraphic" in2="effect1_dropShadow" result="shape"/>
</filter>
<filter id="filter2_d" x="0" y="116.548" width="466" height="393" filterUnits="userSpaceOnUse" color-interpolation-filters="sRGB">
<feFlood flood-opacity="0" result="BackgroundImageFix"/>
<feColorMatrix in="SourceAlpha" type="matrix" values="0 0 0 0 0 0 0 0 0 0 0 0 0 0 0 0 0 0 127 0"/>
<feOffset dy="4"/>
<feGaussianBlur stdDeviation="15"/>
<feColorMatrix type="matrix" values="0 0 0 0 0 0 0 0 0 0 0 0 0 0 0 0 0 0 0.5 0"/>
<feBlend mode="normal" in2="BackgroundImageFix" result="effect1_dropShadow"/>
<feBlend mode="normal" in="SourceGraphic" in2="effect1_dropShadow" result="shape"/>
</filter>
</defs>
</svg>
