<svg width="315" height="185" viewBox="0 0 315 185" fill="none" xmlns="http://www.w3.org/2000/svg">
<g filter="url(#filter0_d)">
<rect x="170" y="42" width="115" height="93" fill="#1C2124"/>
</g>
<path d="M242.221 74.5922L234.026 82.787C233.709 83.0717 233.298 83.2299 232.918 83.2299C232.507 83.2299 232.096 83.0717 231.779 82.787C231.178 82.1542 231.178 81.1415 231.779 80.5404L239.974 72.3456C240.576 71.7445 241.588 71.7445 242.221 72.3456C242.822 72.9784 242.822 73.9911 242.221 74.5922Z" fill="#727272"/>
<path d="M242.221 74.5922L237 79.8129V75.3197L239.974 72.3456C240.575 71.7445 241.588 71.7445 242.221 72.3456C242.822 72.9784 242.822 73.9911 242.221 74.5922Z" fill="#727272"/>
<path d="M227.84 84.0613C227.602 84.0613 227.361 84.0074 227.134 83.8945L220.139 80.3967C219.357 80.0057 219.04 79.0557 219.431 78.2742C219.824 77.4939 220.774 77.1754 221.554 77.5664L228.549 81.0641C229.331 81.4551 229.648 82.4052 229.257 83.1867C228.979 83.7416 228.421 84.0613 227.84 84.0613Z" fill="#97A1A5"/>
<path d="M245.86 70.9216C245.378 70.9216 244.904 70.7041 244.593 70.2884C244.068 69.59 244.21 68.598 244.91 68.0743L252.505 62.3799C253.202 61.8546 254.192 61.9934 254.719 62.6963C255.244 63.3946 255.102 64.3866 254.402 64.9103L246.807 70.6048C246.523 70.8182 246.191 70.9216 245.86 70.9216Z" fill="#727272"/>
<path d="M218.016 72.8203C215.389 72.8203 213.27 74.94 213.27 77.5664C213.27 80.1924 215.389 82.3125 218.016 82.3125C220.642 82.3125 222.762 80.1924 222.762 77.5664C222.762 74.94 220.642 72.8203 218.016 72.8203Z" fill="#D3D3D3"/>
<path d="M230.672 79.1484C228.045 79.1484 225.926 81.2681 225.926 83.8945C225.926 86.5205 228.045 88.6406 230.672 88.6406C233.298 88.6406 235.418 86.5205 235.418 83.8945C235.418 81.2681 233.298 79.1484 230.672 79.1484Z" fill="#C6E2E7"/>
<path d="M243.328 66.4922C240.702 66.4922 238.582 68.6119 238.582 71.2383C238.582 73.8643 240.702 75.9844 243.328 75.9844C245.955 75.9844 248.074 73.8643 248.074 71.2383C248.074 68.6119 245.955 66.4922 243.328 66.4922Z" fill="#FDBF00"/>
<path d="M255.984 57C253.358 57 251.238 59.1197 251.238 61.7461C251.238 64.3721 253.358 66.4922 255.984 66.4922C258.611 66.4922 260.73 64.3721 260.73 61.7461C260.73 59.1197 258.611 57 255.984 57Z" fill="#E63950"/>
<path d="M260.73 74.4023V108.722H251.238V74.4023C251.238 73.5162 251.934 72.8203 252.82 72.8203H259.148C260.035 72.8203 260.73 73.5162 260.73 74.4023Z" fill="#E63950"/>
<path d="M248.074 83.8945V108.722H238.582V83.8945C238.582 83.0083 239.278 82.3125 240.164 82.3125H246.492C247.378 82.3125 248.074 83.0083 248.074 83.8945Z" fill="#FDBF00"/>
<path d="M235.418 96.5508V108.722H225.926V96.5508C225.926 95.6646 226.622 94.9688 227.508 94.9688H233.836C234.722 94.9688 235.418 95.6646 235.418 96.5508Z" fill="#C6E2E7"/>
<path d="M222.762 90.2227V108.722H213.27V90.2227C213.27 89.3365 213.965 88.6406 214.852 88.6406H221.18C222.066 88.6406 222.762 89.3365 222.762 90.2227Z" fill="#D3D3D3"/>
<path d="M255.984 66.4922V57C258.611 57 260.73 59.1197 260.73 61.7461C260.73 64.3721 258.611 66.4922 255.984 66.4922Z" fill="#CC2E43"/>
<path d="M260.73 74.4023V108.722H255.984V72.8203H259.148C260.035 72.8203 260.73 73.5162 260.73 74.4023Z" fill="#CC2E43"/>
<path d="M243.328 75.9844V66.4922C245.955 66.4922 248.074 68.6119 248.074 71.2383C248.074 73.8643 245.955 75.9844 243.328 75.9844Z" fill="#FF9F00"/>
<path d="M248.074 83.8945V108.722H243.328V82.3125H246.492C247.378 82.3125 248.074 83.0083 248.074 83.8945Z" fill="#FF9F00"/>
<path d="M230.672 88.6406V79.1484C233.298 79.1484 235.418 81.2681 235.418 83.8945C235.418 86.5205 233.298 88.6406 230.672 88.6406Z" fill="#A8D3D8"/>
<path d="M235.418 96.5508V108.722H230.672V94.9688H233.836C234.722 94.9688 235.418 95.6646 235.418 96.5508Z" fill="#A8D3D8"/>
<path d="M218.016 82.3125V72.8203C220.642 72.8203 222.762 74.94 222.762 77.5664C222.762 80.1924 220.642 82.3125 218.016 82.3125Z" fill="#A0A9AD"/>
<path d="M222.762 90.2227V108.722H218.016V88.6406H221.18C222.066 88.6406 222.762 89.3365 222.762 90.2227Z" fill="#A0A9AD"/>
<path d="M264 109.418C264 110.304 263.304 111 262.418 111H211.582C210.696 111 210 110.304 210 109.418C210 108.532 210.696 107.836 211.582 107.836H262.418C263.304 107.836 264 108.532 264 109.418Z" fill="#465A61"/>
<path d="M264 109.418C264 110.304 263.304 111 262.418 111H237V107.836H262.418C263.304 107.836 264 108.532 264 109.418Z" fill="#3B4A51"/>
<g filter="url(#filter1_d)">
<rect x="30" y="42" width="115" height="93" fill="#1C2124"/>
</g>
<path d="M90.8438 85.6871C93.1393 85.6871 95.0001 83.8263 95.0001 81.5308C95.0001 79.2354 93.1393 77.3746 90.8438 77.3746C89.9701 77.3747 89.1177 77.6441 88.4027 78.1463C88.6166 77.3879 88.7264 76.604 88.729 75.816C88.6419 70.8456 84.5421 66.8868 79.5717 66.9738C75.611 67.0432 72.1611 69.6937 71.0738 73.503C70.1085 72.6521 68.8666 72.1815 67.5798 72.1793C64.6854 72.1543 62.3186 74.4802 62.293 77.3746C62.2954 78.0329 62.4255 78.6846 62.6761 79.2934C61.8919 78.0936 60.5544 77.3716 59.1211 77.3746C56.8256 77.3746 54.9648 79.2354 54.9648 81.5308C54.9648 83.8263 56.8256 85.6871 59.1211 85.6871" fill="#E6E6E6"/>
<path d="M63.2046 93.3069H86.7567C87.5219 93.3069 88.1421 93.9271 88.1421 94.6923V97.4631C88.1421 98.2283 87.5219 98.8486 86.7567 98.8486H63.2046C62.4394 98.8486 61.8192 98.2283 61.8192 97.4631V94.6923C61.8192 93.9272 62.4394 93.3069 63.2046 93.3069Z" fill="#3B6882"/>
<path d="M84.8517 97.4201C84.1104 97.4155 83.513 96.8107 83.5176 96.0693C83.5222 95.3279 84.1269 94.7305 84.8684 94.7351C85.6065 94.7397 86.2025 95.3393 86.2025 96.0775C86.1991 96.8209 85.5949 97.4212 84.8517 97.4201ZM84.8517 96.0347L84.8171 96.0776C84.8171 96.0984 84.8309 96.1212 84.8517 96.1212V96.0347Z" fill="#ED1C24"/>
<path d="M77.6131 96.7704H64.4516C64.0691 96.7704 63.7589 96.4603 63.7589 96.0777C63.7589 95.6952 64.0691 95.385 64.4516 95.385H77.6131C77.9956 95.385 78.3058 95.6952 78.3058 96.0777C78.3058 96.4603 77.9956 96.7704 77.6131 96.7704Z" fill="#F2F2F2"/>
<path d="M81.8904 96.7704H80.0478C79.6652 96.7704 79.3551 96.4603 79.3551 96.0777C79.3551 95.6952 79.6652 95.385 80.0478 95.385H81.8904C82.2729 95.385 82.5831 95.6952 82.5831 96.0777C82.5831 96.4603 82.273 96.7704 81.8904 96.7704Z" fill="#F8CF26"/>
<path d="M63.2046 101.619H86.7567C87.5219 101.619 88.1421 102.24 88.1421 103.005V105.776C88.1421 106.541 87.5219 107.161 86.7567 107.161H63.2046C62.4394 107.161 61.8192 106.541 61.8192 105.776V103.005C61.8192 102.24 62.4394 101.619 63.2046 101.619Z" fill="#06AAE9"/>
<path d="M84.8517 105.733C84.1104 105.728 83.513 105.123 83.5176 104.382C83.5222 103.641 84.1269 103.043 84.8684 103.048C85.6065 103.052 86.2025 103.652 86.2025 104.39C86.1991 105.134 85.5949 105.734 84.8517 105.733ZM84.8517 104.347L84.8171 104.39C84.8171 104.411 84.8309 104.434 84.8517 104.434V104.347Z" fill="#ED1C24"/>
<path d="M77.6131 105.083H64.4516C64.0691 105.083 63.7589 104.773 63.7589 104.39C63.7589 104.008 64.0691 103.698 64.4516 103.698H77.6131C77.9956 103.698 78.3058 104.008 78.3058 104.39C78.3058 104.773 77.9956 105.083 77.6131 105.083Z" fill="#F2F2F2"/>
<path d="M81.8904 105.083H80.0478C79.6652 105.083 79.3551 104.773 79.3551 104.39C79.3551 104.008 79.6652 103.698 80.0478 103.698H81.8904C82.2729 103.698 82.5831 104.008 82.5831 104.39C82.5831 104.773 82.273 105.083 81.8904 105.083Z" fill="#F8CF26"/>
<path d="M63.2046 84.9944H86.7567C87.5219 84.9944 88.1421 85.6146 88.1421 86.3798V89.1506C88.1421 89.9158 87.5219 90.5361 86.7567 90.5361H63.2046C62.4394 90.5361 61.8192 89.9158 61.8192 89.1506V86.3798C61.8192 85.6146 62.4394 84.9944 63.2046 84.9944Z" fill="#06AAE9"/>
<path d="M84.6407 89.1507C83.9861 89.1502 83.4253 88.6822 83.3079 88.0382C83.245 87.6881 83.3254 87.3275 83.531 87.0372C83.9632 86.4269 84.8085 86.2825 85.4189 86.7148C85.7081 86.9196 85.9054 87.2295 85.9686 87.5782C86.0323 87.9286 85.9519 88.2897 85.7456 88.5799C85.5392 88.8755 85.2222 89.0753 84.8665 89.1341C84.7918 89.1457 84.7163 89.1513 84.6407 89.1507ZM84.6365 87.7653L84.6054 87.82C84.6054 87.8345 84.6088 87.8491 84.64 87.8519L84.6365 87.7653Z" fill="#ED1C24"/>
<path d="M77.4744 88.4579H64.3129C63.9303 88.4579 63.6202 88.1478 63.6202 87.7652C63.6202 87.3827 63.9303 87.0725 64.3129 87.0725H77.4744C77.8569 87.0725 78.1671 87.3827 78.1671 87.7652C78.1671 88.1478 77.857 88.4579 77.4744 88.4579Z" fill="#F2F2F2"/>
<path d="M81.4477 88.4579H79.6051C79.2226 88.4579 78.9124 88.1478 78.9124 87.7652C78.9124 87.3827 79.2226 87.0725 79.6051 87.0725H81.4477C81.8303 87.0725 82.1404 87.3827 82.1404 87.7652C82.1404 88.1478 81.8304 88.4579 81.4477 88.4579Z" fill="#F8CF26"/>
<path d="M72.007 77.5773L69.9289 75.4992C69.6584 75.2288 69.2199 75.2288 68.9494 75.4992L66.8713 77.5773C66.6055 77.8525 66.6131 78.2911 66.8883 78.5568C67.1568 78.8161 67.5823 78.8161 67.8508 78.5568L68.7464 77.6611V82.2233C68.7464 82.6059 69.0566 82.916 69.4391 82.916C69.8217 82.916 70.1319 82.6059 70.1319 82.2233V77.6611L71.0275 78.5568C71.3027 78.8226 71.7413 78.8149 72.007 78.5398C72.2663 78.2713 72.2663 77.8458 72.007 77.5773Z" fill="#06AAE9"/>
<path d="M83.0903 79.6556C82.8198 79.3852 82.3813 79.3852 82.1108 79.6556L81.2151 80.5513V75.9891C81.2151 75.6065 80.905 75.2964 80.5224 75.2964C80.1399 75.2964 79.8297 75.6065 79.8297 75.9891V80.5513L78.9341 79.6556C78.6589 79.3898 78.2204 79.3974 77.9546 79.6726C77.6953 79.941 77.6953 80.3666 77.9546 80.6351L80.0327 82.7132C80.3032 82.9836 80.7417 82.9836 81.0122 82.7132L83.0903 80.6351C83.3607 80.3646 83.3607 79.9261 83.0903 79.6556Z" fill="#29485A"/>
<g filter="url(#filter2_d)">
<rect x="81" y="26" width="153" height="125" fill="#1C2124"/>
</g>
<path d="M201.716 107.53H120V68.1856C120 64.8426 122.71 62.1326 126.053 62.1326H195.663C199.006 62.1326 201.716 64.8426 201.716 68.1856V107.53Z" fill="#463C4B"/>
<path d="M195.663 107.53H120V68.1856C120 64.8426 122.71 62.1326 126.053 62.1326H189.61C192.953 62.1326 195.663 64.8426 195.663 68.1856V107.53Z" fill="#555A6E"/>
<path d="M126.053 115.096H195.662C199.005 115.096 201.715 112.386 201.715 109.043V107.53H120V109.043C120 112.386 122.71 115.096 126.053 115.096Z" fill="#A5C3DC"/>
<path d="M189.609 115.096H126.053C122.71 115.096 120 112.386 120 109.043V107.53H195.662V109.043C195.662 112.386 192.952 115.096 189.609 115.096Z" fill="#D7E6F0"/>
<path d="M151.778 115.096H165.397V121.149H151.778V115.096Z" fill="#A5C3DC"/>
<path d="M151.778 118.123H160.858V121.149H151.778V118.123Z" fill="#D7E6F0"/>
<path d="M172.964 125.689H142.699V124.176C142.699 122.504 144.054 121.149 145.725 121.149H169.937C171.609 121.149 172.964 122.504 172.964 124.176V125.689Z" fill="#D7E6F0"/>
<path d="M172.964 125.689H163.884V124.176C163.884 122.504 165.239 121.149 166.911 121.149H169.937C171.609 121.149 172.964 122.504 172.964 124.176V125.689Z" fill="#A5C3DC"/>
<path d="M136.646 94.6677C136.065 94.6677 135.484 94.446 135.041 94.0028L127.475 86.4366C126.588 85.55 126.588 84.113 127.475 83.2264L135.041 75.6601C135.927 74.7738 137.365 74.7738 138.251 75.6601C139.138 76.5467 139.138 77.9837 138.251 78.8703L132.29 84.8316L138.251 90.7928C139.138 91.6794 139.138 93.1164 138.251 94.003C137.808 94.446 137.227 94.6677 136.646 94.6677Z" fill="#D7E6F0"/>
<path d="M157.831 94.6672C157.25 94.6672 156.669 94.4455 156.226 94.0023C155.34 93.1157 155.34 91.6787 156.226 90.7921L162.187 84.8311L156.226 78.8698C155.34 77.9833 155.34 76.5462 156.226 75.6597C157.113 74.7733 158.55 74.7733 159.436 75.6597L167.003 83.2259C167.889 84.1125 167.889 85.5495 167.003 86.4361L159.436 94.0023C158.993 94.4455 158.412 94.6672 157.831 94.6672Z" fill="#D7E6F0"/>
<path d="M144.211 94.6678C143.931 94.6678 143.646 94.6156 143.369 94.505C142.205 94.0395 141.639 92.7184 142.105 91.5543L148.158 76.4219C148.623 75.2582 149.944 74.6917 151.108 75.1574C152.272 75.6229 152.838 76.9439 152.373 78.108L146.32 93.2405C145.965 94.1278 145.112 94.6678 144.211 94.6678Z" fill="#D7E6F0"/>
<path d="M190.666 59.106C189.847 59.106 189.116 58.5998 188.824 57.8352C188.739 57.612 188.648 57.392 188.55 57.1753C188.213 56.4264 188.369 55.5478 188.95 54.9669L188.951 54.9661C189.721 54.1962 189.721 52.9482 188.951 52.1783L187.458 50.6861C187.073 50.3011 186.569 50.1088 186.065 50.1088H180.894C180.663 49.7832 180.531 49.3889 180.531 48.9714C180.531 47.8826 179.648 47 178.56 47H170.396C169.307 47 168.425 47.8826 168.425 48.9714C168.425 49.3889 168.292 49.7834 168.062 50.1088H162.891C162.387 50.1088 161.882 50.3011 161.497 50.6861L160.005 52.1783C159.235 52.9482 159.235 54.1962 160.005 54.9661L160.006 54.9669C160.587 55.5478 160.743 56.4264 160.405 57.1753C160.308 57.3919 160.216 57.612 160.131 57.8352C159.84 58.5998 159.108 59.106 158.29 59.106C157.202 59.106 156.319 59.9886 156.319 61.0774V63.1878C156.319 64.2766 157.202 65.1592 158.29 65.1592C159.108 65.1592 159.84 65.6653 160.131 66.4299C160.216 66.6531 160.308 66.8731 160.405 67.0899C160.743 67.8387 160.587 68.7174 160.006 69.2983L160.005 69.299C159.235 70.0689 159.235 71.3169 160.005 72.0868L161.497 73.5791C161.882 73.964 162.387 74.1564 162.891 74.1564H168.062C168.292 74.4817 168.425 74.8763 168.425 75.2938C168.425 76.3825 169.307 77.2651 170.396 77.2651H178.559C179.648 77.2651 180.531 76.3825 180.531 75.2938C180.531 74.8763 180.663 74.4817 180.894 74.1564H186.064C186.569 74.1564 187.073 73.964 187.458 73.5791L188.95 72.0868C189.72 71.3169 189.72 70.0689 188.95 69.299L188.95 69.2983C188.369 68.7174 188.212 67.8387 188.55 67.0899C188.648 66.8733 188.739 66.6531 188.824 66.4299C189.116 65.6653 189.847 65.1592 190.665 65.1592C191.754 65.1592 192.636 64.2766 192.636 63.1878V61.0774C192.637 59.9886 191.754 59.106 190.666 59.106ZM172.979 62.501C172.862 61.0129 173.463 59.661 174.472 58.7543C175.317 59.5113 175.883 60.5753 175.976 61.764C176.094 63.2521 175.493 64.604 174.484 65.5106C173.639 64.7536 173.073 63.6896 172.979 62.501Z" fill="#D6A202"/>
<path d="M186.583 63.1876V61.0772C186.583 59.9884 185.7 59.1058 184.612 59.1058C183.793 59.1058 183.062 58.5996 182.77 57.835C182.685 57.6118 182.594 57.3919 182.496 57.1751C182.159 56.4262 182.315 55.5476 182.896 54.9667L182.897 54.9659C183.667 54.1961 183.667 52.948 182.897 52.1781L181.404 50.6859C180.635 49.916 179.386 49.916 178.617 50.6859L178.616 50.6866C178.035 51.2675 177.157 51.424 176.408 51.0863C176.191 50.9887 175.971 50.8972 175.748 50.8121C174.983 50.5208 174.477 49.7893 174.477 48.971C174.477 47.8826 173.594 47 172.506 47H170.395C169.307 47 168.424 47.8826 168.424 48.9714C168.424 49.7897 167.918 50.5211 167.153 50.8124C166.93 50.8976 166.71 50.9889 166.493 51.0867C165.744 51.4244 164.866 51.2679 164.285 50.687L164.284 50.6863C163.514 49.9164 162.266 49.9164 161.496 50.6863L160.004 52.1785C159.234 52.9484 159.234 54.1964 160.004 54.9663L160.005 54.9671C160.586 55.548 160.742 56.4266 160.405 57.1755C160.307 57.392 160.216 57.6122 160.13 57.8354C159.839 58.6 159.108 59.1062 158.289 59.1062C157.201 59.1062 156.318 59.9888 156.318 61.0776V63.188C156.318 64.2768 157.201 65.1594 158.289 65.1594C159.108 65.1594 159.839 65.6655 160.13 66.4301C160.216 66.6533 160.307 66.8733 160.405 67.0901C160.742 67.8389 160.586 68.7176 160.005 69.2985L160.004 69.2992C159.234 70.0691 159.234 71.3171 160.004 72.087L161.496 73.5793C162.266 74.3491 163.514 74.3491 164.284 73.5793L164.285 73.5785C164.866 72.9976 165.744 72.8412 166.493 73.1788C166.71 73.2764 166.93 73.368 167.153 73.4531C167.918 73.7444 168.424 74.4758 168.424 75.2941C168.424 76.3829 169.307 77.2655 170.395 77.2655H172.506C173.595 77.2655 174.477 76.3829 174.477 75.2941C174.477 74.4758 174.983 73.7444 175.748 73.4531C175.971 73.368 176.191 73.2766 176.408 73.1788C177.157 72.8412 178.035 72.9976 178.616 73.5785L178.617 73.5793C179.387 74.3491 180.635 74.3491 181.405 73.5793L182.897 72.087C183.667 71.3171 183.667 70.0691 182.897 69.2992L182.896 69.2985C182.315 68.7176 182.159 67.8389 182.496 67.0901C182.594 66.8735 182.686 66.6533 182.771 66.4301C183.062 65.6655 183.793 65.1594 184.612 65.1594C185.7 65.159 186.583 64.2764 186.583 63.1876ZM175.976 61.764C176.196 64.5612 173.879 66.8782 171.082 66.6577C168.882 66.4842 167.099 64.7014 166.925 62.501C166.705 59.7037 169.021 57.3867 171.819 57.6073C174.019 57.7808 175.802 59.5635 175.976 61.764Z" fill="#FDBF00"/>
<path d="M205.798 84.8316C204.98 84.8316 204.248 84.3254 203.957 83.5608C203.872 83.3376 203.78 83.1176 203.683 82.9009C203.345 82.152 203.501 81.2734 204.082 80.6925L204.083 80.6917C204.853 79.9218 204.853 78.6738 204.083 77.9039L202.591 76.4117C202.206 76.0267 201.701 75.8344 201.197 75.8344H196.026C195.796 75.509 195.663 75.1144 195.663 74.697C195.663 73.6082 194.781 72.7256 193.692 72.7256H185.529C184.44 72.7256 183.557 73.6082 183.557 74.697C183.557 75.1144 183.425 75.509 183.194 75.8344H178.024C177.519 75.8344 177.015 76.0267 176.63 76.4117L175.138 77.9039C174.368 78.6738 174.368 79.9218 175.138 80.6917L175.138 80.6925C175.719 81.2734 175.876 82.152 175.538 82.9009C175.44 83.1174 175.349 83.3376 175.264 83.5608C174.972 84.3254 174.241 84.8316 173.423 84.8316C172.334 84.8316 171.452 85.7142 171.452 86.803V88.9134C171.452 90.0021 172.334 90.8847 173.423 90.8847C174.241 90.8847 174.972 91.3909 175.264 92.1555C175.349 92.3787 175.44 92.5987 175.538 92.8155C175.876 93.5643 175.719 94.443 175.138 95.0239L175.138 95.0246C174.368 95.7945 174.368 97.0425 175.138 97.8124L176.63 99.3046C177.015 99.6896 177.519 99.882 178.024 99.882H183.194C183.425 100.207 183.557 100.602 183.557 101.019C183.557 102.108 184.44 102.991 185.529 102.991H193.692C194.781 102.991 195.663 102.108 195.663 101.019C195.663 100.602 195.796 100.207 196.026 99.882H201.197C201.701 99.882 202.206 99.6896 202.591 99.3046L204.083 97.8124C204.853 97.0425 204.853 95.7945 204.083 95.0246L204.082 95.0239C203.501 94.443 203.345 93.5643 203.683 92.8155C203.78 92.5989 203.872 92.3787 203.957 92.1555C204.248 91.3909 204.98 90.8847 205.798 90.8847C206.886 90.8847 207.769 90.0021 207.769 88.9134V86.803C207.769 85.7142 206.886 84.8316 205.798 84.8316ZM188.111 88.2265C187.994 86.7384 188.595 85.3866 189.604 84.4799C190.449 85.2369 191.015 86.3009 191.109 87.4896C191.226 88.9777 190.625 90.3296 189.616 91.2362C188.771 90.4792 188.205 89.4152 188.111 88.2265Z" fill="#E64178"/>
<path d="M201.715 88.9128V86.8024C201.715 85.7136 200.833 84.831 199.744 84.831C198.926 84.831 198.194 84.3248 197.903 83.5603C197.818 83.3371 197.726 83.1171 197.629 82.9003C197.291 82.1514 197.447 81.2728 198.028 80.6919L198.029 80.6912C198.799 79.9213 198.799 78.6732 198.029 77.9034L196.537 76.4111C195.767 75.6413 194.519 75.6413 193.749 76.4111L193.748 76.4119C193.167 76.9928 192.289 77.1492 191.54 76.8116C191.323 76.714 191.103 76.6224 190.88 76.5373C190.116 76.246 189.609 75.5145 189.609 74.6962C189.609 73.6075 188.727 72.7249 187.638 72.7249H185.528C184.439 72.7249 183.556 73.6075 183.556 74.6962C183.556 75.5145 183.05 76.246 182.285 76.5373C182.062 76.6224 181.842 76.7138 181.625 76.8116C180.877 77.1492 179.998 76.9928 179.417 76.4119L179.417 76.4111C178.647 75.6413 177.399 75.6413 176.629 76.4111L175.136 77.9034C174.367 78.6732 174.367 79.9213 175.136 80.6912L175.137 80.6919C175.718 81.2728 175.875 82.1514 175.537 82.9003C175.439 83.1169 175.348 83.3371 175.263 83.5603C174.971 84.3248 174.24 84.831 173.422 84.831C172.333 84.831 171.45 85.7136 171.45 86.8024V88.9128C171.45 90.0016 172.333 90.8842 173.422 90.8842C174.24 90.8842 174.971 91.3904 175.263 92.155C175.348 92.3782 175.439 92.5981 175.537 92.8149C175.875 93.5638 175.718 94.4424 175.137 95.0233L175.136 95.0241C174.367 95.7939 174.367 97.042 175.136 97.8119L176.629 99.3041C177.399 100.074 178.647 100.074 179.417 99.3041L179.417 99.3033C179.998 98.7225 180.877 98.566 181.625 98.9037C181.842 99.0013 182.062 99.0928 182.285 99.1779C183.05 99.4692 183.556 100.201 183.556 101.019C183.556 102.108 184.439 102.99 185.528 102.99H187.638C188.727 102.99 189.609 102.108 189.609 101.019C189.609 100.201 190.116 99.4692 190.88 99.1779C191.103 99.0928 191.323 99.0015 191.54 98.9037C192.289 98.566 193.168 98.7226 193.748 99.3033L193.749 99.3041C194.519 100.074 195.767 100.074 196.537 99.3041L198.029 97.8119C198.799 97.042 198.799 95.7939 198.029 95.0241L198.028 95.0233C197.447 94.4424 197.291 93.5638 197.629 92.8149C197.726 92.5983 197.818 92.3782 197.903 92.155C198.194 91.3904 198.926 90.8842 199.744 90.8842C200.833 90.8842 201.715 90.0016 201.715 88.9128ZM191.108 87.4892C191.329 90.2865 189.012 92.6034 186.215 92.3829C184.014 92.2094 182.231 90.4266 182.058 88.2262C181.837 85.4289 184.154 83.112 186.951 83.3325C189.152 83.506 190.935 85.2888 191.108 87.4892Z" fill="#FF6E91"/>
<defs>
<filter id="filter0_d" x="140" y="16" width="175" height="153" filterUnits="userSpaceOnUse" color-interpolation-filters="sRGB">
<feFlood flood-opacity="0" result="BackgroundImageFix"/>
<feColorMatrix in="SourceAlpha" type="matrix" values="0 0 0 0 0 0 0 0 0 0 0 0 0 0 0 0 0 0 127 0"/>
<feOffset dy="4"/>
<feGaussianBlur stdDeviation="15"/>
<feColorMatrix type="matrix" values="0 0 0 0 0 0 0 0 0 0 0 0 0 0 0 0 0 0 0.5 0"/>
<feBlend mode="normal" in2="BackgroundImageFix" result="effect1_dropShadow"/>
<feBlend mode="normal" in="SourceGraphic" in2="effect1_dropShadow" result="shape"/>
</filter>
<filter id="filter1_d" x="0" y="16" width="175" height="153" filterUnits="userSpaceOnUse" color-interpolation-filters="sRGB">
<feFlood flood-opacity="0" result="BackgroundImageFix"/>
<feColorMatrix in="SourceAlpha" type="matrix" values="0 0 0 0 0 0 0 0 0 0 0 0 0 0 0 0 0 0 127 0"/>
<feOffset dy="4"/>
<feGaussianBlur stdDeviation="15"/>
<feColorMatrix type="matrix" values="0 0 0 0 0 0 0 0 0 0 0 0 0 0 0 0 0 0 0.5 0"/>
<feBlend mode="normal" in2="BackgroundImageFix" result="effect1_dropShadow"/>
<feBlend mode="normal" in="SourceGraphic" in2="effect1_dropShadow" result="shape"/>
</filter>
<filter id="filter2_d" x="51" y="0" width="213" height="185" filterUnits="userSpaceOnUse" color-interpolation-filters="sRGB">
<feFlood flood-opacity="0" result="BackgroundImageFix"/>
<feColorMatrix in="SourceAlpha" type="matrix" values="0 0 0 0 0 0 0 0 0 0 0 0 0 0 0 0 0 0 127 0"/>
<feOffset dy="4"/>
<feGaussianBlur stdDeviation="15"/>
<feColorMatrix type="matrix" values="0 0 0 0 0 0 0 0 0 0 0 0 0 0 0 0 0 0 0.5 0"/>
<feBlend mode="normal" in2="BackgroundImageFix" result="effect1_dropShadow"/>
<feBlend mode="normal" in="SourceGraphic" in2="effect1_dropShadow" result="shape"/>
</filter>
</defs>
</svg>
