<svg xmlns="http://www.w3.org/2000/svg" width="1299" height="689" fill="none"><style><![CDATA[.B{stroke-miterlimit:10}]]></style><g stroke="#fff" class="B"><g stroke-width=".4"><path d="M187.008 77.178a1453.26 1453.26 0 0 1 337.495 15.789c-37.36-22.105-76.43-42.708-117.206-61.8a1435.42 1435.42 0 0 0-248.982 148.317C280.6 115.84 411.26 69.885 546.425 42.978l-25.5-35.65A1527.75 1527.75 0 0 1 705.55 37.184c-32.798 12.7-64.742 26.446-95.833 41.2a1486.71 1486.71 0 0 1 233.644 10.14 1359.48 1359.48 0 0 0-228.392 71.572 1392.02 1392.02 0 0 0-315.095 30.623c51.494-64.712 108.687-124.666 170.9-179.142m687.456 341.858c-143.2-58.324-295.5-91.054-450.008-96.705A1628.06 1628.06 0 0 1 843.36 88.549a1483.64 1483.64 0 0 1 159.82 11.59 1537.75 1537.75 0 0 0-156.144-59.173c28.476 34.842 54.82 70.4 79.034 106.67"/><path d="M551.388 273.79C471.24 199.725 376.88 133.164 269.66 78.236a1532 1532 0 0 1 627.832-7.243 1469.27 1469.27 0 0 0-149.459 8.691 1404.97 1404.97 0 0 1 299.727 175.998 1349.21 1349.21 0 0 0-90.623-137.495 1412.13 1412.13 0 0 0-234.412 18.077c160.254 47.28 307.525 121.577 435.495 217.18-69.27-77.263-147.16-146.318-232.15-205.8-111.864 12.556-221.658 39.414-326.7 79.917-15.136-40.328-31.8-80.37-49.994-120.128-167.372 60.998-314 151.054-433.733 259.898"/><path d="M722.798 136.264C882.342 211.922 1018.56 314.3 1126.6 432.4m164.1 93.088a1267.94 1267.94 0 0 0-87.83-186.297 1647.74 1647.74 0 0 1-2.3 74.615c-44.46-86.285-98.32-167.372-160.62-241.777l-18.8 27.377c94.87 74.36 179.3 161.17 251.02 258.088-32.1-4.945-63.86-8.523-95.3-10.734-5.04-31-11.26-62.1-18.66-93.33"/><path d="M1040.03 172.03l10.13-69.82a1382.54 1382.54 0 0 1 181.4 253.278 1387.73 1387.73 0 0 0-191.53-183.458c49.1 43.032 95.1 89.503 137.64 139.06 30.68 57.476 56.9 117.226 78.46 178.722"/><path d="M1000.14 105.845a1392.25 1392.25 0 0 1 231.42 249.642M520.914 7.33a1549.74 1549.74 0 0 1 326.151 33.62l-3.676 47.6c-44.634-19.208-90.57-36.33-137.8-51.365 86.07 19.572 170.257 46.677 251.588 81.003-48.567-4.223-97.315-5.998-146.06-5.317C940.28 205.26 1046.1 314.783 1126.62 432.4a1331.59 1331.59 0 0 0-111.13-285.899c-37.676-26.74-77-51.9-117.998-75.484m-251.645 32.22c55.214.1 110.38 3.307 165.23 9.632-41.122 19.458-81.2 41.036-120.1 64.65-14.15-24.983-29.195-49.743-45.13-74.28zm-102.143 37.025c33.156-13.52 67.203-25.843 102.143-36.967a1417.86 1417.86 0 0 0-195.039 39.299c-98.517 2.075-196.548 14.455-292.493 36.938 110.645-51.43 227.323-88.7 347.276-110.93a1458.41 1458.41 0 0 0-155.102-21.192c93.19-13.276 187.41-17.878 281.45-13.747 35.268 7.996 69.996 17.2 104.183 27.6a1371.61 1371.61 0 0 0-59.746 25.219c-16.4-13.2-33.222-26.137-50.47-38.778l-10.9 112.45M98.192 83.45c-21.3 36.533-40.786 73.432-58.43 110.697 56.797-42.3 116.58-80.43 178.876-114.087-36.782 6.992-73.44 15.403-109.97 25.234m326.73-99.036c-45.6 12.7-90.25 27.387-133.977 44.065-36.657.676-73.5 2.733-110.564 6.17"/><path d="M158.315 179.474a1432.78 1432.78 0 0 0-55.232 158.848c15.965-28.7 33.237-57.068 51.817-85.073-37.36-21.63-75.788-41.354-115.137-59.1C112.875 148.887 189.8 110.1 269.66 78.265a1402.54 1402.54 0 0 0-111.418 101.238l-30.676-41.616c19.882-27.57 40.98-54.702 63.3-81.394 21.946.203 43.743.893 65.4 2.07a1503.75 1503.75 0 0 0-214.153 99.602A1503.99 1503.99 0 0 1 251.905 45.861c51.5-7.55 103.33-12.458 155.32-14.703M8.682 484.538c146.464-135.424 331.244-238.315 540.8-292.896-156.336 21.913-307.5 71.585-446.4 146.68m529-65.522c87.976-51.77 186.66-94.518 294.056-125.155a1298.77 1298.77 0 0 1 159.112 207.331 1342.54 1342.54 0 0 0-394.233-177.447"/></g><g stroke-width=".5"><path d="M130.648 84.885l-14.57-1.217"/><path d="M136.35 90.013l-24.454 6.996-2.098 8.488 26.552-15.484-14.18-.362 8.48-4.766-18.695 3.78 4.124-4.998L79.7 98.53l-23.152 4.476-4.6 8.344 30.17-19.15 40-16.5a1564.22 1564.22 0 0 1 52.092-16.151l-5.44 5.1-26.22 1.593-20.5 9.46-21.705 5.562m-18.93 45.3a1348.44 1348.44 0 0 0-36.681 23.176l14.7-.173 1.172-14.34 20.808-8.604 11.026-12.43"/><path d="M58.66 163.178l-20.446 32.288c13.12-7.725 26.37-15.267 39.75-22.626l-34.9 1.594 15.6-11.256-7.654-2.317 8.45-11.342-23.036 16.92 1.852 6.2-11.576 8.692"/><path d="M97.454 154.3c-20.152 13.288-39.898 27-59.24 41.167m33.326-6.852l6.425-15.775-30.95 24.104a1421.76 1421.76 0 0 1 54.277-21.207l7.437-12.24a1391.17 1391.17 0 0 0-37.187 25.118zm55.693-50.15a1450.4 1450.4 0 0 1 47.114-21.916l15.165-.797 14.194-20.28c-12.328 10.7-24.386 21.535-36.174 32.535l6.222 2.795"/><path d="M229.477 88.115a1491.09 1491.09 0 0 1 76.473-26.393l-36.94 2.042-1.07 15.065c-12.85 2.897-25.67 5.992-38.46 9.285l-24.512 20.613 20.258-11.59c-17.103 6.133-34.076 12.564-50.92 19.295"/><path d="M305.95 61.78l-11.43 8.865-25.5-6.823c27-6.248 54.194-11.753 81.552-16.513l-12.184 6.65-36.45-3.737 31.616-11.37-27.594 22.93zm43.8-3.273l-9.464-2.462-8.146 4.824 19.997-5.244m-183.36 9.023a1507.92 1507.92 0 0 1 72.523-17.73L220 54.393l-27.955 1.13"/><path d="M219.942 54.393a1524.92 1524.92 0 0 1 55.245-6.967l9.26-8.517-29.055 15.5-2.735-8.937m22.588 1.953l36.985-14.848-10.346.45 3.372 5.794 28.086-9.155m1.938-2l21.43-5.562-3.965 4.172-14.282-2.332"/><path d="M353.064 25.58l21.256-.362-6.265 3.477-1.056-7M335.816 34.1l27.363-2.36-16.22 4.65 11-6.823m12.054-14.387l20.04-2.1-18.74 3.984 20.04-5.432 26.58-4.983-1.88 2.202-14.08-.666m-1.588 4.36l18.8.116 33.7-7.112a1524.83 1524.83 0 0 1 69.455 1.87L506.82 1.94l-1.824 9.1m-85.863 1.6l23.427 2-17.77 5.36 6.8 6.953-25.655 2.55"/><path d="M410.032 23.988l21.56 2.984 10.13-12.255-18.8 1.45m46.938-3.912l8.002 5.244 14.962-3.288-22.964-1.956zm-364.77 177.52L92.925 202.4l14.745-4.65-16.5-1.826m42.46-9.008l-5.7 17.136-20.388 8.27a1414.6 1414.6 0 0 1 49.5-36.214"/><path d="M127.928 203.998l29.65 10.75A1395.35 1395.35 0 0 0 74.346 244.5c17.45-13.83 35.31-27.33 53.582-40.502z"/><path d="M107.54 212.313c-15.927 20.695-31.125 41.65-45.595 62.867l28.737-26.32-16.336-4.346"/><path d="M59.95 261.346l30.734-12.443a1347.79 1347.79 0 0 0-31.212 47.643l26.856-16.716-9.058 24.973L100.42 287.1l.593 52.988-26.407-22.843c8.422-10.14 17.026-20.188 25.815-30.145l-14.123-7.242 4.34-30.927"/><path d="M50.905 358.268c16.013-16.416 32.562-32.48 49.646-48.193"/><path d="M93.2 333.15c-18.444 18.9-36.15 38.203-53.12 57.94L74.04 377 54.7 354.4l-.188 53.596a1142.74 1142.74 0 0 0-38.113 36.46m-4.707 40.212l22.804 23.394-23.253 24.075c11.576-20.897 23.9-41.592 36.942-62.085a1171.23 1171.23 0 0 0-40.704 45.644l21.17 21.352a840.17 840.17 0 0 1 26.046 3.288"/><path d="M31.834 555l13.34-23.264m20.288-103.503c3.164-16.948 6.67-33.92 10.52-50.916a1210.19 1210.19 0 0 1 36.869-8.083c-9.762 12.245-19.25 24.6-28.462 37.04a1141.13 1141.13 0 0 1 26.581-50.177 1408.5 1408.5 0 0 1 50.008-22.207"/><path d="M119.23 364.874c15.782-14.418 32.027-28.508 48.735-42.27M156.593 181.82a1343.08 1343.08 0 0 1 61.41-6.953 1391.74 1391.74 0 0 0-58.936 19.063 1387.74 1387.74 0 0 1 47.75-27.87"/><path d="M184.33 178.866c12.377 4.83 24.594 9.855 36.652 15.08l-2.98-19.077M235 194.163l15.136 16.02 16.698-19.208 19.9 18.83 12.46-18"/><path d="M250.126 210.184l15.4 15.76c-22.004 10.72-43.612 21.98-64.825 33.78a1379.22 1379.22 0 0 1 50.645-12.313c4.823-18.83 9.96-37.662 15.4-56.493m-66.396 69.82l-11.14 35.127a1289.9 1289.9 0 0 1 61.612-48.323 1305.94 1305.94 0 0 0-147.462 91.432M549.203 192.15l4.63 80.337c7.467-20.077 15.276-40.077 23.427-60-13.4 1.023-26.784 2.264-40.125 3.723a1258.55 1258.55 0 0 1 45.638-27.972l-33.614-9.835 17.364-31.448-27.203 8.227c13.505 7.06 26.793 14.302 39.864 21.73"/><path d="M577.26 212.487a1178.97 1178.97 0 0 0-32.456 25.045c18.492 17.49 36.233 35.354 53.22 53.596-13.746-3.63-27.608-7.04-41.586-10.226 28.94-9.136 58.477-17.267 88.613-24.394l-2.373-51.945a1286.34 1286.34 0 0 1 54.219 1.145c-10.12-11.183-20.495-22.255-31.125-33.215l9.42 49.64 17.928-27.913"/><path d="M598.024 291.114c8.258-9.85 16.708-19.618 25.35-29.304 11.576-10.16 23.45-20.154 35.625-29.985l-14.933-26.552 31.125 16.847m63.67-68.82l-23.5-1.955 32.818-14.486-9.32 16.383-16.06-16.73-17.943 30.622c-13.1 1.584-26.123 3.356-39.07 5.316"/><path d="M699.646 121.967l15.714 29.348 8.682 8.7c-36.175-1.333-72.248-1.265-108.22.203m-49.342-13.253l-21.068-20.44a1397.28 1397.28 0 0 0-77.298 14.847 1384.21 1384.21 0 0 0-26.74-34.113l-2.822 24.77c8.537-15.306 17.37-30.535 26.494-45.687a1458.79 1458.79 0 0 1 57.88 6.403 1470.17 1470.17 0 0 0-81.596 7.141c31.15-12.148 62.958-23.278 95.43-33.4a1412.1 1412.1 0 0 0-50.876 12.066c28.94-3.544 57.98-6.238 87.123-8.083l-36.247-3.984c37.477 10.72 74.07 22.82 109.782 36.3"/><path d="M468.114 141.363l-29.78-7.9c24.714.126 49.337.898 73.868 2.318-27.888-6.036-56.167-11.236-84.836-15.6m118.046 6.345l-33.18 9.256"/><path d="M438.7 108.148c22.544-13.355 45.652-26.2 69.325-38.56-24.213 20.714-47.447 42.003-69.7 63.866m263.843-21.177a1480.77 1480.77 0 0 1 71.293 11.356l.7-14.065a1442.57 1442.57 0 0 0-56.722 18.425l23.398-26.436 7.105 27.045M498.1 63.852l28.75-9.72 4.34 6.866-25.004-7.547 9.68 11.588a1467.7 1467.7 0 0 1 59.326-28.058v14.485l-17.132-10.43 39.314-4.056m-14.24-7.604l26.653-2.767-34.163-1.45 33.96 6.127-6.932-11.85a1552.06 1552.06 0 0 1 52.786.29l-24.888 2.897-4.934-6.533 29.316 6.214m51.412 15.474l12.546-11.1a1521.72 1521.72 0 0 1 48.126 8.85 1537.53 1537.53 0 0 0-97.382-8.112l36.7 10.37c15.068-2.492 30.228-4.76 45.48-6.808-34.95-1.275-69.802-1.347-104.56-.217m127.085 3.932l35.205-2.897-16.987 19.526c39.666.888 79.487 3.356 119.463 7.402-45.62-10.12-91.512-18.13-137.68-24.03zm227.83 50.612a1550.88 1550.88 0 0 1 44.5 24.03L1029 93.965"/><path d="M870.245 55a1546.59 1546.59 0 0 0-106.57-26.204 1541.65 1541.65 0 0 1 84.026 13.225l-36.478-10.038c19.9 7.28 39.575 14.954 59.022 23.017zm0 0l7.554-6.692c42.6 15.393 84.248 32.578 124.97 51.554l-.6-14.558a1608.56 1608.56 0 0 0-66.03-14.485l-22.993-12.544a1538.18 1538.18 0 0 1 162.422 58.666l-13.02-9.575-9.2 5.9 18.23 6.65-21.4-18m3.122 11.408l13.8 16.166 8.24-1.3-20.06-8.46 30.88 21.337"/><path d="M1075.33 128.2l3.05 9.315m-6.86-17.532l4.05-2.984-28.94-7.663m-21.17 6.808l-25.38 17.542c-14.033-5.4-28.15-10.574-42.35-15.557a1498.11 1498.11 0 0 1 75.03 4.809l1.88 13.24c-11.04-10.198-22.3-20.26-33.78-30.188l19 32.97 12.78 5.1 18.98 14.6-14.66-8.546 10.85 3.07"/><path d="M1043.6 136.004a1495.71 1495.71 0 0 0-42.75-30.014m32.98 29.478a1497.2 1497.2 0 0 0-74.87-16.717 1398.57 1398.57 0 0 1 44 52.785l12.2-26.073a1344.22 1344.22 0 0 0-50.774 28.971 1411.67 1411.67 0 0 1 43.064 10.516v18.324l12.6-3.288"/><path d="M1035.27 179.6l-19.5-32.186 25.3 24.886m-155.37-.257c-12.357-13.964-25.105-27.768-38.244-41.413a1304.18 1304.18 0 0 1 37.506 24.2l-20.142 1.014 21.256 11.082-28.52-18.238c17.615-1.448 35.345-2.568 53.2-3.36a1478 1478 0 0 0-99.581-31.941 1468.67 1468.67 0 0 1 204.615 34.027"/><path d="M1071.82 164.38l20.93 8.14-12.37-9.9.08 9.488a259.2 259.2 0 0 1 7.51-5.605m-186.947-15.077a1438.99 1438.99 0 0 0-53.539-20.786 1331.83 1331.83 0 0 1 46.029-6.939 1469.19 1469.19 0 0 0-124.586-21.207 1418.53 1418.53 0 0 1 74.91-13.572c-35.625-.25-71 .797-106.093 3.143m244.758 94.908l25.008-2.085a1509 1509 0 0 0-83.278-37.59 1484.75 1484.75 0 0 1 78.728 24.248l31.5-12.037m-62.087 47.28l13.834 14.644 1.33-6.475-13.63-3.505a1428.23 1428.23 0 0 1 41.373 27.97l2.9 15.007 8.45-4.563-19.75-11.08 3.96-4.26m192.9 106.006a1317.13 1317.13 0 0 0-38.93-29.246c16.6 9.135 33 18.623 49.2 28.463l8.9 21.004 8.3-4.447-30.5-5.794a1312.39 1312.39 0 0 0-21.3-37.054m66.08 71.834l-6.78-15.47-15.68-9.068M575.9 29.203a1480.35 1480.35 0 0 1 49.733-13.153m461.917 342.682c20.68 26.846 40 54.15 57.97 81.915a1255.15 1255.15 0 0 0-48.81-48.048 1271.59 1271.59 0 0 1 81.27 53.596 1272.23 1272.23 0 0 1 95.5 85.131 1171.26 1171.26 0 0 0-51.3-14.877 1205.12 1205.12 0 0 1 66.79-18.251c-20.83-34.36-43.53-68.063-68.1-101.1a1442.21 1442.21 0 0 1 39.59 41.907 1341.89 1341.89 0 0 0-128.45-87.246l-24.32 77.67c-.42-24.567-1.42-49.236-3-74.006a1213.45 1213.45 0 0 1 39.17 43.456 1249.04 1249.04 0 0 1 124.8 153.04"/><path d="M1132.02 351.75a1353.42 1353.42 0 0 1 64.72 28.102c-7.52-10.16-15.24-20.246-23.15-30.26a1258.2 1258.2 0 0 1 26.9 64.27c13.66-2.703 27.45-5.185 41.38-7.445L1219.9 382.3c25.75 45.246 48.67 92.047 68.63 140.132M1050.5 244.137l-2.07 11.24 28.13 12.907-34.16-21.366 33.45-3.97-12.07-4.62 21.04 27.435-16.6 3.593M913.148 58.333l-15.916 12.935a1525.65 1525.65 0 0 1 104.918 14.036 1322.01 1322.01 0 0 1 30.39 24.089"/></g><g fill="#fff"><path d="M39.242 159.76l.347-.666c23.895-11.734 48.078-22.8 72.552-33.23l-3.805-20.207c25.988-10.372 52.245-20.03 78.773-28.97l3.82-20.28a1537.74 1537.74 0 0 0-78.962 32.332l-13.154-5.62 1.23-.666 12.893 5.5a1545.07 1545.07 0 0 1 79.309-32.375l-3.92 21.134-.724.246a1518.17 1518.17 0 0 0-77.804 28.55l3.878 20.18c-25.12 10.7-49.93 22.05-74.433 34.084z"/><path d="M127.566 138.133l-15.483-12.066c24.628-17.238 49.912-33.81 75.85-49.714l28.405 4.346a1469.47 1469.47 0 0 1 40.197-22.351l.723.087C243.3 65.91 229.52 73.58 215.9 81.45l-28.375-4.346c-25.226 15.45-49.825 31.573-73.797 48.367l14.832 11.5c24.116-14.67 48.783-28.705 74-42.11l23.817 1.695-1.114.695-23.152-1.637c-25.37 13.5-50.215 27.672-74.534 42.515z"/><path d="M187.963 76.816l-.492-.174c21.377-10.922 43.082-21.366 65.115-31.332l.506.174c-22.052 9.956-43.762 20.4-65.13 31.332zm81.797 1.767l-1.172.16a1472.3 1472.3 0 0 1 32.89-28.971 1436.99 1436.99 0 0 1 49.733-2.897l-.65.507a1587.68 1587.68 0 0 0-48.633 2.897 1279.19 1279.19 0 0 0-32.167 28.305zm137.754-46.89l-.506-.26a1467.65 1467.65 0 0 1 60.932-19.02L434.558 6.62l.825-.348 34.467 5.9a1595.13 1595.13 0 0 0-62.336 19.512z"/><path d="M468.823 12.515l.072-.362c17.76-1.873 35.553-3.438 53.38-4.693v.348a1579.23 1579.23 0 0 0-53.451 4.708zM38.215 195.466l-1.157.305c24.05-23.97 49.13-47.266 75.243-69.893l1.086-.217c-26.075 22.568-51.132 45.837-75.17 69.805zm23.73 79.714l-.087-.84c30.618-21.1 62.205-41.033 94.763-59.796l-1.68-32.868 1.592-.8 1.808 33.476-.766.45c-32.847 18.88-64.724 39-95.632 60.4zm93.432-21.44l.232-1.057c46.664-23.143 94.608-43.605 143.598-61.288v.855a1369.85 1369.85 0 0 0-143.83 61.49zm84.04 11.604c-13.235-1.622-26.576-3.032-40.024-4.23l1.317-1.448c13.428 1.207 26.765 2.617 40 4.23l-1.302 1.448z"/><path d="M11.012 484.45l-1.447.145a1210.49 1210.49 0 0 1 91.478-144.55L73 318.433c26.133-22.568 53.34-44.243 81.625-65.025l2.04-38.864.78-.435c27.26-14.987 55.116-29.115 83.564-42.384-29.654 26.074-57.764 53.046-84.33 80.916a1307.86 1307.86 0 0 1 44.857 7.242l-1.187.855c-33.936 24.77-66.252 50.844-96.948 78.22l15.917 25.9-1.866 1.724-15.657-25.683A1207.57 1207.57 0 0 0 11.012 484.45zm64.492-167.104l27.217 20.917c30.377-27.04 62.322-52.804 95.834-77.294a1212.01 1212.01 0 0 0-43.409-7.026c-27.55 20.27-54.098 41.404-79.642 63.403zM158.3 214.384l-1.867 37.214c25.352-26.5 52.12-52.235 80.308-77.18a1414.5 1414.5 0 0 0-78.441 39.965zm280.57-106.15l-.087-.608a1455.22 1455.22 0 0 1 83.361-15.253l-15.917-23.872 1.274-.246 16.336 24.466a1446.83 1446.83 0 0 0-84.967 15.514z"/><path d="M523.157 92.823l-.29-.55a1457.22 1457.22 0 0 1 85.01-13.486l.376.536c-28.61 3.68-56.977 8.18-85.097 13.5z"/><path d="M615.6 160.542c-24.116-7.185-48.618-13.737-73.506-19.657v-.246l6.077-32.998-25.235-14.6c-24.3 15.876-47.81 32.346-70.555 49.4l-1.158-.275c23.152-17.315 47.085-34.04 71.8-50.178l26.046 14.992c19.293-9.86 38.992-19.328 59.095-28.406 13.168 7.938 26.113 16.05 38.837 24.335a1389.96 1389.96 0 0 1 76.618 33.751c-36.657 6.46-72.6 14.307-107.83 23.54l-.19.333zm-71.93-20.193c23.99 5.727 47.654 12.043 70.99 18.947 9.955-18.715 20.263-37.333 30.922-55.856-32.094.387-64.087 1.835-95.978 4.346l-5.933 32.563zm103.213-36.662a1787.59 1787.59 0 0 0-30.546 55.45c34.217-8.894 69.094-16.51 104.632-22.844-24.174-11.482-48.87-22.34-74.086-32.577v-.03zm-38.88-24.22c-19.448 8.807-38.538 17.98-57.272 27.522a1471.96 1471.96 0 0 1 94.488-4.215l-37.216-23.278v-.03z"/><path d="M647.033 103.354l-1.1-.406 22.515-12.863 1.085.406-22.5 12.864zM552.748 273.34l-1.36-.7c15.3-14.804 31.134-29.328 47.475-43.572-15.955-12.554-32.354-24.784-49.197-36.7l.65-.348c20.78-11.202 42.06-21.917 63.84-32.143-21.116-17.875-43.048-35.258-65.794-52.148l1.23-.405c23.036 17.034 45.223 34.6 66.56 52.698l-.507.246c-21.733 10.198-42.956 20.893-63.667 32.085a1240.44 1240.44 0 0 1 49.198 36.62 1186.34 1186.34 0 0 0-48.43 44.37z"/><path d="M550.852 192.83l-.173-.94a1360.94 1360.94 0 0 1 137.724-14.326 1367.43 1367.43 0 0 0-73.565-17.224l.564-.782c26.586 5.456 52.873 11.666 78.86 18.628l-2.764.13c-47.1 2.4-94.045 7.254-140.647 14.514z"/><path d="M631.276 272.906c-10.4-14.785-21.2-29.45-32.37-43.993l.506-.304c29.287-18.03 59.74-35.064 91.363-51.104l1.1.724c-31.4 15.934-61.7 32.896-90.87 50.887a1288.07 1288.07 0 0 1 31.834 43.152l-1.563.638zm-17.653-214.34l-1.115-.232 13.877-10.14c-26.547-2.376-53.196-4.05-79.946-5.026l8.566 9.502-1.2.203-9.203-10.24a1476.82 1476.82 0 0 1 83.607 5.258l-14.585 10.676z"/><path d="M682.514 53.35h-.406c-18.444-2.057-36.94-3.78-55.492-5.17l5.44-14.92c24.975.898 49.916 2.42 74.824 4.563l-.434.26-23.933 15.268zm-54.523-5.533c17.972 1.362 35.914 3.037 53.828 5.026l23.152-14.775c-23.933-2.01-47.89-3.457-71.872-4.346l-5.108 14.094z"/><path d="M737.08 61.317l-31.66-23.32-10.75-12.153h1.07l10.606 11.965a1537.21 1537.21 0 0 1 86.588 13.153 1428.64 1428.64 0 0 0-55.854 10.357zm-30.126-23.032L737.34 60.62c17.364-3.563 34.916-6.827 52.656-9.792a1535.57 1535.57 0 0 0-83.043-12.544z"/><path d="M747.382 80.48l-.3-.565c31.226 1.65 62.462 4.283 93.707 7.895-34.15-10.082-68.722-18.957-103.72-26.624l.26-.435c36.87 8.083 73.285 17.508 109.247 28.276-33.06-3.97-66.127-6.818-99.205-8.546z"/><path d="M811.165 113.377c-20.914-11.414-42.247-22.37-64-32.867a1459.46 1459.46 0 0 0-70.193 7.025l-.536-.565c23.45-2.897 47.085-5.253 70.902-7.07 21.522 10.362 42.63 21.177 63.32 32.447l32.11-23.886h-.29l.477-.16c-16.88-12.728-34.178-25.16-51.89-37.3a1435.14 1435.14 0 0 0-39.56-20.28l.78-.16 39.213 20.02a1450.72 1450.72 0 0 1 56.086-9.242c16.9 9.657 33.53 19.58 49.89 29.768l1 .232-.463.145c20.904 15.326 41.234 31.08 61 47.266a1506.73 1506.73 0 0 0-114.847-29.985c-11.2 8.083-22.187 16.286-32.99 24.6zm33.773-24.943A1506.92 1506.92 0 0 1 956.5 117.491c-19.168-15.654-38.9-30.926-59.167-45.817-17.702 5.273-35.167 10.86-52.395 16.76zm-52.38-37.17c17.42 11.955 34.452 24.196 51.093 36.72 17.248-5.88 34.727-11.463 52.438-16.745a1517.23 1517.23 0 0 0-103.531-19.976zm54.985-9.372c-18.328 2.685-36.536 5.688-54.624 9 34.583 5.495 68.944 12.105 103.084 19.83-15.87-9.86-32.003-19.473-48.402-28.84h-.058z"/><path d="M925.028 147.505l-.738-.565c-26.046-20.28-53.056-39.767-81.03-58.463l.883-.13c27.734 18.522 54.512 37.81 80.336 57.87l32.86-28.565c19.795 9.357 39.33 19.125 58.6 29.304l-.2.434a1507.66 1507.66 0 0 0-57.58-28.826l-33.122 28.942z"/><path d="M958.25 118.534l-1.056-.666c13.9-4.307 27.926-8.406 42.107-12.298a1504.12 1504.12 0 0 0-103.619-34.519 1482.38 1482.38 0 0 1 65.88-.275l.377.26c14.064 9.53 27.902 19.26 41.5 29.188a1325.03 1325.03 0 0 1 46.19 1.448l.86.638c-15.72-.725-31.37-1.208-46.96-1.45l-.42-.32a1468.93 1468.93 0 0 0-41.541-29.217 1463.63 1463.63 0 0 0-62.814.217c34.63 10.227 68.833 21.66 102.605 34.302l-.53.16c-14.34 3.93-28.534 8.107-42.6 12.53zm61.73 81.38c-31.526-19.053-63.953-36.966-97.282-53.74 39.55 7.03 78.982 15.722 118.302 26.074l.58.8c-38.1-10.1-76.37-18.6-114.8-25.523 31.988 16.195 63.156 33.46 93.5 51.8l-.3.58zm27.92 56.233l-1.04-1.202 21-.478-12.33-17.528 1.2.232 13.03 18.483a580.66 580.66 0 0 0-21.87.493z"/><path d="M1083.1 265.083l-14.47-9.734.2-.7 14.47 9.72-.2.724zm44.1 169.8l-1.6-1.738 17.28-34.012a1299.76 1299.76 0 0 0-57.15-41.052v-1.246a1303.86 1303.86 0 0 1 57.58 41.313l16.47-44.108c14.72 20.096 28.7 40.433 41.96 61.012a1228.24 1228.24 0 0 0-57.13-14.775s0 .13-.07.188l-17.35 34.418zm33.6-78.02l-15.55 42.008a1275.26 1275.26 0 0 1 54 13.935c-12.23-18.86-25.05-37.508-38.46-55.943h.01z"/><path d="M1242.63 537.395l-1.58-2.13 14.58-45.644c-17.13-25.282-35.34-50.095-54.63-74.44l-22.42 34.504a1224.54 1224.54 0 0 0-35.07-50.134l.94-.377c11.57 15.683 22.67 31.525 33.28 47.527l22.28-34.055c20.26 25.504 39.4 51.53 57.4 78.076l-14.78 46.672z"/><path d="M1178.5 449.136l-.63-1.94c26.34 12.92 52.34 26.827 78 41.718l14.47-29.753a1324.86 1324.86 0 0 0-71.26-45.456l16.68-16.716 1.45 1.71-15.27 15.37c24 14.302 47.57 29.396 70.73 45.282l-15.48 32.027c-25.9-15.094-52.13-29.174-78.7-42.24z"/><path d="M1290.17 525.474a1291.48 1291.48 0 0 0-33.58-34.533v-1.594a1320.87 1320.87 0 0 1 33.57 34.432l.01 1.695zM706.6 256.957l-1.447-.8a1112.72 1112.72 0 0 1 22.69-21.844l-14.47-13.124 1.245-.536 15.222 13.834-23.24 22.48z"/><path d="M729.4 234.867l-1.157-.956 19.346-10.386 1.172.912-19.36 10.43zm472.93 117l-1.45-1.347 2.1-10.386-24.77-28.03.75-.202 25.63 28.97-2.27 10.995z"/><path d="M1204.02 341.2l-.56-1.333c9.64 5.167 19.2 10.478 28.66 15.934l.6 1.376-28.7-15.977zM117.5 124.4c-2.088 1.9-4.555 3.312-7.235 4.172-2.547.767-3.43.144-1.954-1.45a19.27 19.27 0 0 1 7.235-4.157c2.503-.7 3.4-.087 1.954 1.434zm90.2-30.36a15.91 15.91 0 0 1-6.83 3.462c-2.546.594-3.588 0-2.33-1.333 1.953-1.696 4.294-2.885 6.815-3.462s3.574.014 2.344 1.333zm-74.462 42.007c-2.108 2.008-4.654 3.496-7.437 4.346-2.648.782-3.6.087-2.113-1.55 2.103-2.007 4.645-3.495 7.423-4.346 2.62-.74 3.574-.03 2.127 1.55zM42.6 193.86a23.15 23.15 0 0 1-8.132 5.605c-2.75 1.03-3.545.174-1.794-1.912a22.46 22.46 0 0 1 8.103-5.562c2.72-1.03 3.545-.246 1.823 1.87zm120.446 19a17.73 17.73 0 0 1-8.42 5.794c-3.097.898-4.34-.246-2.706-2.535 2.186-2.68 5.1-4.658 8.407-5.693 3.067-.927 4.283.2 2.72 2.434zm141.877-22.033c-1.216 2.07-4.775 4.215-7.958 4.794s-4.747-.652-3.502-2.752 4.8-4.2 7.944-4.75 4.73.652 3.516 2.7zm-143.18 60.55a18.09 18.09 0 0 1-8.841 6.533c-3.256.97-4.544-.4-2.894-3.042a17.8 17.8 0 0 1 8.826-6.475c3.227-.927 4.53.4 2.9 2.984zm-81.06 63.562a21.98 21.98 0 0 1-9.449 8.199c-3.343 1.274-4.53-.348-2.633-3.622a21.23 21.23 0 0 1 9.42-8.112c3.328-1.245 4.457.334 2.662 3.535zM204.6 258.884a16.45 16.45 0 0 1-8.87 6.533c-3.27.87-4.717-.58-3.27-3.318a16.25 16.25 0 0 1 8.841-6.489c3.37-.913 4.833.536 3.3 3.274zm-96.066 78.25a20.87 20.87 0 0 1-9.608 8.691c-3.473 1.3-4.804-.55-2.894-4.085a20.26 20.26 0 0 1 9.579-8.56c3.328-1.3 4.674.492 2.923 3.954zm14.962 26.64c-2.116 4.098-5.553 7.36-9.753 9.256-3.6 1.304-5.036-.768-3.212-4.606 2.094-4.08 5.528-7.313 9.723-9.155 3.574-1.26 5.02.753 3.242 4.505zM15.613 481.742c-1.982 5.128-6.526 10.82-10.13 12.675s-5.064-.854-3.082-6.055 6.526-10.72 10.13-12.515 5.02.84 3.082 5.895zm229.405-218.237a15.19 15.19 0 0 1-8.84 6.475c-3.415.8-5.007-.783-3.516-3.578a14.93 14.93 0 0 1 8.797-6.403c3.4-.797 4.992.768 3.56 3.506zm-.708-91.635a14.78 14.78 0 0 1-7.857 4.678c-3.024.667-4.34-.362-3-2.303a14.7 14.7 0 0 1 7.843-4.649c2.995-.652 4.34.362 3.024 2.274zm283.65-79.192c-.52 1.26-3.212 2.303-6.005 2.347s-4.6-.956-4.066-2.216 3.227-2.3 6-2.318 4.587.956 4.08 2.187zM457.334 142c-.767 1.637-3.864 3.128-6.902 3.317s-4.877-.97-4.08-2.608 3.864-3.114 6.873-3.302 4.862.97 4.1 2.593zm97.7-34.5c-.463 1.347-3.17 2.42-6.048 2.404s-4.8-1.115-4.34-2.462 3.183-2.42 6.034-2.405 4.818 1.116 4.355 2.463zm65.722 53.032c-.333 1.724-3.14 2.984-6.265 2.8s-5.383-1.68-5.036-3.404 3.17-2.897 6.266-2.796 5.3 1.68 5.035 3.4zM606.2 229.304c-.42 2.318-3.575 4.085-7.033 3.926s-5.9-2.144-5.44-4.476 3.588-4.04 7.017-3.897 5.86 2.144 5.456 4.447zm128.752 5.968c0 2.3-2.82 3.767-6.222 3.3s-6.092-2.738-6.02-5.027 2.894-3.723 6.222-3.245 6.135 2.68 6.02 4.983zm-14.89-13.572c-.087 2.187-2.894 3.607-6.208 3.172s-6-2.55-5.9-4.737 2.894-3.563 6.222-3.13 5.947 2.52 5.875 4.694zm-7.67 35.692c-.13 2.52-3.068 4.2-6.584 3.766s-6.222-2.897-6.063-5.36 3.082-4.157 6.57-3.723 6.193 2.8 6.078 5.317zm41.803-32.477c0 2.202-2.662 3.55-6.005 3.042s-6.02-2.7-6.02-4.896 2.7-3.505 6.005-2.998 6 2.68 6.02 4.852zm-115.614 48.15c-.362 2.723-3.574 4.737-7.235 4.476s-6.25-2.665-5.86-5.4 3.588-4.693 7.235-4.432 6.207 2.65 5.86 5.345zm58.457-94.56c-.115 1.825-2.792 3.027-5.96 2.68s-5.63-2.1-5.47-3.926 2.822-2.998 5.962-2.65 5.6 2.086 5.47 3.897zM558.666 273.05c-.593 2.78-4.037 5-7.683 4.982s-6.107-2.303-5.47-5.084 4.037-4.954 7.655-4.925 6.077 2.3 5.498 5.027zm-2.272-80.65c-.55 2.014-3.66 3.636-6.96 3.607s-5.527-1.666-4.963-3.68 3.676-3.607 6.946-3.593 5.498 1.666 4.977 3.665zm-7.046-51.732c-.507 1.593-3.4 2.897-6.454 2.897s-5.093-1.304-4.543-2.897 3.414-2.897 6.44-2.897 5.064 1.318 4.558 2.897zm102.258-37.503c-.203 1.275-2.648 2.144-5.47 1.956s-4.905-1.45-4.673-2.68 2.7-2.144 5.47-1.94 4.9 1.4 4.674 2.665zm30.922-14.89c-.13 1.16-2.416 1.898-5.122 1.65s-4.8-1.448-4.645-2.564 2.43-1.898 5.122-1.637 4.76 1.4 4.645 2.55zm70.338-7.402c0 1.086-1.997 1.68-4.602 1.304s-4.73-1.535-4.775-2.622 2.026-1.666 4.616-1.304 4.717 1.593 4.76 2.622zm-65.708-27.667c-.1.94-2.2 1.52-4.688 1.3s-4.428-1.188-4.34-2.144 2.214-1.45 4.688-1.275 4.5 1.188 4.34 2.13zm-55.332-4.998c-.232.927-2.43 1.58-4.935 1.45s-4.34-1.014-4.08-1.956 2.445-1.564 4.934-1.45 4.298 1.03 4.08 1.956zm-72.494 4.187c-.405.985-2.793 1.753-5.354 1.738s-4.34-.84-3.835-1.825 2.808-1.753 5.34-1.724 4.24.84 3.85 1.8zm78.208-18.498c-.202.84-2.315 1.45-4.717 1.275s-4.182-.956-3.965-1.796 2.344-1.448 4.732-1.275 4.153.97 3.95 1.796zm-87.527 8.98c-.42.927-2.764 1.666-5.267 1.666s-4.153-.768-3.72-1.695 2.793-1.666 5.267-1.666 4.14.768 3.72 1.695zm191.71 18.96c0 .97-1.968 1.45-4.47 1.173s-4.53-1.376-4.544-2.36 1.983-1.45 4.472-1.16 4.514 1.376 4.543 2.347zm-31.5-23.423c0 .855-1.997 1.333-4.34 1.072s-4.34-1.16-4.225-2 2.026-1.333 4.34-1.072 4.27 1.144 4.225 2zM795.84 51.9c.16.898-1.65 1.304-4.022.913s-4.413-1.45-4.544-2.332 1.664-1.3 4.023-.898 4.37 1.463 4.543 2.318zm52.527 37.953c.3 1.1-1.534 1.58-4.066 1.057s-4.8-1.84-5.05-2.897 1.563-1.564 4.066-1.057 4.775 1.796 5.05 2.897zm53.103-17.57c.376.97-1.2 1.304-3.53.74s-4.53-1.782-4.905-2.752 1.216-1.3 3.545-.74 4.5 1.796 4.9 2.752zm103.07 34.664c.6 1.115-.78 1.448-3.1.695a10.64 10.64 0 0 1-5.307-3.36c-.58-1.1.8-1.45 3.125-.68 2.062.546 3.902 1.714 5.282 3.346zm49.54-3.564c.68 1.072-.53 1.304-2.72.536a11.88 11.88 0 0 1-5.19-3.302c-.67-1.043.56-1.3 2.73-.522a11.85 11.85 0 0 1 5.18 3.288zm-91.836 16.05c.55 1.232-1.027 1.637-3.516.913s-4.934-2.3-5.47-3.506 1.07-1.622 3.53-.912 4.9 2.274 5.455 3.505zm58.056 29.188c.68 1.45-.8 1.826-3.33.97-2.5-.855-5.1-2.65-5.78-4.027-.7-1.376.82-1.796 3.32-.97s5.1 2.636 5.8 4.026zm-54.713-76.44c.507.927-.868 1.188-3.082.55a9.42 9.42 0 0 1-4.89-2.8c-.492-.927.897-1.173 3.097-.55 1.876.4 3.58 1.393 4.876 2.8zm42.263 29.6c.6 1.087-.75 1.376-3.04.652a10.71 10.71 0 0 1-5.233-3.274c-.594-1.072.783-1.362 3.053-.637a10.47 10.47 0 0 1 5.22 3.259zM756.122 30.723c0 .797-1.75 1.188-4.037.87s-4.182-1.217-4.24-2 1.765-1.173 4.037-.87 4.167 1.217 4.24 2zm95.964 11.82c.274.8-1.317 1.115-3.56.666s-4.254-1.45-4.515-2.303 1.36-1.115 3.574-.666 4.24 1.52 4.5 2.303zm-152.7-16.296c0 .797-1.982 1.246-4.34 1.014s-4.123-1.057-4.05-1.854 2-1.23 4.34-1 4.1 1.057 4.05 1.84zM617.703 58.68c-.26 1-2.56 1.7-5.137 1.593s-4.34-1.028-4.138-2.042 2.6-1.7 5.137-1.58 4.413 1.043 4.138 2.028zm110.39 78.54c0 1.448-2.417 2.4-5.354 2.013s-5.296-1.87-5.238-3.36 2.43-2.36 5.353-2 5.253 1.87 5.24 3.347zm87.686-23.437c.217 1.275-1.8 1.898-4.515 1.45s-5.064-1.94-5.252-3.216 1.837-1.87 4.53-1.376 5.035 1.883 5.238 3.143zm114.906 35.402c.492 1.45-1.303 2.028-4.008 1.3s-5.296-2.506-5.788-3.955 1.33-2.013 4.022-1.3 5.282 2.506 5.774 3.954zM1046 174.477c.76 1.55-.73 2.042-3.32 1.115a12.06 12.06 0 0 1-6.02-4.49c-.74-1.52.76-2.013 3.33-1.086 2.42.813 4.53 2.375 6 4.46zm-20.74 26.623c.72 1.782-.9 2.42-3.67 1.45s-5.6-3.202-6.3-4.954c-.73-1.753.95-2.376 3.7-1.45 2.73.927 5.5 3.144 6.3 4.954zm27.54 56.784c.8 2.202-.9 3.07-3.86 1.912s-6-3.867-6.8-6.055.96-3.012 3.88-1.883 5.92 3.824 6.77 6.026zm37.23 9.72c.9 2.245-.7 3.085-3.6 1.854a14.05 14.05 0 0 1-6.84-6.258c-.88-2.2.74-3.013 3.62-1.8a14.01 14.01 0 0 1 6.83 6.214zm-28.77-28.61c.83 2.043-.8 2.796-3.66 1.68a12.95 12.95 0 0 1-6.63-5.68c-.8-2.013.84-2.738 3.68-1.65a12.88 12.88 0 0 1 6.61 5.649zm11.44 17.238c.87 2.173-.78 2.984-3.67 1.796-2.9-1.16-5.28-3.285-6.77-6-.83-2.144.82-2.898 3.7-1.782a13.29 13.29 0 0 1 6.75 5.997zm134.65 99.037c1.17 2.897-.23 3.9-3.13 2.303-3.17-1.906-5.7-4.7-7.32-8.04-1.14-2.796.28-3.8 3.14-2.246 3.17 1.882 5.7 4.66 7.3 7.982zm-42.65 2.448c1.07 2.97-.52 4.114-3.53 2.55-3.28-1.846-5.87-4.708-7.38-8.155-1.05-2.897.54-4.012 3.55-2.477a17.22 17.22 0 0 1 7.36 8.083zm-15.07 44.238c1 3.448-.77 4.882-3.95 3.202a17.45 17.45 0 0 1-7.58-9.199c-.97-3.36.8-4.75 3.98-3.114 3.5 2.047 6.2 5.276 7.55 9.1z"/><path d="M1183.9 451.12c1.05 3.882-.73 5.533-3.96 3.65-3.66-2.473-6.36-6.12-7.67-10.342-1-3.795.75-5.4 3.96-3.564a18.98 18.98 0 0 1 7.67 10.256zm-51.33-13.906c.9 3.853-1.04 5.563-4.34 3.8a17.36 17.36 0 0 1-7.64-10.068c-.9-3.75 1.05-5.417 4.34-3.708 3.7 2.24 6.44 5.8 7.64 9.966zm-41.27-78.034c.88 3.1-1 4.433-4.23 2.897-3.42-1.698-6.07-4.64-7.4-8.228-.87-3.042 1.02-4.345 4.22-2.897 3.43 1.688 6.08 4.635 7.4 8.228zm146.2.2c1.23 2.897 0 3.853-2.9 2.217a20.21 20.21 0 0 1-7.23-8.07c-1.2-2.795.1-3.752 2.9-2.144a19.81 19.81 0 0 1 7.23 7.996zm-16.52 42.282c1.17 3.303-.3 4.55-3.3 2.796-3.35-2.207-5.97-5.37-7.52-9.082-1.16-3.23.32-4.433 3.3-2.724a19.88 19.88 0 0 1 7.51 9.01zm-14.88 15.456c1.13 3.477-.45 4.853-3.52 3.07a19.74 19.74 0 0 1-7.59-9.488c-1.12-3.404.46-4.737 3.53-2.984 3.46 2.246 6.12 5.54 7.58 9.4zm55.74 75.788c1.17 4.157-.37 5.794-3.47 3.737a23.17 23.17 0 0 1-7.68-11.21c-1.16-4.056.4-5.68 3.45-3.636 3.64 2.83 6.33 6.706 7.7 11.1zm-14.47 46.296c1.04 4.707-.72 6.72-3.92 4.505s-6.63-7.823-7.67-12.458.73-6.547 3.92-4.346c3.2 2.202 6.65 7.65 7.67 12.3zm48.27-10.546c1.2 4.447-.3 6.258-3.35 4.013s-6.5-7.634-7.67-12.023c-1.2-4.4.3-6.084 3.34-3.897s6.48 7.504 7.68 11.907zm-17.42-66.246c1.26 3.795-.13 5.243-3.1 3.244-3.46-2.688-6.1-6.3-7.62-10.4-1.25-3.708.14-5.113 3.1-3.158a22.81 22.81 0 0 1 7.62 10.314zm-94.6-147.776c1.12 2.535-.27 3.418-3.1 1.955a17.55 17.55 0 0 1-7.1-7.242c-1.1-2.477.3-3.332 3.1-1.913 3.02 1.646 5.48 4.152 7.07 7.2zm25.25 28.7c1.16 2.752-.2 3.723-3.05 2.158a18.89 18.89 0 0 1-7.24-7.764c-1.14-2.694.24-3.636 3.06-2.1 3.1 1.8 5.62 4.487 7.23 7.706zM612.928 79.28c-.3 1.13-2.72 1.956-5.412 1.84s-4.63-1.144-4.34-2.274 2.735-1.94 5.412-1.825 4.63 1.13 4.34 2.26zm-169.066 28.506c-.752 1.45-3.675 2.68-6.54 2.897s-4.53-.753-3.762-2.144 3.704-2.665 6.526-2.897 4.53.768 3.776 2.144zM511.364 68.7c-.535 1.1-3.125 2.042-5.788 2.1s-4.34-.768-3.776-1.883 3.125-2.028 5.788-2.086 4.297.768 3.776 1.87zM156 183.72c-3.3 1.7-6.1 2.042-6.207.724s2.416-3.766 5.686-5.46 6.034-1.984 6.194-.695-2.388 3.65-5.673 5.432zm-94.156 94.386c-3.66 2.448-6.613 2.897-6.57 1.072s3.04-5.316 6.685-7.72 6.57-2.897 6.54-1.057-2.995 5.258-6.656 7.706zM45.884 157.1a22.91 22.91 0 0 1-7.626 4.882c-2.576.94-3.314.246-1.664-1.536a22.42 22.42 0 0 1 7.597-4.838c2.547-.87 3.314-.246 1.693 1.492zm67.704-53.278a19.43 19.43 0 0 1-6.916 3.824c-2.43.738-3.256.188-1.838-1.203a19.35 19.35 0 0 1 6.902-3.853c2.417-.666 3.24-.13 1.852 1.232zm78.47-28.132a16.55 16.55 0 0 1-6.54 3.216c-2.417.58-3.372.072-2.142-1.144a16.29 16.29 0 0 1 6.526-3.201c2.402-.565 3.357-.058 2.156 1.13zm64.84-31.04c-1.785 1.335-3.856 2.233-6.05 2.622-2.315.45-3.342 0-2.3-1.014a13.93 13.93 0 0 1 6.034-2.607c2.287-.45 3.328.03 2.316 1zm4.066 13.195c-1.84 1.417-4.004 2.358-6.295 2.738-2.402.463-3.473 0-2.402-1.144a14.04 14.04 0 0 1 6.237-2.767c2.416-.435 3.5.1 2.46 1.173zm94.314-11.342c-1.7 1.353-3.777 2.174-5.947 2.36-2.446.32-3.704-.246-2.894-1.246a11.12 11.12 0 0 1 5.933-2.361c2.474-.304 3.762.26 2.908 1.246zM439.275 6.23c-.607.753-2.894 1.45-5.15 1.637s-3.53-.333-2.894-1.086a8.98 8.98 0 0 1 5.137-1.637c2.2-.145 3.516.406 2.908 1.086zm-217.35 73.715a15.5 15.5 0 0 1-6.613 3.201c-2.474.565-3.516 0-2.33-1.23a15.26 15.26 0 0 1 6.598-3.2c2.46-.536 3.516.014 2.344 1.23zm8.146 15.73a15.27 15.27 0 0 1-6.858 3.448c-2.576.565-3.7-.072-2.475-1.45a15.17 15.17 0 0 1 6.845-3.42c2.575-.52 3.7.1 2.488 1.42zm43.656-17.89a13.71 13.71 0 0 1-6.555 3.042c-2.532.478-3.704-.13-2.604-1.347 1.862-1.6 4.124-2.636 6.54-3.028 2.518-.463 3.7.072 2.62 1.333zm32.2-28.277a12.44 12.44 0 0 1-6.078 2.549c-2.402.4-3.56-.13-2.6-1.16a12.51 12.51 0 0 1 6.063-2.549c2.388-.377 3.56.145 2.605 1.16zm105.818-18.57c-.695.884-3.198 1.782-5.586 2s-3.718-.348-2.995-1.246 3.212-1.796 5.586-2 3.704.348 2.995 1.246zm113.5-23.408c-.434.74-2.62 1.362-4.9 1.45s-3.733-.536-3.284-1.275 2.633-1.362 4.876-1.45 3.675.536 3.3 1.275zm-52.09 4.388c-.536.768-2.894 1.45-5.123 1.593s-3.675-.435-3.1-1.202 2.894-1.45 5.123-1.593 3.675.435 3.1 1.202zM116.178 87.434a19.91 19.91 0 0 1-6.67 3.578c-2.33.695-3.126.217-1.766-1.072a19.26 19.26 0 0 1 6.642-3.52c2.33-.7 3.126-.246 1.794 1.014zM195.72 55.06c-1.85 1.4-3.97 2.375-6.222 2.897-2.286.536-3.198.1-2.04-.97a16.18 16.18 0 0 1 6.207-2.897c2.272-.52 3.126-.087 2.055.97zm-92.478 26.797c-1.914 1.56-4.103 2.75-6.453 3.505-2.344.768-3.24.406-2-.797 1.9-1.568 4.08-2.758 6.425-3.505 2.33-.74 3.24-.4 2.04.797zm72.698 66.82l-13.5 3.593-5.136 1.043-3.1.87 1.968-2.36c-.65-.6-1.433-1.06-2.287-1.313a5.68 5.68 0 0 0-2.633-.136l-1.78.493-5.585 1.448-2.287.652-2.763 1.666-5.947 1.68c-.13 0-1.288 0-.637-.94.92-1 2.02-1.795 3.24-2.376l7.582-4.128 18.985-5.215 7.1-.275 2.17 1.564 6.874-1.188-.333 2.637-1.9 2.288zm-17.624 3.042l.578-.16 5.123-1.028 10.592-2.825.4-.464c0-.52.087-1.057.116-1.578l-6.367 1.13-2.344-1.723-6.367.318-17.48 4.853-6.54 3.592a7.49 7.49 0 0 0-.898.55l4.066-1.174 2.764-1.65 3.415-.985 6.396-1.666-.782.884 1.693-1.144c1.147-.345 2.365-.373 3.526-.082a6.65 6.65 0 0 1 3.073 1.733l.13.145-1.085 1.274zm16.147-13.268l-7.06 1.854 2.6-4.013 3.516-2 .304-.97 2.112-2.448 11.04-3.216-2.04 3.8-4.34 1.564-1.75 1.217-4.37 4.2zm-3.415-.362l2.474-.638 3.372-3.2 3.038-2.1 2.894-1.014.7-1.32-6.207 1.753-.753.87-.26 1.362-3.98 2.26a62.95 62.95 0 0 1-1.288 2.028zm14.08-1.478l-6.396 1.622 3.705-4.186 6.164-1.55-3.473 4.114zm-2.315-.666l.998-.246.8-.97-.94.246-.868.97z"/><path d="M183.926 139.277l-7.48 1.913 2.706-3.187 7.438-1.883-2.663 3.157zm.204 3.42L177.212 144l-1.114-.783 4.023-2.65 7.234-1.753-3.226 3.882zm-4.34-.565l3.212-.608.4-.464-3.213.782-.405.276.015.014zm-21.04 16.37l-13.515 3.78 4.124-4.983 13.413-3.708-4.022 4.9zm-9.333 1.245l8.03-2.245 1.187-1.448-8.002 2.216-1.215 1.477zm28.157-6.315l-1.563-.102-11.706 3.115 2.98-3.65 7.973-2.115 3.472-3.186 15.15-4.085 5.3.4-2.894 3.056-9.637 3.535-4.544 1.448-4.543 1.594zm-9.13.55l9.608-2.535 1.36.102 3.53-1.232 4.428-1.448 7.437-2.738.666-.695-3.53-.26-12.37 3.346-3.53 3.332-7.423 1.955-.174.174zm40.8-7.706l-5.528 1.3-6.28.522 2.488-3.897 9.8-2.23-1.447 1.84 3.603-.855-2.648 3.332zm-3.66-.478l2.243-.565-2.373.565h.13zm-4.6.362l3.4-.275 1.346-1.68-4.08.927-.665 1.028zm24.22 50.134l-.7.087c-.13 0-3.444.435-4.862-.724l-.55-.45 10.723-6.997.766.174c.13 0 2.894.68.87 3.752l-.3.42-5.947 3.737zm-1.78-2.245a6.79 6.79 0 0 0 2.287.232l2.894-1.84c.463-.898.173-1.45-.16-1.68l-5.02 3.288zm9.94 2.26a4.6 4.6 0 0 1-4.094-.725l-.52-.434 1.288-.898c2.182-1.6 4.633-2.774 7.235-3.5 1.592-.232 2.416.246 2.445 1.448v.32l-.434.42a14.67 14.67 0 0 1-4.948 3.042l-.97.32zm-.347-2.26a2.62 2.62 0 0 0 1.982.116c.525-.193 1.014-.472 1.447-.826a.6.6 0 0 0-.095-.234.61.61 0 0 0-.42-.262c-.084-.012-.17-.006-.252.018a10.39 10.39 0 0 0-2.706 1.188h.044zM52.844 112.16l-.7-.507 3.212-2.608.955-.318a11.5 11.5 0 0 1 2.142-.435l.58-.087-1.925 1.825-2.43 1.072-1.823 1.058z"/><path d="M60.3 108.83l-4.052 1.304 1.62-1.74 3.66-1.854h1.708l-2.243 1.695-.695.594zm56.53-15.978l-8.305 2.506 3.588-3.433 5.37-1.564c-.275.797-.434 1.637-.652 2.492zm-4.702.492l2.387-.695.16-.666-1.62.478-.926.884z"/><path d="M111.895 97l-6.164 1.84 1.288-2.245 4.254-2.3 3.777-.333L111.895 97zm-3.1 0l2.142-.637.9-.884-1.6.145-.97.522-.492.855zm105.658 64.75l-8.957 2.13 1.187-1.564-.926-.696 2.546-3.346 2.6-1.448 1.346-1.753 3.458-1.898 1.303-1.52 2.228-1.26 1.187-1.55-.174-.753h-3.458l2.56-3.274 9.535-2.158-.376 1.767-1.172 2.188.94.65-2.822 3.3-3.458 1.1-1.447 1.94-2.315 1.333-1.737.58-1.1 1.448-1.88 1.087-.724 1.448 4.153-.97-2.5 3.23zm-5.3-1.536l.506.362 1.23-2.42 2.228-1.303-2.532 1.448-1.432 1.912zm9.984-8.474l-1.346 1.55-1.997 1.1 2.446-.883 1.722-2.246-.825.478zm1.33-5.475h2.735l.362 1.448-2.07 2.68-.347.203 2.75-.87 1.028-1.188-.8-.565 1.447-2.578.13-.667-4.833 1.087-.4.45z"/><path d="M229.304 154.125l-7.886 1.782 3.7-4.867 7.83-1.753-3.632 4.838zm-3.763-.594l2.23-.492 1.07-1.45-2.23.507-1.07 1.434zm-8.493-6.69l-3.893.912-1.345-.956 1.75-2.737 4.34-1 1.722-1.535 6.8-1.536-3.53 3.84-2.75.768-3.096 2.245zm-1.447-1.03l1.07-.246.16-.116-.912-.594-.622.145-.26.42.565.4zm4.847-3.143l-1.027.913.188-.13 1.924-.536.58-.623-1.664.377z"/><path d="M230.23 142.522l-7.54 1.695 3.502-4.476 7.48-1.65-3.443 4.432zm-3.502-.565l1.997-.45.955-1.202-1.997.434-.955 1.217zm-8.465 1.1l-3.733.855-2.503-.203 2.98-3.737 6.96-1.58-3.704 4.664zm-1.794-.927l.347-.087 1.13-1.448-1.447.347-.868 1.087.84.1zm109.58-79.945l1.635-1.912 17.682-7.243 4.92-.637-1.592 1.898-1.664.68.492.217 2.547-.16h2.5l1.027 1.637-2.532 2.028-4.804.608-20.2 2.883zm3.7-1.8l-.333.377 20.547-2.897.912-.74-.65-1.057h-1.5l-3.14.217-1.94-.884 3.024-1.246.4-.464-1.52.203-1.722.695-14.08 5.794z"/><path d="M42.715 551.2L28 558.646l2.04-6.997c-2.966 1.45-5.933 3.042-8.884 4.592l4.8-16.02-8.84 4.548.84-2.737-7.727 3.97-1.838-4.346.564-5.794-3.85 2.013-3.79-7.69 4.442-13.037-2.503-4.998 2.706-7.6-5.093-10.125L8.9 484.38l4.254-10.893-1.172-2.23 3.7-9.17-4.095-7.663 1.765-4.172-1.26-2.332 5.21-11.95-1.534-2.78 8.45-18.483 5.354-5.664 7.683-15.978-1.563-2.592 6.005-12.023 1.33-6.81 16.843-31.476c-.304-.45-.622-.884-.94-1.333l5.354-9.546 5.527-4.882 5.267-10.922.767-5.113-1.65-2.42s.897-7.605-15.266-7.938l-.318-.145c0-.116-1.447-2.825 2.084-11.588-1.288-.522-5.513-2.897-.318-10.82 0 0 6.106-13.037-1.693-12.53h-.752l3.11-4.505c-.535-.203-1.13-.753-.362-2.216.875-1.424 1.974-2.696 3.256-3.766l8.42-7.417-1.447-1.71 4.95-6.78c9.613-8.835 19.85-16.963 30.633-24.32l8-10.604-.68-.637 4.558-5.925c-.8-.16-3.038-.275-6.757 2.057l-2.735 3.55-6.627 2.086-4.602.39-7.54 1.74-4.167-4.056 3.024-3.825-1.896-1.8 2.56-3.202-1.158-1.086-8.754 2.897-5.773.073-3.878-3.752-4.066 1.448-4.978 3.36-8.392 2.897c-5.6 0-23.34-.13-19.636-4.476l2.576-3.013 4.34-2.897 2.518-3.245c.203-1.94.1-6.417-2.532-6.243h-.564l2.633-2.912-.492-4.07 6.425-8.43-1.042-.942c-.244.09-.477.206-.694.348-.424.28-.813.61-1.158.985l-2.228 2.448a25.87 25.87 0 0 1-3.603 7.518l-5.962 6.706.926 1.116-1.852 4.737-7.235 2.694-2.185-2.26 3.314-3.766-1.577-1.68 6.15-6.852 1.664-1.1.26-3.1 6.396-7.07s1.23-2-3.126-2.303h-.304l9.65-13.312 2.735-2.897 5.166-4.693 8.566-5.186 4.688-3.795L78.2 123.2l7.973-5.33 6.425-4.433 6.497-2.013 4.167-2.332 3.357-1.753.68-.753-1.837.55-3.864 2.71-5.484 1.68-2.07-1.434 4.08-3.462 4.037-1.23 8.06-7.837 6.15-3.317.448-2.448 3.27-1.753-1.2-.7-5.44 1.115-2.2-1.318-7.047 2.07-5.788.826-5.687 2.202-6.25 2.897-9.507 3.013-11.388 5.258.448.32-2.894 2.708-4.34 1.724-2.344 1.347-7.61 2.593 1.9-1.825-.26.087-21.314 10.24-9.52 3.824 3.024-2.897.984-.45 23.152-10.82.463-.435c-1.26.3-3.3.797-4.34 1.144l-.854.3 1.997-2.825 6.063-2.897 5.296-4.925 20.605-7.88 2.995-1.65c-2.224.314-4.42.798-6.57 1.448l-1.186.377 4.095-3.52.912-.362c3.473-1.376 14.238-5.432 16.742-5.59l4.732-2.202-.68-.406 2.055-1.87 11.272-4.07 15.47-6.142 8.407-2.433 7.046-2.463 10.433-3.158 7.814-.913 7.727-1.956 8.465-1.45 7.235-1 9.043-1.87 14.282-4.462 5.643-1.246 5.426-1.738 7.076-.855 9.26-1.71 6.468.246 1.447.652 10.852-2.13.955.42 5.05-2.158 12.068-2.202 6.077-.188 9.55-2.404.246.1 1.563-1.55.608-.217c2.793-1 8.682-2.607 10.75-1.71l.463.188-2.055.84.333.13 2.894-1.188.854-.87-1.23-.492 10.433-3.433 5.817-.797-2.735 2.78c0 .145.347.637 3.718.145l1.115-.174-1.75 1.825.825-.13 8.783-3.433 11.33-1.086-1.722 1.825-9.81 3.8-11.648 1.695-1.577.637c1.93-.306 3.903-.197 5.788.32l.202.087-2.82 2.998-4.602.68-1.606-.522-2.764.42-2.228.74-4.92 1.043 2.475-2.564 2.373-.956c0-.246 0-.608-1.317-.406l-1.722.26-1.693 1.753-6.338 1.55-1.447.608-5.918 1.043-5.08 2.13-6.453 1.622-1.274 1.29-3.603.637c-5.048 1.556-9.988 3.443-14.788 5.65l.145.072v.087s-1.447 2.607 2.214 2.723a68.8 68.8 0 0 1 9.998.246l8.465-1.52-.723.608c-2.56 2.182-5.317 4.12-8.234 5.794l1.635.782 1.288-.232 5.08-2.26 4.182-2.897c.535-.565 3.04-2.434 14.6-5.345a26.34 26.34 0 0 0 6.367-2.897l3.024-3.216.637-.217s3.472-1.275 10.606-4.78l.217-.1 5.224-2.1 10.215-1.45c.435 0 8.2-.81 7.8 1.217v.13l-2.72 2.723 1.375.594 12.082-3.983 5.672-.7-2.184 2.477.217 1.767c-.507.565-1 1.144-1.447 1.724l.71 2.303 6.598-.188-.666 2.68-9.232 3.708-6.222.81-4.456 1.347-1.447.203-5.18 1.45-2.59.362-5.513.898-11.098 1.666-2.75.753-.753.84 7.93-1.217-4.544 3.172-6.193 2.68c-.145.3-.087.666 1.447.42l11.865-1.81-1.924 2.245-.463.203a57.27 57.27 0 0 1-13.226 3.491 56.6 56.6 0 0 0-8.681 3.158l-.492.565-7.785 1.318 1.866-2.115 6.25-2.376-.173-.087c-10.433 3.056-22.255 6.924-24.208 7.895l-2.3 2.593-12.343 3.868-12.646 5.794-5.702 1.173-5.107 3.172-2.648 2.897-2.373-1.347-.362.188-5.02 5.606-12.227 6.3-4.804 1.115-8.508 4.505-6.57 2.29-4.66 2.36-7.134 5.07-1.678 4.027-5.788 6.678-3.24 2.694a20.35 20.35 0 0 1-5.788 2.477c-1.795.3-2.258-.492-1.447-2.4l.13-.217 6.584-7.518-2.04-1.376-7.654 1.723-3.444-.115-4.08 1.13-9.522 5.46-7.365 2.115-5.542-.42-11.995 5.794-9.68 4.694-6.743 5.026-7.1 6.678-6.12 4.577-6.468 7.446-1.852 3.36 3.082 2.42a28.93 28.93 0 0 0 9.087-2.999l13.022-8.344 5.904-4.794 12.893-3.955c.593.464 1.186.927 1.765 1.45l-5.89 5.23-8.6 6.823-6.222 3.97-1.1 2.303-1.447 1.738 2.43-.478 4.905-3.158 9.58-2.52 1.81 1.55a168.7 168.7 0 0 0-5.224 5.345l-8.103 10.14v3.693l5.296-.71 14.788-4.55h3.125l4.34-2.23 6.903-6.185.65-.318c2.98-1.5 6.066-2.758 9.23-3.796l9.97-6.214 7.235-1.955-3.53 4.505-4.34 2.723-2.78 3.447.926.783.84-.536 2.662-4.13 6.44-3.983 8.9-2.4 2.185 1.767 18.594-3.636 4.24-.898 2.706-1.622 6.93-1.666c-.71.927-1.447 1.854-2.098 2.795l11.258 8.547 14.02-3.2 6.96 1.144-1.1 6.895 3.082 2.376-5.093 5.026 4.978-1.1.738 3.42 10.953-3.13 4.906 1.782-.55 3.534 18.897-3.766 9.174-.218 4.978 3.854h9.376l-.217 6.04-5.28 9.198-7.148 4.838-5.57 3.535-3.444 3.476-10.52 6.852-4.442 4.346-9.145 16.513-4.05 2.825-2.735 6.678-4.47 3.186-2.258 6.23-12.024 11.125-17.046 6.75-7.915 3.78-8.247 5.07-8.494 6.735-7.944 15.485-10.534 8.836-5.455 11.415c-9.097 9.53-18.006 19.16-26.726 28.884l-18.536 8.112-1.997-2.897-.145.116c-.654.68-1.192 1.462-1.59 2.317l1.678 6.9-6.323 14.036-6.338 6.36-16.365 6.345a27.38 27.38 0 0 0-4.558 5.983c-.362.796-.405 1.36-.145 1.767l.246.405-4.428 10.372-.724.797a24.44 24.44 0 0 1-6.83 5.446c-1.765.724-3.183.695-4.052-.32a5.24 5.24 0 0 0-1.201.754c-.097 1.286.256 2.566.998 3.62l.087.608-1.158 8.243-3.328 8-3.907 6.33-8.537 12.21 3.053 5.46-4.225 16.615c-3.86 5.794-7.616 11.627-11.272 17.5l-2.17 6.446c.724 1.448 1.447 2.752 2.156 4.128l-1.895 5.794 5.788 3.795 8.118.97 8.175 4.46 1.635 7.243L45.35 547.4c-.912 1.362-1.78 2.58-2.633 3.8zm-9.275-.39l9.434-4.708 2.6-3.62 8.16-3.97-7.235-3.665-8.2-1.014-7.235-4.722 2.156-6.693-2.055-4.084 3.43-10.213 10.968-17.035 3.415-13.428-3.617-6.562 10.968-15.702 3.357-5.46 2.518-6.272.883-6.808a7.09 7.09 0 0 1-1.013-4.194c.106-1.47.668-2.87 1.606-4.005 1.54-2.232 3.726-3.936 6.265-4.882l.637-.202.217.362c.103.184.242.345.4.474a1.56 1.56 0 0 0 .563.275 1.55 1.55 0 0 0 .625.032c.21-.032.408-.105.588-.216 1.113-.575 2.125-1.33 2.995-2.23l2.966-6.924a5.96 5.96 0 0 1 .68-3.998c2.01-4.433 7.235-9.56 7.74-10.14l.738-.7 16.25-6.272 3.212-3.2 5.065-11.212-1.664-6.967.29-.594a18.51 18.51 0 0 1 4.602-6.345 8.32 8.32 0 0 1 3.733-2.1l.463-.073 1.88 2.637 14.99-6.52 24.135-26 5.673-11.806 10.563-8.865 7.973-15.47 10.606-8.358 9.058-5.52 8.29-3.926 15.67-6.2 9.68-8.937 2.43-6.562 4.53-3.245 2.764-6.663 4.34-2.97 9.16-16.252 5.484-5.273 10.128-6.562 3.343-3.49 6.18-3.925 5.918-4.013 4.76-8.242c0-1.565.073-3.13.116-4.693h-8.682l-4.963-3.883-8.29.203-20.59 4.187.666-4.23-3.66-1.347-12.053 3.476-.753-3.578-7.235 1.608 6.685-6.605-2.62-2.245 1.07-6.504-5.788-.942-14.47 3.346-12.11-9.285 1.317-1.738-2.894.695-2.822 1.753-5.57 1.188-19.606 3.882-2.23-1.768-6.627 1.724-3.748 2.318-2.662 4.128-5.354 3.375-2.286-1.926 4.08-5.056 4.34-2.68 1.447-1.913-3.197.884-9.985 6.23-.578.174c-2.678.844-5.29 1.885-7.814 3.114l-6.844 6.142-7.09 3.737h-3.906l-14.6 4.55-6.38.87v-4.607l8.682-10.835 4.34-4.505-1.07-.912-7.35 2.028-5.007 3.23-5.6 1.115 2.605-3.158 1.288-2.897 7.77-4.954 7.712-6.142 4.443-3.954-.926-.74-10.028 3.013-5.064 4.07-14.282 9.067c-7.076 3.578-11.49 3.897-11.677 3.91h-.246l-3.386-2.694 2.33-4.143 6.99-8.054 6.584-4.925 7.018-6.62 7.8-5.795 10.65-5.07 13.5-6.532 5.976.45 5.6-1.594 9.492-5.432 5.788-1.58 3.66.13 7.915-1.81 2.735 1.825-7.003 8.025c-.738 1.71 0 1.767.405 1.71.865-.248 1.693-.614 2.46-1.086l2.358-2 5.455-6.272c.565-1.45 1.143-2.8 1.722-4.216l8.682-6.112 5.426-2.898 6.555-2.274 8.9-4.693 4.8-1.1 10.013-5.157 5.035-5.62 4.052-2.013 1.013.565.13-.145 6.99-4.346 6.236-1.29 12.4-5.59 10.664-3.36 1.65-1.854c.405-.362 1.33-1.666 27.493-9.4l.84-.246 2.098 1.028-8.002 3.027-.318.348 3.183-.536c3.41-1.587 6.948-2.876 10.578-3.853l.492-.116c3.718-.528 7.373-1.43 10.9-2.694l.608-.7-9.45 1.448c-3.357.536-3.487-.507-2.764-1.333l.203-.217 6.67-2.897 1.94-1.362-7.076 1.1.608-.666a2.89 2.89 0 0 1-1.331-.116c-.246-.13-.188-.348.174-.623s1.172-.884 7.813-2.578l.362-.087 11.2-1.666 5.498-.898 2.417-.333 5.15-1.362 1.143-.16 4.442-1.347 5.788-.753 6.99-2.8.42-1.637-6.352.174-.767-2.897 1.447-1.724-.203-1.767 1.447-1.65-2.633.333-13.356 4.433-2.677-1.16 2.778-3.056c.116-1.45-6.25-.797-6.323-.782l-9.174 1.304-4.182 1.695c-5.788 2.897-9.333 4.346-10.707 4.838l-2.547 2.71c-1.447 1.55-7.77 3.752-8.48 3.998l-.4.116c-10.722 2.68-12.083 4.085-12.097 4.085v.116l-.145.087-4.73 3.317-6.685 2.984-3.27.594-2.894-1.45 1.2-.536c2.634-1.413 5.112-3.097 7.395-5.026l-6.73 1.23-.202-.1a58.59 58.59 0 0 0-9.71-.246c-4.167-.116-3.198-2.52-2.894-3.1-.115-.145 0-.362.348-.637 1.996-1.593 13.543-5.577 17.03-6.72l.303-.1 1.867-.333 1.07-1.072 7.683-1.927 5.34-2.245 5.903-1.03 1.2-.492 5.108-1.246 1.896-1.956 3.98-.623c2.214-.348 2.894.072 2.894.536l7.162-2.897 11.576-1.695 7.988-3.1.65-.68-8.422.81-8.68 3.4-4.095.55 1.808-1.854c-4.47.52-4.167-.594-4.153-.637l.087-.116 1.954-2-2.807.435-6.83 2.245.448.174-1.59 1.622-6.092 2.462-2.23-.927 1.954-.782c-2.318.05-4.61.487-6.786 1.29l-.724.7 5.093-.84-1.447 1.45-6.005 2.028-2.156-.913-8.927 2.274-6.497.203-10.607 1.956-6.395 2.752-1.447-.652-10.867 2.144-1.78-.782-6.02-.203-8.826 1.666-6.714.81-5.325 1.71-5.687 1.26-14.267 4.476-9.608 2-7.235 1.03-8.22 1.448c-2.734.522-5.267 1.333-7.9 2.014l-7.727.913-9.782 2.897-7.235 2.55-8.363 2.42-15.15 6.026-9.507 3.433-.448.406 1.244.724-9.854 4.577-.246-.145c-.405-.26-7.712 2.23-14.615 4.9l-1.447 1.188c2.427-.64 4.89-1.123 7.38-1.45l1.172-.13-7.712 4.215-19.346 7.402-5.05 4.766-5.498 2.564-.724 1.03c1.794-.536 4.34-1.116 4.674-1.188l.71-.16-1.765 1.68c-.55.58-1.78 1.52-25.047 12.14l-.217.217 6.627-2.65 21.46-10.27 2.764-.927-1.895 1.796 4.34-1.45 2.113-1.202 3.082-1.202 1.042-1-1.056-.753 16.018-7.388 9.174-2.897 6.048-2.78 6.57-2.535 6.164-.884 7.466-2.202 2.287 1.362 5.44-1.1 2.098 1.23-4.022 2.13-.434 2.448-6.93 3.737-8.842 8.618-4.34 1.333-1.736 1.45 1.447.956 2.98-.928 3.85-2.62 5.498-1.652-2.358 2.622-4.66 2.434-5.137 2.897-5.99 1.854-5.05 3.52-8.58 5.722-11.23 6.605-4.66 3.78-8.378 5.07-4.34 4.012-2.46 2.58-9.102 12.428c4.775.42 3.04 2.897 2.822 3.172l-6.063 6.635-.29 3.62-2.75 1.81-4.804 5.36 1.664 1.666-3.3 3.737 1.65 1.695 2.185-.81.984-2.52-1.114-1.13 6.67-7.504a26.58 26.58 0 0 0 3.241-7.011l.217-.333 2.416-2.65a15.62 15.62 0 0 1 3.299-2.665 14.1 14.1 0 0 1 3.458-1.564l.362-.102 1.447 1.362-6.497 8.532.52 4.128-2.098 2.376c3.183.318 2.633 5.982 2.56 6.663l-.174.333-3.328 4.346c-1.447 1.014-2.995 2.013-4.47 3.027l-1.867 2.144c-1.736 2.042 8.566 3.216 19.476 3.23l6.425-2.288 5.007-3.36 6.323-2.187 4.138 3.954 5.064-.26 9.13-3.042 1.852 1.7-2.56 3.172 1.9 1.81-3 3.795 3.574 3.448 6.93-1.594 4.616-.39 3.097-1 1.823-2.346.65-.435c6.294-4.2 10.33-4.244 11.576-3.708l.318.145-4.674 6.07.68.638-9.3 12.34-.666.45a271.76 271.76 0 0 0-29.909 23.612l-3.59 5.012 2.026 2.26-2.214 1.637c0 .797-2.142 2.448-5.788 5.2-1.77 1.183-3.33 2.65-4.616 4.346-.52 1 .52 1.086.535 1.086h.622l-2.894 4.274c7.958.246 1.693 13.384 1.447 13.964-5.007 7.633.564 9.314.622 9.343l.347.1-.217.507c-3.053 7.315-2.445 10.24-2.228 10.908 15.512.39 15.917 7.242 15.772 8.546l1.62 2.405-.94 5.88-6.048 12.573-5.788 5.1-3.777 6.75.955 1.333c-5.98 10.796-11.77 21.617-17.364 32.462l-1.302 6.793-5.383 10.72 1.577 2.578-9.26 19.295-5.354 5.663-6.8 14.89 1.534 2.767-5.18 11.835 1.26 2.317-1.794 4.1 4.095 7.62-3.7 9.083 1.172 2.216-5.788 14.934-5.788 7.243 4.413 8.69-2.706 7.533 2.503 4.838L5.687 526l2.72 5.475 4.905-2.55-.84 8.474 1.027 2.086 9.883-5.085-.84 2.695 8.84-4.462-4.818 15.76 8.9-4.505-2.026 6.9zm280.295-511.19l1.447-.217 1.577-1.666c-2.228-.753-6.772.16-6.815.16l-2.272.478a1.68 1.68 0 0 1-.13.217l-.145.203-2.546 1.043-1.013 1.043 1.808-.377 2.17-.74 4.34-.666 1.577.52zm-26.422-1.45l.868.362 2.807-.97-3.675.608zM219.74 92.287h-.275c-.796.16-1.794.203-1.982-.45v-.188l.42-.304A31.44 31.44 0 0 1 229.159 87l.506-.1 1.693.912-7.133 2.767c-1.424.753-2.93 1.34-4.486 1.753v-.043zm.593-1.333c.075.047.158.078.246.09a.62.62 0 0 0 .261-.018c.854-.24 1.68-.576 2.46-1l.506-.232 3.7-1.45a25.94 25.94 0 0 0-7.163 2.665v-.058zM201.7 95.85h-.3c-1.056.116-3.458.3-3.053-.55.1-.203.434-.608 1.563-1.217 1.59-1.086 12.4-8.184 20.938-10.777 0 0 2.662-1 5.788-1.883L221.07 82.6l-1.027-.55-5.282 1.173-5.513 2.347-.347.087c-.304.072-1.852.434-2.156.072s-.072-.492.97-1.23l.477-.3c.535-.275 13.1-6.518 22.964-7.88 1.94-.188 4.616.203 1.447 2.897l-.246.203-2.142 1.028a21.67 21.67 0 0 1 1.592-.29l8.407-1.695 2.764 1.45-4.82 2.4-4.442 1.29-4.992 2.897-3.676.782-1.967-1.057 3.646-1.782.52-.565-3.82.826-3.415 1.043-3.646 1.724-4.197 2.535-1.895 1.45a37.8 37.8 0 0 1-8.566 4.433v-.043zm27.492-14.138a76.87 76.87 0 0 0-8.682 2.593c-7.987 2.448-18.955 9.836-19.056 9.908l-.45.275c.64.12 1.298.12 1.94 0a41.44 41.44 0 0 0 5.368-3.042l2.098-1.58 4.906-2.897 4.5-2.13 4.53-1.376 6.396-1.362-2.128 2.274-2.156 1.043.666.362 1.317-.275 4.66-2.694 4.76-1.376 1.577-.753-1.447-.74-1.563.32-6.034 1.202-1.2.246zM209.38 84.61l-.073.072h.3l5.513-2.347 7.018-1.535 1.027.55 6.555-1.376.84-.406c2.185-2.042-.71-1.84-1.056-1.81-7.843 1.014-18.232 5.896-20.1 6.837l-.014.014zm32.5-.174l-.434.072c-.753.116-1.68.145-1.838-.406v-.116l.174-.188c2.303-1.725 4.998-2.85 7.842-3.274a4.64 4.64 0 0 1 1.303-.188c.622 0 .84.333.65.883l-.116.3-.71.348a37.3 37.3 0 0 1-6.859 2.564l-.014.014zm.506-1.246a.74.74 0 0 0 .478 0c1.395-.347 2.752-.833 4.05-1.45.01-.033.01-.068 0-.1h-.217c-1.52.225-2.98.746-4.297 1.535l-.015.015z"/><path d="M252.325 44.66l-1.273-.55-4.124.826-6.164-.87 13.543-2.752c.112-.044.215-.108.304-.188.087 0 .087-.116 0-.16l-8.97 1.724 1.447-1.318 1.75-.536-2.185.13-7.814 2.897-6.844 1.45.65-1.84 4.196-1.8 14.933-4.968 10.505-1.956 6.005-.45 1.968.8 2.98-.507 4.5-1.275 3.603-.608.116.637 2.72-1.1 7.525-1.26-2.648 2.3-2.272.927 2.3.536-2.026 1.68-7.235 2.07-6.67 1.45-7.712.94-2.778.8-4.1.956-2.07.4-4.153 1.622zm.65-1.695l.883.377 2.894-1.115 2.648-.507 3.805-.884 2.996-.883 7.987-.97 6.164-1.333 5.2-1.52.724-.594-2.966-.695 3.935-1.593 1.114-.97-4.24.7-4.978 2.028c0-.4-.13-.768-.188-1.16l-1.997.348-4.34 1.246-4.34.724-2.07-.87-5.412.42-9.58 1.796-14.195 4.737-2.2.956-.3.797 4.558-.913 8.233-3.114 7.93-.464-4.775 1.45 6.078-1.16.188.072c.535.232.275.594 0 .87-.67.484-1.4.878-2.17 1.173l-.4.145-7.35 1.45 1.765.246 4.37-.797zm46.768-10.605l-4.558-1.637 8.682-1.362 4.92-1.753 1.997-.232a7.99 7.99 0 0 1 2.055-.623l5.296-.797-3.502 2.187-4.095 1.68-4.76 1.45-6.034 1.086zm0-1.637l1.65.58 4.645-.884 3.85-1.144 3.227-1.347 1.042-.666-2.185.333-.333.16-.622.362-2.648.304-4.717 1.753-3.907.55zm19.767-2.346l-4.515.42 1.75-1.767 6.598-1.593 8.233-1.16-1.88 1.927-7.235 1.03-2.95 1.144zm-1.563-.652l1.693-.16 2.778-1.072 5.904-.84.202-.217-5.788.826-4.34 1.057-.448.406z"/><path d="M356.493 35.967l-9.897 1.246-7.235-2.36-2.026.275-4.63 1.13-4.153.58-1.982-.84 3.313-1.304 9-1.55 3.328-.45 5.657-2.173 7.988-.97h2.14l.463-.174-7.075-2.897-2.287.3-.217-.087a1.77 1.77 0 0 0-1.042.13l-.448.16-6.555.855-1.172-.463-3.632.478-2.72 1.043-7.307.985c-.304 0-2.894-.102-2.475-1.03.16-.32.796-.884 2.894-1.68l.232-.072 9-2.897 2.894-.377 1.085-.406 18.695-2.347 4.34.97 5.875-1.072 3.1 1.202 5.383.333c0 .637-.116 1.275-.188 1.927l3.892 1.55-1.9 2.202-4.1 1.448c-1.468.426-2.976.702-4.5.826h-.463l-2.633-1.072c-.882.132-1.753.33-2.605.594l.203.1c1.563.637.998 1.217.4 1.535l-1.996 2.3-6.034.7-.594 1.362zm-8.204.217l6.208-.782.463-1.13 6.5-.797 1.447-1.68.203-.087c0-.072 0-.304-.753-.608s-.376-.68 0-.942a20.63 20.63 0 0 1 5.586-1.449l.564-.087 2.706 1.1a22.83 22.83 0 0 0 2.272-.362l3.125-1.16 1.302-1.45-3.704-1.448c0-.594.116-1.188.188-1.782l-5.006-.333-2.634-1.028-5.7 1.057-4.47-1.028-17.06 2.158-1.07.406-3.125.42-8.205 2.578c-.537.136-1.033.4-1.447.768-.188.362.912.536 1.592.565l5.788-.797 2.72-1.028 5.47-.724 1.186.463 4.732-.608c1.088-.4 2.25-.54 3.4-.435l2.388-.3 8.566 3.433-3.92 1.45h-3.097l-6.584.826-5.672 2.173-4.153.55-8.06 1.45-.333.13.564.232 3-.406 4.6-1.13 3.097-.406 7.307 2.245v-.03zm5.137-14.544l-7.38.927-3.993.188-6.194.434 2.2-2.26 3.458-.464 7.322-1.347 1.33.507 17.205-1.724 2.026.782-4.27 1.535-11.706 1.42zm-6.222 0l17.77-2.173 1.302-.478-.593-.217L348.45 20.5l-1.172-.478-6.323 1.173-1.447.203-.7.724 4.514-.32 3.893-.174zm7.698-4.692l-5.065.145 1.968-2.028 9.492-1.45 7.438-.855-2.185 2.347-3.72.42-7.93 1.42zm-2.286-.74l3.125-.087 7.712-1.448 1.65-.188.724-.768-5.152.608-7.38 1.16-.68.724z"/><path d="M374.943 17.397l-4.906.536-3.082-.3-11.214 1.448c-.637 0-2.474.217-2.503-.217s.58-.637 1.823-1.086l.376-.13 9.406-1.448-.26-.884 5.788-.74 3.285-1.825 6.887-.7h4.428l4.602-.464.303-.333-3.458.087-4.34.45-9.97.217 13.023-2.274 14.296-1.376 4-.855 8.132-.7a255.45 255.45 0 0 0 5.122-.304l7.597-.7 8.682-1.072-1.332 1.622-8.233 1.362-7.38 1.45-16.076 2.26-6.135 1.26-6.164 1.58-6.222 1.448-6.482 1.7zm-3.618-.333l3.777-.406 6-1.564 6.164-1.448 6.15-1.608 6.54-1.333 16.12-2.274 7.1-1.45 6.685-1.115.174-.217-6.18.768c-.376 0-6.497.637-7.87.753l-5.224.304-7.814.68L398.92 9l-14.47 1.45-3.082.536h1.737l4.34-.435 5.166-.145-1.548 1.738-7.235.7H379.4l-4.948.536-3.256 1.8-4.066.507.23.84-11.662 1.724a6.01 6.01 0 0 0 .853 0l11.677-1.448 3.097.232zm47.33 14.833l-6.44.507-5.976-.406-2.894-1.97 1.563-1.926 1.244-1.985 1.9-2.347 10.13-2.97 4.616-1.1 1.345-1.68-3.024-.464v-1.87l-2.387-1.724-1.68-.637c-.74-.226-1.515-.3-2.286-.246l-17.682 1.593 1.375-2.564 12.56-1.666 6.57-.985 9.854-1.927 7.755-1.45 4.34-.3 3.864-.637 6.67-.217h6.222l8.465-.45 5.644-.695 6.902-.435 6.526-.565 6.974-.623h6.237l4.34-.116 5.527-.753 8.16.203 7.235.087 6.7.52 3.806.768 5.035-.435 6.324.174-3.72 1.84h-9.03l-3.864.594-3.197.898-1.057 1.796-9.043 2.607-11.012 1.115-.97.3.318.116 4.037.7.55 1.45-4.992.84-2.417.74.4 1.072-5.614.16-7.582.666c-.435 0-3.53.463-4.66.507l-6.7.275-5.976.942-7.467 1.448-3.458.913-5.065.782-4.196.594-4.2.536-3.63.8-4.53 1.506-5.18 1.45c-.753.596-1.586 1.084-2.474 1.448l-.868.4a11.81 11.81 0 0 1-3.936 1.318c-.55.072-3.198.74-5.296 1.304l-.333.1-.347.058zm-5.137-.406l5.47-.45a53.13 53.13 0 0 1 6.294-1.45l1.635-.753a14.5 14.5 0 0 1 1.346-.579 11.69 11.69 0 0 0 1.751-1.159l.217-.16 5.86-1.637 4.848-1.637 4.34-.942 4.34-.55 4.066-.58 4.8-.724 3.1-.84 7.698-1.45 6.656-1.014 6.888-.3c.506 0 2.546-.26 4.124-.463l7.9-.68 2.663-.087-.2-.536 4.14-1.217 3.198-.55c0-.174-.13-.348-.203-.536l-3.7-.666-1.635-.637 3.386-1.014 10.983-1.115 7.77-2.245 1.07-1.782 4.428-1.23 4.53-.695h8.146l1.085-.536h-2.894l-5.585.478-4.34-.884-6.15-.478H514.5l-7.698-.203-5.586.74-4.66.13-6.063.072-13.428 1.173-6.8.42-5.86.724-8.77.464h-6.337l-6.18.203-3.95.623-4.27.3-7.134 1.304L417.73 10.3l-6.888 1.03-10.433 1.45-.607 1.144 5.455-.507 10.244-.884a10.31 10.31 0 0 1 3.647.362l1.765.666 2.605 1.912V17.1l3.328.52-2.055 2.405-5.788 1.376-8.928 2.593-1.577 1.825-1.23 1.985-1.33 1.65 2.344 1.622 5.238.406z"/><path d="M498.486 15.253l-4.818.13-2.3-.913 5.383-1.87 2.894.855-1.158 1.796zM495.1 14.6h1.62l.434-.666-.782-.232-1.953.68.68.217zm6.888 9.228h-3.184l-4.095-.536-.506-.203-4.963.362 4.63-2.78 9.058-1.144 8.552-.492h4.34l4.442.4h.16c.174 0 1.722.666 1 1.362a4.95 4.95 0 0 1-2.561.84l-4.92.797-4.82.478-2.995.073-4.138.855zm-2.07-.74h1.953l4.138-.8h3.444l4.167-.42 4.718-.768a2.47 2.47 0 0 0 .911-.232c.174-.174-.23-.45-.564-.608l-3.632-.32h-3.92l-8.234.463-7.698.985-1.837 1.1 2.2-.145.984.4 3.372.362zm-100.652 93.375l-8.436.855 2.113-3.434 10.635-1.057-4.312 3.636zm-4.775-.855l3.603-.362.767-.652-3.993.406-.377.608z"/><path d="M403.405 117.795l-5.672.32 1.446-2.506 5.788-.565-1.562 2.752zm6.09-.565l-5.686.3 1.447-2.5 5.788-.536-1.55 2.738zm-2.646 4.07l-10.94 1.072 1.94-3.26 2.807-.333.42-.725 8.103-.767-2.33 4.012zm-7.235-.666l5.267-.507.665-1.145-2.518.3-.434.724-2.763.276-.217.362zm311.07 142.016l-6.54-5.794.84-15.196 9.464-5.098.144-3.303c-1.33-1-4.196-3.477-4.066-6.33a17.08 17.08 0 0 1 1.954-6.52l.332-.623 7.713.45 8.523-2.173 9.825-4.838 2.33-5.317 5.6 4.346c1.794 1.45 1.997 5.04 2 6.547l1.028 5.592-3.256 4.345-5.224 10.676-7.553 8.358-2.2 9.503-.087 4.5-10.13 1.304-10.708-.42zm-3.1-6.388l4.457 3.925 8.77.377 7.336-.97v-2.897l2.503-10.14 7.64-8.402 5.152-10.473 2.995-3.998-.926-5.113c0-2.3-.507-4.607-1.07-5.1l-1.635-1.3-1.143 2.636-10.882 5.345-9.694 2.36-5.918-.347a15.35 15.35 0 0 0-1.447 5.287c-.102 2.506 3.43 4.8 3.472 4.838l.666.42-.217 5.33-9.434 5.113-.623 13.095zm11.662-43.804l-7.64-1.304-4.573-.565c0-.724.087-1.448.116-2.173l-1.9-.246.26-4.852 8.117 1.014v1.448l7.076 1.173-1.447 5.505zm-8.9-3.506l1.447.2 4.732.796.405-1.564-6.512-1.057-.072 1.636zm-1.8-2.4l1.766.218v-.87l-1.766-.218v.87zm67.765-11.452l-.304-5.794 8.2 1.78.26 3.97-8.146.044zm2.894-3.23v1.318h2.054v-.87l-2.054-.45zm12.313 61.162l-10.563-1.97.434-5.795 9.84 1.826.3 5.94zm-7.075-3.65l3.66.696v-1.3l-3.517-.666-.144 1.26zm78.715-68.56l-5.513-1.275-4.34-3.13c-.854-.623-2.78-2.144-2.243-2.897.202-.32.84-.608 2.648-.203a8.1 8.1 0 0 0 4.153.13l.434-.16 3.53 1.03 1.332 6.504zm-4.63-2.68l1.447.32-.622-3.23a13.73 13.73 0 0 1-5.064-.275l.9.753 3.328 2.434zm40.675 6.33a19.07 19.07 0 0 1-5.614-2.376 5.16 5.16 0 0 1-2.229-2.723l-1.114-4.983 1.693-3.563 1.114.347a32.12 32.12 0 0 1 7.611 3.419l2.6 1.897 1.795 6.94-3.893 1.52-.477-.087c-.203-.1-.724-.203-1.476-.4zm-6.18-9.04l1.13 4.592a2.19 2.19 0 0 0 .998 1.289c1.316.754 2.742 1.297 4.226 1.608l2.604-1.014-1.447-5.548-1.65-1.202a22.69 22.69 0 0 0-4.732-2.173l-1.13 2.448zM533.402 154.85l-8.856.087 1.447-4.085 9.087-.956-1.678 4.954zm-5.253-1.55h2.75l.464-1.332-2.894.304-.32 1.028z"/><path d="M537.96 150.895h-6.25l-.825-4.346h8.494l-1.418 4.346zm-3.43-1.608h.955l.362-1.087h-1.534l.217 1.087zm35.93-87.247l-2.648-1.738 1.042-2.767h6.482l-1.215 3.346-3.66 1.16zm0-2.028l.796.507.492-.16.694-1.87h-1.447l-.535 1.52zm2.546-2.78c-.767 0-1.65-.087-2.634-.203l-.636-.072-.145-.246c-.145-.275-.767-1.637 1.143-2.26 1.825-.4 3.692-.55 5.556-.478h1.245l-.782 2.173c0 .217-.246.536-.94.768a9.24 9.24 0 0 1-2.807.319zm-1.042-1.072a7.68 7.68 0 0 0 2.315 0l.42-1.26a11.06 11.06 0 0 0-2.46.232c-.304.145-.42.594-.3 1.028h.015zm68.138 17.382l-9.998-.68-6.454-1.68 2.894-1.188h.622c2.04.116 9.94.232 10.014.246h.535l5.455 2.26-3.068 1.043zm-8.942-1.637l8.1.507h.144l-2.56-1.057c-1.563 0-6.12-.102-8.682-.188l3 .74zm-38.967-1.998l-6.28-.826.694-2.158 6.454.217-.868 2.767zm-3.444-1.58l1.302.174.13-.406h-1.345l-.087.232zm-43.106-5.402l-6.902-.435.8-1.854h2.894l.695-1.622h7.944l-1.172 2.8h-3.864l-.405 1.1zm-3.4-1.275l1.374.087v-.087h-1.374zm2.706-.826h2.894l.332-.797h-2.893l-.333.797zm11.43-.232h-5.918l.897-2.158h5.9l-.868 2.158zm-2.98-1.043h.868v-.174h-.853l-.015.174zm-25.077-16.92a3.25 3.25 0 0 1-1.042-.13c-.405-.13-.738-.4 0-.956l.217-.16 6.15-1.275-1.26-.348-1.765-.768 1.996-1.883 4.2-.507.478-.898.694-.594-1.895-.13-2.2-.97c0-.565-.116-1.144-.16-1.7l.78-1.564 2.894-1.043 3.907.1 2.605.464 2.112.84-.853 1.376-1.13.232 2.2.4 1.737.753c0 .463.16.927.23 1.448l1.2.913 2.316.797 3.443.434.507 1.1-.376.84-2.706.478a5.58 5.58 0 0 0-.767.174 5.9 5.9 0 0 1-2.2.942l-.405.13h-3.183l-2.547.3-4.138.434-2.894.232H533.6l-3.183.362c-.688.13-1.385.197-2.084.203zm5.035-3.94l.854.4 3.892 1.057-5.3 1.086.998-.1h2.894l2.417-.203 7.1-.753h2.36a9.99 9.99 0 0 0 .955-.377c.115-.32 1.288-.608 2.228-.782l1.36-.232.102-.232-.232-.464-2.894-.406-2.807-1-1.447-1.173-.203-1.217-1.186-.52-5.528-.884 4.197-.884.347-.55-1.317-.52-1.968-.333h-2.112l-1.288.478-.608 1.217c0 .45.1.884.16 1.333l1.447.608 3.415.3-1.664 1.448-.65 1.347-4.558.565-.94.8zm-17.826 2.1h-.217a12.1 12.1 0 0 1-3.546-.348c-.217-.116-.3-.275-.173-.434.318-.435 1.78-2.014 1.852-2.072l.246-.174.7-.32.738-1.376 7.22-2.274h5.267l4.833.16-.868 1.724-1.36 1.45-1.447.45-1.042 2.072h-6.28l-1.693.55-4.24.594zm-1.447-.97h1.548l3.154-.42 2.127-.536h4.833l.782-1.52 1.62-.522 1.042-1.072.45-.884-2.72-.087h-4.18l-5.412 1.724-.666 1.26-1.013.464c-.4.304-1.157 1.16-1.52 1.593h-.043zm87.21-2.042c-1.447 0-5.108-.492-5.86-.58l-7.915-.45.7-1.984 7.235-1.043 6.555.246 5.788-1.622-.825-1.376 6.482-1.87-2.705-1.246-1.447-1.767 6.424-1.695a35.18 35.18 0 0 0 5.137-.768c.087-.45 3.37-1.767 5.296-2.5l.695-.26.853.232a22.04 22.04 0 0 1 2.475.855c1.287.55 1.085 1.318.97 1.724 0 .16-.145.55-5.093 1.45l-.275.985.694 2.187 1.94.87 7.076.232c.492 0 1.1.1 1.736.174a16.97 16.97 0 0 0 2.156.174c2.007-.174 4.027-.072 6.005.304h.333l2.894 1.275-4.992.74-5.093.072-8.682-.52.26.1 4.124 1.854-3.762.855-4.717-1.043-1.997-.116c-.998.377-1.635.826-1.447.927.7.32.767.608.68.8s-.767.58-1.172.695l-.796.7-4.34.884-7.235-.348-5.4.203a5.05 5.05 0 0 1-2.75.623zm-11.113-1.8l5.976.333 5.427.565a.94.94 0 0 0 .622-.232l.188-.26h.7l6.757-.246 6.396.3 2.966-.594.753-.666.304-.072c.18-.032.35-.112.492-.232l-.174-.145c-1.852-.826 1.302-1.956 1.953-2.173l.4-.13 3.806.246 3.646.797.463-.1-2.5-1.13a25.33 25.33 0 0 0-3.95-.101h-1.447l.478-1.7 15.207.884 4.457-.072 1.925-.3-.507-.232a28.37 28.37 0 0 0-3.675-.304 13.48 13.48 0 0 1-4.066-.101 13.62 13.62 0 0 0-1.447-.145c-1.085 0-5.788-.203-7.423-.246h-.55L624.3 28.54l-.78-2.564.405-1.448.52-.087a34.3 34.3 0 0 0 4.529-1 .86.86 0 0 0-.505-1.087c-.4-.174-.854-.333-1.23-.463-1.422.5-2.794 1.115-4.095 1.87-.13.464-2.3.898-6.44 1.318l-4.717 1.275.94 1.16 3.8 1.68-7.148 2.042.854 1.45-7.698 2.158-6.96-.275-5.383.782-.203.623z"/><path d="M563.948 298.516l-7.54-1.637-5.586-6.388 1.983-9.358-2.388-7.387-11.36-10.372 2.764-16.774-.58-10.705-2.27-9.24-6.092-4.94 4.095-14.63 5.788-8.358 6.395-6.577 1.75-6.33-1.736-5.388-3.17-3.752-.535-4.563-1.534-4.172-9.738-6.65 2.3-6.65 6-5.084.405-3.2-1.447-1.217h-8.595l6.86-3.1-5.37-1.347-7.12 1.23-4.022-2.564v-.174c0-.086-.84-2.5-7.713-2.36l-6.772.13-11.894 2.477-11.417 1.926-9.217.406-8.595 1.16-7.336.405-9.406-.23-6.38-1.217-9.507-5.997.58-3.752-4.037-2.5-3.936-3.332-3.096-1.87 2.894-4.345-1.07-.638 2.286-4.128 7.626-4.853 2.185-4.46-1.867-2.897 2.33-3.506 14.05-8.025 10.852-6.098 8.205-2.607 7.408-2.897 4.095-1.782 1.578-2.984 14.643-5.5 7.1-1.912 6.902-.116 5.094.608 9.723-1.45 8.277-1.448 14.253-.463 6.83.304 7.9.1 4.717-1.58 7.424.16-1.78 5.084.636 2.23 3.748 1.767 6.294.188 7.235.8 2.518 2.897 6.888.32 4.543 1.1 3.56-1.188.7-2.7 13.023.7 8.986 1.97 8.103 1.564 7.813 1.072 8.205.623 6.96.956 4.53.4c1.736-.637 5.18-2.086 5.3-3.187l.304-2.158 1.794-2.55-.26-1.45a44.26 44.26 0 0 0-6.18 0c.087.406.84.898 1.158 1.072l.506.26-.26.3a5.96 5.96 0 0 1-3.835 1.535 11.86 11.86 0 0 1-4.456-.45l-.955-.275 2.156-2.463v-.217l-4.168-.565-2.286-1.188-3.14.97-7.5-1.188-3.082.956-3.762-1.94 1.925-.594-1.534-1 .333-1.666-3.647-1.854-.26-1.188.16-.898.738-.217-1.317-.666-2.547-.16-2.894.898-3.805-.232-1.172.478 2.185 1.086-.333 3.65-5.933 1.87-7.075-3.578 4.167-1.318-.347-.174-6.8-.275-2.43-1.217 1.23-3.795s-.217-2.202-4.992-2.42l-6.526-.26-5.05-2.97-2.3-.072-3.7-1.767a1.33 1.33 0 0 0-.636.42c-.188.304.16.68 1.04 1.1l5.2 2.506 6.887 2.158 7.235 1.956-.593 2.086-3.907-.174a20.62 20.62 0 0 1-.333.869l-2.72 2.014-4.182 1.347-.477 1.58-6.73-.232-5.788-2.028.58-1.738 6.4.188 2.894.304 1.1-.348.593-1.883c-.1-.203-.8-1.23-5.252-2.5-1.563-.072-7.337-.478-10.202-2.97l-6.178-2.897-6.685.768c-4.34 0-8.552-.13-12.835-.174l-3.82 1.26-.565 1.333-3.1 1.014-5.787 1.13-3.3 1.898-4.558 1.564-.767 1.7-4.34 1.52-6.092.594-6.743.855-6.12.13-5.788.55-3.936-1.927-4.702.145 2.315-4.346 3.863-2.26 3.082-5.794 8.35-.188 7.38.13 5.643.7h4.34l4.182-1.45.897-3.346c-1.783-1.263-3.94-1.886-6.12-1.767-1.722 0-2.72-.174-2.894-.565-.463-.768 2.5-1.796 3.4-2.086l.42-.145h7.337l5.585-1.448h2.503l7.235-2.274h4.992l6.3-2.144 5.875-1.767 6.96.145 1.707-.507 1.447-3.8 6.295-1.8 1.75 2.26 1.027.463 2.43-.362c.087-.26.174-.52.275-.768l-5.296-2.347-2.474.7-9.203-.232-3.502-1.52 1.215-2.752 3.213-2.216 6.743.16 12.574-2.55L610.96 16.9l14.47-1.608 8.783.492c1.88.1 12.343.956 12.792 1l.434.072 9.072 2.23 10.274 1 10.548 2.535 3.198 1.45-3.285.797-15.395-1.304-4.66-.855v.16l3.343.87 6.57 2.897 2.228.188-1.635-1.84 5.644.478 1.88.84 2.358-.565.13-.942 6.468.695 2.36-.55-1.288-1.738 7.1.68 3.212 1.45 7.524-.826 9.652.87 3.53.464 5.2.145 7.018.84h3.907L743.1 28.26l4.34 1.03 3.1.652c-.854-.333-2.287-.87-4.718-1.68l-.55-.174c0-.94-.102-1.883-.16-2.825l6.353.333 6.28.97 3.718 2.52h.116c0-.42-.087-.826-.116-1.23l10.042 1.086 7.15-.246 8.378 1.086 1.72-1.94 9.478 1.564 5.658.52 6.25 1.26c2.305-.278 4.63-.327 6.945-.145 1.216.217 5.788.884 7.5 1.115h.348l6.57 2.36 9.767 1.898 9.217 2.332.623 1.912-5.788-.26c.004.047.02.093.05.13a.26.26 0 0 0 .11.086c.597.276 1.23.466 1.88.565l6.28.623 4.673.956 4.718 1.26a28.67 28.67 0 0 1 6.801 1.579 53.81 53.81 0 0 0 5.643 1.564l12.082 2.723 8.942 1.984 16.728 6.46a28.15 28.15 0 0 1 4.152.52l5.788 1.55.3.1 3.892 1.45 2.735.637 1.172-1.188 5.368.695 16.25 4.867 8.913 3.766 4.703 1.854 13.1 3.853 5.34 2.376 6.25 1.362c.16.174.318.362.492.536a12.18 12.18 0 0 0 4.5 2.013c4.615 1.45 9.045 2.984 9.235 3.057l11.28 3.505 15.83 5.215 12.66 4.983 11.48 4.88 8.23 3.42 9.4 4.215 7.24 3.65 7.74 3.215 8.02 3.94 5.9 4.926-1.58-.58c-1.17-.42-11.27-4.07-16.15-7.112l-4.58-1.74-2.06-1.36v1.448l-.95-.318.37.246 12.33 6.185c.67.377 2.9 1.666 2.9 2.303s-1.45.218-5.18-1.23l-3.4-1.3-2.45.695-2.37.55-3.66-1.376-3.84-2.564-1.85.405-4.8-1.767h-1.8l2.6 1.738 4.02 2.36 6.1 3.868 2.16 2.115 5.55 3.8 1.25 2.404-1.8.45 5.34 5.33-1.45.362-6.87-2.622-15.1-10.4-6.56-4.84-5.64-3.78-.82-2.58 2.07-.463-1.2-2.738-.67-1.072-3.02-2.187-1.9-1.217c-.24.116-.43.32-.27.58.1.162.26.295.43.392l2.45 1.593-8.08-2.825-2.73-1.767-6.18-2.1-.92.202 2.8 4.694-4.63-2.014-2.7-.912-2.9-1.854-6.1-2.014-1.78.377-5.44-1.768-3.4-1.694-1.77.376-2.66-.854-3.73.796 1.45 1.97-.35 1.797 4.34 1.897 5.93 2.187 1.3-.3 7.38 2.984 4.74 3.07 7.8 2.65 4.65 4.055 6.67 3.7 6 3.68 4.34 3.375-1.8.464 7.46 5.128 1.52 2.636-5.64-2.057a140.44 140.44 0 0 0-4.44-3.085l-5.34-4.346-5.18-3.506-2.42-2.694-5.8-4.07-.7.16 5 3.36 2.68 2.694 1.7 3.042 4.12 6.127c0 1.014-.16 2.028-.23 3.042l-3.45.927-4.5-1.58-3.08-2.13-1.2.32 1.2 2.26.98 2.58-1.78.507.65 1.23 7.63 4.346 7.1 5.084c1.45 1.45 2.9 3.013 4.34 4.52.22.753.42 1.448.62 2.288l-3.83-.565-5.86-1.666-4.34-3.128-5.14-5.056-7.24-5.128-3.15-1.086-1.2-2.332-3.66-2.52-1.16-.4-1.84.493-3.72-1.23-3.28-.97-3.88-2.65c-.2-.492-.36-1-.55-1.448l-.8-.26-4.55 1.23 1.87 1.26 6.4 3.52 8.03 2.275 4.92 3.4-3.37.97-2.78.333a91.45 91.45 0 0 1 1.45 1.637l6.03 3.4.28.304c1.92 2.115 4.34 4.723 5.03 5.215.7.493 3.8 2.13 6.48 3.52l.87.45 2.03 4.1 2.98 2.057 2.3 4.75v2.5l-2.03 4.636-2.15.738-.65 3.07c-3.88-1.448-7.77-2.78-11.67-4.157l-5.22-.377-2.82.898-3.78-.318-1.92.666-5.8-3.013-2.14-2.158-2.07-.696-5.587 1.913-.666 1.738 5.263 3.925 7.6 4.085 3.76 4.027 6.14 7.475c.87 1.448 1.73 2.78 2.6 4.172l3.3 5.982c0 .753-.1 1.45-.14 2.26l-5.6-.638-4.9 1.985-5.3-1.854-3-3.868-4.73-2.52-5.37-3.723-3.473-3.984-6.236-3.954-3.56-2.608.7 1.913-2.966 1.1 2.735 4.62.984 2.695 6.222 5.243 1.577 2.202 6.656 5.302c2.16 1.448 4.34 3.027 6.42 4.534l4.34 4.983 3.9 5.65 3.08 5.2 1.45 3.97-6.96-2.2-14.633-12.14-3.7-6.533a72.34 72.34 0 0 0-.767-2.144l-3.936-4.346-8.48-6.692-4.645-1.448-1.447-4.346 1.332-3.433-1.88-5.287-4.153-3.13-6.526-9.025-.622-1.723-1.447-1.087-.97 2.245-6.092-1.8-6.844-3.795c-.463-1.45-.94-2.753-1.447-4.114l-2.46-2.724-12.183-8.6-2.894-3.028-2.518-1.738-2.894-1.217-1.273.42-9.333-1.173.7 2.3-5.137 1.68-3 1.55-15.222 5.2 1.157 1.94.507 3.346-.232.116c-1.114.58-2.083 1.333-2.083 1.622.173.696 1.447 4.462 1.447 4.505l.853 3.448-4.022 1.028-3.777 1.45-8.465-2.042-1.317-5.997-6.395-4.505-8.2-12.255-9.94-8.387-3.892-6.678 1.1-3.9a.49.49 0 0 0-.159-.637 4.19 4.19 0 0 0-1.273-.536l-1.056 2.2-4.848-1.013-5.08-1.217-7.38-4.346 3.762-1.173-1.62-.768-3-.45-4.8-2.984-8.335-5.012-2.257.695-4.514-.825c-2.894-.536-6.092-1.45-6.83-1.594l-14.08-2.42-6.685-1.593-4.862-1.898-.926-.55a2.38 2.38 0 0 1 .694 1.274l2.417 1.45 5.093 2.897 3.097 1.883 4.644 1.45 1.954 3.505-3.184 1.492-12.256 4.085.782 2.52-4.963-.797H762.3L759 126.5c-1.042.507-2.07 1.043-3.096 1.565l-3.864 1.274-13.023.623-10.13 1.014-8.088-.87-6.18-1.202c0-.927 0-1.854.1-2.796l-1.52-2.36-3.053-3.592-5.788-3.477-2.214-4.346-4.428-2.042-3.458-2.115-3-4.664-4.167-3.288c-1.404-1.087-3.024-1.768-4.558-2.637l-3.618-3.984-3.834-3.97.217-1.883-1.88-.16 1.056 1.724L671 90.458l4.34 1.912 1.636 3.114 3.168 2.97 4.645 3.665 3.502 7.243 3.545 2.086 5.383 3.998 1.447 3.2 3.227 2.738 5.382 2.5 4.573 2.897 2.633 3.448 4.82 3.042 3.516 2.55 5.267-.072 9.637.435h6.96l3.66-1.333 3.14 2.318 1.953 6.2c0 .6 0 1.232.073 1.84l-5.253 2-3 4.65-5.83 2.26-2.098 4.042-3.82 1.448-7.93 1.174-5.166 2.665-7.64 2.42-7.234 3.1-2.72 2.767-5.108 2.245-4.804 4.23-.4 5.36 1.447 9.75 4.818 3.13-.347 5.562c-.1 1.594.318 7.113.318 7.17l-.347 5.635L695 220.6l-12.6 3.042-6.164.623-5.2 1.854-4.602 4.678-4.18 2.26-.246 2.318 4.34 3.578-.84 7.17-4.47 6.794-10.13 1.883-4.5 2.636-.217 5.04-2.026 5.027-3.386 2.057-7.003 3.75-.52 3.868c0 .58-.304 1.796-15.208 11.443l-.622.26-19.462 5.113-20.026-.738-8.682 1.7-5.3 3.55zm-5.036-4.244l4.544.985 4.34-2.897 10.418-1.956 19.852.724 18.015-4.8c5.962-3.882 12.647-8.43 13.674-9.575l.666-4.867 8.16-4.345 2.474-1.45 1.62-3.97.3-5.794 6.57-3.708 8.985-1.666 3.734-5.606.593-5.606-4.34-3.578.478-4.186 5.035-2.724 4.558-4.707 6.598-2.275 6.237-.622 10.94-2.65 2.778-4.68.347-5.23c0-.145-.4-5.577-.274-7.243l.318-4.664-4.645-3.013-1.534-10.618.45-5.925 5.614-4.852 5.065-2.202 2.734-2.767 7.583-3.216 7.64-2.42 5.44-2.752 7.973-1.202 2.735-1.1 2.113-4.027 5.932-2.318 3.04-4.635 4.92-1.87v-1.1l-1.795-5.795-.607-.45-2.04.74h-7.813l-9.666-.435-6.902.087-4.602-3.346-5.238-3.404-2.633-3.462-3.907-2.42-5.788-2.7-3.6-3.2c-.463-1.072-.9-2.13-1.447-3.187l-4.86-3.534-3.922-2.318-3.588-7.5-4.34-3.404-3.4-3.23-1.447-2.796-6.005-2.636a119.94 119.94 0 0 1 4.544-1.449l-1.577-2.65 8.146.74-.318 2.738 3.617 3.694 3.545 3.897 4.34 2.462 4.573 3.62 2.98 4.592 2.792 1.65 5.02 2.304 2.287 4.447 5.686 3.5 3.212 3.78 1.722 2.796v1.7l3.502.68 7.524.797 9.464-.985 12.8-.623 3.053-1.072 3.1-1.564 3.878-1.348 8.22.102 2.055.333-.492-1.622 13.023-4.346 2.242-1.13-1.157-2.1-3.806-1.174-3.574-2.158-8.32-4.867v-.246c-.012-.254-.1-.5-.228-.713a1.44 1.44 0 0 0-.553-.504 3.28 3.28 0 0 0-1.1-.246l-3.1.97-5.368 1.246-3.95 1.275-3.24-1.927-3.892-2.3c-.984-.594-1.114-1.187-.912-1.65l-2.894-.58-4.2-.58-.448-2.303c-.145-.768-.695-1.767-1.056-2.636l-7.858-4.5 1.867-.58 1.823-1.275 4.906.652 5.96 3.4v1.16l4.645 1.956 3 1.724 4.804 1.448 4.92 1.275.536.145 2.3-.7 5.787.898.13 1.564 2.546 1.45 4.124 1.58 5.788 1.376 14.137 2.434h.145s3.43.956 6.38 1.448l3.4.623 3.27-1.014 4.73 2.897 5.57 3.303 3.835 2.404 2.677.377 5.788 2.796-2.894.565-1.592.52 4.34 2.564 4.066.97 2.75.58 1.085-2.216.984.217a10.99 10.99 0 0 1 4.544 1.796c1.244 1 .825 1.767.767 1.854l-.97 3.578 3.647 6.2 9.897 8.33 8.03 11.965 6.743 4.75 1.143 5.04 4.428 1.072 3.14-1.173 3.212-.826-.65-2.65c0-.116-1.245-3.8-1.447-4.548s1.23-1.753 2.243-2.303l-.4-2.65-1.548-2.593 16.06-5.447 3.024-1.55 4.558-1.45-.84-2.767 10.534 1.304 1.823-.58 5.123 2.158 3.56 2.5 2.894 3.028 12.242 8.7 2.98 3.375 1.172 3.4 4.616 2.564 3.56 1.057 1.447-3.172 5.875 4.345c.275.754.564 1.45.825 2.275l6.005 8.213 4.514 3.404 2.214 6.446-1.317 3.433.767 2.173 2.995.97 9.985 7.895c1.447 1.65 3.038 3.288 4.543 4.94l.854 2.433 3.27 5.794 12.706 10.53 3.07.97a49.15 49.15 0 0 1-.68-1.912l-2.9-4.9-3.7-5.4-3.7-4.273-5.96-4.23-7.466-5.94-1.766-2.477-6.424-5.317-1.144-3.2-3.197-5.4 3.125-1.158-1.9-5.172 9.058 6.866 6.598 4.172 3.56 4.056 4.485 3.13 5.43 2.897 2.64 3.332 2.22.767 4.85-1.825 4.7.536.1-1.274-3.06-5.534-2.44-3.954-5.92-7.243-3.03-3.23-7.23-3.984-7.06-5.273 1.2-2.723 6.3-2.144 4.75 1.58 2.55 2.55 3.05 1.58 1.45-.435 3.77.32 2.8-.884 6.15.536 10.12 3.592.7-2.564 2.17-.738 1.85-4.346v-2.318l-1.85-3.78-2.98-2.057-1.85-3.766c-2.13-1.116-5.6-2.898-6.66-3.7-1.98-1.757-3.84-3.64-5.58-5.635l-6.08-3.418-2.9-3.288 3.74-.435 2.04-.594-1.7-1.173-7.7-2.173-7.67-4.23-4.17-2.795 6.37-1.7 4.34 1.45.84 2.245 1.9 1.304 2.27.666 2.9.942 1.83-.507 3.14 1.057 5.45 3.752.8 1.58 1.74.594 8.77 6.185 5.13 5.04 2.6 1.87 4.54 1.3 2.37.347c-.1-.434-.2-.854-.33-1.274l-3.75-3.9-6.33-4.505-8.58-4.94-1.3-2.506 1.86-.52-.8-2.086-1.45-2.7 2.9-.768 4.34 2.984 2.54.884 2.68-.724.22-2.608-3.95-5.9-1.68-2.97-2.2-2.188-6.45-4.273 3-.695 2.6 1.724 6 4.345 2.23 2.477 4.9 3.332 5.33 4.26 3.25 2.245 2.36.854-.48-.84-8.68-5.982 1.98-.493-2.6-2.028-5.42-3.23-7.24-4.056-4.12-3.62-7.34-2.477-4.98-3.216-5.42-2.202-1.26.3-7.24-2.723-6.97-3.013.492-2.448-1.577-2.246 4.756-1.014 2.67.84 2.12-.45 4.5 2.23 3.96 1.3 1.78-.377 7.92 2.622 2.9 1.854 2.22.753 1.78.768-2.2-3.708 1.84-.4 7.98 2.708 2.72 1.768 2.9.985c-.04-.056-.08-.1-.12-.16-.56-1 .83-1.23 1-1.26h.54l4.04 2.607 3.78 2.738.94 1.45 1.45 3.172-2.1.464.56 1.767 4.72 3.143 6.54 4.838 14.06 9.676 5 1.913.34-.087-5.32-5.288 2.08-.52c-.26-.478-.5-.956-.75-1.45l-5.1-3.476-2.1-2.057-5.38-3.42-4.1-2.448-5.4-3.476h3.85l4.6 1.666 2.46-.536 5.02 3.36 1.84.696 1.94-.45 2.9-.797 4.34 1.637a29.73 29.73 0 0 0 3.37 1.16l-.73-.45-5.07-2.535-7.74-3.9-4.88-3.245 4 1.318.1-2.173 4.43 2.897 4.6 1.724.42.3c4.18 2.278 8.53 4.215 13.02 5.794l-2.62-2.187-6.9-3.332-8-3.332-7.24-3.68-9.17-4.1-8.23-3.433-11.48-4.882-12.46-4.9-15.67-5.17-11.44-3.563c-.2-.072-4.65-1.666-9.135-3.042a22.5 22.5 0 0 1-6.367-2.897l-5.122-1.115-5.788-2.593-13.023-3.795-4.977-1.97-8.943-3.78-15.266-4.563-4.18-.55-1.26 1.3-4.34-1.028-4.196-1.55-5.528-1.448a26.83 26.83 0 0 0-3.661-.406h-.42l-17.277-6.678-8.494-1.883-12.213-2.752a49.18 49.18 0 0 1-7.235-2.144 36.12 36.12 0 0 0-4.934-.956h-.202l-4.964-1.318-4.34-.898-6.295-.608a12.36 12.36 0 0 1-3.994-1.333c-1.012-.652-.564-1.072-.506-1.115l.116-.116 5.4.246c0-.246-.16-.478-.23-.724L841.3 37.25l-10.13-1.97-6.453-2.318-7.438-1.115a40.15 40.15 0 0 0-6.005.232h-.304l-6.78-1.43-5.744-.478-8.045-1.318-1.664 1.898-9.623-1.246-7.105.26-8.334-.913.087.855-2.648.463-4.616-3.143-4.8-.74-4.34-.232c0 .608 0 1.202.102 1.796 5.788 1.956 6.8 2.578 6.453 2.897s-1.26.232-2.026.116l-4.992-1.057-4.2-1.014-10.043-1.275h-3.92l-7.06-.855-5.238-.145-3.748-.42-9.03-.8-8.58.942-3.805-1.738-3.126-.3.854 1.13-4.08.97-5.122-.55v.45l-4.746 1.144-2.778-1.246-1.447-.116 1.65 1.84-6.5-.536-7.076-3.172-4.124-1.043.333-1.65 7.35 1.333 13.934 1.16.926-.232-1.562-.608-9.854-2.318-10.4-1.03-9.072-2.23-12.473-.97-8.277-.478-13.82 1.55-15.7 4.157-13.4 2.723-5.9-.145-2.416 1.637-.912 2.216 2.33 1.014 7.235.174 3.56-1.014 7.322 3.23-.564 1.622-5.398.8-2.46-1.144-.898-1.173-2.705.782-1.447 3.8-3.3.985-6.974-.145-5.02 1.45-7.105 2.433h-5.08l-7.235 2.3h-2.7l-5.6 1.45h-7.148c-.7.204-1.364.517-1.968.927a7.3 7.3 0 0 0 .97 0c5.6 0 8.016 2.202 8.117 2.303l.073.188-1.028 3.9-6.005 2h-5.947l-5.7-.7-6.86-.116-5.788.13-2.677 5.142-3.863 2.26-1.606 3.056 3.212-.087 3.762 1.84 4.703-.434 6.135-.13 6.266-.8 5.426-.522 2.894-1 .78-1.7 5.267-1.796 3.357-1.985 6.353-1.246 1.78-.594.58-1.333 5.513-1.8 13.602.174 7.582-.898 7.394 3.563c2.634 2.332 8.335 2.462 8.552 2.477h.36l.3.087c6.135 1.695 6.5 3.158 6.54 3.317l-.738 2.448-2.98.97-3.906-.434-3.66-.1v.203l4.167 1.448 3.343.116.303-.985 4.8-1.535 2.156-1.666.477-1.593 3.893.16c0-.174.1-.333.145-.507l-6.107-1.65-7.235-2.3-5.296-2.55c-1.374-.652-1.866-1.3-1.447-1.898.536-.84 2.547-1.26 2.78-1.3l.897-.174 4.34 2.086 2.416.087 5.05 2.897 5.354.232c5.556.246 7.134 2.36 7.235 3.448l-1.085 3.448 1.07.536 6.8.275 2.634 1.333-4.153 1.304 3.85 1.94 3.024-.826.275-2.796-2.995-1.45 3.545-1.45 3.994.232 2.894-.884 4.615.3 3.6 1.7-1.852.565-.087.4c.072.26.145.522.203.782l3.82 1.94-.348 1.738 2.3 1.45-1.693.522.45.232 2.156-.68 7.495 1.188 4.023-1.23 3.386 1.753 5.513.74a42.62 42.62 0 0 0-.232 1.347l-1.447 1.666a4.98 4.98 0 0 0 1.302 0 4.18 4.18 0 0 0 2.084-.768c-.58-.362-1.447-1.014-1.273-1.666 0-.3.16-1.23 9.883-.637l1.2.072.492 2.636-1.882 2.665-.23 1.984c-.217 1.84-5.788 3.795-6.483 4.013l-.405.145-5.86-.507-7-.97-8.233-.623-8.205-1.115-8.363-1.608-8.87-1.956-9.796-.507c-.174.695-.348 1.448-.536 2.086l-5.788 1.956-5.874-1.448-7.727-.3L592 74.84l-5.788-.652-7.105-.188-4.862-2.318-.738-2.723 1.447-4.128-3.834-.087-4.732 1.593c-3.024 0-6.048-.087-9.087-.13l-6.743-.304-13.833.478-7.74 1.45-10.737 1.593-5.687-.68-5.556.116-6.135 1.65-13.486 5.055-1.534 2.897-4.992 2.158-7.67 3.143-8.16 2.593-10.2 5.794-13.515 7.72-1.8 2.723 1.852 2.897-2.5 5.157-7.654 4.867-1.737 3.144 1.13.666-2.807 4.346 2.518 1.448 3.935 3.317 4.443 2.724-.565 3.737 8.914 5.6 5.585 1.014 8.682.203 6.844-.4 8.566-1.145 9.247-.405 10.65-1.8 12.53-2.55 7.018-.145c7.93-.13 9.7 2.462 10.057 3.187l2.6 1.65 6.4-1.1 9.97 2.52-4.457 1.984h2.894l2.503 2.202-.506 4.085-6.25 5.345-1.737 5.403 9.45 6.562 1.664 4.46.55 4.5 3.126 3.62 1.866 5.954-2.07 7.083-6.44 6.635a313.66 313.66 0 0 0-5.6 8.082l-3.617 13.298 5.788 4.65 2.46 9.85.636 11-2.56 15.934 11.084 10.24 2.605 8.402-1.78 8.546 4.138 4.9zm183.058-193.44l1.953.26 6.54 1.347-.926.623c-.217.16-.593.594-.174.84l3.893 2.3 1.302.782 2.2-.7 5.37-1.246 3.5-1.1h.3a10.16 10.16 0 0 1 3.14.55l-.7-.42c0-.275 0-.565-.073-.855l-2.07-.32-.55.174c.3.174.434.377.3.594-.377.55-1.447.26-4.34-.492l-5.08-1.333-5.7-1.825-3.1-1.738-5.542-2.3V94.64l-4.428-2.506-2.257-.304-1.578.985 6.6 3.766 1.244 3.085a30.96 30.96 0 0 0 .217 1.173zm1.94-20.12l-.55-.304c-.65-.32-6.367-2.347-11.5-4.056l-.318-.13-5.484-2.897.752-.26s1.65-.58 1.65-1.45V69.63c-.42-.695-.84-1.45-1.274-2.086l-4.73-1.144-3.603-2.3-1.057-1.086-3.168-1.637 7.336-1.94 8.682-.768.492.13a54.62 54.62 0 0 1 6.887 2.014c.94.478 2.113 1.65 2.127 2.303 0 .3-.202.512-.607.608a24.6 24.6 0 0 1-5.673-.26l-.97.565v1.173l2.3 1.202 3.98 1.666 5.556.753 3.922 2.78c0 .623 0 1.246.072 1.87l-2.764-.377h-1.085v1.043l6.743 3.65-.275 2.013-3.502.985-3.95-.087zm-10.737-5.084c2.98 1 9.13 3.1 11.287 3.984h2.127l2.416-.68.16-1.173-6.657-3.592v-2.13l3.314-.087.535.073v-.536l-2.72-1.94-5.08-.68-4.775-2.013-3.154-1.65V63.38l1.953-1.144.724.1a37.92 37.92 0 0 0 4.717.391c-.37-.644-.898-1.183-1.534-1.564-.45-.203-3.068-.942-5.412-1.52l-7.67.666-5.18 1.45 1.867 1 1.085 1.13 2.894 1.8 5.296 1.275 1.707 2.897v2.043c0 .68-.897 1.448-1.548 1.767l3.646 1.956zm-39.777-9.387l-6.888-.695-8.508-1.68-6.7-1.956-7.828-.666-3 .898-6.062.188-6.83-.927c-.3-.072-2.894-.8-3.3-1.8-.217-.493.1-.956.926-1.362 1.027-.94 7.9-6.808 15.67-6.185h.535c1.273.7 2.56 1.448 3.85 2.1l1.215 1.825 5.63.478 2.113-.594-4.037-2 12.834-1.362 2.04 3.245-2.894.8 1.548 1.376 6.815 1.637 6.512 2.173 4.34 2.23-2.894 1.695-5.08.58zm-6.338-1.622l5.788.58 3.907-.434 1.534-.913-2.98-1.535-5.933-1.956-7.5-1.782-2.734-2.448 3.183-.898-.955-1.448-7.148.753 3.458 1.7L673 57.566l-8.45-.7-1.606-2.42-2.734-1.45c-5.123-.116-10.896 4.085-12.763 5.794l-.174.1c-.463.217-.636.434-.535.652.203.435 1.375.87 1.968 1.058l5.716.753 4.9-.16 3.3-.97 9.405.797 7.1 2.072 7.944 1.535h.03zm80.062-28.522l-2.894-1.68 1.94-.406-1.375-1.564c0-.42-.1-.855-.145-1.3l3.372.536 2.894.884 3.516 2.115-2.084.45-.116.84h-3.37l-1.736.116zm0-1.173l.376.217h2.445l.102-.652 1.345-.3L769.42 33l-2.14-.652-.434-.072v.463l1.75 1.87-1.476.304zm262.45 228.87l-.34-.13-12.6-8.344-10.82-12.052-1.55-4.664a1385.69 1385.69 0 0 0-33.005-27.305l-2.634-8.083 20.547 11.024 4.964 6.315 9.308 7.692 9.18 5.65 4.1 5.635 5.05 1.84 1.13 3.172 6 5.244 6.47 11.24c.12.246 1.1 2.462-.32 3.346-.98.623-2.82.463-5.47-.58zm-11.4-9.372l11 7.243c1.57.55 2.66.68 3.2.348.78-.464.23-1.782.23-1.797l-6-10.4-6.3-5.505-.68-1.984-4.23-1.52-4.57-6.33-8.68-5.418-10.13-8.517-4.428-5.635-15.164-8.17 1.534 4.664c11.2 8.98 22.2 18.093 33 27.334l1.66 4.94 9.54 10.748z"/><path d="M1085.8 296.937l-8.45-3.708-7.58-5.33-10.95-5.94-9.13-4.346c-8.3-3.68-13.27-6.33-14.68-7.98-.73-.898-3-3.563-2-4.346s4.34.913 5.6 1.666l12.2 4.75 3.55 3.303 2.23-1.173 9.03 3.665 8.68 8.242 8.7 3.68 2.83 7.518zm-8.33-5.62l4.53 1.926-1-2.766-7.02-2.97-8.75-8.286-6.63-2.694-3.1 1.65-5.12-4.765-11.7-4.607a10.32 10.32 0 0 0-2.89-1.303 13.92 13.92 0 0 0 1.36 1.84c3.87 2.297 7.9 4.32 12.05 6.055l9.32 4.447 11.58 6.272 7.38 5.2zm2.2-14.804l-.48-.247-6.55-4.04-14.28-5.794-12.23-11.1-6.55-9.285-1.94-5.17 2.82-1.304 7.74 2.897-1.62-4.2 4.83-.8 3.74-1.695 6.1 2.4.97-4.62 8.84 3.52 7.16 6.156 2.42 5.794-2.5 1.188.86 2.057 7.38 7.127 1.9 4.664-3.47 1.767 1.45 3.55-3.66 1.883c.65 1.376 1.98 4.607.63 5.606-.68.478-1.9.362-3.53-.318zm-20.94-11.835l13.78 5.635 6.5 4.012c.7.26 1.14.3 1.45.087.92-.68-.38-3.694-.9-4.693l-.3-.594 3.78-1.927-1.45-3.52 3.5-1.752-1.23-3-7.3-7.127-1.45-3.65 2.5-1.188-1.7-4.027-5.06-4.345-5.88-2.347-.97 4.65-6.8-2.68-3.27 1.448-4.04.696 2.02 5.23-9.42-3.62-1.6.753 1.57 4.172 6.03 8.46 10.24 9.33zm-43.52-78.873l-9.1-3.404-2.5-5.954 11.06 2.825 2.5 5.794-1.98.74zm-7.08-4.013l5.36 2.014.8-.3-1.44-3.303-6.04-1.535 1.33 3.114zm46.93 8.416l-4.23-1.58-4.24-3.26-1.44-3.013-.67-3.55 3.4-1.16 4.34 3.23 1.44 2.897 2.58 3.447c.3.32 2.14 2.535 1.45 3.216-.36.232-1 .377-2.62-.232zm-3.9-2.795l3.14 1.187c.62.232.7.145.73.13.02-.015-.5-1.3-1.1-1.985l-2.9-3.824-1.13-2.332-1-.753-1.74.594.55 2.998 1.07 2.23 2.36 1.753zm17.57-13.008l-.82-.305-3.1-3.244-3.56-2.637-2.4-2.97v-2.42l6.4 3.708 3.8 2.897c.98.948 1.85 1.992 2.62 3.114l.84 1.594c.35.4.6.854.4 1.1s-1.68.116-4.17-.84zm-5.66-6.084l3.55 2.665 2.14 2.23c1.45.52 1.67.405 1.67.405l-.22-.202v-.116l-.9-1.724c-.57-.816-1.2-1.578-1.92-2.274l-3.06-2.26-2.9-1.65v.854l1.63 2.072z"/><path d="M1073.16 172.507l-1.22-.478-1.06-1.984-2.43-2.26-.27-.522-2.2-.695-4.54-1.68-2.1-2.984 3.7-1.13 5.8 2.506 3 1.144 2.46-.753 4.05-.68-.75-2.55-3.26-2.376-2.12-3.795 4.13 1.608 5.6 2.998 3.46 3.8 2.72 2.78 2.77 3.375 2.6 2.492 2.33 4.128-1.77.58-.44-.16-3.6-1.376-3.67-1.448-2.1-.652-1.45.45 1.55 3.578-4.82-3.665-3.04-2.897-2.6-1.014 1.87 1.448.1.333a7.14 7.14 0 0 0 1 2.144l.76.58-.14.3c-.03.16-.1.464-4.28-1.144zm-2.48-4.172l2.43 2.274.48.87.8.3a7.75 7.75 0 0 1-.97-2.042l-3.3-2.434 1.45-.463 5.57 2.13 3.3 3.172-.36-.825 2.2-.696 3.04.942 3.85 1.52 3 1.144.9-.3-1.78-3.245-2.5-2.4-2.72-3.346-2.66-2.7c-.9-.898-1.87-2.072-2.8-3.1l-4.17-2.23-1.13-.434 1.04 1.84 3.5 2.55 1.07 3.636-4.46.738-2.9.898-4.17-1.578-4.73-2.057-2.53.782.64.883 2.34.884 4.57 1.45.97 1.84zm-3.98-16.295l-2.9-3.332-1.16-2.042 1.53-.406-4.86-3.418-1.44-2.463 5.47 1.87 4.5 3.172 5.9 3.187 4.82 2.13 4.34 3.1-.64 1.45-2.7.768-4.88-2.347-2.22-1.593-.74.275 1.26 1.825-6.3-2.173zm-.65-2.55l1.64 1.825 2 .7-.68-.985 2.27-.826 3.9 2.767 2.8 1.347 2-.565.3-.74-2.06-1.448-4.53-2.028-6.73-3.68-3.76-2.65-2.3-.782.42.74 6.14 4.346-2.2.608c.3.42.55.826.8 1.362zm187.15 401.985l-5.9-4.172-5.56-9.125-14.47-9.85-7.7-12.124-2.8-12.27-.54-6.765-4.34-5.142-1.98 2.057-2.55-10.314-1.15-.7-2.58 2.607-6.73-10.966-2.2-6.417-10.77-10.7-5.45-7.43-4.1-.45-8.13-2.23-6.4-.84-7.78-4.346-4.24 2.68-20.5-8.952-5.95-.072-5.04-.58-7.55-2.172-7.74-3.868-6.98-8.98-1.36-4.085c-.14-.68-.56-2.477 5.58-5.968l-1.45-6.982-5.98-23.394-2.3-12.284c-1.45-3.838-3.06-7.662-4.62-11.5l3.52-2.434 9.74-2.998 8.68 1.637 9.33 2.593 6.76 1.086.66-4.75 1.1-5.954 6.1 2.897 9.87-6.518 7.77 1.144 4.18 4.52 8.3 6.605c.47.145 1.17.217.84-.7a22.89 22.89 0 0 1-1.05-6.518v-.507l6.13 1.13 5.88-1.072 6.67 3.55 11.72 8.474 5.9 6.6-2.8 4.23v2.898l4.76 6.663 7.48 6.88 7 8.272 2.9 2.013 2.62-2.202 2.9-2.897-4-10.676-1.3-7.633 2.52-2.58 6.5 7.156 3.6 6.504 9.97 11.588 6.63 13.037v.304a17.88 17.88 0 0 0 1.45 4.621 20.53 20.53 0 0 1 3.19 8.474l6.4 8.213 8.58 13.85 5.8 10.806 6.63 10.4 11.13 15.5 2.33 15.253 4.42 14.862-3.34 16.397-2.42 2.68-8.03.826-4.16 4.896 1.3 5.33-1.56 1.854c-1.45 2.274-3.02 4.534-4.54 6.808l-3.53 2.665-7.14-5.128-5.22 1.014-2.88 3.694zm-5.64-7.9l3.34 2.347 2.82-3.115 5.93-1.115 6.86 4.882 2.8-2.086 5.5-7.866-1.32-5.3 5.07-5.795 8.03-.796 2-2.333 3.06-15.166-4.25-14.34-2.05-13.544-9.8-13.646-7.23-11.588-5.8-10.777-8.25-13.312-7.42-9.416c0-.26-.1-.52-.14-.782-.34-2.1-.93-4.172-1.75-6.142-1.52-2.215-2.53-4.73-3-7.373l-5.68-11.255-9.93-11.502-3.56-6.475-2.75-3.04-1.2 1.245 1.18 6.9 4.34 11.414-3.38 3.347-3.26 2.752-5.47-3.766-7.74-9.184-7.68-7-6.64-9.314.08-4.418c.7-1 1.45-2.014 2.07-3.028l-2.66-2.897-10.72-7.793-5.23-2.752-5.68 1-5.15-.956a20.37 20.37 0 0 0 .86 5.2c1.12 3.042-1.27 2.7-2.7 2.115l-.36-.16-10.13-8.14-2.62-2.897-6-.87-9.9 6.823-5.4-2.622-.83 4.664-.78 5.707-8.06-1.303-9.4-2.622-8.37-1.594-9.04 2.897-2.57 1.826 4.12 10.313 2.4 12.53 6 23.423 1.72 8.575-.42.232c-2.37 1.333-5.02 3.303-5.4 4.244l.72 2.13 4.8 6.17 6.2 3.085 6.86 1.94 4.73.52 6.5.2 19.74 8.56 4.34-2.695 8.68 4.752 5.8.666 8.1 2.216 5.6.594 7.1 9.6 11.68 11.46 2.66 7.706 2.9 4.736 1.45-1.448 5.57 3.447 1.45 5.795 8.3 9.908.74 9.24 2.3 9.793 5.27 8.256 14.47 9.82 5.57 9.213zm.74 37.23l-9.53-11.922-1.67-9.488.77-5.548-1.26-8.17 7.48 5.2 1.45 3.9 10.52 7.5 2.44 12.197-3.35 3.26-2.27 2.52-4.58.55zm-6.96-12.878l5.8 7.243 3.24-.362 1.87-2.23 2.65-2.564-1.03-5.2-9.7-6.895-1.44-3.94-2.32-1.623.7 5.172-.77 5.504 1 4.896zm13.9-240.79l-7.24-4.158-.92-1.854c-.68-.94-2.27-3.26-1.58-3.723.7-.463 3.68 1.45 5.4 2.65l1.16.782 3.17 6.302zm-5.86-5.128l2.08 1.202-.88-1.767a11.01 11.01 0 0 0-2.4-1.29 10.59 10.59 0 0 0 1.07 1.694l.13.16zm-97.57-49.02l-9.2-5.794-1.1-4.07 7.23 3.36a154.76 154.76 0 0 1 3.07 6.504zm-6.84-5.924l2.9 1.796-.74-1.565-2.33-1.1.23.87h-.05zm163.7 162.366l-4.52-3.607-5.32-6.33-6.43-4.244-3.27-8.04 6.04 3.955.16-6.273 9.6 15.283 3.75 9.256zm-4.6-5.9l.36.3-2.14-5.113-4.13-6.576-.08 3.317-5-3.317.7 1.752 4.66 3.086 5.62 6.562zm-43.2-25.417l-.47-.347-10.05-8.6-4.95-3-6.45-7.098-12.28-13.978-3-2.897-2.13.4 1.8 4.418-14.18-8.025-7.5-6.765-11.66-7.445-3.4-8.3 4.03 2.13-1.16-2.78a19.46 19.46 0 0 0-2.9-3.448l-5.4-5.62-8.02-6.185-8.02-4.97-6.03-2.955-.32-6.098-4.6-3.216-6.54-7.474 2-1.13 7.4 3.07 7.03 6.562 4.85 6.822 1.9.942 6.73-1.58 6.1 3.13 8.5 7.242 8.68 6.867 8.7 6.156 7.9 6.72 8.2 7.808 7.86 8.04 3.2 7.5 4.34 7.475 6.24 7.126 9.26 10.068 5.66 7c.13.188 1.17 1.984.85 2.738-.17.42-.67.637-2.16-.305zm-15.65-14.3l4.6 2.897 10 8.517h.12l-4.46-5.46-9.2-10.024-7.24-8.227-5.06-8.894-2.6-6.302-6.38-6.518-7.9-7.547-7.6-6.417-8.5-6.012-9.1-7.242-7.9-6.794-4.43-2.3-6.74 1.623-4.74-2.463-5.7-8.04-5.16-4.824-5.33-2.23-.52.305 3.75 4.345 6.57 4.563.3 5.345 2.4 1.203 8.7 5.403 9.13 6.967 5.54 5.794a26.17 26.17 0 0 1 4.6 5.794l2.26 5.476-4.03-2.158 1.35 3.273 9.9 6.388 7 6.287 10.62 5.968-1.25-3.027 4.04-.725 5.47 5.172 12.33 14.007 5.2 5.88v-.014z"/><path d="M1251.1 373.768l-5.97-3.564-7.23-9.27 6.83 2.448 2.3-1.767 2.6-.667-3.5-3.896-7.85-6.65 2.5-1.854a227.28 227.28 0 0 1 5.66 3.896l6.97 7.707 4.86 5.794 1.1 5.142-3.73 2.897-4.54-.217zm-5.8-5.563l3.83 2.3 3.88.246 3.15-2.55-.7-3.346-3.38-4.056-5.94-6.562-3.2-2.274-.38.3 4.34 3.7 7 7.75-4.16 1.058-2.5 1.984-4.12-1.448 2.2 2.9zm40.32 37.648l-5.8-3.708-3.63-8.7-2.46-1.55-7.34-8.605-2.04-4.78-4.34-8.85 12.37 14.196 4.34 2.723 5.1 5.997 5.23 12.646-1.44.623zm-4.34-5.04l2.05 1.333.46-.203-4.1-9.923-2.73-3.215-4.34-2.753-6.05-7.025.48 1.014 1.57 3.68 5 5.794 4.04 2.55 3.67 8.75h-.05zm14.54 9.79l-6.4-4.186-1.7-3.303-2.52-3.042-2.4-5.65 6.24 3.592 4.88 8.054 1.88 4.534zm-5.4-5.794l1.45.898-.48-1.16-2.76-4.534-1.85-1.072.66 1.594 2.28 2.738.7 1.535zm-191.8-100.254l-6.8-3.013-4.34-8.474 15.9 7.678-4.76 3.8zm-5.22-4.345l3 1.303 1.62-1.303-6.14-2.97 1.53 2.926v.044z"/><path d="M1109.95 313.84l-10.82-10.14 10.82 4.867 6.47 6.504-6.47-1.232zm-2-4.1l1.6 1.45 1.04.202-.9-.912-1.74-.74z"/><path d="M1118.8 312.972l-10.13-4.62-2.08-5.634 7.23 2.65 8.18 5.62-3.2 1.984zm-8.1-5.794l5.93 2.7.5-.3-2.64-1.825-4.1-1.52.33.913v.014zm23.53 18.05l-10.02-5.52-2.22-5.924h7.24l9.73 3.302 5.5 5.635-6.85-.855-2.17-1.043-2.44 1.565 1.24 2.84zm-7.97-6.5l3.65 2.013-.35-.782 3.7-2.303 3.07 1.448 2.8.304-8.15-2.78h-5.42l.72 2.1zm-17.78-22.944l-12.84-5.693-1.45-7.098-3.3-3.114.36-5.896 2.77-.26-2.48-6.3.13-4.346 4.34 1.116 8.7 3.288 7.07 3.114 5.05.305 1.36 5.374-1.9 1.028a.63.63 0 0 1 .09.326.63.63 0 0 1-.09.326c-.17.188-.64.32-1.84-.217-1.56-.7-6.75-3.506-7.33-3.824l-.48-.247-2.37-2.2-4-.247-.9.478 1.7 1.565 5.3 2.317 7.32 3.825-5.08 2.752 5.05 4.794 2.46 6.17-1.74 1-5.53-2.492-1.98-5.026-3.2-2.42-2.04 1.115 1.45 1.45 5.47 9.04zm-10.36-6.577l5.78 2.52-3-4.853-3.47-3.216 4.44-2.42 7.15 5.36 1.6 4.085 1.45.652.65-.435-1.68-4.2-6.6-6.272 3.72-2-1.23-.565-6.28-2.752-5.4-4.998 2.68-1.3 5.67.362 3.37 3.115 6.06 3.158-.08-.145 2.14-1.145-.22-.87-1.55-.087-7.64-3.375-8.33-3.2-2.78-.695-.07 3.23 2.9 7.054-3.15.304-.25 4.216 3 2.824 1.13 5.635zm38.36-.45l-11.96-5.88 3.74-2.057-4.24-7.9.78.1a17.76 17.76 0 0 1 4.64 1.203c2.8 1.274 4.53 4.852 5 5.94l.12.3a54.78 54.78 0 0 1-.6 1.652l1.28 2.897 1.23 3.766zm-6.4-4.983l2.9 1.45-.5-1.565-1.44-3.418.6-1.637a11.78 11.78 0 0 0-1.37-2.26 13.87 13.87 0 0 0-2.62-.68l3.94 7.33-1.5.782zm11.87 20.28l-5.24-5.186-1.88-4.52 8.68 4.23 7.75 5.88-2.54 2.593-6.77-2.998zm-2.9-4.838l2.9 2.897 4.34 1.926.84-.84-3.64-2.752-4.97-2.376.53 1.145zm-65.23-65.36l-8.25-3.78-.53-.696c-.1-.144-2.62-3.476-.75-4.345 1.58-.55 3.2-.976 4.86-1.275l.72-.13 3.92 3.273 1.32 3.158-1.3 3.795zm-6.87-4.693l4.34 2 .9-2.738-.8-1.752-.7-.58c-1.35.255-2.67.618-3.96 1.087-.64.3-.2 1.303.2 1.984zm13.95-2.144l-8.18-5.04-2.47-4.867-5.1-5.562-4.34-6.475v-6.417l9.36 5.6 3.15 5.476.35 3.795 4.34 3.505 6.57 3.187 4 4.606 1.56 3.36-5.78-2.42-4.35-2.796-1.44-.594 2.33 4.65zm-6.15-5.258l1.95 1.202-1.84-3.534 5.17 2.13 4.34 2.78 2.18.9-.6-1.304-2.5-2.8-6-2.897-6.46-5.302-.38-4.346-2.36-4.085-4.75-2.897v4.607l3.93 5.88 5.26 5.794 2.06 3.882zm35.32 35.648l-5.8-2.492-7.02-7.547-6.6-2.78-1.56-5.36 6.78 2.898 6.08-2.492 1.26 1.115c7.47 6.65 7.9 7.678 8.06 8l2.3 5.084 1.1 3.115-4.6.45zm-5.12-3.897l3.35 1.45 3.32-.363c-.23-.695-.48-1.448-.73-2.1l-2.25-4.968c-.37-.478-2.9-2.897-5.47-5.215l-5.3 2.173-5.4-2.3.5 1.68 5.05 2.13 6.94 7.503z"/><path d="M1094.15 241.762l-6.3-5.432-.87-1.956-4.03-3.433-2.8-2.65-.7-3.244 4.34 1.752 1.2-.782 4 1.637.12 3.028-.58.26.38 1.174 1.66 1.448c1.4.795 2.6 1.906 3.5 3.245a10.29 10.29 0 0 1 .25 3.868l-.12 1.086zm-3.98-5.128l1.32 1.13c.06-.704.01-1.414-.16-2.1a7.8 7.8 0 0 0-1.2-.884l-.33-.188-3.45-2.897-.82-2.593-3.03-1.246.25 1.16 1.65 1.55 4.9 4.157.87 1.912z"/><path d="M1095.56 238.112l-2.5-5.5-5.48-4.65 9.5 3.013 5.98 5.1-2.64.84.22 2.332-5.06-1.144zm-1.87-6.59l1.66 1.448 1.7 3.68.68.144-.18-1.912 1.6-.507-2.05-1.738-3.4-1.115z"/></g></g></svg>