<svg width="106" height="17" viewBox="0 0 106 17" fill="none" xmlns="http://www.w3.org/2000/svg">
<path d="M6.44799 16.0166C8.80917 16.0166 10.5842 14.8109 11.5053 12.6172L9.71345 11.7464C8.95988 13.4712 7.97187 14.1913 6.49822 14.1913C5.44323 14.1913 4.57243 13.7894 3.88585 12.9856C3.19926 12.1818 2.86434 11.177 2.86434 9.95454C2.86434 8.76557 3.19926 7.76081 3.88585 6.95701C4.57243 6.1532 5.42648 5.7513 6.46473 5.7513C7.82116 5.7513 8.82592 6.43788 9.56274 7.86129L11.3378 6.90677C10.4838 4.98098 8.72544 3.89249 6.46473 3.89249C4.80688 3.89249 3.43371 4.4786 2.37871 5.63408C1.32371 6.78955 0.787842 8.2297 0.787842 9.97129C0.787842 11.7296 1.30697 13.1865 2.34522 14.3252C3.40022 15.4472 4.75664 16.0166 6.44799 16.0166Z" fill="white"/>
<path d="M12.6904 11.5956C12.6904 12.9018 13.0923 13.9736 13.8962 14.7941C14.7 15.6147 15.7382 16.0166 17.0277 16.0166C18.3171 16.0166 19.3553 15.6147 20.1592 14.7941C20.9797 13.9736 21.3816 12.9018 21.3816 11.5956C21.3816 10.2895 20.9797 9.23446 20.1592 8.41391C19.3553 7.59336 18.3171 7.17471 17.0277 7.17471C15.7382 7.17471 14.7 7.59336 13.8962 8.41391C13.0923 9.23446 12.6904 10.2895 12.6904 11.5956ZM19.4223 11.5956C19.4223 13.2535 18.4511 14.3755 17.0277 14.3755C15.621 14.3755 14.6497 13.22 14.6497 11.5956C14.6497 9.93779 15.6042 8.81581 17.0277 8.81581C18.4511 8.81581 19.4223 9.93779 19.4223 11.5956Z" fill="white"/>
<path d="M30.6679 11.5956C30.6679 9.9043 31.3712 8.86605 32.577 8.86605C33.5985 8.86605 34.1008 9.5024 34.1008 10.8588V15.8156H36.0266V10.4234C36.0266 9.5024 35.7587 8.73208 35.2228 8.11248C34.7037 7.49288 34.0004 7.17471 33.1128 7.17471C31.8569 7.17471 30.9191 7.77756 30.3665 8.93303C29.9143 7.81105 28.9598 7.17471 27.7374 7.17471C26.6154 7.17471 25.7446 7.64359 25.192 8.58137V7.37566H23.3499V15.8156H25.2924V11.5956C25.2924 9.92105 26.0125 8.86605 27.2015 8.86605C28.223 8.86605 28.7254 9.5024 28.7254 10.8588V15.8156H30.6679V11.5956Z" fill="white"/>
<path d="M45.8113 11.5956C45.8113 9.9043 46.5146 8.86605 47.7203 8.86605C48.7418 8.86605 49.2442 9.5024 49.2442 10.8588V15.8156H51.17V10.4234C51.17 9.5024 50.902 8.73208 50.3662 8.11248C49.847 7.49288 49.1437 7.17471 48.2562 7.17471C47.0002 7.17471 46.0624 7.77756 45.5098 8.93303C45.0577 7.81105 44.1032 7.17471 42.8807 7.17471C41.7587 7.17471 40.8879 7.64359 40.3353 8.58137V7.37566H38.4933V15.8156H40.4358V11.5956C40.4358 9.92105 41.1559 8.86605 42.3448 8.86605C43.3663 8.86605 43.8687 9.5024 43.8687 10.8588V15.8156H45.8113V11.5956Z" fill="white"/>
<path d="M59.9498 13.2702C59.9498 12.0143 59.1963 11.2607 57.5049 10.8756L56.115 10.5574C55.3614 10.3732 55.0935 10.122 55.0935 9.63637C55.0935 9.08375 55.5624 8.73208 56.4164 8.73208C57.2202 8.73208 58.0073 9.05026 58.8613 9.77033L59.8494 8.34693C58.7776 7.54312 57.6891 7.17471 56.4332 7.17471C55.4787 7.17471 54.7251 7.4259 54.139 7.91153C53.5696 8.39716 53.2849 8.98327 53.2849 9.70335C53.2849 10.9928 54.0887 11.8468 55.6796 12.1985L56.8853 12.4664C57.8064 12.6674 58.1078 12.9353 58.1078 13.421C58.1078 14.0741 57.5552 14.4592 56.5002 14.4592C55.5791 14.4592 54.5744 14.0238 53.8208 13.4042L52.8663 14.7774C53.7538 15.531 55.1605 16.0166 56.6341 16.0166C58.6604 16.0166 59.9498 14.8946 59.9498 13.2702Z" fill="white"/>
<path d="M74.1469 11.5956C74.1469 12.9018 74.5488 13.9736 75.3526 14.7941C76.1564 15.6147 77.1947 16.0166 78.4841 16.0166C79.7735 16.0166 80.8118 15.6147 81.6156 14.7941C82.4362 13.9736 82.8381 12.9018 82.8381 11.5956C82.8381 10.2895 82.4362 9.23446 81.6156 8.41391C80.8118 7.59336 79.7735 7.17471 78.4841 7.17471C77.1947 7.17471 76.1564 7.59336 75.3526 8.41391C74.5488 9.23446 74.1469 10.2895 74.1469 11.5956ZM80.8788 11.5956C80.8788 13.2535 79.9075 14.3755 78.4841 14.3755C77.0774 14.3755 76.1062 13.22 76.1062 11.5956C76.1062 9.93779 77.0607 8.81581 78.4841 8.81581C79.9075 8.81581 80.8788 9.93779 80.8788 11.5956Z" fill="white"/>
<path d="M86.7489 15.8156V12.2655C86.7489 10.2392 87.6197 9.067 89.0933 9.067C89.2775 9.067 89.4283 9.067 89.7129 9.11724L89.8804 7.37566C89.6627 7.32542 89.3613 7.30867 89.0933 7.30867C88.0049 7.30867 87.1341 7.94502 86.6484 9.10049V7.37566H84.8064V15.8156H86.7489Z" fill="white"/>
<path d="M91.8673 13.3205C91.8673 15.0788 92.8386 16.0166 94.7643 16.0166C95.5681 16.0166 96.3217 15.7821 96.9246 15.33L96.3552 13.9066C95.7523 14.2583 95.4342 14.3587 95.0155 14.3587C94.1615 14.3587 93.7931 14.0071 93.7931 13.0693V8.94978H96.2715V7.37566H93.7931V4.09344L91.8673 4.74654V7.37566H90.4606V8.94978H91.8673V13.3205Z" fill="white"/>
<path d="M106 10.4234C106 9.48565 105.715 8.71534 105.146 8.09574C104.593 7.47613 103.84 7.17471 102.902 7.17471C101.763 7.17471 100.892 7.62685 100.29 8.51438V3.59106H98.3471V15.8156H100.29V11.6124C100.29 9.92105 101.06 8.86605 102.383 8.86605C103.522 8.86605 104.074 9.46891 104.074 10.8588V15.8156H106V10.4234Z" fill="white"/>
<path d="M64.723 7.80469C62.8623 7.92592 62.0971 11.4923 61.947 13.2604C62.3972 11.9217 63.6426 9.19893 65.0231 9.01707C66.4036 8.83521 67.399 14.0939 67.7241 16.746C67.424 13.2301 73.076 4.09178 75.902 0C72.8259 1.36393 69.2496 7.70366 67.574 11.063C67.399 9.92635 66.5837 7.68345 64.723 7.80469Z" fill="#589A47"/>
</svg>
