<svg width="264" height="185" viewBox="0 0 264 185" fill="none" xmlns="http://www.w3.org/2000/svg">
<g filter="url(#filter0_d)">
<rect x="119" y="42" width="115" height="93" fill="#1C2124"/>
</g>
<path d="M179.61 94.0452C178.107 91.0215 177.319 87.4236 177.319 84.223C177.319 74.898 185.082 67.7297 194.381 67.7297C203.457 67.7297 210.892 75.3359 210.892 84.515L214.063 94.8375H209.038V99.6507C209.038 102.36 206.842 104.555 204.134 104.555H198.388L197.427 110.062H179.429L180.811 104.33C181.646 100.868 181.195 97.2344 179.61 94.0452Z" fill="#F2BB88"/>
<path d="M181.814 91.6908C189.478 91.6908 195.691 85.478 195.691 77.8141C195.691 70.1503 189.478 63.9375 181.814 63.9375C174.15 63.9375 167.938 70.1503 167.938 77.8141C167.938 85.478 174.15 91.6908 181.814 91.6908Z" fill="#F5737F"/>
<path d="M176.89 85.7393C178.132 85.7393 179.14 84.7319 179.14 83.4893C179.14 82.2466 178.132 81.2393 176.89 81.2393C175.647 81.2393 174.64 82.2466 174.64 83.4893C174.64 84.7319 175.647 85.7393 176.89 85.7393Z" fill="#FFCBBE"/>
<path d="M186.579 90.546V87.2463H188.096C188.286 86.4001 188.62 85.6082 189.07 84.8971L187.997 83.824L190.33 81.4908L191.403 82.5642C192.114 82.1143 192.906 81.7809 193.752 81.5907V80.0732H197.052V81.5907C197.898 81.7809 198.69 82.1143 199.401 82.5642L200.474 81.4908L202.807 83.824L201.734 84.8971C202.184 85.6082 202.518 86.4002 202.708 87.2463H204.225V90.546H202.709C202.519 91.3925 202.185 92.1847 201.735 92.896L202.807 93.9683L200.474 96.3015L199.402 95.2293C198.691 95.6796 197.898 96.0133 197.052 96.2037V97.7191H193.752V96.2037C192.906 96.0134 192.113 95.6796 191.402 95.2293L190.33 96.3015L187.997 93.9683L189.069 92.896C188.619 92.1847 188.285 91.3925 188.095 90.546H186.579Z" fill="#91DEF5"/>
<path d="M192.226 88.8972C192.226 87.143 193.648 85.7209 195.402 85.7209C197.156 85.7209 198.578 87.143 198.578 88.8972C198.578 90.6513 197.156 92.0734 195.402 92.0734C193.648 92.0734 192.226 90.6514 192.226 88.8972Z" fill="white"/>
<path d="M185.419 80.8793C185.602 81.0623 185.842 81.1539 186.082 81.1539C186.322 81.1539 186.562 81.0623 186.745 80.8793C187.111 80.5132 187.111 79.9196 186.745 79.5534L186.082 78.8905L186.745 78.2276C187.111 77.8615 187.111 77.2679 186.745 76.9017C186.378 76.5357 185.785 76.5357 185.419 76.9017L184.756 77.5646L184.093 76.9017C183.727 76.5357 183.133 76.5357 182.767 76.9017C182.401 77.2678 182.401 77.8614 182.767 78.2276L183.43 78.8905L182.767 79.5534C182.401 79.9195 182.401 80.5131 182.767 80.8793C182.95 81.0623 183.19 81.1539 183.43 81.1539C183.67 81.1539 183.91 81.0623 184.093 80.8793L184.756 80.2164L185.419 80.8793Z" fill="black"/>
<path d="M173.836 73.6449C174.019 73.8279 174.259 73.9195 174.499 73.9195C174.739 73.9195 174.979 73.8279 175.162 73.6449L175.825 72.982L176.487 73.6449C176.671 73.8279 176.91 73.9195 177.15 73.9195C177.39 73.9195 177.63 73.8279 177.813 73.6449C178.179 73.2789 178.179 72.6852 177.813 72.319L177.15 71.6561L177.813 70.9932C178.179 70.6271 178.179 70.0335 177.813 69.6673C177.447 69.3013 176.854 69.3013 176.487 69.6673L175.824 70.3302L175.162 69.6673C174.795 69.3013 174.202 69.3013 173.836 69.6673C173.47 70.0334 173.47 70.627 173.836 70.9932L174.499 71.6561L173.836 72.319C173.47 72.6852 173.47 73.2789 173.836 73.6449Z" fill="black"/>
<path d="M187.13 73.6268C187.313 73.8098 187.553 73.9014 187.793 73.9014C188.033 73.9014 188.273 73.8098 188.456 73.6268L189.914 72.1685C190.28 71.8024 190.28 71.2087 189.914 70.8426L188.456 69.3841C188.09 69.0182 187.496 69.0181 187.13 69.3841C186.771 69.7433 186.765 70.321 187.111 70.6886C181.922 71.4009 177.617 75.2125 176.337 80.351C174.842 80.6136 173.702 81.9204 173.702 83.4895C173.702 85.2471 175.132 86.677 176.89 86.677C178.647 86.677 180.077 85.2471 180.077 83.4895C180.077 82.2034 179.311 81.0936 178.212 80.5903C179.331 76.4532 182.758 73.3618 186.922 72.616C186.788 72.9535 186.857 73.3536 187.13 73.6268ZM176.89 84.802C176.166 84.802 175.577 84.2133 175.577 83.4895C175.577 82.7658 176.166 82.177 176.89 82.177C177.613 82.177 178.202 82.7658 178.202 83.4895C178.202 84.2133 177.613 84.802 176.89 84.802Z" fill="black"/>
<path d="M195.402 84.7834C193.134 84.7834 191.288 86.6289 191.288 88.8972C191.288 91.1655 193.134 93.0109 195.402 93.0109C197.67 93.0109 199.516 91.1655 199.516 88.8972C199.516 86.6289 197.67 84.7834 195.402 84.7834ZM195.402 91.1359C194.168 91.1359 193.163 90.1316 193.163 88.8972C193.163 87.6628 194.168 86.6584 195.402 86.6584C196.636 86.6584 197.641 87.6628 197.641 88.8972C197.641 90.1316 196.636 91.1359 195.402 91.1359Z" fill="black"/>
<g filter="url(#filter1_d)">
<rect x="30" y="26" width="153" height="125" fill="#1C2124"/>
</g>
<g clip-path="url(#clip0)">
<path d="M134.79 40H87.21C85.4557 40 84.0344 41.4212 84.0344 43.1756V119.31H137.965V43.1756C137.965 41.4212 136.544 40 134.79 40V40Z" fill="#2F4156"/>
<path d="M115.759 47.931H106.241C105.366 47.931 104.655 47.2203 104.655 46.3448C104.655 45.4692 105.366 44.7585 106.241 44.7585H115.759C116.634 44.7585 117.345 45.4692 117.345 46.3448C117.345 47.2203 116.634 47.931 115.759 47.931Z" fill="white"/>
<path d="M134.07 132H87.9301C85.7777 132 84.0344 130.257 84.0344 128.104V112.966H137.965V128.104C137.965 130.257 136.222 132 134.07 132Z" fill="#EAEFF0"/>
<path d="M111 127.241C113.628 127.241 115.759 125.111 115.759 122.483C115.759 119.855 113.628 117.724 111 117.724C108.372 117.724 106.241 119.855 106.241 122.483C106.241 125.111 108.372 127.241 111 127.241Z" fill="#B8BEC3"/>
<path d="M111 84.4139L101.483 79.6552V66.9656L111 71.7242V84.4139Z" fill="#ED8A19"/>
<path d="M120.517 66.9657L111 71.7243L101.483 66.9657L111 62.207L120.517 66.9657Z" fill="#EBBA16"/>
<path d="M111 84.4139L120.517 79.6552V66.9656L111 71.7242V84.4139Z" fill="#D37313"/>
<path d="M120.517 101.862L111 97.1035V84.4138L120.517 89.1724V101.862Z" fill="#3FEFEF"/>
<path d="M130.034 84.4139L120.517 89.1725L111 84.4139L120.517 79.6553L130.034 84.4139Z" fill="#12A2A8"/>
<path d="M120.517 101.862L130.035 97.1035V84.4138L120.517 89.1724V101.862Z" fill="#1DD1D9"/>
<path d="M101.483 101.862L91.9656 97.1035V84.4138L101.483 89.1724V101.862Z" fill="#FC3E81"/>
<path d="M111 84.4139L101.483 89.1725L91.9656 84.4139L101.483 79.6553L111 84.4139Z" fill="#FD82AC"/>
<path d="M101.483 101.862L111 97.1035V84.4138L101.483 89.1724V101.862Z" fill="#F01054"/>
</g>
<defs>
<filter id="filter0_d" x="89" y="16" width="175" height="153" filterUnits="userSpaceOnUse" color-interpolation-filters="sRGB">
<feFlood flood-opacity="0" result="BackgroundImageFix"/>
<feColorMatrix in="SourceAlpha" type="matrix" values="0 0 0 0 0 0 0 0 0 0 0 0 0 0 0 0 0 0 127 0"/>
<feOffset dy="4"/>
<feGaussianBlur stdDeviation="15"/>
<feColorMatrix type="matrix" values="0 0 0 0 0 0 0 0 0 0 0 0 0 0 0 0 0 0 0.5 0"/>
<feBlend mode="normal" in2="BackgroundImageFix" result="effect1_dropShadow"/>
<feBlend mode="normal" in="SourceGraphic" in2="effect1_dropShadow" result="shape"/>
</filter>
<filter id="filter1_d" x="0" y="0" width="213" height="185" filterUnits="userSpaceOnUse" color-interpolation-filters="sRGB">
<feFlood flood-opacity="0" result="BackgroundImageFix"/>
<feColorMatrix in="SourceAlpha" type="matrix" values="0 0 0 0 0 0 0 0 0 0 0 0 0 0 0 0 0 0 127 0"/>
<feOffset dy="4"/>
<feGaussianBlur stdDeviation="15"/>
<feColorMatrix type="matrix" values="0 0 0 0 0 0 0 0 0 0 0 0 0 0 0 0 0 0 0.5 0"/>
<feBlend mode="normal" in2="BackgroundImageFix" result="effect1_dropShadow"/>
<feBlend mode="normal" in="SourceGraphic" in2="effect1_dropShadow" result="shape"/>
</filter>
<clipPath id="clip0">
<rect x="65" y="40" width="92" height="92" fill="white"/>
</clipPath>
</defs>
</svg>
