<svg width="264" height="185" viewBox="0 0 264 185" fill="none" xmlns="http://www.w3.org/2000/svg">
<g filter="url(#filter0_d)">
<rect x="119" y="42" width="115" height="93" fill="#1C2124"/>
</g>
<g filter="url(#filter1_d)">
<rect x="30" y="26" width="153" height="125" fill="#1C2124"/>
</g>
<path d="M88.8317 95.9572C86.2942 90.8522 84.9649 84.7776 84.9649 79.3739C84.9649 63.6301 98.0708 51.5276 113.771 51.5276C129.095 51.5276 141.647 64.3695 141.647 79.867L147 97.2949H138.517V105.421C138.517 109.995 134.81 113.702 130.237 113.702H120.536L118.913 123H88.5267L90.8603 113.322C92.2698 107.477 91.5081 101.342 88.8317 95.9572Z" fill="#F2BB88"/>
<path d="M92.5535 91.9821C105.493 91.9821 115.982 81.4928 115.982 68.5535C115.982 55.6143 105.493 45.125 92.5535 45.125C79.6143 45.125 69.125 55.6143 69.125 68.5535C69.125 81.4928 79.6143 91.9821 92.5535 91.9821Z" fill="#F5737F"/>
<path d="M84.2396 81.934C86.3376 81.934 88.0384 80.2332 88.0384 78.1352C88.0384 76.0372 86.3376 74.3364 84.2396 74.3364C82.1416 74.3364 80.4408 76.0372 80.4408 78.1352C80.4408 80.2332 82.1416 81.934 84.2396 81.934Z" fill="#FFCBBE"/>
<path d="M100.599 90.049V84.4781H103.16C103.481 83.0493 104.044 81.7123 104.804 80.5118L102.992 78.7L106.931 74.7608L108.744 76.573C109.944 75.8134 111.281 75.2505 112.71 74.9294V72.3674H118.28V74.9294C119.709 75.2505 121.046 75.8134 122.246 76.573L124.059 74.7608L127.998 78.7L126.186 80.5118C126.946 81.7123 127.509 83.0494 127.83 84.4781H130.391V90.049H127.831C127.51 91.4783 126.947 92.8158 126.187 94.0167L127.998 95.8271L124.058 99.7663L122.248 97.9561C121.047 98.7164 119.71 99.2797 118.28 99.6012V102.16H112.709V99.6012C111.28 99.2799 109.942 98.7164 108.741 97.9561L106.931 99.7663L102.992 95.8271L104.803 94.0167C104.043 92.8158 103.48 91.4783 103.159 90.049H100.599Z" fill="#91DEF5"/>
<path d="M110.132 87.2654C110.132 84.3038 112.533 81.9028 115.495 81.9028C118.456 81.9028 120.857 84.3038 120.857 87.2654C120.857 90.227 118.456 92.628 115.495 92.628C112.533 92.628 110.132 90.2272 110.132 87.2654Z" fill="white"/>
<path d="M98.6396 73.7286C98.9487 74.0376 99.3538 74.1922 99.7588 74.1922C100.164 74.1922 100.569 74.0376 100.878 73.7286C101.496 73.1105 101.496 72.1083 100.878 71.49L99.7588 70.3708L100.878 69.2516C101.496 68.6335 101.496 67.6313 100.878 67.013C100.26 66.3951 99.2578 66.3951 98.6394 67.013L97.5202 68.1322L96.401 67.013C95.7828 66.3951 94.7808 66.3951 94.1624 67.013C93.5443 67.6311 93.5443 68.6333 94.1624 69.2516L95.2816 70.3708L94.1624 71.49C93.5443 72.1081 93.5443 73.1104 94.1624 73.7286C94.4715 74.0376 94.8766 74.1922 95.2816 74.1922C95.6867 74.1922 96.0917 74.0376 96.4008 73.7286L97.5201 72.6094L98.6396 73.7286Z" fill="black"/>
<path d="M79.0833 61.5143C79.3924 61.8232 79.7975 61.9779 80.2025 61.9779C80.6076 61.9779 81.0126 61.8232 81.3218 61.5143L82.441 60.395L83.5602 61.5143C83.8693 61.8232 84.2743 61.9779 84.6794 61.9779C85.0844 61.9779 85.4895 61.8232 85.7986 61.5143C86.4167 60.8962 86.4167 59.8939 85.7986 59.2757L84.6794 58.1565L85.7986 57.0372C86.4167 56.4191 86.4167 55.4169 85.7986 54.7987C85.1804 54.1807 84.1784 54.1807 83.56 54.7987L82.4408 55.9179L81.3216 54.7987C80.7033 54.1807 79.7014 54.1807 79.083 54.7987C78.4649 55.4167 78.4649 56.419 79.083 57.0372L80.2022 58.1565L79.083 59.2757C78.4652 59.8939 78.4652 60.8962 79.0833 61.5143Z" fill="black"/>
<path d="M101.529 61.4838C101.838 61.7928 102.243 61.9474 102.648 61.9474C103.053 61.9474 103.458 61.7928 103.767 61.4838L106.23 59.0216C106.848 58.4035 106.848 57.4012 106.23 56.783L103.767 54.3206C103.149 53.7028 102.147 53.7026 101.529 54.3206C100.922 54.9271 100.912 55.9024 101.496 56.5231C92.7364 57.7257 85.4672 64.161 83.3061 72.8364C80.7822 73.2798 78.8578 75.4862 78.8578 78.1354C78.8578 81.1029 81.2719 83.517 84.2394 83.517C87.2068 83.517 89.621 81.1029 89.621 78.1354C89.621 75.9639 88.3276 74.0902 86.4715 73.2405C88.3612 66.2557 94.1475 61.0363 101.178 59.7772C100.951 60.347 101.067 61.0224 101.529 61.4838ZM84.2397 80.3514C83.0177 80.3514 82.0237 79.3573 82.0237 78.1354C82.0237 76.9135 83.0177 75.9195 84.2397 75.9195C85.4616 75.9195 86.4556 76.9135 86.4556 78.1354C86.4556 79.3573 85.4616 80.3514 84.2397 80.3514Z" fill="black"/>
<path d="M115.495 80.3201C111.665 80.3201 108.549 83.4359 108.549 87.2655C108.549 91.0951 111.665 94.2109 115.495 94.2109C119.325 94.2109 122.44 91.0951 122.44 87.2655C122.44 83.4359 119.325 80.3201 115.495 80.3201ZM115.495 91.0453C113.411 91.0453 111.715 89.3496 111.715 87.2655C111.715 85.1814 113.411 83.4857 115.495 83.4857C117.579 83.4857 119.275 85.1814 119.275 87.2655C119.275 89.3496 117.579 91.0453 115.495 91.0453Z" fill="black"/>
<defs>
<filter id="filter0_d" x="89" y="16" width="175" height="153" filterUnits="userSpaceOnUse" color-interpolation-filters="sRGB">
<feFlood flood-opacity="0" result="BackgroundImageFix"/>
<feColorMatrix in="SourceAlpha" type="matrix" values="0 0 0 0 0 0 0 0 0 0 0 0 0 0 0 0 0 0 127 0"/>
<feOffset dy="4"/>
<feGaussianBlur stdDeviation="15"/>
<feColorMatrix type="matrix" values="0 0 0 0 0 0 0 0 0 0 0 0 0 0 0 0 0 0 0.5 0"/>
<feBlend mode="normal" in2="BackgroundImageFix" result="effect1_dropShadow"/>
<feBlend mode="normal" in="SourceGraphic" in2="effect1_dropShadow" result="shape"/>
</filter>
<filter id="filter1_d" x="0" y="0" width="213" height="185" filterUnits="userSpaceOnUse" color-interpolation-filters="sRGB">
<feFlood flood-opacity="0" result="BackgroundImageFix"/>
<feColorMatrix in="SourceAlpha" type="matrix" values="0 0 0 0 0 0 0 0 0 0 0 0 0 0 0 0 0 0 127 0"/>
<feOffset dy="4"/>
<feGaussianBlur stdDeviation="15"/>
<feColorMatrix type="matrix" values="0 0 0 0 0 0 0 0 0 0 0 0 0 0 0 0 0 0 0.5 0"/>
<feBlend mode="normal" in2="BackgroundImageFix" result="effect1_dropShadow"/>
<feBlend mode="normal" in="SourceGraphic" in2="effect1_dropShadow" result="shape"/>
</filter>
</defs>
</svg>
