<svg width="39" height="56" viewBox="0 0 39 56" fill="none" xmlns="http://www.w3.org/2000/svg">
<path d="M37.7353 48.5155L29.2702 41.1831C30.999 38.6197 32.0124 35.5198 32.0124 32.1814C32.0124 28.0681 30.4625 24.3721 27.8991 21.5702C27.303 22.8817 26.4684 24.4317 25.5742 26.2201C26.7068 27.8893 27.303 29.9757 27.303 32.1814C27.303 38.3812 22.2954 43.4484 16.036 43.4484C9.83622 43.4484 4.76908 38.3812 4.76908 32.1814C4.76908 30.0353 5.42482 27.9489 6.43825 26.2201C5.54405 24.4317 4.76907 22.9413 4.11333 21.5106C1.54995 24.3721 0 28.0681 0 32.1218C0 40.9446 7.15361 48.0982 15.9764 48.0982C19.2551 48.0982 22.4147 47.0848 24.9184 45.2964L32.2509 53.7615C32.3701 53.9403 32.4893 54.0596 32.6086 54.1788C34.2181 55.5499 36.6027 55.3711 37.9738 53.7615C39.4641 52.2116 39.2853 49.827 37.7353 48.5155Z" fill="url(#paint0_linear)"/>
<path d="M14.688 7.33333H18.3139C19.9974 7.33333 21.3571 8.60606 21.3571 10.1818H25.501C25.501 6.54545 22.3931 3.57576 18.5729 3.45454V0H14.429V3.45454C10.6089 3.57576 7.50098 6.54545 7.50098 10.1818C7.50098 13.8788 10.7384 16.9091 14.688 16.9091H18.3139C19.9974 16.9091 21.3571 18.1818 21.3571 19.7576C21.3571 21.3333 19.9974 22.6061 18.3139 22.6061H14.688C13.0046 22.6061 11.6449 21.3333 11.6449 19.7576H7.50098C7.50098 23.3939 10.6089 26.3636 14.429 26.4848V30H18.5729V26.4848C22.3931 26.3636 25.501 23.3939 25.501 19.7576C25.501 16.0606 22.2636 13.0303 18.3139 13.0303H14.688C13.0046 13.0303 11.6449 11.7576 11.6449 10.1818C11.6449 8.60606 13.0046 7.33333 14.688 7.33333Z" fill="url(#paint1_linear)"/>
<defs>
<linearGradient id="paint0_linear" x1="0" y1="21.5106" x2="29.4372" y2="59.4884" gradientUnits="userSpaceOnUse">
<stop stop-color="#102BBB"/>
<stop offset="1" stop-color="#5E74ED"/>
</linearGradient>
<linearGradient id="paint1_linear" x1="7.50098" y1="0" x2="32.5625" y2="16.7077" gradientUnits="userSpaceOnUse">
<stop stop-color="#102BBB"/>
<stop offset="1" stop-color="#5E74ED"/>
</linearGradient>
</defs>
</svg>
