<svg width="38" height="56" viewBox="0 0 38 56" fill="none" xmlns="http://www.w3.org/2000/svg">
<path d="M36.7677 48.7332L28.5197 41.5888C30.2041 39.0911 31.1916 36.0707 31.1916 32.818C31.1916 28.8101 29.6814 25.2088 27.1837 22.4788C26.6029 23.7567 25.7897 25.2669 24.9184 27.0095C26.022 28.6358 26.6029 30.6688 26.6029 32.818C26.6029 38.8588 21.7237 43.796 15.6248 43.796C9.58401 43.796 4.64679 38.8588 4.64679 32.818C4.64679 30.7269 5.28572 28.6939 6.27317 27.0095C5.40189 25.2669 4.64679 23.8148 4.00786 22.4208C1.51021 25.2088 0 28.8101 0 32.7599C0 41.3564 6.97019 48.3266 15.5668 48.3266C18.7614 48.3266 21.8399 47.3392 24.2795 45.5966L31.4239 53.8447C31.5401 54.019 31.6563 54.1351 31.7724 54.2513C33.3407 55.5872 35.6641 55.413 37.0001 53.8447C38.4522 52.3345 38.2779 50.0111 36.7677 48.7332Z" fill="url(#paint0_linear)"/>
<path d="M17.8937 31.482C21.1465 25.8478 26.7807 15.4506 26.7807 11.0942C26.7807 4.93721 21.7854 0 15.6865 0C9.52948 0 4.53418 4.9953 4.53418 11.0942C4.53418 15.4506 10.1684 25.8478 13.4212 31.482C14.4086 33.2246 16.9063 33.2246 17.8937 31.482ZM10.4588 11.0942C10.4588 8.24805 12.7822 5.92466 15.6284 5.92466C18.4746 5.92466 20.798 8.24805 20.798 11.0942C20.798 13.9404 18.4746 16.2638 15.6284 16.2638C12.7822 16.2638 10.4588 13.9985 10.4588 11.0942Z" fill="url(#paint1_linear)"/>
<defs>
<linearGradient id="paint0_linear" x1="1.9" y1="22.4208" x2="30.5824" y2="59.4247" gradientUnits="userSpaceOnUse">
<stop stop-color="#B223FF"/>
<stop offset="1" stop-color="#CD71FF"/>
</linearGradient>
<linearGradient id="paint1_linear" x1="5.64651" y1="-1.34363e-07" x2="34.1742" y2="21.506" gradientUnits="userSpaceOnUse">
<stop stop-color="#B223FF"/>
<stop offset="1" stop-color="#CD71FF"/>
</linearGradient>
</defs>
</svg>
