<svg width="52" height="46" viewBox="0 0 52 46" fill="none" xmlns="http://www.w3.org/2000/svg">
<path d="M6.99564 37.6996H25.2056C25.9533 37.6996 26.5407 38.2887 26.5407 39.0384C26.5407 39.7881 25.9533 40.3772 25.2056 40.3772H6.99564C6.24801 40.3772 5.66059 39.7881 5.66059 39.0384C5.66059 38.2887 6.30141 37.6996 6.99564 37.6996ZM36.4734 9.63911V5.67637C36.4734 2.51688 33.9635 0 30.8128 0H12.2824C11.962 0 11.6416 0.0535507 11.3212 0.160652C11.0008 0.267753 10.7338 0.481956 10.5202 0.696158L0.801027 10.0675C0.534018 10.2817 0.373813 10.603 0.213607 10.9243C0.0534018 11.2456 0 11.5669 0 11.9418V40.3236C0 43.4831 2.50988 46 5.66059 46H30.7594C33.9101 46 36.42 43.4831 36.42 40.3236V37.2712C35.5656 37.6461 34.6578 37.9674 33.7499 38.1816V40.3236C33.7499 41.9837 32.4149 43.3225 30.7594 43.3225H5.71399C4.05854 43.3225 2.72349 41.9837 2.72349 40.3236V12.6915H7.47625C10.5736 12.6915 13.1368 10.1211 13.1368 7.01513V2.67753H30.8128C32.4683 2.67753 33.8033 4.0163 33.8033 5.67637V8.72875C34.7112 8.94296 35.619 9.26426 36.4734 9.63911ZM19.7587 12.7451C20.4529 12.0489 21.2005 11.4598 21.9481 10.9243H17.0886C16.341 10.9243 15.7535 11.5134 15.7535 12.2631C15.7535 13.0128 16.341 13.6019 17.0886 13.6019H18.9576C19.2246 13.3341 19.4383 13.0128 19.7587 12.7451ZM18.21 32.3446H7.10244C6.35481 32.3446 5.76739 32.9336 5.76739 33.6833C5.76739 34.4331 6.35481 35.0221 7.10244 35.0221H20.7199C20.3461 34.7544 20.0257 34.4331 19.7053 34.1118C19.1712 33.5227 18.6906 32.9336 18.21 32.3446ZM5.76739 28.3283C5.76739 29.078 6.35481 29.6671 7.10244 29.6671H16.6614C16.2875 28.8102 15.9671 27.8999 15.7535 26.9895H7.10244C6.40822 26.9895 5.76739 27.5786 5.76739 28.3283ZM7.10244 21.6345C6.35481 21.6345 5.76739 22.2235 5.76739 22.9732C5.76739 23.7229 6.35481 24.312 7.10244 24.312H15.3263C15.3263 23.9907 15.2729 23.7229 15.2729 23.4016C15.2729 22.8126 15.3263 22.2235 15.3797 21.6345H7.10244ZM5.76739 17.6182C5.76739 18.3679 6.35481 18.9569 7.10244 18.9569H15.9671C16.2341 18.0466 16.608 17.1362 17.0886 16.2794H7.10244C6.40822 16.2794 5.76739 16.8685 5.76739 17.6182ZM51.3191 41.0733C52.227 41.9837 52.227 43.4831 51.3191 44.3935C50.8385 44.8754 50.2511 45.0896 49.6637 45.0896C49.0763 45.0896 48.4888 44.8754 48.0082 44.3935L38.7163 35.1292L39.1969 34.6473L37.8619 33.3085C35.6724 34.9686 33.0023 35.8254 30.3856 35.8254C27.2349 35.8254 24.0308 34.5937 21.6277 32.1839C16.7682 27.3108 16.7682 19.4924 21.6277 14.6193C24.0308 12.2095 27.2349 10.9779 30.3856 10.9779C33.5363 10.9779 36.7404 12.2095 39.1435 14.6193C43.5759 19.064 43.9497 26.0256 40.265 30.8987L41.6 32.2375L42.0806 31.7555L51.3191 41.0733ZM36.8472 16.922C35.085 15.1548 32.7353 14.2445 30.3856 14.2445C28.0359 14.2445 25.6863 15.1548 23.924 16.922C20.3461 20.5099 20.3461 26.2934 23.924 29.8813C25.6863 31.6484 28.0359 32.5588 30.3856 32.5588C32.7353 32.5588 35.085 31.6484 36.8472 29.8813C40.4252 26.3469 40.4252 20.5099 36.8472 16.922Z" fill="url(#paint0_linear)"/>
<defs>
<linearGradient id="paint0_linear" x1="4.26173e-07" y1="2.3" x2="42.7065" y2="49.7149" gradientUnits="userSpaceOnUse">
<stop stop-color="#FFD646"/>
<stop offset="1" stop-color="#FFB198"/>
</linearGradient>
</defs>
</svg>