<svg width="56" height="65" viewBox="0 0 56 65" fill="none" xmlns="http://www.w3.org/2000/svg">
<path d="M50.2916 15.8286L50.2835 15.8395L50.2931 15.8491L55.6279 21.1839C55.628 21.184 55.6281 21.1841 55.6282 21.1842C55.8668 21.4513 55.9942 21.7995 55.9841 22.1575C55.9741 22.5157 55.8274 22.8564 55.574 23.1097C55.3207 23.363 54.98 23.5098 54.6219 23.5198C54.2639 23.5298 53.9157 23.4025 53.6486 23.1639C53.6485 23.1638 53.6484 23.1637 53.6483 23.1636L48.3134 17.8287L48.3038 17.8191L48.293 17.8273C46.5856 19.1098 44.5075 19.8021 42.3721 19.7998C36.9176 19.7998 32.48 15.3621 32.48 9.9077C32.48 4.45326 36.9176 0.015625 42.3721 0.015625C47.8265 0.015625 52.2641 4.45326 52.2641 9.9077C52.2665 12.0431 51.5741 14.1213 50.2916 15.8286ZM35.2795 9.9077V9.90772C35.2818 11.7881 36.0297 13.5908 37.3593 14.9204C38.689 16.25 40.4917 16.998 42.372 17.0002C43.7748 17.0002 45.1461 16.5843 46.3125 15.8049C47.4788 15.0256 48.3879 13.9179 48.9247 12.6219C49.4615 11.3259 49.602 9.89983 49.3283 8.52401C49.0547 7.14819 48.3792 5.88442 47.3872 4.89251C46.3953 3.90059 45.1316 3.22509 43.7557 2.95143C42.3799 2.67776 40.9538 2.81822 39.6579 3.35503C38.3619 3.89185 37.2542 4.80092 36.4748 5.96729C35.6955 7.13365 35.2795 8.50492 35.2795 9.9077Z" fill="url(#paint0_linear)" stroke="url(#paint1_linear)" stroke-width="0.03125"/>
<path fill-rule="evenodd" clip-rule="evenodd" d="M22.3228 46.0484C22.7968 46.0484 23.1812 46.5541 23.1812 47.1776V62.986C23.1812 63.6095 22.7968 64.1152 22.3228 64.1152C21.8488 64.1152 21.4644 63.6095 21.4644 62.986V47.1776C21.4644 46.5541 21.8488 46.0484 22.3228 46.0484Z" fill="url(#paint2_linear)"/>
<path fill-rule="evenodd" clip-rule="evenodd" d="M21.3499 46.6143C21.7604 46.9262 21.901 47.6168 21.6641 48.1567L15.6552 61.8473C15.4181 62.3872 14.8931 62.5724 14.4826 62.2605C14.072 61.9487 13.9314 61.2581 14.1683 60.7181L20.1771 47.0276C20.4142 46.4876 20.9392 46.3024 21.3499 46.6143Z" fill="url(#paint3_linear)"/>
<path fill-rule="evenodd" clip-rule="evenodd" d="M23.2935 46.6143C22.883 46.9262 22.7424 47.6168 22.9793 48.1567L28.9882 61.8473C29.2253 62.3872 29.7503 62.5724 30.1608 62.2605C30.5714 61.9487 30.712 61.2581 30.4751 60.7181L24.4663 47.0276C24.2292 46.4876 23.7042 46.3024 23.2935 46.6143Z" fill="url(#paint4_linear)"/>
<path fill-rule="evenodd" clip-rule="evenodd" d="M9.0132 35.3212V38.7087H13.3052V35.3212H9.0132ZM8.584 32.4982C7.63584 32.4982 6.86719 33.5093 6.86719 34.7566V39.2733C6.86719 40.5205 7.63584 41.5316 8.584 41.5316H13.7344C14.6826 41.5316 15.4513 40.5205 15.4513 39.2733V34.7566C15.4513 33.5093 14.6826 32.4982 13.7344 32.4982H8.584Z" fill="url(#paint5_linear)"/>
<path fill-rule="evenodd" clip-rule="evenodd" d="M20.1734 30.805V38.7092H24.4654V30.805H20.1734ZM19.7442 27.982C18.796 27.982 18.0273 28.9931 18.0273 30.2404V39.2737C18.0273 40.521 18.796 41.5321 19.7442 41.5321H24.8946C25.8428 41.5321 26.6114 40.521 26.6114 39.2737V30.2404C26.6114 28.9931 25.8428 27.982 24.8946 27.982H19.7442Z" fill="url(#paint6_linear)"/>
<path fill-rule="evenodd" clip-rule="evenodd" d="M29.7379 12.1738H1.71681C0.768652 12.1738 0 13.1849 0 14.4321V46.0489C0 47.2962 0.768652 48.3073 1.71681 48.3073H42.9204C43.8685 48.3073 44.6372 47.2962 44.6372 46.0489V21.7682C43.9093 21.6811 43.1933 21.5555 42.4912 21.3935V45.4843H2.14602V14.9967H31.8133C31.0438 14.1194 30.3487 13.1751 29.7379 12.1738Z" fill="url(#paint7_linear)"/>
<path fill-rule="evenodd" clip-rule="evenodd" d="M34.938 18.948H30.9024C29.9542 18.948 29.1855 19.9591 29.1855 21.2063V39.2731C29.1855 40.5204 29.9542 41.5314 30.9024 41.5314H36.0528C37.001 41.5314 37.7696 40.5204 37.7696 39.2731V21.2063C37.7696 21.0599 37.759 20.9166 37.7388 20.7779C36.6495 20.4199 35.6874 19.7815 34.938 18.948ZM31.3316 38.7085V21.7709H35.6236V38.7085H31.3316Z" fill="url(#paint8_linear)"/>
<defs>
<linearGradient id="paint0_linear" x1="32.4644" y1="1.1768" x2="54.4313" y2="22.7514" gradientUnits="userSpaceOnUse">
<stop stop-color="#46DEFF"/>
<stop offset="1" stop-color="#7BA0FF"/>
</linearGradient>
<linearGradient id="paint1_linear" x1="32.4644" y1="1.1768" x2="54.4313" y2="22.7514" gradientUnits="userSpaceOnUse">
<stop stop-color="#FF7246"/>
<stop offset="1" stop-color="#FFB198"/>
</linearGradient>
<linearGradient id="paint2_linear" x1="21.4644" y1="46.9518" x2="24.5852" y2="47.243" gradientUnits="userSpaceOnUse">
<stop stop-color="#46DEFF"/>
<stop offset="1" stop-color="#7BA0FF"/>
</linearGradient>
<linearGradient id="paint3_linear" x1="14.0532" y1="47.2603" x2="25.605" y2="52.7561" gradientUnits="userSpaceOnUse">
<stop stop-color="#46DEFF"/>
<stop offset="1" stop-color="#7BA0FF"/>
</linearGradient>
<linearGradient id="paint4_linear" x1="22.8643" y1="47.2603" x2="34.4161" y2="52.7561" gradientUnits="userSpaceOnUse">
<stop stop-color="#46DEFF"/>
<stop offset="1" stop-color="#7BA0FF"/>
</linearGradient>
<linearGradient id="paint5_linear" x1="6.86719" y1="32.9499" x2="15.2797" y2="40.8012" gradientUnits="userSpaceOnUse">
<stop stop-color="#46DEFF"/>
<stop offset="1" stop-color="#7BA0FF"/>
</linearGradient>
<linearGradient id="paint6_linear" x1="18.0273" y1="28.6595" x2="29.3745" y2="35.7197" gradientUnits="userSpaceOnUse">
<stop stop-color="#46DEFF"/>
<stop offset="1" stop-color="#7BA0FF"/>
</linearGradient>
<linearGradient id="paint7_linear" x1="3.6583e-07" y1="13.9804" x2="33.1094" y2="54.1514" gradientUnits="userSpaceOnUse">
<stop stop-color="#46DEFF"/>
<stop offset="1" stop-color="#7BA0FF"/>
</linearGradient>
<linearGradient id="paint8_linear" x1="29.1855" y1="20.0772" x2="43.0002" y2="25.2344" gradientUnits="userSpaceOnUse">
<stop stop-color="#46DEFF"/>
<stop offset="1" stop-color="#7BA0FF"/>
</linearGradient>
</defs>
</svg>
