<svg width="62" height="78" viewBox="0 0 62 78" fill="none" xmlns="http://www.w3.org/2000/svg">
    <path d="M43.958 15.8101L42.036 13.8881C41.788 13.6401 41.354 13.6401 41.044 13.8881L38.998 15.8101C38.874 15.9341 38.75 16.1201 38.75 16.3061C38.75 16.4921 38.812 16.6781 38.936 16.8022C39.184 17.1121 39.68 17.1122 39.928 16.8642L40.796 16.0581V16.5542C40.796 18.9102 38.874 20.8321 36.518 20.8321H34.41C31.496 20.8321 29.016 23.0642 28.768 25.9782C27.714 26.2882 27.032 27.2182 27.032 28.3342C27.032 29.6982 28.148 30.7522 29.45 30.7522C30.814 30.7522 31.868 29.6362 31.868 28.3342C31.868 27.2802 31.186 26.3502 30.194 26.0402C30.442 23.8702 32.24 22.2582 34.41 22.2582H36.518C39.68 22.2582 42.222 19.7162 42.222 16.5542V16.1201L42.904 16.8022C43.152 17.0501 43.648 17.0501 43.896 16.8022C44.02 16.6781 44.082 16.4921 44.082 16.3061C44.144 16.1201 44.082 15.9961 43.958 15.8101ZM30.504 28.3342C30.504 28.8922 30.008 29.3262 29.512 29.3262C29.016 29.3262 28.52 28.8302 28.52 28.3342C28.52 27.8382 29.016 27.3422 29.512 27.3422C30.008 27.3422 30.504 27.7762 30.504 28.3342Z" fill="#208FFF" />
    <path d="M40.548 26.164C40.548 25.978 40.486 25.792 40.362 25.668C40.114 25.358 39.618 25.358 39.37 25.668L38.378 26.598L37.386 25.668C37.076 25.42 36.642 25.42 36.394 25.668C36.27 25.792 36.208 25.978 36.208 26.164C36.208 26.35 36.27 26.536 36.456 26.66L37.386 27.528L36.456 28.396C36.332 28.52 36.208 28.706 36.208 28.892C36.208 29.078 36.27 29.264 36.394 29.388C36.518 29.512 36.704 29.636 36.89 29.636C37.076 29.636 37.262 29.574 37.386 29.45L38.378 28.52L39.308 29.45C39.432 29.574 39.618 29.636 39.804 29.636C39.99 29.636 40.176 29.574 40.3 29.45C40.548 29.14 40.548 28.706 40.3 28.458L39.37 27.59L40.3 26.722C40.486 26.536 40.548 26.412 40.548 26.164Z" fill="#208FFF" />
    <path d="M30.1321 18.042C30.1321 18.228 30.1941 18.414 30.3181 18.538C30.4421 18.662 30.6281 18.724 30.8141 18.786C31.0001 18.786 31.1861 18.724 31.3101 18.6L32.3021 17.67L33.2321 18.6C33.4801 18.848 33.9761 18.848 34.2241 18.6C34.3481 18.476 34.4101 18.29 34.4101 18.104C34.4101 17.918 34.3481 17.732 34.1621 17.608L33.2321 16.74L34.1621 15.872C34.2861 15.748 34.4101 15.562 34.4101 15.376C34.4101 15.19 34.3481 15.004 34.2241 14.88C33.9761 14.57 33.4801 14.57 33.2321 14.88L32.2401 15.81L31.2481 14.88C30.9381 14.632 30.5041 14.632 30.2561 14.88C30.0081 15.19 30.0081 15.624 30.2561 15.872L31.1861 16.74L30.3801 17.546C30.1941 17.67 30.1321 17.856 30.1321 18.042Z" fill="#208FFF" />
    <path d="M34.286 0.496094C24.552 0.496094 15.81 6.63409 12.524 15.7481C12.462 15.8101 4.95995 38.4401 4.95995 38.4401C4.83595 38.8121 4.89795 39.2461 5.14595 39.5561C5.39395 39.8661 5.76595 40.0521 6.13795 40.0521H10.354C10.354 41.0441 10.354 42.4701 10.664 44.0201H17.67C17.67 44.0201 16.864 47.2441 12.648 49.2281C12.958 49.7241 13.33 50.2201 13.702 50.6541C15.748 52.9481 18.6 54.2501 22.134 54.4361V60.2641C22.134 60.9461 22.692 61.5041 23.374 61.5041H32.426V36.2081C25.854 34.7821 20.956 28.9541 20.956 21.9481C20.956 13.8261 27.528 7.31609 35.588 7.31609C43.71 7.31609 50.22 13.8881 50.22 21.9481C50.22 28.9541 45.26 34.8441 38.626 36.2701V61.5661H47.182C47.864 61.5661 48.422 61.0081 48.422 60.3261V41.9121C54.126 37.5101 57.35 30.8141 57.35 23.6221C57.412 10.9121 46.996 0.496094 34.286 0.496094Z" fill="#208FFF" />
</svg>