<svg width="59" height="54" viewBox="0 0 59 54" fill="none" xmlns="http://www.w3.org/2000/svg">
    <path d="M24.4139 28.917H34.5864V32.0955H24.4139V28.917Z" fill="#208FFF" />
    <path d="M47.8659 31.7869H38.1426V33.5783C38.1426 34.5683 37.3692 35.3698 36.4141 35.3698H22.5859C21.6308 35.3698 20.8574 34.5683 20.8574 33.5783V31.7869H11.1341C8.89915 31.7869 6.92262 30.3103 6.215 28.1129L0 8.78564V47.91C0 50.8734 2.32629 53.2844 5.18555 53.2844H53.8145C56.6737 53.2844 59 50.8734 59 47.91V8.78704L52.7845 28.1129C52.0774 30.3103 50.1008 31.7869 47.8659 31.7869Z" fill="#208FFF" />
    <path d="M36.3938 0.310547H22.6063C19.7554 0.310547 17.436 2.71676 17.436 5.67424V7.46214H3.052L9.55215 27.6947C9.78778 28.4262 10.4457 28.9169 11.1881 28.9169H20.8829V27.129C20.8829 26.141 21.6539 25.3411 22.6063 25.3411H36.3938C37.3462 25.3411 38.1173 26.141 38.1173 27.129V28.9169H47.812C48.5544 28.9169 49.2123 28.4262 49.448 27.6947L55.9486 7.46214H41.5641V5.67424C41.5641 2.71676 39.2447 0.310547 36.3938 0.310547ZM20.8829 7.46214V5.67424C20.8829 4.68764 21.6553 3.88634 22.6063 3.88634H36.3938C37.3448 3.88634 38.1173 4.68764 38.1173 5.67424V7.46214H20.8829Z" fill="#208FFF" />
</svg>