<svg width="65" height="65" viewBox="0 0 65 65" fill="none" xmlns="http://www.w3.org/2000/svg">
    <path d="M40.2525 23.1579C40.1332 21.5665 39.9424 19.9977 39.687 18.4585H28.964V23.1454C32.5336 24.8012 36.68 24.8051 40.2525 23.1579Z" fill="#208FFF"/>
    <path d="M26.0098 15.5038V0.11377C21.6828 1.21446 17.7998 7.05565 15.8584 15.5038H26.0098Z" fill="#208FFF"/>
    <path d="M19.3284 1.1377C11.9933 3.41373 5.99429 8.69033 2.71423 15.5033H12.8419C14.1708 9.33535 16.4555 4.36835 19.3284 1.1377Z" fill="#208FFF"/>
    <path d="M28.964 0.114258V15.5039H39.127C37.1744 7.05757 33.2871 1.21603 28.964 0.114258Z" fill="#208FFF"/>
    <path d="M43.0619 21.4273C43.4164 21.1401 43.7598 20.8328 44.0894 20.5041C44.6433 19.9501 45.6777 19.9501 46.2316 20.5041C48.6068 22.871 51.6784 24.1186 54.7962 24.2764C54.5795 22.2626 54.1572 20.3144 53.5246 18.4585H42.6757C42.8293 19.4395 42.9606 20.4258 43.0619 21.4273Z" fill="#208FFF"/>
    <path d="M11.6128 27.29C11.6128 24.2804 11.8515 21.3217 12.2973 18.4585H1.49451C0.541693 21.2337 0 24.1971 0 27.29C0 30.3818 0.541327 33.3441 1.49379 36.1186H12.2966C11.8512 33.2561 11.6128 30.2985 11.6128 27.29Z" fill="#208FFF"/>
    <path d="M52.3344 15.5031C49.0597 8.66329 43.0052 3.4132 35.6477 1.14258C38.5206 4.37306 40.8093 9.33787 42.1454 15.5031H52.3344Z" fill="#208FFF"/>
    <path d="M24.058 20.0728C24.4489 20.0728 24.8774 20.2271 25.1544 20.5041C25.4292 20.778 25.7177 21.0294 26.0098 21.2744V18.4585H15.2904C14.8201 21.3112 14.5673 24.2721 14.5673 27.29C14.5673 30.3068 14.8197 33.2668 15.29 36.1186H23.3396C22.3132 30.9877 22.0229 25.8939 22.5923 21.3653C22.6847 20.6267 23.3136 20.0728 24.058 20.0728Z" fill="#208FFF"/>
    <path d="M2.71289 39.0718C5.9926 45.8862 11.9923 51.1638 19.3285 53.4402C16.4553 50.2092 14.1699 45.2411 12.8412 39.0718H2.71289Z" fill="#208FFF"/>
    <path d="M45.1325 33.8452C39.5396 33.8452 34.9883 38.385 34.9883 43.9663C34.9883 49.5463 39.5396 54.086 45.1325 54.086C50.7254 54.086 55.2767 49.5463 55.2767 43.9663C55.2767 38.385 50.7254 33.8452 45.1325 33.8452ZM53.2312 40.2647L43.7188 49.7583C43.4317 50.0454 43.0538 50.1896 42.6758 50.1896C42.2978 50.1896 41.9213 50.0454 41.6328 49.7583L37.0339 45.1695C36.4554 44.5924 36.4554 43.6576 37.031 43.0806C37.608 42.5007 38.5428 42.5036 39.1198 43.0777L42.6758 46.625L51.1452 38.173C51.7222 37.5988 52.657 37.5959 53.234 38.1758C53.8096 38.7529 53.8096 39.6877 53.2312 40.2647Z" fill="#208FFF"/>
    <path d="M62.9067 25.44C57.5756 28.2248 50.9906 27.8142 46.0318 24.2052C45.5067 23.8233 44.8171 23.8234 44.2924 24.2063C39.4449 27.7435 32.847 28.3645 27.3706 25.6737C26.3914 25.1926 25.2485 25.869 25.272 26.9596C25.5601 40.3826 32.4376 57.0582 42.8689 63.5303C44.2686 64.3985 46.075 64.4131 47.4725 63.5418C57.9547 57.0066 64.8232 40.1295 64.9999 26.6727C65.0139 25.5908 63.8657 24.9391 62.9067 25.44ZM45.1327 57.0401C37.9097 57.0401 32.034 51.1746 32.034 43.966C32.034 36.756 37.9097 30.8905 45.1327 30.8905C52.3557 30.8905 58.2313 36.756 58.2313 43.966C58.2313 51.1746 52.3557 57.0401 45.1327 57.0401Z" fill="#208FFF"/>
    <path d="M15.858 39.0718C17.799 47.5213 21.6825 53.3638 26.0098 54.4646V45.4031C25.2251 43.3288 24.5589 41.2064 24.0147 39.0718H15.858Z" fill="#208FFF"/>
    <path d="M28.964 54.6029C29.4581 54.5766 29.9511 54.5535 30.4333 54.5007C29.9215 53.6659 29.4321 52.8081 28.964 51.9321V54.6029Z" fill="#208FFF"/>
</svg>