<svg width="56" height="56" viewBox="0 0 56 56" fill="none" xmlns="http://www.w3.org/2000/svg">
    <path d="M54.7928 26.0433L45.7991 21.547L54.7928 17.0502C56.4015 16.2461 56.4032 13.9424 54.7928 13.137L28.9785 0.230714C28.3623 -0.0769047 27.6377 -0.0769047 27.0215 0.230714L1.20716 13.137C-0.401534 13.9415 -0.403243 16.2453 1.20716 17.0502L10.2009 21.547L1.20716 26.0433C-0.401534 26.8478 -0.403243 29.1511 1.20716 29.9565L10.2009 34.4533L1.20716 38.9496C-0.401534 39.7542 -0.403243 42.0575 1.20716 42.8628L27.0215 55.7691C27.6364 56.0763 28.361 56.0776 28.9785 55.7691L54.7928 42.8628C56.4015 42.0583 56.4032 39.755 54.7928 38.9496L45.7991 34.4533L54.7928 29.9565C56.4015 29.1524 56.4032 26.8487 54.7928 26.0433ZM28 4.63308L48.9225 15.0938L28 25.5541L7.07752 15.0938L28 4.63308ZM48.9225 40.9064L28 51.3668L7.07752 40.9064L15.0928 36.8989L27.0215 42.8628C27.6368 43.17 28.361 43.1713 28.9785 42.8628L40.9072 36.8989L48.9225 40.9064ZM28 38.4604L7.07752 28.0001L15.0928 23.9925L27.0215 29.9565C27.6368 30.2637 28.361 30.265 28.9785 29.9565L40.9072 23.9925L48.9225 28.0001L28 38.4604Z" fill="#208FFF" />
</svg>