<svg xmlns="http://www.w3.org/2000/svg">
    <path fill="#FFF" fill-rule="nonzero" d="M 26.44 7.587 L 18.806 0.45 a 1.643 1.643 0 0 0 -2.386 0.133 a 1.816 1.816 0 0 0 0.13 2.488 l 4.154 3.882 H 1.69 C 0.756 6.954 0 7.743 0 8.714 s 0.756 1.76 1.689 1.76 h 19.196 l -4.293 3.759 a 1.785 1.785 0 0 0 -0.603 1.349 c 0 0.398 0.131 0.8 0.396 1.13 c 0.6 0.744 1.666 0.84 2.38 0.215 l 7.632 -6.682 A 1.79 1.79 0 0 0 27 8.925 c -0.026 -0.535 -0.197 -0.997 -0.56 -1.338 Z">
    <animate attributeType="XML" begin="team.mouseover" end="team.mouseout" attributeName="d" from="M26.44 7.587L18.806.45a1.643 1.643 0 0 0-2.386.133 1.816 1.816 0 0 0 .13 2.488l4.154 3.882H1.69C.756 6.954 0 7.743 0 8.714s.756 1.76 1.689 1.76h19.196l-4.293 3.759a1.785 1.785 0 0 0-.603 1.349c0 .398.131.8.396 1.13.6.744 1.666.84 2.38.215l7.632-6.682A1.79 1.79 0 0 0 27 8.925c-.026-.535-.197-.997-.56-1.338z" to="M118.626 7.587L110.994.45a1.643 1.643 0 0 0-2.386.133 1.816 1.816 0 0 0 .13 2.488l4.154 3.882H1.69C.756 6.954 0 7.743 0 8.714s.756 1.76 1.689 1.76h111.383l-4.293 3.759a1.785 1.785 0 0 0-.603 1.349c0 .398.13.8.396 1.13.6.744 1.666.84 2.38.215l7.632-6.682a1.81 1.81 0 0 0 .603-1.32c-.026-.535-.197-.997-.561-1.338z" dur="400ms" begin="indefinite" keySplines="0 0 0 0.96" calcMode="spline"></animate>
    <animate attributeType="XML" attributeName="d" from="M118.626 7.587L110.994.45a1.643 1.643 0 0 0-2.386.133 1.816 1.816 0 0 0 .13 2.488l4.154 3.882H1.69C.756 6.954 0 7.743 0 8.714s.756 1.76 1.689 1.76h111.383l-4.293 3.759a1.785 1.785 0 0 0-.603 1.349c0 .398.13.8.396 1.13.6.744 1.666.84 2.38.215l7.632-6.682a1.81 1.81 0 0 0 .603-1.32c-.026-.535-.197-.997-.561-1.338z" to="M26.44 7.587L18.806.45a1.643 1.643 0 0 0-2.386.133 1.816 1.816 0 0 0 .13 2.488l4.154 3.882H1.69C.756 6.954 0 7.743 0 8.714s.756 1.76 1.689 1.76h19.196l-4.293 3.759a1.785 1.785 0 0 0-.603 1.349c0 .398.131.8.396 1.13.6.744 1.666.84 2.38.215l7.632-6.682A1.79 1.79 0 0 0 27 8.925c-.026-.535-.197-.997-.56-1.338z" dur="400ms" begin="indefinite" keySplines="0 0 0 0.96" calcMode="spline"></animate>
    </path>
</svg>