<svg width="54" height="54" viewBox="0 0 54 54" fill="none" xmlns="http://www.w3.org/2000/svg">
    <path d="M33.4404 19.1443C33.3413 17.8223 33.1828 16.519 32.9706 15.2402H24.0623V19.134C27.0278 20.5095 30.4725 20.5128 33.4404 19.1443Z" fill="#208FFF"/>
    <path d="M21.6083 12.7855V0C18.0135 0.914421 14.7876 5.7671 13.1747 12.7855H21.6083Z" fill="#208FFF"/>
    <path d="M16.0574 0.850098C9.96362 2.74096 4.97985 7.1246 2.25488 12.7846H10.6686C11.7727 7.66046 13.6707 3.53403 16.0574 0.850098Z" fill="#208FFF"/>
    <path d="M24.0623 0.000488281V12.7857H32.5053C30.8832 5.76878 27.6537 0.91581 24.0623 0.000488281Z" fill="#208FFF"/>
    <path d="M35.7744 17.7066C36.0689 17.468 36.3541 17.2127 36.628 16.9396C37.0882 16.4794 37.9475 16.4794 38.4077 16.9396C40.3809 18.906 42.9327 19.9425 45.5229 20.0736C45.3428 18.4005 44.992 16.782 44.4664 15.2402H35.4535C35.5811 16.0552 35.6902 16.8746 35.7744 17.7066Z" fill="#208FFF"/>
    <path d="M9.64754 22.5772C9.64754 20.0769 9.84589 17.6189 10.2162 15.2402H1.24159C0.450022 17.5458 0 20.0077 0 22.5772C0 25.1457 0.449718 27.6068 1.241 29.9117H10.2156C9.84558 27.5336 9.64754 25.0765 9.64754 22.5772Z" fill="#208FFF"/>
    <path d="M43.478 12.7843C40.7575 7.10199 35.7276 2.74037 29.6152 0.854004C32.0019 3.53779 33.9032 7.6624 35.0133 12.7843H43.478Z" fill="#208FFF"/>
    <path d="M19.9867 16.5813C20.3114 16.5813 20.6674 16.7096 20.8975 16.9396C21.1258 17.1672 21.3655 17.376 21.6082 17.5796V15.2402H12.7028C12.3121 17.6102 12.1021 20.07 12.1021 22.5772C12.1021 25.0834 12.3118 27.5425 12.7025 29.9117H19.3898C18.5371 25.6491 18.2959 21.4174 18.769 17.6551C18.8457 17.0415 19.3683 16.5813 19.9867 16.5813Z" fill="#208FFF"/>
    <path d="M2.25378 32.3643C4.97846 38.0254 9.96283 42.41 16.0576 44.3011C13.6705 41.6169 11.7719 37.4896 10.6681 32.3643H2.25378Z" fill="#208FFF"/>
    <path d="M37.495 28.0234C32.8486 28.0234 29.0674 31.795 29.0674 36.4318C29.0674 41.0674 32.8486 44.8389 37.495 44.8389C42.1413 44.8389 45.9225 41.0674 45.9225 36.4318C45.9225 31.795 42.1414 28.0234 37.495 28.0234ZM44.2231 33.3565L36.3205 41.2436C36.082 41.482 35.768 41.6019 35.454 41.6019C35.14 41.6019 34.8272 41.482 34.5875 41.2436L30.7669 37.4313C30.2863 36.9519 30.2863 36.1753 30.7645 35.6959C31.2438 35.2141 32.0204 35.2165 32.4998 35.6935L35.454 38.6405L42.4901 31.6188C42.9695 31.1418 43.7461 31.1394 44.2255 31.6212C44.7036 32.1006 44.7036 32.8772 44.2231 33.3565Z" fill="#208FFF"/>
    <path d="M52.261 21.04C47.8321 23.3535 42.3615 23.0124 38.2418 20.0142C37.8056 19.6969 37.2327 19.697 36.7968 20.0151C32.7697 22.9537 27.2882 23.4696 22.7386 21.2342C21.9252 20.8345 20.9757 21.3964 20.9952 22.3025C21.2346 33.4539 26.9482 47.3074 35.6142 52.6843C36.777 53.4056 38.2777 53.4177 39.4387 52.6938C48.147 47.2646 53.8531 33.2436 53.9999 22.0641C54.0116 21.1653 53.0576 20.6239 52.261 21.04ZM37.4948 47.2924C31.4942 47.2924 26.6129 42.4195 26.6129 36.4308C26.6129 30.441 31.4942 25.5681 37.4948 25.5681C43.4955 25.5681 48.3768 30.441 48.3768 36.4308C48.3768 42.4195 43.4955 47.2924 37.4948 47.2924Z" fill="#208FFF"/>
    <path d="M13.1745 32.3643C14.787 39.3839 18.0133 44.2376 21.6083 45.1522V37.6241C20.9563 35.9009 20.403 34.1377 19.9508 32.3643H13.1745Z" fill="#208FFF"/>
    <path d="M24.0623 45.2686C24.4727 45.2467 24.8823 45.2275 25.2829 45.1837C24.8577 44.4902 24.4512 43.7776 24.0623 43.0498V45.2686Z" fill="#208FFF"/>
</svg>