<svg width="85" height="70" viewBox="0 0 85 70" fill="none" xmlns="http://www.w3.org/2000/svg">
    <path d="M64.3739 56.5591C64.3696 56.3645 64.4728 56.1817 64.6405 56.0839L66.9028 54.7667L66.863 54.5334C66.7028 53.6281 66.4491 52.756 66.1136 51.9356L66.0233 51.712L63.4029 51.8077C63.1728 51.812 63.0245 51.7152 62.9234 51.5486C62.8223 51.3819 62.8191 51.1722 62.9169 51.0034L64.219 48.7282L64.0664 48.5476C63.4943 47.8637 62.8384 47.2326 62.1127 46.6691L61.9234 46.524L59.7074 47.9164C59.5429 48.0218 59.3332 48.0261 59.1611 47.9336C58.9913 47.839 58.8837 47.6584 58.8837 47.4627L58.873 44.8455L58.6461 44.7638C57.8128 44.4606 56.9042 44.2359 56.0247 44.1144L55.7838 44.0811L54.557 46.3939C54.4656 46.567 54.2882 46.6767 54.0914 46.681C53.9086 46.6788 53.7151 46.5799 53.6172 46.4143L52.3001 44.152L52.0614 44.1929C51.17 44.3499 50.2937 44.6036 49.4625 44.9423L49.2443 45.0337L49.341 47.6519C49.3475 47.8476 49.2486 48.0304 49.0808 48.1315C48.9131 48.2315 48.7023 48.2336 48.5368 48.1379L46.2626 46.8358L46.0777 46.9906C45.3906 47.5702 44.7595 48.2261 44.2057 48.9443L44.0595 49.1336L45.4498 51.3507C45.5541 51.5163 45.5594 51.7249 45.4648 51.8959C45.3713 52.0668 45.1906 52.1733 44.9939 52.1743L42.3778 52.1829L42.295 52.4098C41.9854 53.2603 41.7682 54.1431 41.6477 55.0323L41.6155 55.2721L43.9262 56.4968C44.1003 56.5871 44.2089 56.7677 44.2132 56.9624C44.2175 57.157 44.1143 57.3398 43.9466 57.4355L41.6843 58.7548L41.7252 58.9945C41.8832 59.8859 42.1359 60.759 42.4746 61.588L42.5649 61.8127L45.1853 61.716C45.3766 61.7235 45.5637 61.8084 45.6637 61.9751C45.7637 62.1418 45.7691 62.3514 45.6702 62.5213L44.3681 64.7933L44.524 64.9771C45.0971 65.6621 45.7551 66.2922 46.4745 66.8502L46.6637 66.9964L48.8808 65.6062C49.0453 65.5019 49.2561 65.4943 49.426 65.59C49.5969 65.6846 49.7034 65.8631 49.7055 66.0599L49.7152 68.6781L49.9346 68.7544C50.3668 68.9125 50.8055 69.0458 51.2367 69.1523C51.6818 69.262 52.1291 69.3458 52.5635 69.4039L52.8033 69.4372L54.0291 67.1276C54.1204 66.9545 54.2979 66.8459 54.4946 66.8416C54.6892 66.8545 54.871 66.9405 54.9677 67.1083L56.286 69.3695L56.5236 69.3286C57.4096 69.1727 58.287 68.9189 59.1214 68.577L59.3418 68.4867L59.245 65.8696C59.2386 65.6739 59.3375 65.4911 59.5041 65.39C59.6708 65.289 59.8815 65.2857 60.0514 65.3836L62.3223 66.6857L62.504 66.533C63.1933 65.9556 63.8255 65.2965 64.3857 64.575L64.5266 64.3911L63.1341 62.1729C63.0298 62.0084 63.0245 61.7988 63.118 61.6278C63.2126 61.4579 63.3922 61.3504 63.5879 61.3493L66.2082 61.3375L66.2867 61.1149C66.5975 60.2644 66.8157 59.3827 66.9362 58.4935L66.9716 58.2505L64.6588 57.0247C64.4868 56.9312 64.3782 56.7527 64.3739 56.5591ZM59.945 58.1537C59.5719 59.6633 58.6354 60.9386 57.3074 61.7407C56.3978 62.2891 55.3634 62.5783 54.3118 62.5783C53.8409 62.5783 53.3667 62.5202 52.9033 62.4063C51.3926 62.0321 50.1174 61.0945 49.3152 59.7666C47.6561 57.0215 48.54 53.4388 51.2861 51.7776C52.6022 50.9841 54.1914 50.7389 55.6914 51.1099C57.1999 51.4819 58.4741 52.4206 59.2783 53.7496C60.0815 55.0796 60.3202 56.643 59.945 58.1537Z" fill="#208FFF"/>
    <path d="M37.0284 39.557C37.0789 39.3699 37.2273 39.2226 37.4165 39.1753L41.7486 38.0872L41.8142 37.4754C41.9712 35.9926 41.9712 34.5002 41.8142 33.04L41.7529 32.4143L37.4197 31.3304C37.2305 31.2842 37.0821 31.1369 37.0305 30.9487C36.98 30.7595 37.0359 30.5584 37.1767 30.4229L40.3842 27.3166L40.1358 26.7531C39.525 25.3779 38.7788 24.0823 37.9176 22.9038L37.552 22.4006L33.2532 23.6285C33.064 23.6823 32.8629 23.6307 32.7253 23.492C32.5866 23.3533 32.535 23.1511 32.5887 22.964L33.8166 18.6663L33.3188 18.304C32.136 17.4384 30.8393 16.69 29.4641 16.0804L28.8974 15.8309L25.7975 19.0405C25.6621 19.1803 25.4599 19.2362 25.2718 19.1857C25.0836 19.1351 24.9374 18.9867 24.89 18.7975L23.8062 14.4697L23.188 14.4019C21.7396 14.2482 20.2031 14.2482 18.7526 14.4019L18.1311 14.4654L17.0451 18.7986C16.9989 18.9867 16.8516 19.1362 16.6634 19.1867C16.472 19.2383 16.2731 19.1814 16.1376 19.0416L13.0345 15.8352L12.4636 16.0836C11.0991 16.6879 9.80237 17.4352 8.61208 18.305L8.11748 18.6695L9.34647 22.9651C9.40023 23.1533 9.34754 23.3554 9.20991 23.493C9.07228 23.6307 8.87014 23.6823 8.68197 23.6296L4.38534 22.4038L4.01976 22.9027C3.15205 24.0909 2.40368 25.3887 1.79618 26.7585L1.54995 27.3209L4.75845 30.4229C4.89823 30.5595 4.95414 30.7605 4.9036 30.9487C4.85307 31.1369 4.70361 31.2831 4.51437 31.3304L0.185479 32.4132L0.117738 33.0336C-0.039246 34.5067 -0.039246 36.0012 0.117738 37.4754L0.186553 38.0926L4.51759 39.1764C4.70576 39.2226 4.85522 39.371 4.90575 39.557C4.95629 39.7473 4.90038 39.9473 4.7606 40.0839L1.5521 43.1881L1.80155 43.7547C2.40476 45.1181 3.15097 46.4138 4.01976 47.603L4.38427 48.1084L8.68305 46.8783C8.87121 46.8224 9.07336 46.8772 9.21099 47.0149C9.34862 47.1525 9.40131 47.3535 9.34754 47.5428L8.11855 51.8373L8.61746 52.2039C9.79914 53.0652 11.0969 53.8135 12.4711 54.4221L13.0367 54.6705L16.1387 51.4631C16.2742 51.3222 16.4742 51.2695 16.6645 51.3169C16.8527 51.3685 16.9989 51.5158 17.0462 51.7061L18.1311 56.0382L18.7408 56.0973C20.2149 56.2586 21.7364 56.2565 23.1901 56.0984L23.8084 56.0339L24.8922 51.7061C24.9384 51.5168 25.0857 51.3685 25.2739 51.3169C25.4631 51.2695 25.6642 51.3222 25.7997 51.4631L28.9007 54.6684L29.4705 54.4221C30.8275 53.82 32.1242 53.0727 33.3188 52.2007L33.8177 51.8351L32.5898 47.5406C32.536 47.3514 32.5876 47.1503 32.7263 47.0127C32.864 46.8761 33.064 46.8202 33.2543 46.8761L37.5509 48.1041L37.9122 47.6073C38.7788 46.4202 39.5304 45.1203 40.1433 43.7408L40.3809 43.1827L37.1746 40.0807C37.0337 39.9463 36.9778 39.7463 37.0284 39.557ZM27.3867 41.672C25.6782 43.3849 23.3976 44.3278 20.9676 44.3278C18.5376 44.3278 16.257 43.3849 14.5441 41.672C11.0056 38.1313 11.0056 32.3723 14.5441 28.8326C16.2581 27.1187 18.5397 26.1747 20.9676 26.1747C23.3933 26.1747 25.6728 27.1187 27.3867 28.8316C29.0996 30.5444 30.0436 32.8239 30.0436 35.2518C30.0436 37.6797 29.0996 39.9581 27.3867 41.672Z" fill="#208FFF"/>
    <path d="M84.8215 18.7515L84.7603 18.1257L80.426 17.0419C80.2368 16.9957 80.0884 16.8484 80.0378 16.6602C79.9873 16.471 80.0421 16.2699 80.1841 16.1344L83.3915 13.0291L83.1442 12.4657C82.5334 11.0905 81.7872 9.79484 80.926 8.61638L80.5593 8.11318L76.2616 9.34109C76.0713 9.39485 75.8734 9.34324 75.7347 9.20454C75.596 9.06583 75.5434 8.86369 75.5982 8.6766L76.825 4.37889L76.3272 4.01654C75.1444 3.15097 73.8466 2.40261 72.4714 1.79295L71.9069 1.54457L68.8049 4.75307C68.6683 4.89285 68.4662 4.94984 68.2801 4.89823C68.092 4.84769 67.9436 4.69931 67.8984 4.51007L66.8146 0.182252L66.1974 0.114512C64.7459 -0.0381708 63.2115 -0.0381708 61.7621 0.114512L61.1406 0.177951L60.0546 4.51114C60.0084 4.70038 59.8611 4.84877 59.6729 4.8993C59.4858 4.95091 59.2837 4.89393 59.1482 4.75415L56.0451 1.5478L55.4741 1.79618C54.1107 2.40046 52.8129 3.14775 51.6237 4.01761L51.128 4.38212L52.357 8.67767C52.4108 8.86584 52.3592 9.06798 52.2205 9.20561C52.0839 9.34324 51.8796 9.39593 51.6936 9.34217L47.398 8.1164L47.0314 8.61531C46.1637 9.80452 45.4142 11.1023 44.8089 12.4711L44.5626 13.0334L47.7679 16.1355C47.9098 16.272 47.9647 16.4731 47.9141 16.6613C47.8636 16.8494 47.7152 16.9957 47.526 17.043L43.1982 18.1257L43.1304 18.7462C42.9734 20.2192 42.9734 21.7138 43.1304 23.188L43.196 23.8041L47.5314 24.889C47.7206 24.9352 47.8679 25.0825 47.9206 25.2707C47.9711 25.4599 47.9141 25.661 47.7733 25.7965L44.5648 28.9007L44.8153 29.4684C45.4175 30.8307 46.1647 32.1264 47.0335 33.3177L47.398 33.8209L51.6957 32.5919C51.8861 32.5393 52.0861 32.5909 52.2226 32.7285C52.3613 32.8661 52.414 33.0683 52.3592 33.2564L51.1302 37.5509L51.6323 37.9176C52.8172 38.7821 54.1139 39.5294 55.4838 40.1358L56.0494 40.3842L59.1525 37.1789C59.2869 37.038 59.4901 36.9832 59.6761 37.0316C59.8643 37.0843 60.0116 37.2316 60.0589 37.4208L61.1438 41.7519L61.7513 41.811C63.2427 41.9723 64.7383 41.9701 66.2017 41.8121L66.8189 41.7476L67.9027 37.4208C67.949 37.2305 68.0963 37.0843 68.2834 37.0316C68.4737 36.9832 68.6726 37.038 68.8092 37.1789L71.9123 40.382L72.48 40.1358C73.8348 39.5369 75.1305 38.7896 76.3293 37.9143L76.8283 37.5498L75.6003 33.2532C75.5455 33.065 75.5982 32.8629 75.7369 32.7253C75.8735 32.5876 76.0734 32.5371 76.2638 32.5887L80.5593 33.8156L80.9217 33.3199C81.7872 32.135 82.5388 30.835 83.1528 29.4544L83.3936 28.8985L80.1873 25.7954C80.0464 25.6588 79.9894 25.4578 80.04 25.2696C80.0905 25.0814 80.24 24.9352 80.4281 24.8879L84.7603 23.7998L84.8258 23.189C84.9818 21.7063 84.9818 20.2149 84.8215 18.7515ZM70.3984 27.3846C68.6877 29.0985 66.4082 30.0415 63.9771 30.0415C61.5492 30.0415 59.2686 29.0974 57.5536 27.3846C54.015 23.8449 54.015 18.086 57.5536 14.5463C59.2686 12.8324 61.5492 11.8883 63.9771 11.8883C66.4028 11.8883 68.6834 12.8324 70.3984 14.5452C72.1101 16.2581 73.0553 18.5376 73.0553 20.9654C73.0553 23.3933 72.1091 25.6717 70.3984 27.3846Z" fill="#208FFF"/>
</svg>