<svg width="58" height="58" viewBox="0 0 58 58" fill="none" xmlns="http://www.w3.org/2000/svg">
    <path d="M19.3597 19.953L17.5847 19.287C17.3917 19.215 17.2167 19.114 17.0527 18.999H14.5637L15.9237 35.999H18.0767L19.3597 19.953Z" fill="#208FFF"/>
    <path d="M13.5571 38H2.69312L0.443115 44H11.3071L13.5571 38Z" fill="#208FFF"/>
    <path d="M7.14601 30.482C8.93401 31.733 10 33.7811 10 35.9621V36.0001H13.917L12.557 19H10C7.79401 19 6.00001 17.206 6.00001 15C6.00001 12.794 7.79401 11 10 11H10.23C12.3 11 14.051 12.617 14.217 14.681L14.403 17H16C16 15.987 16.638 15.067 17.586 14.712L24.818 12H33.307C31.227 4.97901 24.667 0 17.244 0H16.756C7.51701 0 0 7.51701 0 16.755C0 22.218 2.672 27.35 7.14601 30.482ZM22 4.00001H24V6.00001H22V4.00001ZM18 4.00001H20V6.00001H18V4.00001ZM14 4.00001H16V6.00001H14V4.00001ZM10 4.00001H12V6.00001H10V4.00001ZM2 17H4.00001C4.00001 17.619 4.04401 18.244 4.13201 18.859L2.152 19.14C2.051 18.433 2 17.712 2 17ZM4.53901 20.715C5.48701 23.906 7.60501 26.587 10.501 28.261L9.49901 29.992C6.15901 28.06 3.71701 24.968 2.621 21.284L4.53901 20.715Z" fill="#208FFF"/>
    <path d="M3 45.9996V54.9997C3 56.6537 4.346 57.9997 6 57.9997H15V39.8486L12.693 45.9996H3Z" fill="#208FFF"/>
    <path d="M23.9998 35.9621C23.9998 33.7811 25.0658 31.7331 26.8538 30.4821C29.8248 28.4031 32.0218 25.4221 33.1498 22.0001H24.8188L21.3088 20.6841L20.0828 36.0001H23.9998V35.9621Z" fill="#208FFF"/>
    <path d="M24 14.4429L18.288 16.5849C18.115 16.6499 18 16.8159 18 16.9999C18 17.1839 18.115 17.3499 18.287 17.4149L24 19.5569V14.4429Z" fill="#208FFF"/>
    <path d="M10.23 12.9995H10C8.897 12.9995 8 13.8965 8 14.9995C8 16.1025 8.897 16.9995 10 16.9995H12.396L12.223 14.8395C12.142 13.8085 11.266 12.9995 10.23 12.9995Z" fill="#208FFF"/>
    <path d="M26 14.0005V16.0005H38V14.2795V14.0005H26Z" fill="#208FFF"/>
    <path d="M26 18.0005V20.0005H38V19.7215V18.0005H26Z" fill="#208FFF"/>
    <path d="M55.537 19.486L55.706 19.045L58 18.279V15.72L55.706 14.955L55.537 14.514C55.487 14.386 55.437 14.259 55.382 14.135L55.188 13.702L56.269 11.54L54.46 9.731L52.298 10.812L51.865 10.618C51.742 10.563 51.617 10.513 51.49 10.465L51.045 10.297L50.279 8H47.72L46.954 10.298L46.509 10.466C46.382 10.514 46.257 10.564 46.134 10.619L45.701 10.813L43.539 9.732L41.73 11.541L42.811 13.703L42.617 14.136C42.561 14.261 42.512 14.387 42.462 14.515L42.293 14.956L40 15.721V18.28L42.294 19.045L42.463 19.486C42.513 19.614 42.563 19.741 42.618 19.865L42.812 20.298L41.731 22.46L43.54 24.269L45.702 23.188L46.135 23.382C46.258 23.437 46.383 23.487 46.51 23.535L46.955 23.703L47.721 26H50.28L51.046 23.702L51.491 23.534C51.618 23.486 51.743 23.436 51.866 23.381L52.299 23.187L54.461 24.268L56.27 22.459L55.189 20.297L55.383 19.864C55.437 19.741 55.487 19.614 55.537 19.486ZM49 21C46.791 21 45 19.209 45 17C45 14.791 46.791 13 49 13C51.209 13 53 14.791 53 17C53 19.209 51.209 21 49 21Z" fill="#208FFF"/>
    <path d="M18.4429 38L20.6929 44H33.5569L31.3069 38H18.4429Z" fill="#208FFF"/>
    <path d="M16.9998 39.8486V57.9997H27.9998C29.6538 57.9997 30.9998 56.6537 30.9998 54.9997V45.9996H19.3068L16.9998 39.8486ZM22.9998 53.9997H28.9998V55.9997H22.9998V53.9997Z" fill="#208FFF"/>
</svg>