<svg width="100" height="100" viewBox="0 0 100 100" fill="none" xmlns="http://www.w3.org/2000/svg">
<g filter="url(#filter0_d)">
<circle cx="40.2641" cy="39.9623" r="19.4151" transform="rotate(-180 40.2641 39.9623)" fill="white"/>
<path d="M30.774 39.2553C30.3835 39.6458 30.3835 40.279 30.774 40.6695L37.1379 47.0335C37.5285 47.424 38.1616 47.424 38.5522 47.0335C38.9427 46.6429 38.9427 46.0098 38.5522 45.6193L32.8953 39.9624L38.5522 34.3055C38.9427 33.915 38.9427 33.2819 38.5522 32.8913C38.1616 32.5008 37.5285 32.5008 37.1379 32.8913L30.774 39.2553ZM49.0471 38.9624L31.4811 38.9624L31.4811 40.9624L49.0471 40.9624L49.0471 38.9624Z" fill="#0E82F8"/>
</g>
<defs>
<filter id="filter0_d" x="0.849121" y="0.547363" width="98.8302" height="98.8302" filterUnits="userSpaceOnUse" color-interpolation-filters="sRGB">
<feFlood flood-opacity="0" result="BackgroundImageFix"/>
<feColorMatrix in="SourceAlpha" type="matrix" values="0 0 0 0 0 0 0 0 0 0 0 0 0 0 0 0 0 0 127 0"/>
<feOffset dx="10" dy="10"/>
<feGaussianBlur stdDeviation="15"/>
<feColorMatrix type="matrix" values="0 0 0 0 0 0 0 0 0 0 0 0 0 0 0 0 0 0 0.8 0"/>
<feBlend mode="normal" in2="BackgroundImageFix" result="effect1_dropShadow"/>
<feBlend mode="normal" in="SourceGraphic" in2="effect1_dropShadow" result="shape"/>
</filter>
</defs>
</svg>
