<svg width="209" height="19" viewBox="0 0 209 19" fill="none" xmlns="http://www.w3.org/2000/svg">
<g clip-path="url(#clip0)">
<path d="M135.641 10.0177V9.70104C135.641 6.17218 137.948 4.6792 140.482 4.6792C143.151 4.6792 145.277 6.12694 145.277 9.6558V9.97249C145.277 13.5014 142.97 14.9943 140.436 14.9943C137.767 14.9491 135.641 13.5014 135.641 10.0177ZM142.337 10.1082V9.61056C142.337 7.52943 141.748 6.71508 140.436 6.71508C139.215 6.71508 138.581 7.61992 138.581 9.52007V10.0177C138.581 12.1893 139.215 12.9585 140.482 12.9585C141.748 12.9132 142.337 12.0084 142.337 10.1082Z" fill="#00B336"/>
<path d="M120.756 4.8562H116.865C116.73 4.8562 116.639 4.94668 116.639 5.08241V14.5832C116.639 14.7189 116.73 14.8094 116.865 14.8094H117.227C118.449 14.8094 119.444 13.8141 119.444 12.5925V11.7329V9.5161V6.98256C119.444 6.84684 119.535 6.75635 119.67 6.75635H120.53C121.435 6.75635 121.887 7.11829 121.887 8.24933C121.887 9.10892 121.571 9.5161 120.847 9.69707C120.53 9.74231 120.304 10.059 120.304 10.3757V11.3258C120.304 11.4163 120.394 11.5067 120.485 11.5067H120.892C123.38 11.5067 124.737 10.3304 124.737 8.06836C124.737 6.03249 123.425 4.8562 120.756 4.8562Z" fill="#00B336"/>
<path d="M134.6 14.4514L132.564 10.5154V10.4702C133.605 10.1082 134.283 9.06767 134.193 7.93663C134.193 5.81026 132.926 4.81494 130.393 4.81494H126.411C126.276 4.81494 126.185 4.90543 126.185 5.04115V14.5419C126.185 14.6777 126.276 14.7681 126.411 14.7681H128.764C128.9 14.7681 128.99 14.6777 128.99 14.5419L128.945 6.94131C128.945 6.80558 129.035 6.7151 129.171 6.7151H129.94C130.936 6.7151 131.343 7.12227 131.343 8.07235C131.343 8.79622 131.252 9.29388 130.709 9.52009C130.257 9.70106 129.624 9.7463 129.804 10.6964C129.895 11.1488 131.75 14.6324 131.75 14.6324C131.795 14.6777 131.84 14.7229 131.931 14.7229H134.329C134.464 14.7229 134.555 14.6324 134.555 14.4967C134.6 14.5419 134.6 14.4967 134.6 14.4514Z" fill="#00B336"/>
<path d="M150.661 4.81494H147.358C147.268 4.81494 147.177 4.90542 147.177 4.99591V14.5872C147.177 14.6777 147.268 14.7681 147.358 14.7681H148.715C148.806 14.7681 148.896 14.6777 148.896 14.5872V11.556V9.33912V6.35316C148.896 6.26268 148.987 6.1722 149.077 6.1722C149.077 6.1722 149.077 6.1722 149.123 6.1722H150.48C151.792 6.1722 152.335 6.66986 152.335 7.98187C152.335 9.15815 151.837 9.7463 150.48 9.7463H149.892C149.801 9.7463 149.711 9.83678 149.711 9.92727V10.8321C149.711 10.9226 149.801 11.0131 149.892 11.0131H150.797C152.878 11.0131 154.19 9.92727 154.19 7.84614C154.144 5.90074 153.013 4.81494 150.661 4.81494Z" fill="#00B336"/>
<path d="M159.936 4.95067C159.89 4.86018 159.845 4.81494 159.755 4.81494H158.216C158.126 4.81494 158.081 4.86018 158.035 4.95067L154.597 14.5419C154.552 14.6324 154.597 14.7681 154.733 14.7681H154.778H155.999C156.09 14.7681 156.135 14.7229 156.18 14.6324L156.995 12.3251C157.04 12.2346 157.085 12.1894 157.176 12.1894H160.614C160.705 12.1894 160.75 12.2346 160.795 12.3251L161.61 14.6324C161.655 14.7229 161.7 14.7681 161.79 14.7681H163.193C163.283 14.7681 163.374 14.6777 163.374 14.5872V14.5419L159.936 4.95067ZM160.026 10.9226H157.719C157.628 10.9226 157.538 10.8321 157.538 10.7416V10.6964L158.85 6.94131H158.895L160.207 10.6964C160.252 10.7869 160.207 10.9226 160.071 10.9226C160.071 10.9226 160.071 10.9226 160.026 10.9226Z" fill="#00B336"/>
<path d="M180.792 4.81494H173.734C173.644 4.81494 173.553 4.90542 173.553 4.99591V5.99123C173.553 6.08171 173.644 6.1722 173.734 6.1722H176.222C176.313 6.1722 176.403 6.26268 176.403 6.35316V14.5419C176.403 14.6324 176.494 14.7229 176.584 14.7229H177.942C178.032 14.7229 178.123 14.6324 178.123 14.5419V6.3984C178.123 6.30792 178.213 6.21744 178.303 6.21744H180.747C180.837 6.21744 180.927 6.12695 180.927 6.03647V5.04115C180.973 4.90542 180.882 4.81494 180.792 4.81494Z" fill="#00B336"/>
<path d="M190.293 4.81494H189.116C189.026 4.81494 188.935 4.90542 188.935 4.99591V11.9179H188.89L184.818 4.90542C184.773 4.86018 184.728 4.81494 184.637 4.81494H182.963C182.873 4.81494 182.782 4.90542 182.782 4.99591V14.5872C182.782 14.6777 182.873 14.7681 182.963 14.7681H184.14C184.23 14.7681 184.321 14.6777 184.321 14.5872V7.21276H184.366L188.709 14.6777C188.754 14.7229 188.8 14.7681 188.89 14.7681H190.338C190.428 14.7681 190.519 14.6777 190.519 14.5872V5.04115C190.519 4.90543 190.428 4.81494 190.293 4.81494C190.338 4.81494 190.338 4.81494 190.293 4.81494Z" fill="#00B336"/>
<path d="M199.205 13.4108H195.043C194.953 13.4108 194.862 13.3203 194.862 13.2298V10.5153C194.862 10.4248 194.953 10.3344 195.043 10.3344H198.119C198.21 10.3344 198.3 10.2439 198.3 10.1534V9.15808C198.3 9.06759 198.21 8.97711 198.119 8.97711H195.043C194.953 8.97711 194.862 8.88663 194.862 8.79614V6.39833C194.862 6.30784 194.953 6.21736 195.043 6.21736H199.115C199.205 6.21736 199.296 6.12688 199.296 6.03639V5.04107C199.296 4.95059 199.205 4.86011 199.115 4.86011H193.279C193.188 4.86011 193.098 4.95059 193.098 5.04107V14.5871C193.098 14.6776 193.188 14.7681 193.279 14.7681H199.205C199.296 14.7681 199.386 14.6776 199.386 14.5871V13.5918C199.386 13.5013 199.296 13.4108 199.205 13.4108Z" fill="#00B336"/>
<path d="M208.706 14.4966L206.399 10.3796V10.3344C207.53 10.0177 208.299 8.93187 208.208 7.75558C208.208 5.81018 207.032 4.86011 204.77 4.86011H201.648C201.558 4.86011 201.467 4.95059 201.467 5.04107V14.6323C201.467 14.7228 201.558 14.8133 201.648 14.8133H203.005C203.096 14.8133 203.186 14.7228 203.186 14.6323V6.35309C203.186 6.2626 203.277 6.17212 203.367 6.17212H204.544C205.856 6.17212 206.399 6.62454 206.399 7.80082C206.399 8.97711 205.901 9.52001 204.544 9.52001H204.091C204.001 9.52001 203.91 9.61049 203.91 9.70098V10.5153C203.91 10.6058 204.001 10.6963 204.091 10.6963H204.634C204.725 10.6963 204.77 10.7415 204.815 10.7868L206.941 14.6323C206.987 14.6776 207.032 14.7228 207.122 14.7228H208.615C208.706 14.7228 208.796 14.6323 208.796 14.4966C208.751 14.5418 208.751 14.5418 208.706 14.4966Z" fill="#00B336"/>
<path d="M172.467 14.4966L170.16 10.3796V10.3344C171.291 10.0177 172.06 8.93187 171.97 7.75558C171.97 5.81018 170.793 4.86011 168.531 4.86011H165.41C165.319 4.86011 165.229 4.95059 165.229 5.04107V14.6323C165.229 14.7228 165.319 14.8133 165.41 14.8133H166.767C166.857 14.8133 166.948 14.7228 166.948 14.6323V6.35309C166.948 6.2626 167.038 6.17212 167.129 6.17212H168.305C169.617 6.17212 170.16 6.62454 170.16 7.80082C170.16 8.97711 169.662 9.52001 168.305 9.52001H167.853C167.762 9.52001 167.672 9.61049 167.672 9.70098V10.5153C167.672 10.6058 167.762 10.6963 167.853 10.6963H168.396C168.486 10.6963 168.531 10.7415 168.577 10.7868L170.703 14.6323C170.748 14.6776 170.793 14.7228 170.884 14.7228H172.377C172.467 14.7228 172.558 14.6323 172.558 14.5418C172.467 14.5418 172.467 14.5418 172.467 14.4966Z" fill="#00B336"/>
<path d="M107.636 17.7089V1.96474C107.636 1.51232 107.998 1.15039 108.45 1.15039C108.903 1.15039 109.265 1.51232 109.265 1.96474V17.7089C109.265 18.1613 108.903 18.5232 108.45 18.5232C107.998 18.5232 107.636 18.1161 107.636 17.7089Z" fill="#00B336"/>
<path d="M18.9182 1.23908C18.1039 0.786662 17.1086 1.1486 16.7014 1.96295L10.7747 14.7211C10.639 14.9926 10.5033 15.1735 10.1866 15.1735C9.86992 15.1735 9.73419 14.9926 9.59847 14.7211L3.71705 1.96295C3.30987 1.1486 2.31456 0.786662 1.54545 1.23908C0.7311 1.6915 0.414408 2.73206 0.821583 3.54641L6.61252 15.3093L7.2459 16.6665C7.83404 17.8428 8.96508 18.5667 10.1866 18.5667C11.4534 18.5667 12.5844 17.8428 13.1273 16.6665L13.7607 15.3093L19.5516 3.54641C20.004 2.73206 19.6874 1.6915 18.9182 1.23908Z" fill="#00B336"/>
<path d="M97.2758 1.01465C96.1448 1.01465 95.1947 1.69328 94.7423 2.64335C93.2493 5.71979 88.8156 14.8134 88.8156 14.8586C88.7704 14.9039 88.6799 15.1301 88.4989 15.1301C88.318 15.1301 88.2275 14.9491 88.1822 14.8586C86.7345 11.8274 83.839 5.85552 82.3008 2.77908C81.7127 1.60279 80.7626 1.01465 79.6768 1.01465C78.0481 1.01465 76.7361 2.3719 76.7361 4.27206V16.804C76.7361 17.5731 77.1885 18.2518 77.8219 18.478C78.9077 18.8399 79.8578 17.8898 79.8578 16.7588L79.6316 4.54351C79.6316 4.40778 79.7673 4.36254 79.8578 4.49827L85.8749 16.7135C86.4178 17.8898 87.4131 18.5685 88.4989 18.5685C89.5847 18.5685 90.5348 17.8898 91.1229 16.7135L97.1401 4.49827C97.1853 4.36254 97.3663 4.45302 97.3663 4.54351L97.1401 16.804C97.1401 17.7541 97.864 18.5685 98.7688 18.5232C99.6284 18.478 100.307 17.6636 100.307 16.7135C100.307 16.7135 100.307 7.3485 100.307 4.22681C100.262 2.3719 98.9045 1.01465 97.2758 1.01465Z" fill="#00B336"/>
<path d="M74.7454 15.9897L68.0949 2.86964C67.5067 1.69335 66.3757 0.969482 65.1542 0.969482C64.3851 0.969482 63.6159 1.24093 63.073 1.73859C62.7111 2.05528 62.4397 2.41722 62.2135 2.86964L55.6082 15.8993V15.9445C55.2915 16.5326 55.382 17.2565 55.7439 17.7994C55.7439 17.7994 55.7439 17.8447 55.7891 17.8447C55.7891 17.8447 55.7891 17.8899 55.8344 17.8899C55.9701 18.0256 56.1058 18.1613 56.2868 18.2971C56.8297 18.6138 57.5083 18.5685 58.006 18.2518C58.0512 18.2066 58.0965 18.2066 58.0965 18.1614C58.1417 18.1161 58.1417 18.1161 58.1869 18.0709C58.1869 18.0709 58.2322 18.0709 58.2322 18.0256C58.3679 17.8899 58.4584 17.7542 58.5489 17.6184L58.7751 17.1208L60.1776 14.2253C60.2228 14.1348 60.2681 14.0896 60.3585 14.0896H66.4662C67.2805 14.0896 67.9591 13.411 67.9591 12.5514C67.9591 11.6918 67.2805 11.0132 66.4662 11.0132H62.8016H61.8968C61.8063 11.0132 61.7158 10.9227 61.761 10.8322L62.123 10.1083L64.6113 5.08648C64.6113 5.08648 64.6113 5.08648 64.6113 5.04124C64.6565 4.95076 64.7922 4.58882 65.0184 4.54358C65.1542 4.49834 65.2899 4.49834 65.3804 4.54358C65.6518 4.63406 65.7423 4.95076 65.878 5.17697L71.9404 17.7542C72.2571 18.3423 72.8 18.659 73.3882 18.659C73.5691 18.659 73.7501 18.6138 73.9311 18.5685H73.9763C74.0215 18.5685 74.0668 18.5233 74.112 18.5233C74.112 18.5233 74.1573 18.5233 74.1573 18.478C74.1573 18.478 74.1573 18.478 74.2025 18.478H74.2477L74.293 18.4328C74.293 18.4328 74.3382 18.4328 74.3382 18.3876C74.3835 18.3876 74.3835 18.3423 74.4287 18.3423C74.474 18.3423 74.474 18.2971 74.5192 18.2518C74.9264 17.5732 75.1073 16.7136 74.7454 15.9897Z" fill="#00B336"/>
<path d="M23.3509 11.6465H34.5256C34.7518 11.6465 36.471 11.5108 36.471 9.5654C36.471 4.76977 32.7612 0.83374 28.1918 0.83374C23.6224 0.83374 19.8673 4.76977 19.8673 9.5654C19.8673 9.65588 19.8673 9.97257 19.8673 10.0178C19.8673 15.5373 23.3962 18.478 28.056 18.7495C28.2822 18.7495 28.5085 18.7495 28.7347 18.7495C30.5443 18.7495 32.0373 18.2971 33.7112 17.2565C33.8922 17.166 34.5256 16.7136 35.2042 15.854C35.7471 15.1754 35.7924 14.1348 35.2042 13.5919C34.3446 12.8228 33.485 13.23 32.7159 13.9086C31.4944 14.9492 30.5896 15.7635 28.1465 15.7635C25.8844 15.7635 23.7128 14.4515 23.2152 11.8727C23.2152 11.737 23.2604 11.6465 23.3509 11.6465ZM23.2152 8.43435C23.5319 5.90082 25.2511 3.68397 28.1465 3.68397C31.042 3.68397 32.8517 5.85557 33.1683 8.43435C33.1683 8.52484 33.1231 8.61532 33.0326 8.61532H23.3509C23.2604 8.61532 23.2152 8.52484 23.2152 8.43435Z" fill="#00B336"/>
<path d="M41.719 11.6465H52.8937C53.1199 11.6465 54.8391 11.5108 54.8391 9.5654C54.8391 4.76977 51.1293 0.83374 46.5599 0.83374C41.9905 0.83374 38.2806 4.76977 38.2806 9.5654C38.2806 9.65588 38.2806 9.97257 38.2806 10.0178C38.2806 15.5373 41.8095 18.478 46.4694 18.7495C46.6956 18.7495 46.9218 18.7495 47.148 18.7495C48.9577 18.7495 50.4507 18.2971 52.1246 17.2565C52.3056 17.166 52.939 16.7136 53.6176 15.854C54.1605 15.1754 54.2057 14.1348 53.6176 13.5919C52.758 12.8228 51.8984 13.23 51.1293 13.9086C49.9078 14.9492 49.0029 15.7635 46.5599 15.7635C44.2978 15.7635 42.1262 14.4515 41.6285 11.8727C41.5833 11.737 41.6738 11.6465 41.719 11.6465ZM41.6285 8.43435C41.9452 5.90082 43.6644 3.68397 46.5599 3.68397C49.4553 3.68397 51.265 5.85557 51.5817 8.43435C51.5817 8.52484 51.5365 8.61532 51.446 8.61532H41.7643C41.6738 8.61532 41.5833 8.52484 41.6285 8.43435Z" fill="#00B336"/>
</g>
<defs>
<clipPath id="clip0">
<rect x="0.639648" y="0.83374" width="208.111" height="17.961" fill="white"/>
</clipPath>
</defs>
</svg>
