<svg width="30" height="30" viewBox="0 0 30 30" fill="none" xmlns="http://www.w3.org/2000/svg">
<rect width="30" height="30" rx="4" fill="url(#paint0_linear)"/>
<path d="M7.00124 13.1528C6.98312 13.4767 7.16438 13.7786 7.45913 13.9142L13.373 16.627L16.0857 22.5405C16.2149 22.8211 16.4955 23 16.8021 23L16.847 22.9984C17.0052 22.9896 17.157 22.9332 17.2827 22.8368C17.4084 22.7403 17.5021 22.6082 17.5515 22.4578L21.961 9.03392C22.0532 8.75176 21.9791 8.44044 21.7695 8.23C21.5598 8.01956 21.2493 7.94784 20.9656 8.03848L7.54188 12.449C7.39134 12.4982 7.25917 12.5917 7.16269 12.7173C7.06621 12.8429 7.00994 12.9947 7.00124 13.1528Z" fill="white"/>
<defs>
<linearGradient id="paint0_linear" x1="0" y1="0" x2="27" y2="30" gradientUnits="userSpaceOnUse">
<stop stop-color="#102BBB"/>
<stop offset="1" stop-color="#5E74ED"/>
</linearGradient>
</defs>
</svg>
