<svg width="30" height="30" viewBox="0 0 30 30" fill="none" xmlns="http://www.w3.org/2000/svg">
<rect width="30" height="30" rx="4" fill="url(#paint0_linear)"/>
<path d="M11.6667 13.75V16.25C11.6667 16.6642 11.3309 17 10.9167 17H7.75C7.33578 17 7 16.6642 7 16.25V13.75C7 13.3358 7.33578 13 7.75 13H10.9167C11.3309 13 11.6667 13.3358 11.6667 13.75ZM7 18.75V21.25C7 21.6642 7.33578 22 7.75 22H10.9167C11.3309 22 11.6667 21.6642 11.6667 21.25V18.75C11.6667 18.3358 11.3309 18 10.9167 18H7.75C7.33578 18 7 18.3358 7 18.75ZM10.9167 8H7.75C7.33578 8 7 8.33578 7 8.75V11.25C7 11.6642 7.33578 12 7.75 12H10.9167C11.3309 12 11.6667 11.6642 11.6667 11.25V8.75C11.6667 8.33578 11.3309 8 10.9167 8ZM13.4167 22H22.25C22.6642 22 23 21.6642 23 21.25V18.75C23 18.3358 22.6642 18 22.25 18H13.4167C13.0024 18 12.6667 18.3358 12.6667 18.75V21.25C12.6667 21.6642 13.0024 22 13.4167 22ZM12.6667 8.75V11.25C12.6667 11.6642 13.0024 12 13.4167 12H22.25C22.6642 12 23 11.6642 23 11.25V8.75C23 8.33578 22.6642 8 22.25 8H13.4167C13.0024 8 12.6667 8.33578 12.6667 8.75ZM13.4167 17H22.25C22.6642 17 23 16.6642 23 16.25V13.75C23 13.3358 22.6642 13 22.25 13H13.4167C13.0024 13 12.6667 13.3358 12.6667 13.75V16.25C12.6667 16.6642 13.0024 17 13.4167 17Z" fill="white"/>
<defs>
<linearGradient id="paint0_linear" x1="2.45869e-07" y1="1.5" x2="28" y2="29" gradientUnits="userSpaceOnUse">
<stop stop-color="#FF7246"/>
<stop offset="1" stop-color="#FFB198"/>
</linearGradient>
</defs>
</svg>
