<svg width="41" height="41" viewBox="0 0 41 41" fill="none" xmlns="http://www.w3.org/2000/svg">
<path d="M20.2 0.339844C9.06584 0.339844 0.0400391 9.36564 0.0400391 20.4998C0.0400391 31.634 9.06584 40.6598 20.2 40.6598C31.3342 40.6598 40.36 31.634 40.36 20.4998C40.36 9.36564 31.3342 0.339844 20.2 0.339844ZM15.265 28.8557H11.1826V15.7181H15.265V28.8557ZM13.1986 14.1053C11.9092 14.1053 11.0755 13.1918 11.0755 12.062C11.0755 10.9091 11.9344 10.0229 13.2511 10.0229C14.5678 10.0229 15.3742 10.9091 15.3994 12.062C15.3994 13.1918 14.5678 14.1053 13.1986 14.1053ZM30.175 28.8557H26.0926V21.575C26.0926 19.8803 25.5004 18.7295 24.0241 18.7295C22.8964 18.7295 22.2265 19.5086 21.9304 20.2583C21.8212 20.525 21.7939 20.903 21.7939 21.2789V28.8536H17.7094V19.9076C17.7094 18.2675 17.6569 16.8962 17.6023 15.716H21.1492L21.3361 17.5409H21.418C21.9556 16.6841 23.2723 15.4199 25.4752 15.4199C28.1611 15.4199 30.175 17.2196 30.175 21.0878V28.8557Z" fill="#1B1B1B"/>
</svg>
