<svg width="39" height="39" viewBox="0 0 39 39" fill="none" xmlns="http://www.w3.org/2000/svg">
<path d="M19.2 0.299805C8.596 0.299805 0 8.89581 0 19.4998C0 30.1038 8.596 38.6998 19.2 38.6998C29.804 38.6998 38.4 30.1038 38.4 19.4998C38.4 8.89581 29.804 0.299805 19.2 0.299805ZM27.01 16.0278C27.018 16.1918 27.02 16.3558 27.02 16.5158C27.02 21.5158 23.218 27.2778 16.262 27.2778C14.2066 27.2812 12.1939 26.6909 10.466 25.5778C10.76 25.6138 11.062 25.6278 11.368 25.6278C13.14 25.6278 14.77 25.0258 16.064 24.0098C15.2754 23.9943 14.5113 23.7332 13.8782 23.2628C13.2451 22.7925 12.7745 22.1363 12.532 21.3858C13.0983 21.4935 13.6817 21.4709 14.238 21.3198C13.3821 21.1467 12.6124 20.683 12.0594 20.0071C11.5064 19.3313 11.2042 18.485 11.204 17.6118V17.5658C11.714 17.8478 12.298 18.0198 12.918 18.0398C12.1156 17.5057 11.5476 16.6851 11.3301 15.7461C11.1126 14.807 11.2621 13.8203 11.748 12.9878C12.6979 14.1558 13.8825 15.1113 15.2251 15.7924C16.5678 16.4736 18.0384 16.8651 19.542 16.9418C19.3508 16.1304 19.4331 15.2786 19.776 14.5188C20.1189 13.759 20.7032 13.1338 21.4381 12.7403C22.173 12.3469 23.0173 12.2073 23.8398 12.3431C24.6622 12.479 25.4167 12.8829 25.986 13.4918C26.8323 13.3244 27.644 13.0139 28.386 12.5738C28.1039 13.4501 27.5133 14.1942 26.724 14.6678C27.4737 14.5775 28.2057 14.376 28.896 14.0698C28.389 14.8296 27.7503 15.4927 27.01 16.0278Z" fill="#1B1B1B"/>
</svg>
