<svg width="264" height="185" viewBox="0 0 264 185" fill="none" xmlns="http://www.w3.org/2000/svg">
<g filter="url(#filter0_d)">
<rect x="119" y="42" width="115" height="93" fill="#1C2124"/>
</g>
<path d="M210.162 103L199.232 92.0703L198.774 92.5284C198.015 93.2871 196.784 93.2871 196.025 92.5284C195.267 91.7697 195.267 90.5383 196.025 89.7796L196.483 89.3215L193.735 86.5728L184.572 95.7353L187.321 98.484L187.779 98.0259C188.538 97.2673 189.769 97.2673 190.528 98.0259C191.286 98.7846 191.286 100.016 190.528 100.775L190.07 101.233L201 112.163C201.331 112.492 201.697 112.784 202.091 113.034L211.033 104.091C210.783 103.697 210.491 103.332 210.162 103Z" fill="#88B337"/>
<path d="M211.033 104.091L202.09 113.034C205.098 114.965 209.102 114.094 211.033 111.087C212.402 108.957 212.402 106.223 211.033 104.091Z" fill="#DADDDF"/>
<path d="M169.912 68.248L168.996 64.5829L162.582 60.918L158.917 64.5829L162.582 70.9967L166.247 71.913L187.321 92.9865L190.986 89.3216L169.912 68.248Z" fill="#CFD2D4"/>
<path d="M211.75 68.5578L205.646 74.6619L200.148 72.8294L198.316 67.3319L204.42 61.2279C199.049 59.8572 193.584 63.1006 192.214 68.4716C191.799 70.0998 191.799 71.8058 192.214 73.434L171.433 94.2144C166.007 92.8373 160.492 96.1184 159.115 101.544C157.738 106.97 161.019 112.485 166.445 113.862C171.871 115.239 177.386 111.958 178.763 106.532C179.178 104.896 179.178 103.181 178.763 101.544L199.544 80.764C204.918 82.131 210.383 78.8821 211.75 73.5073C212.163 71.8837 212.163 70.1823 211.75 68.5578ZM171.745 108.563H166.247L163.498 103.982L166.247 99.4003H171.745L174.493 103.982L171.745 108.563Z" fill="#DADDDF"/>
<path d="M212.059 107.581C212.058 106.343 211.702 105.132 211.033 104.091L208.394 106.73V113.41C210.634 112.332 212.058 110.067 212.059 107.581Z" fill="#CFD2D4"/>
<path d="M158.122 65.041L161.787 71.4548C161.91 71.6719 162.117 71.8286 162.359 71.889L165.779 72.7439L177.507 84.4719L178.802 83.1763L166.891 71.265C166.774 71.1477 166.627 71.0643 166.466 71.024L163.18 70.1994L160.06 64.7359L162.735 62.0605L168.201 65.184L169.026 68.4696C169.066 68.6309 169.15 68.7784 169.267 68.8957L181.178 80.8069L182.474 79.5113L170.746 67.7834L169.891 64.3658C169.83 64.123 169.674 63.9159 169.457 63.7922L163.043 60.1272C162.685 59.9238 162.235 59.9842 161.943 60.2747L158.278 63.9397C157.983 64.2292 157.919 64.6809 158.122 65.041Z" fill="black"/>
<path d="M194.919 76.7625L174.762 96.9197L176.057 98.2154L196.214 78.0583L194.919 76.7625Z" fill="black"/>
<path d="M172.53 98.9283C172.364 98.6525 172.066 98.4839 171.744 98.4839H166.247C165.925 98.4839 165.628 98.6525 165.462 98.9283L162.713 103.51C162.539 103.8 162.539 104.163 162.713 104.453L165.462 109.035C165.628 109.31 165.926 109.479 166.247 109.479H171.744C172.066 109.479 172.364 109.31 172.53 109.035L175.278 104.453C175.453 104.163 175.453 103.8 175.278 103.51L172.53 98.9283ZM171.226 107.646H166.766L164.567 103.981L166.766 100.316H171.226L173.425 103.981L171.226 107.646Z" fill="black"/>
<path d="M201.982 81.9916C208.034 82.0118 212.956 77.1227 212.976 71.0709C212.978 70.15 212.866 69.232 212.64 68.3395C212.518 67.8484 212.02 67.5498 211.529 67.6716C211.368 67.712 211.22 67.7953 211.103 67.9126L205.399 73.6126L200.874 72.1045L199.365 67.5801L205.069 61.8755C205.426 61.5173 205.426 60.9373 205.068 60.58C204.949 60.4618 204.801 60.3784 204.639 60.3381C198.77 58.8519 192.808 62.4042 191.322 68.2728C191.097 69.1633 190.984 70.0787 190.987 70.9967C190.989 71.7178 191.064 72.4371 191.21 73.1435L171.144 93.2093C170.437 93.0636 169.718 92.9893 168.997 92.9866C162.925 92.9866 158.002 97.9096 158.002 103.981C158.002 110.053 162.925 114.976 168.997 114.976C175.069 114.976 179.992 110.053 179.992 103.981C179.99 103.26 179.915 102.541 179.769 101.835L184.573 97.0309L186.674 99.1319C187.031 99.4892 187.612 99.4892 187.97 99.1319L188.428 98.6738C188.83 98.2743 189.479 98.2743 189.881 98.6738C190.282 99.0741 190.283 99.7238 189.883 100.125C189.882 100.126 189.882 100.126 189.881 100.127L189.423 100.585C189.066 100.942 189.066 101.523 189.423 101.881L200.353 112.811C203.228 115.711 207.91 115.732 210.811 112.858C213.712 109.983 213.733 105.301 210.858 102.4C210.843 102.385 210.827 102.369 210.811 102.353L199.881 91.4226C199.524 91.0653 198.943 91.0653 198.585 91.4226L198.127 91.8807C197.725 92.2801 197.076 92.2801 196.674 91.8807C196.273 91.4803 196.272 90.8307 196.672 90.4293C196.673 90.4284 196.673 90.4284 196.674 90.4275L197.132 89.9694C197.489 89.6121 197.489 89.0311 197.132 88.6738L195.031 86.5729L199.835 81.769C200.541 81.9147 201.261 81.9889 201.982 81.9916ZM205.582 113.144C204.916 113.143 204.256 113.023 203.633 112.788L210.789 105.633C211.869 108.505 210.416 111.709 207.543 112.788C206.916 113.024 206.252 113.145 205.582 113.144ZM195.202 89.3308C194.187 90.5411 194.346 92.3452 195.556 93.3595C196.62 94.251 198.17 94.2501 199.233 93.3568L209.515 103.648C209.627 103.76 209.731 103.878 209.832 103.998L201.998 111.832C201.878 111.731 201.76 111.627 201.648 111.515L191.358 101.224C192.372 100.013 192.214 98.2092 191.003 97.195C189.94 96.3035 188.389 96.3044 187.326 97.1977L185.861 95.7317L193.736 87.8685L195.202 89.3308ZM198.901 80.1152L178.116 100.896C177.888 101.124 177.797 101.454 177.874 101.767C179.132 106.704 176.148 111.725 171.212 112.982C166.275 114.238 161.254 111.256 159.997 106.319C158.74 101.382 161.723 96.361 166.66 95.104C168.153 94.7238 169.718 94.7238 171.212 95.104C171.524 95.18 171.854 95.0884 172.082 94.862L192.862 74.0807C193.09 73.8535 193.181 73.5227 193.103 73.2103C191.854 68.3313 194.797 63.3643 199.676 62.1165C200.598 61.8801 201.552 61.7903 202.502 61.8489L197.669 66.6839C197.423 66.9295 197.337 67.2924 197.447 67.6213L199.28 73.1187C199.371 73.3927 199.586 73.6071 199.86 73.6978L205.357 75.5303C205.686 75.6402 206.049 75.555 206.294 75.3094L211.128 70.4762C211.139 70.6513 211.144 70.8244 211.144 70.9966C211.17 76.0314 207.11 80.1334 202.075 80.159C201.296 80.1627 200.521 80.0675 199.767 79.8741C199.455 79.7962 199.124 79.8879 198.897 80.1151C198.897 80.1152 198.901 80.1152 198.901 80.1152Z" fill="black"/>
<path d="M196.213 96.9203L194.917 98.2161L204.079 107.378L205.375 106.082L196.213 96.9203Z" fill="black"/>
<g filter="url(#filter1_d)">
<rect x="30" y="26" width="153" height="125" fill="#1C2124"/>
</g>
<path d="M141.796 53.0168C141.796 56.1239 139.277 58.6418 136.171 58.6418C133.064 58.6418 130.546 56.1239 130.546 53.0168C130.546 49.9105 133.064 47.3918 136.171 47.3918C139.277 47.3918 141.796 49.9105 141.796 53.0168Z" fill="#FF6E91"/>
<path d="M83.4544 116.983C83.4544 120.09 80.9365 122.608 77.8294 122.608C74.723 122.608 72.2044 120.09 72.2044 116.983C72.2044 113.876 74.723 111.358 77.8294 111.358C80.9365 111.358 83.4544 113.876 83.4544 116.983Z" fill="#FDBF00"/>
<path d="M132.459 79.4883C131.789 76.3716 130.563 73.4616 128.887 70.8688L132.255 67.5002L124.481 59.7314L121.115 63.0967C118.523 61.4213 115.613 60.1949 112.496 59.5248V54.7656H101.505V59.5248C98.3874 60.1949 95.4773 61.4213 92.8846 63.0967L89.5193 59.7314L81.7444 67.5002L85.1124 70.8688C83.437 73.4616 82.2107 76.3716 81.5405 79.4883H76.7683L76.7621 90.4794H81.5405C82.21 93.5968 83.4363 96.5068 85.1124 99.0996L81.7314 102.481L89.5008 110.256L92.8846 106.872C95.4773 108.548 98.3874 109.774 101.505 110.444V115.234H112.496V110.444C115.613 109.774 118.523 108.548 121.116 106.872L124.5 110.256L132.269 102.481L128.887 99.0996C130.564 96.5068 131.79 93.5968 132.459 90.4794H137.238V79.4883H132.459ZM107 97.7668C99.9488 97.7668 94.2331 92.0512 94.2331 85C94.2331 77.9488 99.9488 72.2332 107 72.2332C114.051 72.2332 119.767 77.9488 119.767 85C119.767 92.0512 114.051 97.7668 107 97.7668Z" fill="#D7E6F0"/>
<path d="M77.8292 109.6C76.5692 109.6 75.358 109.915 74.2834 110.505C68.6227 103.249 65.5156 94.2347 65.5156 85C65.5156 62.1251 84.1251 43.5156 107 43.5156C109.781 43.5156 112.56 43.7923 115.262 44.3382C116.212 44.5305 117.14 43.9153 117.333 42.9636C117.525 42.0119 116.91 41.0849 115.958 40.892C113.028 40.3001 110.014 40 107 40C94.9803 40 83.6795 44.6809 75.1802 53.1802C66.6809 61.6795 62 72.9803 62 85C62 95.1109 65.4332 104.978 71.6838 112.888C70.879 114.09 70.4464 115.504 70.4464 116.983C70.4464 118.955 71.2148 120.809 72.6094 122.203C74.0033 123.598 75.8572 124.366 77.8292 124.366C79.8013 124.366 81.6552 123.598 83.0498 122.203C84.4444 120.809 85.2121 118.955 85.2121 116.983C85.2121 115.011 84.4444 113.157 83.0498 111.763C81.6552 110.368 79.8013 109.6 77.8292 109.6ZM80.5635 119.717C79.8336 120.448 78.862 120.85 77.8292 120.85C76.7965 120.85 75.8256 120.448 75.095 119.717C74.3644 118.987 73.9621 118.016 73.9621 116.983C73.9621 115.95 74.3644 114.979 75.095 114.248C75.8249 113.518 76.7965 113.116 77.8292 113.116C78.862 113.116 79.8329 113.518 80.5635 114.248C81.2941 114.979 81.6964 115.95 81.6964 116.983C81.6964 118.016 81.2941 118.987 80.5635 119.717Z" fill="#D7E6F0"/>
<path d="M142.315 57.1099C144.226 54.2432 143.919 50.3238 141.391 47.7963C139.997 46.4024 138.143 45.634 136.171 45.634C134.199 45.634 132.345 46.4024 130.95 47.7963C129.556 49.1909 128.788 51.0448 128.788 53.0168C128.788 54.9889 129.556 56.8428 130.95 58.2374C132.345 59.632 134.199 60.3997 136.171 60.3997C137.431 60.3997 138.642 60.0852 139.716 59.4947C145.377 66.7518 148.484 75.7654 148.484 85.0001C148.484 107.875 129.875 126.484 107 126.484C104.246 126.484 101.493 126.213 98.8171 125.678C97.8654 125.487 96.9392 126.105 96.7483 127.056C96.5581 128.009 97.1754 128.934 98.127 129.125C101.029 129.706 104.015 130 107 130C119.02 130 130.32 125.319 138.82 116.82C147.319 108.321 152 97.0198 152 85.0001C152 74.8886 148.566 65.0208 142.315 57.1099ZM133.436 55.7518C132.706 55.0212 132.303 54.0502 132.303 53.0168C132.303 51.9841 132.706 51.0132 133.436 50.2826C134.166 49.552 135.138 49.1497 136.171 49.1497C137.203 49.1497 138.175 49.552 138.906 50.2826C140.413 51.7905 140.413 54.2439 138.906 55.7518C138.175 56.4817 137.203 56.884 136.171 56.884C135.137 56.884 134.166 56.4817 133.436 55.7518Z" fill="#D7E6F0"/>
<path d="M99.7463 115.234C99.7463 116.205 100.534 116.992 101.504 116.992H112.495C113.466 116.992 114.253 116.205 114.253 115.234V111.827C116.564 111.204 118.774 110.288 120.85 109.092L123.256 111.498C123.586 111.828 124.033 112.013 124.5 112.013C124.965 112.013 125.413 111.828 125.743 111.498L133.511 103.723C134.197 103.037 134.197 101.924 133.511 101.238L131.108 98.8345C132.304 96.7581 133.22 94.5485 133.842 92.2372H137.237C138.208 92.2372 138.995 91.4503 138.995 90.4794V79.4883C138.995 78.5174 138.208 77.7305 137.237 77.7305H133.842C133.22 75.4199 132.304 73.2103 131.108 71.1339L133.498 68.7437C133.828 68.4141 134.013 67.9664 134.013 67.5002C134.013 67.0339 133.827 66.5862 133.498 66.2566L125.723 58.4879C125.037 57.802 123.924 57.802 123.237 58.4886L120.85 60.8761C118.774 59.6799 116.564 58.764 114.253 58.1419V54.7656C114.253 53.7947 113.466 53.0078 112.495 53.0078H101.504C100.534 53.0078 99.7463 53.7947 99.7463 54.7656V58.1425C97.4358 58.764 95.2262 59.6799 93.1497 60.8761L90.7623 58.4886C90.0763 57.8027 88.9633 57.802 88.2766 58.4879L80.5024 66.2573C80.1721 66.5869 79.9867 67.0339 79.9867 67.5002C79.9867 67.9664 80.1721 68.4141 80.5017 68.7437L82.8919 71.1339C81.6958 73.2103 80.7798 75.4192 80.1577 77.7305H76.7691C75.7982 77.7305 75.0113 78.5174 75.0113 79.4876L75.0051 90.4787C75.0044 90.945 75.1898 91.3927 75.5194 91.7223C75.849 92.0518 76.296 92.2372 76.7629 92.2372H80.1577C80.7798 94.5485 81.6958 96.7581 82.8919 98.8345L80.4887 101.238C79.8027 101.924 79.802 103.037 80.4887 103.723L88.2574 111.498C88.587 111.827 89.034 112.013 89.5002 112.013H89.5009C89.9671 112.013 90.4141 111.828 90.7437 111.498L93.1491 109.092C95.2262 110.288 97.4358 111.204 99.7463 111.827V115.234ZM93.8384 105.395C93.1429 104.946 92.2276 105.043 91.6412 105.629L89.5009 107.769L84.2172 102.481L86.3554 100.342C86.9411 99.7567 87.0386 98.8414 86.5888 98.1458C84.9951 95.6794 83.8745 92.9761 83.2593 90.11C83.0849 89.3005 82.3694 88.7216 81.5406 88.7216H78.5214L78.5256 81.2461H81.5406C82.3694 81.2461 83.0849 80.668 83.2593 79.8577C83.8745 76.9923 84.9951 74.289 86.5888 71.8226C87.0386 71.127 86.9411 70.2117 86.3554 69.626L84.2309 67.5008L89.5188 62.2171L91.6412 64.3402C92.2276 64.9259 93.1422 65.0227 93.8384 64.5737C96.3042 62.98 99.0075 61.8594 101.874 61.2441C102.683 61.0697 103.262 60.3535 103.262 59.5255V56.5234H110.737V59.5248C110.737 60.3535 111.316 61.0697 112.126 61.2434C114.991 61.8594 117.695 62.9793 120.161 64.573C120.857 65.0227 121.772 64.9259 122.358 64.3395L124.481 62.2171L129.769 67.5008L127.644 69.6253C127.058 70.2117 126.961 71.127 127.411 71.8226C129.004 74.289 130.124 76.9923 130.74 79.8577C130.914 80.668 131.63 81.2461 132.459 81.2461H135.479V88.7216H132.459C131.63 88.7216 130.915 89.3005 130.74 90.11C130.125 92.9754 129.004 95.6794 127.411 98.1451C126.961 98.8414 127.058 99.7567 127.644 100.342L129.782 102.481L124.499 107.768L122.358 105.629C121.772 105.042 120.857 104.946 120.161 105.395C117.695 106.989 114.991 108.109 112.126 108.725C111.316 108.899 110.737 109.615 110.737 110.444V113.477H103.262V110.444C103.262 109.616 102.683 108.899 101.874 108.725C99.0082 108.11 96.3049 106.989 93.8384 105.395Z" fill="#4869EB"/>
<path d="M121.524 85C121.524 76.9909 115.009 70.4753 107 70.4753C98.9909 70.4753 92.4753 76.9909 92.4753 85C92.4753 93.009 98.9909 99.5246 107 99.5246C115.009 99.5246 121.524 93.009 121.524 85ZM95.9909 85C95.9909 78.9293 100.929 73.991 107 73.991C113.071 73.991 118.009 78.93 118.009 85C118.009 91.0699 113.071 96.0089 107 96.0089C100.929 96.0089 95.9909 91.0706 95.9909 85Z" fill="#4869EB"/>
<path d="M123.186 46.6481C123.648 46.6481 124.102 46.4599 124.428 46.1331C124.755 45.8042 124.943 45.351 124.943 44.8882C124.943 44.4281 124.756 43.9743 124.428 43.6454C124.102 43.3185 123.648 43.1304 123.186 43.1304C122.721 43.1304 122.27 43.3185 121.943 43.6454C121.616 43.9743 121.428 44.4261 121.428 44.8882C121.428 45.3524 121.616 45.8042 121.943 46.1331C122.27 46.4599 122.721 46.6481 123.186 46.6481Z" fill="#D7E6F0"/>
<path d="M90.8914 123.384C90.4293 123.384 89.9754 123.572 89.6485 123.899C89.3217 124.225 89.1336 124.679 89.1336 125.141C89.1336 125.606 89.3217 126.057 89.6485 126.384C89.9754 126.711 90.4293 126.899 90.8914 126.899C91.3535 126.899 91.8073 126.711 92.1342 126.384C92.461 126.057 92.6492 125.603 92.6492 125.141C92.6492 124.679 92.461 124.225 92.1342 123.899C91.8073 123.572 91.3535 123.384 90.8914 123.384Z" fill="#D7E6F0"/>
<defs>
<filter id="filter0_d" x="89" y="16" width="175" height="153" filterUnits="userSpaceOnUse" color-interpolation-filters="sRGB">
<feFlood flood-opacity="0" result="BackgroundImageFix"/>
<feColorMatrix in="SourceAlpha" type="matrix" values="0 0 0 0 0 0 0 0 0 0 0 0 0 0 0 0 0 0 127 0"/>
<feOffset dy="4"/>
<feGaussianBlur stdDeviation="15"/>
<feColorMatrix type="matrix" values="0 0 0 0 0 0 0 0 0 0 0 0 0 0 0 0 0 0 0.5 0"/>
<feBlend mode="normal" in2="BackgroundImageFix" result="effect1_dropShadow"/>
<feBlend mode="normal" in="SourceGraphic" in2="effect1_dropShadow" result="shape"/>
</filter>
<filter id="filter1_d" x="0" y="0" width="213" height="185" filterUnits="userSpaceOnUse" color-interpolation-filters="sRGB">
<feFlood flood-opacity="0" result="BackgroundImageFix"/>
<feColorMatrix in="SourceAlpha" type="matrix" values="0 0 0 0 0 0 0 0 0 0 0 0 0 0 0 0 0 0 127 0"/>
<feOffset dy="4"/>
<feGaussianBlur stdDeviation="15"/>
<feColorMatrix type="matrix" values="0 0 0 0 0 0 0 0 0 0 0 0 0 0 0 0 0 0 0.5 0"/>
<feBlend mode="normal" in2="BackgroundImageFix" result="effect1_dropShadow"/>
<feBlend mode="normal" in="SourceGraphic" in2="effect1_dropShadow" result="shape"/>
</filter>
</defs>
</svg>
