<svg width="99" height="62" viewBox="0 0 99 62" fill="none" xmlns="http://www.w3.org/2000/svg">
<g clip-path="url(#clip0)">
<path fill-rule="evenodd" clip-rule="evenodd" d="M65.4953 10.1359C69.2211 10.2003 71.9523 12.1158 73.3005 15.0007C73.3929 15.198 73.4862 15.4208 73.5662 15.6262C73.588 15.6827 73.6066 15.7551 73.626 15.8068L73.7799 15.7487C73.7581 15.6508 73.7092 15.4917 73.6556 15.3269C72.8133 12.7095 70.7006 9.34961 62.6429 9.34961C53.1594 9.34961 42.2113 16.1323 38.4218 23.936C34.6354 31.7405 39.2532 37.8173 48.7413 37.8014C56.332 37.7879 62.9374 34.3516 67.9864 29.8608C69.6656 28.3671 71.1722 26.7588 72.4854 25.1202C62.963 36.5098 49.659 33.9035 52.1625 21.5183C53.4578 15.1097 59.4268 10.03 65.4953 10.1359Z" fill="#0079B5"/>
<path fill-rule="evenodd" clip-rule="evenodd" d="M75.1664 0.493388C72.969 -0.880978 70.1842 -1.46351 67.5004 -0.94146C65.4607 -0.54435 63.651 0.442456 63.1001 1.45871C63.1001 1.45871 63.0729 1.50725 63.0551 1.56694L63.3068 1.69586C63.3402 1.65129 63.3596 1.60673 63.3596 1.60673C63.8709 0.663691 65.5967 -0.261837 67.5563 -0.642235C69.2696 -0.97568 72.6582 -1.00194 75.4811 1.21519C78.7772 4.0443 78.7943 10.6479 76.0165 16.3268C72.8431 22.8151 64.9968 28.9508 58.4085 28.9508C52.9344 28.9508 51.4107 25.2407 52.1636 21.5171C52.1628 21.5179 52.1628 21.5187 52.1621 21.5203C49.6624 33.8928 62.9377 36.5038 72.4585 25.1532C74.1889 22.9981 75.5876 20.7921 76.6039 18.7318C80.5426 10.7442 79.9831 3.41004 75.1664 0.493388Z" fill="#EF7F1A"/>
<path fill-rule="evenodd" clip-rule="evenodd" d="M90.5273 44.8233L91.1683 43.1982H89.2856L88.7253 44.4278L88.9483 44.8233H90.5273Z" fill="white"/>
<path fill-rule="evenodd" clip-rule="evenodd" d="M93.743 44.8233L94.384 43.1982H92.5005L91.941 44.4278L92.164 44.8233H93.743Z" fill="white"/>
<path fill-rule="evenodd" clip-rule="evenodd" d="M95.9418 61.2559H98.6287L92.4258 46.2891H88.6005L88.435 46.5795L88.7365 46.8374C89.0962 47.1454 89.2244 47.6531 89.0566 48.1003L84.1078 61.2559H84.1886H84.1894H87.5857L87.7512 60.9614L87.3441 60.6137C86.8903 60.2253 86.7263 59.5847 86.9361 59.0181L87.4863 57.5307H93.1025L93.2129 57.3349L92.6472 55.7719H88.1366L90.93 48.2189L95.9418 61.2559Z" fill="#111517"/>
<path fill-rule="evenodd" clip-rule="evenodd" d="M71.2904 59.0913V46.2891H67.9593L67.7938 46.5795L68.4714 47.1589C68.8467 47.4804 69.0643 47.9563 69.0643 48.4576V61.2559H72.3868L72.5523 60.9614L71.8833 60.39C71.508 60.0685 71.2904 59.5926 71.2904 59.0913Z" fill="#111517"/>
<path fill-rule="evenodd" clip-rule="evenodd" d="M63.3814 52.9318C62.9501 52.7177 62.4575 52.5824 62.0923 52.4074C60.1381 51.4699 59.0518 50.7433 59.0518 49.6459C59.0518 48.2819 60.0518 47.545 61.839 47.545C63.1467 47.545 64.7349 48.297 65.2617 48.6559L65.6401 48.3432V46.4244L65.5671 46.4006C65.5523 46.3958 64.0185 45.9048 61.9858 45.9048C60.7325 45.9048 59.4186 46.2128 58.4706 46.7269C57.1676 47.4359 56.5926 48.5389 56.5926 49.9181C56.5926 52.0604 57.992 52.701 59.3479 53.5167C59.3479 53.5167 60.7014 54.2425 61.2609 54.49C62.7434 55.1442 64.3449 55.9527 64.3449 57.3756C64.3449 58.8415 62.6012 59.9532 61.0293 59.9532C59.295 59.9532 57.4776 59.0229 56.6244 58.3553L56.2196 58.6656L56.7394 60.9186L56.7915 60.9385C56.8094 60.9448 58.5709 61.6189 60.8351 61.6189C64.8422 61.6189 66.9385 59.0317 66.9385 57.0382C66.9385 55.0869 65.5772 54.0197 63.3814 52.9318Z" fill="#111517"/>
<path fill-rule="evenodd" clip-rule="evenodd" d="M76.8563 46.2891H73.5252L73.3597 46.5795L74.0373 47.1589C74.4126 47.4804 74.6302 47.9563 74.6302 48.4577V61.2559H82.4966L83.1851 59.3905H76.8563V46.2891Z" fill="#111517"/>
<path fill-rule="evenodd" clip-rule="evenodd" d="M42.5346 58.6886L39.9456 54.1716L40.0054 54.0434C42.2479 53.5277 43.8843 51.6536 43.8843 49.9482C43.8843 48.0239 42.3442 46.2891 39.3792 46.2891H33.1545L32.9897 46.5795L34.2159 47.6292V54.653L36.0496 58.9337H36.3169V47.8672H38.864C40.6488 47.8672 41.5696 49.1532 41.5696 50.1121C41.5696 52.6762 39.3885 53.3519 37.6044 53.5484L37.5866 53.5516L37.4288 53.8325L41.4165 61.2559H44.4399L44.6054 60.9622L43.9884 60.5349C43.53 60.2436 43.0591 59.6085 42.5346 58.6886Z" fill="#111517"/>
<path fill-rule="evenodd" clip-rule="evenodd" d="M26.6353 44.8233L27.2763 43.1982H25.3936L24.8334 44.4278L25.0564 44.8233H26.6353Z" fill="white"/>
<path fill-rule="evenodd" clip-rule="evenodd" d="M29.8508 44.8233L30.4919 43.1982H28.6084L28.049 44.4278L28.272 44.8233H29.8508Z" fill="white"/>
<path fill-rule="evenodd" clip-rule="evenodd" d="M24.7085 46.2891L24.543 46.5795L24.8444 46.8374C25.2042 47.1446 25.3324 47.6523 25.1638 48.1003L20.215 61.2551H23.6937L23.8592 60.9614L23.452 60.6137C22.9982 60.2253 22.8343 59.5847 23.0433 59.0181L23.5934 57.5307H29.2105L29.3208 57.3349L28.7552 55.7719H24.2446L27.038 48.2189L32.0497 61.2551H34.7366L28.5337 46.2891H24.7085Z" fill="#111517"/>
<path fill-rule="evenodd" clip-rule="evenodd" d="M45.8679 46.2891L44.9642 47.8926L45.1025 48.1377H49.3V61.2559H52.638L52.8035 60.9615L52.1197 60.3773C51.7437 60.0558 51.5261 59.5799 51.5261 59.0786V48.1377H55.0359L56.0825 46.2891H55.9248H45.8679Z" fill="#111517"/>
<path fill-rule="evenodd" clip-rule="evenodd" d="M19.5537 46.2891L19.3882 46.5795L19.6896 46.8374C20.0494 47.1446 20.1776 47.6523 20.009 48.1003L16.5031 57.9103L12.806 46.2891H12.8037H10.3709L10.2054 46.5795L10.5076 46.8374C10.8666 47.1446 10.9948 47.6523 10.8262 48.1003L7.27214 57.771L3.51605 46.2891H0.536964L0.37146 46.5795L0.715679 46.7586C1.25493 46.9631 1.56884 47.4955 1.76387 48.1799L5.98152 61.2551H7.90075L11.8076 50.5435L15.2754 61.2551H17.1908L22.6384 46.2891H19.5537Z" fill="#111517"/>
</g>
<defs>
<clipPath id="clip0">
<rect width="99" height="62" fill="white"/>
</clipPath>
</defs>
</svg>
