<svg width="668" height="433" viewBox="0 0 668 433" fill="none" xmlns="http://www.w3.org/2000/svg">
<g filter="url(#filter0_d)">
<rect x="295" y="74" width="343" height="277" fill="#1C2124"/>
</g>
<g filter="url(#filter1_d)">
<rect x="30" y="26" width="456" height="373" fill="#1C2124"/>
</g>
<path d="M205.341 234.726C197.778 219.511 193.816 201.406 193.816 185.301C193.816 138.378 232.877 102.308 279.669 102.308C325.34 102.308 362.752 140.582 362.752 186.77L378.705 238.712H353.424V262.932C353.424 276.562 342.374 287.612 328.744 287.612H299.832L294.995 315.323H204.432L211.387 286.48C215.588 269.058 213.318 250.773 205.341 234.726Z" fill="#F2BB88"/>
<path d="M216.434 222.878C254.998 222.878 286.26 191.616 286.26 153.052C286.26 114.488 254.998 83.2256 216.434 83.2256C177.87 83.2256 146.607 114.488 146.607 153.052C146.607 191.616 177.87 222.878 216.434 222.878Z" fill="#F5737F"/>
<path d="M191.654 192.931C197.907 192.931 202.976 187.862 202.976 181.609C202.976 175.356 197.907 170.287 191.654 170.287C185.401 170.287 180.332 175.356 180.332 181.609C180.332 187.862 185.401 192.931 191.654 192.931Z" fill="#FFCBBE"/>
<path d="M240.411 217.117V200.513H248.043C249.001 196.255 250.679 192.27 252.944 188.692L247.544 183.292L259.284 171.552L264.685 176.953C268.263 174.689 272.247 173.012 276.505 172.054V164.419H293.109V172.054C297.366 173.012 301.351 174.689 304.929 176.953L310.33 171.552L322.07 183.292L316.67 188.692C318.935 192.27 320.613 196.255 321.571 200.513H329.203V217.117H321.574C320.616 221.377 318.938 225.363 316.674 228.942L322.069 234.338L310.329 246.078L304.934 240.683C301.355 242.949 297.368 244.628 293.108 245.586V253.211H276.505V245.586C272.244 244.628 268.258 242.949 264.679 240.683L259.284 246.078L247.543 234.338L252.939 228.942C250.674 225.363 248.996 221.377 248.039 217.117H240.411Z" fill="#91DEF5"/>
<path d="M268.824 208.821C268.824 199.994 275.98 192.838 284.807 192.838C293.634 192.838 300.79 199.994 300.79 208.821C300.79 217.647 293.634 224.803 284.807 224.803C275.98 224.803 268.824 217.648 268.824 208.821Z" fill="white"/>
<path d="M234.57 168.476C235.491 169.397 236.699 169.857 237.906 169.857C239.113 169.857 240.32 169.397 241.241 168.476C243.084 166.634 243.084 163.646 241.241 161.804L237.906 158.468L241.241 155.132C243.084 153.29 243.084 150.303 241.241 148.461C239.399 146.619 236.413 146.619 234.57 148.461L231.234 151.796L227.898 148.461C226.056 146.619 223.069 146.619 221.226 148.461C219.384 150.303 219.384 153.29 221.226 155.132L224.562 158.468L221.226 161.804C219.384 163.646 219.384 166.633 221.226 168.476C222.148 169.397 223.355 169.857 224.562 169.857C225.769 169.857 226.976 169.397 227.898 168.476L231.233 165.14L234.57 168.476Z" fill="black"/>
<path d="M176.286 132.072C177.207 132.993 178.414 133.454 179.622 133.454C180.829 133.454 182.036 132.993 182.957 132.072L186.293 128.736L189.629 132.072C190.55 132.993 191.757 133.454 192.964 133.454C194.172 133.454 195.379 132.993 196.3 132.072C198.142 130.23 198.142 127.243 196.3 125.4L192.964 122.065L196.3 118.729C198.142 116.887 198.142 113.9 196.3 112.057C194.457 110.215 191.471 110.215 189.628 112.057L186.292 115.393L182.957 112.057C181.114 110.215 178.128 110.215 176.285 112.057C174.443 113.899 174.443 116.886 176.285 118.729L179.621 122.065L176.285 125.4C174.444 127.243 174.444 130.23 176.286 132.072Z" fill="black"/>
<path d="M243.182 131.981C244.103 132.902 245.311 133.363 246.518 133.363C247.725 133.363 248.932 132.902 249.853 131.981L257.192 124.643C259.034 122.801 259.034 119.814 257.192 117.971L249.853 110.632C248.011 108.791 245.025 108.79 243.182 110.632C241.374 112.44 241.345 115.347 243.084 117.196C216.977 120.781 195.312 139.96 188.871 165.817C181.349 167.138 175.613 173.714 175.613 181.61C175.613 190.454 182.808 197.649 191.653 197.649C200.497 197.649 207.692 190.454 207.692 181.61C207.692 175.138 203.837 169.553 198.305 167.021C203.937 146.203 221.183 130.648 242.136 126.895C241.46 128.593 241.807 130.606 243.182 131.981ZM191.653 188.214C188.012 188.214 185.049 185.251 185.049 181.61C185.049 177.968 188.012 175.005 191.653 175.005C195.295 175.005 198.258 177.968 198.258 181.61C198.258 185.251 195.295 188.214 191.653 188.214Z" fill="black"/>
<path d="M284.806 188.121C273.392 188.121 264.105 197.407 264.105 208.821C264.105 220.235 273.392 229.521 284.806 229.521C296.219 229.521 305.506 220.235 305.506 208.821C305.506 197.407 296.219 188.121 284.806 188.121ZM284.806 220.086C278.594 220.086 273.54 215.032 273.54 208.821C273.54 202.609 278.594 197.556 284.806 197.556C291.017 197.556 296.071 202.609 296.071 208.821C296.071 215.032 291.017 220.086 284.806 220.086Z" fill="black"/>
<defs>
<filter id="filter0_d" x="265" y="48" width="403" height="337" filterUnits="userSpaceOnUse" color-interpolation-filters="sRGB">
<feFlood flood-opacity="0" result="BackgroundImageFix"/>
<feColorMatrix in="SourceAlpha" type="matrix" values="0 0 0 0 0 0 0 0 0 0 0 0 0 0 0 0 0 0 127 0"/>
<feOffset dy="4"/>
<feGaussianBlur stdDeviation="15"/>
<feColorMatrix type="matrix" values="0 0 0 0 0 0 0 0 0 0 0 0 0 0 0 0 0 0 0.5 0"/>
<feBlend mode="normal" in2="BackgroundImageFix" result="effect1_dropShadow"/>
<feBlend mode="normal" in="SourceGraphic" in2="effect1_dropShadow" result="shape"/>
</filter>
<filter id="filter1_d" x="0" y="0" width="516" height="433" filterUnits="userSpaceOnUse" color-interpolation-filters="sRGB">
<feFlood flood-opacity="0" result="BackgroundImageFix"/>
<feColorMatrix in="SourceAlpha" type="matrix" values="0 0 0 0 0 0 0 0 0 0 0 0 0 0 0 0 0 0 127 0"/>
<feOffset dy="4"/>
<feGaussianBlur stdDeviation="15"/>
<feColorMatrix type="matrix" values="0 0 0 0 0 0 0 0 0 0 0 0 0 0 0 0 0 0 0.5 0"/>
<feBlend mode="normal" in2="BackgroundImageFix" result="effect1_dropShadow"/>
<feBlend mode="normal" in="SourceGraphic" in2="effect1_dropShadow" result="shape"/>
</filter>
</defs>
</svg>
