<svg width="699" height="451" viewBox="0 0 699 451" fill="none" xmlns="http://www.w3.org/2000/svg">
<g filter="url(#filter0_d)">
<rect x="308.695" y="76.042" width="359.657" height="290.853" fill="#1C2124"/>
</g>
<path d="M444.493 220.029L449.667 197.216C451.548 189.455 455.546 183.106 461.426 178.402C457.193 172.993 450.608 169.7 443.552 169.7C442.141 169.7 440.965 170.406 440.025 171.582L431.088 184.281C429.912 185.928 427.56 185.928 426.384 184.281L417.682 171.582C416.977 170.406 415.566 169.7 414.155 169.7C403.336 169.7 393.929 177.226 391.577 187.574L386.403 210.387C385.227 215.561 388.99 220.499 394.399 220.499H444.258C444.258 220.264 444.493 220.029 444.493 220.029Z" fill="#FCD770"/>
<path d="M428.735 166.174C440.73 166.174 450.607 156.296 450.607 144.302V135.13C450.607 123.135 440.73 113.258 428.735 113.258C416.741 113.258 406.864 123.135 406.864 135.13V144.302C406.864 156.296 416.741 166.174 428.735 166.174Z" fill="#FCD770"/>
<path d="M604.182 187.574C601.83 176.991 592.423 169.7 581.604 169.7C580.428 169.7 579.017 170.406 578.312 171.582L569.375 184.281C568.199 185.928 565.847 185.928 564.671 184.281L555.734 171.582C555.029 170.406 553.618 169.7 552.442 169.7C545.151 169.7 538.566 172.993 534.333 178.402C540.212 183.106 544.21 189.455 546.092 197.216L551.266 220.029C551.266 220.264 551.501 220.499 551.501 220.499H601.359C606.533 220.499 610.532 215.561 609.356 210.387L604.182 187.574Z" fill="#FCD770"/>
<path d="M567.022 166.174C579.017 166.174 588.894 156.296 588.894 144.302V135.13C588.894 123.135 579.017 113.258 567.022 113.258C555.028 113.258 545.15 123.135 545.15 135.13V144.302C545.15 156.296 555.028 166.174 567.022 166.174Z" fill="#FCD770"/>
<path d="M512.461 181.462C511.05 181.462 509.874 182.167 509.168 183.343L500.231 196.043C499.055 197.689 496.704 197.689 495.528 196.043L486.591 183.343C485.885 182.167 484.474 181.462 483.298 181.462C472.48 181.462 463.073 188.988 460.721 199.571L455.547 222.383C454.371 227.557 458.369 232.261 463.543 232.261H532.216C537.39 232.261 541.388 227.322 540.212 222.383L535.038 199.571C532.686 188.988 523.279 181.462 512.461 181.462Z" fill="#FCD770"/>
<path d="M497.878 178.169C509.873 178.169 519.75 168.291 519.75 156.297V147.125C519.75 135.131 509.873 125.253 497.878 125.253C485.884 125.253 476.007 135.131 476.007 147.125V156.297C476.007 168.291 485.884 178.169 497.878 178.169Z" fill="#FCD770"/>
<path d="M525.16 282.587C525.16 279.53 526.571 276.708 529.158 274.826L531.981 272.945C533.627 271.769 534.097 269.652 533.157 268.006L528.218 259.539C527.277 257.893 525.16 257.188 523.279 258.128L520.222 259.539C517.635 260.715 514.342 260.715 511.99 259.304C511.755 259.304 511.52 259.069 511.52 259.069C508.933 257.658 507.287 254.836 507.051 252.014L506.816 248.721C506.581 246.84 504.935 245.193 503.053 245.193H493.411C491.529 245.193 489.883 246.604 489.648 248.721L489.413 252.014C489.178 255.071 487.531 257.658 484.944 259.069C484.709 259.069 484.474 259.304 484.474 259.304C481.887 260.715 478.83 260.951 476.007 259.539L472.95 258.128C471.069 257.188 468.952 257.893 468.011 259.539L463.072 268.006C462.132 269.652 462.602 272.004 464.248 272.945L467.071 274.826C469.658 276.472 471.069 279.53 471.069 282.587C471.069 285.645 469.658 288.467 467.071 290.348L464.248 292.23C462.602 293.406 462.132 295.522 463.072 297.168L468.011 305.635C468.952 307.281 471.069 307.987 472.95 307.046L476.007 305.635C478.594 304.459 481.887 304.459 484.474 305.87C484.709 305.87 484.944 306.105 484.944 306.105C487.531 307.516 489.178 310.339 489.413 313.161L489.648 316.453C489.883 318.335 491.529 319.981 493.411 319.981H503.053C504.935 319.981 506.581 318.57 506.816 316.453L507.051 313.161C507.287 310.103 508.933 307.516 511.52 306.105C511.755 306.105 511.99 305.87 511.99 305.87C514.577 304.459 517.635 304.224 520.222 305.635L523.279 307.046C525.16 307.987 527.277 307.281 528.218 305.635L533.157 297.168C534.097 295.522 533.627 293.17 531.981 292.23L529.158 290.348C526.571 288.702 525.16 285.645 525.16 282.587ZM497.879 298.58C488.942 298.58 481.887 291.289 481.887 282.587C481.887 273.65 489.178 266.595 497.879 266.595C506.816 266.595 513.872 273.885 513.872 282.587C513.872 291.524 506.816 298.58 497.879 298.58Z" fill="#FCD770"/>
<path d="M497.88 291.29C502.686 291.29 506.582 287.394 506.582 282.588C506.582 277.783 502.686 273.887 497.88 273.887C493.074 273.887 489.178 277.783 489.178 282.588C489.178 287.394 493.074 291.29 497.88 291.29Z" fill="#FCD770"/>
<path d="M439.083 266.598C438.142 265.658 436.731 264.952 435.32 264.952C433.909 264.952 432.498 265.422 431.557 266.598C429.441 268.715 429.441 272.243 431.557 274.359L435.085 277.887H417.211C414.389 277.887 412.037 275.535 412.037 272.713V237.906C412.037 234.849 409.686 232.497 406.628 232.497C403.571 232.497 401.219 234.849 401.219 237.906V272.478C401.219 281.415 408.51 288.705 417.447 288.705H435.32L431.793 292.233C429.676 294.35 429.676 297.878 431.793 299.994C433.909 302.111 437.437 302.111 439.554 299.994L452.253 287.294C453.194 286.354 453.9 284.943 453.9 283.531C453.9 282.12 453.429 280.709 452.253 279.769L439.083 266.598Z" fill="#FCD770"/>
<path d="M589.601 232.497C586.543 232.497 584.191 234.849 584.191 237.906V272.478C584.191 275.3 581.84 277.652 579.017 277.652H561.144L564.671 274.124C566.788 272.008 566.788 268.48 564.671 266.363C563.731 265.422 562.32 264.717 560.909 264.717C559.497 264.717 558.086 265.187 557.146 266.363L544.446 279.063C543.505 280.004 542.8 281.415 542.8 282.826C542.8 284.237 543.27 285.648 544.446 286.589L557.146 299.289C559.262 301.405 562.79 301.405 564.907 299.289C567.023 297.172 567.023 293.644 564.907 291.528L561.379 288H579.253C588.19 288 595.48 280.709 595.48 271.772V237.906C595.01 234.849 592.658 232.497 589.601 232.497Z" fill="#FCD770"/>
<g filter="url(#filter1_d)">
<rect x="30.3518" y="26" width="478.5" height="390.931" fill="#1C2124"/>
</g>
<path d="M209.669 254.239C208.562 249.092 206.537 244.286 203.77 240.005L209.332 234.442L196.493 221.613L190.936 227.17C186.654 224.404 181.849 222.379 176.702 221.272V213.413H158.552V221.272C153.404 222.379 148.599 224.404 144.317 227.17L138.76 221.613L125.921 234.442L131.483 240.005C128.716 244.286 126.691 249.092 125.585 254.239H117.704L117.694 272.389H125.585C126.69 277.536 128.715 282.342 131.483 286.623L125.9 292.207L138.73 305.046L144.317 299.458C148.599 302.226 153.404 304.251 158.552 305.356V313.267H176.702V305.356C181.849 304.251 186.654 302.226 190.937 299.458L196.525 305.046L209.354 292.207L203.77 286.623C206.538 282.342 208.563 277.536 209.669 272.389H217.559V254.239H209.669ZM167.627 284.423C155.983 284.423 146.544 274.984 146.544 263.34C146.544 251.696 155.983 242.258 167.627 242.258C179.271 242.258 188.709 251.696 188.709 263.34C188.709 274.984 179.271 284.423 167.627 284.423Z" fill="#D7E6F0"/>
<path d="M155.649 313.272C155.649 314.875 156.95 316.174 158.552 316.174H176.702C178.305 316.174 179.605 314.875 179.605 313.272V307.644C183.422 306.617 187.07 305.104 190.499 303.129L194.472 307.102C195.017 307.646 195.755 307.953 196.526 307.953C197.295 307.953 198.034 307.646 198.578 307.101L211.407 294.263C212.54 293.129 212.54 291.291 211.407 290.159L207.438 286.19C209.414 282.761 210.926 279.112 211.953 275.296H217.559C219.163 275.296 220.462 273.996 220.462 272.393V254.243C220.462 252.64 219.163 251.34 217.559 251.34H211.952C210.925 247.525 209.414 243.876 207.438 240.447L211.385 236.5C211.93 235.956 212.236 235.216 212.236 234.446C212.235 233.676 211.928 232.937 211.384 232.393L198.545 219.564C197.412 218.431 195.574 218.431 194.441 219.565L190.499 223.508C187.07 221.533 183.422 220.02 179.605 218.993V213.417C179.605 211.814 178.305 210.515 176.702 210.515H158.552C156.95 210.515 155.649 211.814 155.649 213.417V218.994C151.834 220.02 148.185 221.533 144.756 223.508L140.814 219.565C139.681 218.433 137.843 218.431 136.709 219.564L123.871 232.394C123.326 232.938 123.02 233.676 123.02 234.446C123.02 235.216 123.326 235.956 123.87 236.5L127.817 240.447C125.842 243.876 124.329 247.523 123.302 251.34H117.706C116.103 251.34 114.803 252.64 114.803 254.242L114.793 272.392C114.792 273.162 115.098 273.901 115.642 274.445C116.187 274.99 116.925 275.296 117.696 275.296H123.302C124.329 279.112 125.842 282.761 127.817 286.19L123.848 290.159C122.716 291.291 122.715 293.129 123.848 294.263L136.677 307.101C137.221 307.645 137.96 307.953 138.729 307.953H138.731C139.501 307.953 140.239 307.646 140.783 307.102L144.755 303.129C148.185 305.104 151.834 306.617 155.649 307.644V313.272ZM145.893 297.024C144.745 296.282 143.233 296.443 142.265 297.41L138.731 300.944L130.005 292.212L133.536 288.68C134.504 287.713 134.665 286.201 133.922 285.053C131.29 280.98 129.44 276.516 128.424 271.783C128.136 270.446 126.954 269.49 125.586 269.49H120.6L120.607 257.146H125.586C126.954 257.146 128.136 256.191 128.424 254.853C129.44 250.121 131.29 245.657 133.922 241.584C134.665 240.436 134.504 238.924 133.536 237.957L130.028 234.448L138.76 225.722L142.265 229.228C143.233 230.195 144.744 230.355 145.893 229.614C149.965 226.982 154.429 225.132 159.162 224.116C160.499 223.828 161.455 222.645 161.455 221.277V216.32H173.799V221.276C173.799 222.645 174.754 223.828 176.092 224.114C180.824 225.132 185.289 226.981 189.361 229.613C190.509 230.355 192.021 230.195 192.988 229.227L196.494 225.722L205.226 234.448L201.718 237.956C200.75 238.924 200.59 240.436 201.332 241.584C203.964 245.657 205.813 250.121 206.831 254.853C207.117 256.191 208.3 257.146 209.669 257.146H214.657V269.49H209.669C208.3 269.49 207.119 270.446 206.831 271.783C205.815 276.515 203.964 280.98 201.332 285.052C200.59 286.201 200.751 287.713 201.718 288.68L205.249 292.211L196.524 300.943L192.989 297.41C192.021 296.441 190.509 296.282 189.361 297.024C185.288 299.656 180.824 301.505 176.092 302.522C174.754 302.81 173.799 303.992 173.799 305.361V310.369H161.455V305.361C161.455 303.993 160.499 302.81 159.162 302.522C154.43 301.507 149.966 299.656 145.893 297.024Z" fill="#0E82F8"/>
<path d="M191.612 263.345C191.612 250.12 180.852 239.36 167.627 239.36C154.401 239.36 143.642 250.12 143.642 263.345C143.642 276.571 154.401 287.33 167.627 287.33C180.852 287.33 191.612 276.571 191.612 263.345ZM149.447 263.345C149.447 253.321 157.602 245.166 167.627 245.166C177.652 245.166 185.806 253.322 185.806 263.345C185.806 273.369 177.652 281.525 167.627 281.525C157.602 281.525 149.447 273.37 149.447 263.345Z" fill="#0E82F8"/>
<path d="M262.836 119.761C261.73 114.614 259.704 109.809 256.938 105.527L262.499 99.9645L249.661 87.1358L244.103 92.693C239.822 89.9263 235.016 87.9012 229.87 86.7945V78.9355H211.72V86.7945C206.572 87.9012 201.766 89.9263 197.485 92.693L191.928 87.1358L179.089 99.9645L184.65 105.527C181.884 109.809 179.859 114.614 178.752 119.761H170.872L170.861 137.911H178.752C179.858 143.059 181.883 147.864 184.65 152.146L179.067 157.729L191.897 170.568L197.485 164.98C201.766 167.748 206.572 169.773 211.72 170.879V178.79H229.87V170.879C235.016 169.773 239.822 167.748 244.104 164.98L249.692 170.568L262.521 157.729L256.938 152.146C259.706 147.864 261.731 143.059 262.836 137.911H270.727V119.761H262.836ZM220.794 149.945C209.15 149.945 199.712 140.507 199.712 128.863C199.712 117.219 209.15 107.78 220.794 107.78C232.438 107.78 241.876 117.219 241.876 128.863C241.876 140.507 232.438 149.945 220.794 149.945Z" fill="#D7E6F0"/>
<path d="M208.817 178.792C208.817 180.395 210.117 181.695 211.72 181.695H229.87C231.473 181.695 232.772 180.395 232.772 178.792V173.165C236.589 172.137 240.238 170.625 243.667 168.65L247.64 172.623C248.184 173.167 248.922 173.473 249.693 173.473C250.462 173.473 251.201 173.167 251.746 172.622L264.574 159.784C265.707 158.65 265.707 156.812 264.574 155.679L260.606 151.711C262.581 148.282 264.094 144.633 265.121 140.816H270.727C272.33 140.816 273.63 139.517 273.63 137.913V119.763C273.63 118.16 272.33 116.861 270.727 116.861H265.12C264.092 113.045 262.581 109.396 260.606 105.967L264.553 102.02C265.097 101.476 265.403 100.737 265.403 99.9669C265.402 99.197 265.096 98.4577 264.552 97.9134L251.713 85.0847C250.58 83.9519 248.742 83.9519 247.608 85.0858L243.667 89.0283C240.238 87.0531 236.589 85.5405 232.772 84.5132V78.9379C232.772 77.3346 231.473 76.0352 229.87 76.0352H211.72C210.117 76.0352 208.817 77.3346 208.817 78.9379V84.5143C205.001 85.5405 201.352 87.0531 197.924 89.0283L193.981 85.0858C192.848 83.9531 191.01 83.9519 189.876 85.0847L177.039 97.9146C176.493 98.4588 176.187 99.197 176.187 99.9669C176.187 100.737 176.493 101.476 177.037 102.02L180.984 105.967C179.009 109.396 177.497 113.044 176.469 116.861H170.874C169.27 116.861 167.971 118.16 167.971 119.762L167.961 137.912C167.96 138.682 168.266 139.421 168.81 139.966C169.354 140.51 170.092 140.816 170.863 140.816H176.469C177.497 144.633 179.009 148.282 180.984 151.711L177.016 155.679C175.883 156.812 175.882 158.65 177.016 159.784L189.845 172.622C190.389 173.166 191.127 173.473 191.897 173.473H191.898C192.668 173.473 193.406 173.167 193.95 172.623L197.922 168.65C201.352 170.625 205.001 172.137 208.817 173.165V178.792ZM199.061 162.545C197.912 161.802 196.401 161.963 195.432 162.93L191.898 166.465L183.173 157.733L186.704 154.201C187.671 153.233 187.832 151.722 187.089 150.573C184.458 146.5 182.607 142.036 181.591 137.303C181.303 135.967 180.122 135.011 178.753 135.011H173.767L173.774 122.666H178.753C180.122 122.666 181.303 121.711 181.591 120.373C182.607 115.642 184.458 111.178 187.089 107.105C187.832 105.956 187.671 104.445 186.704 103.477L183.196 99.968L191.928 91.2428L195.432 94.7488C196.401 95.716 197.911 95.8758 199.061 95.1343C203.133 92.5025 207.597 90.652 212.33 89.6361C213.666 89.3481 214.622 88.1654 214.622 86.798V81.8406H226.967V86.7968C226.967 88.1654 227.922 89.3481 229.26 89.635C233.991 90.652 238.456 92.5014 242.528 95.1332C243.677 95.8758 245.188 95.716 246.156 94.7476L249.662 91.2428L258.394 99.968L254.885 103.476C253.917 104.445 253.757 105.956 254.5 107.105C257.132 111.178 258.981 115.642 259.998 120.373C260.285 121.711 261.468 122.666 262.836 122.666H267.824V135.011H262.836C261.468 135.011 260.286 135.967 259.998 137.303C258.982 142.035 257.132 146.5 254.5 150.572C253.757 151.722 253.918 153.233 254.885 154.201L258.416 157.731L249.691 166.463L246.157 162.93C245.188 161.962 243.677 161.802 242.528 162.545C238.455 165.177 233.991 167.026 229.26 168.043C227.922 168.331 226.967 169.512 226.967 170.881V175.889H214.622V170.881C214.622 169.514 213.666 168.331 212.33 168.043C207.598 167.027 203.134 165.177 199.061 162.545Z" fill="#0E82F8"/>
<path d="M244.778 128.86C244.778 115.634 234.019 104.875 220.793 104.875C207.568 104.875 196.808 115.634 196.808 128.86C196.808 142.086 207.568 152.845 220.793 152.845C234.019 152.845 244.778 142.086 244.778 128.86ZM202.614 128.86C202.614 118.835 210.768 110.68 220.793 110.68C230.818 110.68 238.973 118.837 238.973 128.86C238.973 138.884 230.818 147.04 220.793 147.04C210.768 147.04 202.614 138.885 202.614 128.86Z" fill="#0E82F8"/>
<path d="M403.819 272.112C401.808 262.758 398.128 254.024 393.1 246.242L403.207 236.131L379.875 212.814L369.776 222.915C361.995 217.886 353.262 214.205 343.908 212.194V197.91H310.924V212.194C301.568 214.205 292.835 217.886 285.054 222.915L274.955 212.814L251.623 236.131L261.73 246.242C256.702 254.024 253.022 262.758 251.011 272.112H236.689L236.671 305.1H251.011C253.02 314.457 256.7 323.191 261.73 330.973L251.584 341.12L274.9 364.456L285.054 354.3C292.835 359.33 301.568 363.011 310.924 365.02V379.399H343.908V365.02C353.262 363.011 361.995 359.33 369.778 354.3L379.933 364.456L403.247 341.12L393.1 330.973C398.13 323.191 401.81 314.457 403.819 305.1H418.159V272.112H403.819ZM327.415 326.972C306.254 326.972 289.102 309.818 289.102 288.655C289.102 267.491 306.254 250.337 327.415 250.337C348.576 250.337 365.729 267.491 365.729 288.655C365.729 309.818 348.576 326.972 327.415 326.972Z" fill="#D7E6F0"/>
<path d="M306.49 374.383C306.49 377.145 308.73 379.384 311.491 379.384H342.761C345.524 379.384 347.763 377.145 347.763 374.383V364.687C354.338 362.918 360.625 360.311 366.532 356.908L373.378 363.754C374.315 364.691 375.587 365.219 376.915 365.219C378.24 365.219 379.514 364.691 380.451 363.752L402.554 341.633C404.506 339.68 404.506 336.513 402.554 334.562L395.716 327.724C399.12 321.817 401.726 315.53 403.496 308.954H413.154C415.916 308.954 418.155 306.716 418.155 303.953V272.683C418.155 269.92 415.916 267.682 413.154 267.682H403.494C401.724 261.108 399.12 254.821 395.716 248.914L402.517 242.113C403.454 241.176 403.982 239.902 403.982 238.576C403.98 237.249 403.453 235.975 402.515 235.038L380.395 212.935C378.443 210.983 375.276 210.983 373.323 212.937L366.532 219.73C360.625 216.326 354.338 213.72 347.763 211.95V202.345C347.763 199.583 345.524 197.344 342.761 197.344H311.491C308.73 197.344 306.49 199.583 306.49 202.345V211.952C299.916 213.72 293.629 216.326 287.722 219.73L280.929 212.937C278.978 210.985 275.811 210.983 273.857 212.935L251.739 235.04C250.8 235.977 250.272 237.249 250.272 238.576C250.272 239.902 250.8 241.176 251.737 242.113L258.538 248.914C255.135 254.821 252.529 261.106 250.759 267.682H241.118C238.355 267.682 236.117 269.92 236.117 272.681L236.099 303.951C236.097 305.278 236.625 306.552 237.562 307.489C238.5 308.427 239.772 308.954 241.1 308.954H250.759C252.529 315.53 255.135 321.817 258.538 327.724L251.7 334.562C249.749 336.513 249.747 339.68 251.7 341.633L273.803 363.752C274.74 364.689 276.012 365.219 277.339 365.219H277.341C278.667 365.219 279.939 364.691 280.877 363.754L287.72 356.908C293.629 360.311 299.916 362.918 306.49 364.687V374.383ZM289.681 346.39C287.702 345.111 285.098 345.388 283.43 347.055L277.341 353.144L262.308 338.1L268.391 332.014C270.058 330.348 270.335 327.744 269.056 325.765C264.521 318.748 261.333 311.056 259.583 302.902C259.087 300.599 257.051 298.952 254.693 298.952H246.103L246.115 277.684H254.693C257.051 277.684 259.087 276.039 259.583 273.734C261.333 265.582 264.521 257.89 269.056 250.873C270.335 248.894 270.058 246.29 268.391 244.624L262.347 238.577L277.391 223.545L283.43 229.585C285.098 231.252 287.7 231.527 289.681 230.249C296.697 225.715 304.388 222.527 312.542 220.777C314.845 220.28 316.492 218.243 316.492 215.887V207.346H337.76V215.885C337.76 218.243 339.405 220.28 341.71 220.775C349.863 222.527 357.556 225.713 364.571 230.248C366.55 231.527 369.154 231.252 370.82 229.583L376.861 223.545L391.905 238.577L385.861 244.622C384.192 246.29 383.917 248.894 385.197 250.873C389.731 257.89 392.917 265.582 394.669 273.734C395.164 276.039 397.201 277.684 399.559 277.684H408.153V298.952H399.559C397.201 298.952 395.166 300.599 394.669 302.902C392.919 311.054 389.731 318.748 385.197 325.763C383.917 327.744 384.194 330.348 385.861 332.014L391.944 338.098L376.912 353.142L370.822 347.055C369.154 345.386 366.55 345.111 364.571 346.39C357.554 350.925 349.863 354.111 341.71 355.863C339.405 356.359 337.76 358.395 337.76 360.753V369.382H316.492V360.753C316.492 358.397 314.845 356.359 312.542 355.863C304.39 354.113 296.698 350.925 289.681 346.39Z" fill="#0E82F8"/>
<path d="M375.452 288.653C375.452 262.163 353.901 240.612 327.411 240.612C300.92 240.612 279.369 262.163 279.369 288.653C279.369 315.144 300.92 336.695 327.411 336.695C353.901 336.695 375.452 315.144 375.452 288.653ZM290.998 288.653C290.998 268.574 307.332 252.24 327.411 252.24C347.49 252.24 363.824 268.577 363.824 288.653C363.824 308.73 347.49 325.066 327.411 325.066C307.332 325.066 290.998 308.733 290.998 288.653Z" fill="#0E82F8"/>
<path d="M334.033 278.76L334.026 278.753L334.02 278.747C332.244 276.953 329.888 275.981 327.452 276.054C325.308 276.055 323.326 276.767 321.871 277.896C320.417 279.024 319.454 280.601 319.454 282.328C319.454 283.116 319.529 283.809 319.782 284.389C320.044 284.992 320.482 285.436 321.125 285.747C321.747 286.048 322.556 286.223 323.576 286.327C324.602 286.431 325.88 286.467 327.46 286.467C329.821 286.467 332.836 286.475 335.263 287.572C336.462 288.114 337.503 288.916 338.249 290.111C338.996 291.308 339.47 292.934 339.47 295.162C339.47 300.348 335.387 304.611 329.872 305.616L329.462 305.691V306.108V307.859C329.462 308.466 329.241 309.04 328.86 309.457C328.48 309.872 327.976 310.096 327.46 310.096C326.944 310.096 326.439 309.872 326.06 309.457C325.679 309.04 325.458 308.466 325.458 307.859V306.081V305.654L325.036 305.587C322.428 305.172 319.998 303.869 318.093 301.854C317.904 301.648 317.751 301.401 317.647 301.126C317.542 300.85 317.487 300.553 317.487 300.252C317.487 299.951 317.542 299.653 317.647 299.377C317.752 299.101 317.905 298.854 318.095 298.648L318.095 298.647C318.474 298.235 318.977 298.013 319.491 298.013C320.005 298.013 320.508 298.235 320.887 298.647L320.893 298.654L320.9 298.661C322.676 300.455 325.032 301.427 327.467 301.354C329.611 301.352 331.593 300.64 333.049 299.511C334.502 298.383 335.466 296.806 335.466 295.08C335.466 294.292 335.39 293.598 335.138 293.018C334.875 292.415 334.437 291.972 333.795 291.661C333.173 291.359 332.363 291.184 331.343 291.08C330.318 290.976 329.04 290.94 327.46 290.94C325.098 290.94 322.084 290.932 319.656 289.835C318.458 289.293 317.417 288.491 316.671 287.296C315.924 286.1 315.45 284.473 315.45 282.245C315.45 277.06 319.533 272.797 325.047 271.791L325.458 271.717V271.299V269.548C325.458 268.941 325.679 268.367 326.06 267.95C326.439 267.535 326.944 267.312 327.46 267.312C327.976 267.312 328.48 267.535 328.86 267.95C329.241 268.367 329.462 268.941 329.462 269.548V271.327V271.754L329.883 271.821C332.492 272.235 334.922 273.538 336.827 275.554C337.016 275.759 337.168 276.006 337.273 276.281C337.378 276.557 337.432 276.854 337.432 277.156C337.432 277.457 337.378 277.754 337.273 278.03C337.168 278.306 337.015 278.553 336.825 278.76L336.824 278.76C336.445 279.172 335.942 279.394 335.429 279.394C334.915 279.394 334.412 279.172 334.033 278.76Z" fill="#D7E6F0" stroke="#D7E6F0"/>
<path d="M171.431 256.978L171.424 256.971L171.418 256.965C170.485 256.022 169.242 255.506 167.953 255.544C166.828 255.546 165.784 255.919 165.013 256.518C164.242 257.115 163.707 257.971 163.707 258.931C163.707 259.336 163.745 259.724 163.892 260.061C164.049 260.422 164.313 260.686 164.684 260.865C165.034 261.035 165.473 261.126 165.993 261.179C166.519 261.233 167.168 261.251 167.96 261.251C169.152 261.251 170.603 261.258 171.759 261.781C172.322 262.035 172.8 262.407 173.143 262.955C173.486 263.505 173.715 264.27 173.715 265.348C173.715 267.797 171.784 269.844 169.122 270.329L168.711 270.404V270.821V271.697C168.711 271.941 168.622 272.167 168.476 272.327L168.845 272.664L168.476 272.327C168.331 272.485 168.144 272.565 167.96 272.565C167.776 272.565 167.59 272.485 167.445 272.327L167.076 272.664L167.445 272.327C167.298 272.167 167.209 271.941 167.209 271.697V270.807V270.381L166.788 270.314C165.541 270.115 164.376 269.492 163.46 268.524C163.388 268.445 163.329 268.349 163.287 268.241C163.246 268.132 163.224 268.014 163.224 267.893C163.224 267.772 163.246 267.654 163.287 267.545C163.329 267.436 163.389 267.339 163.462 267.26L163.462 267.26C163.607 267.103 163.793 267.024 163.976 267.024C164.159 267.024 164.345 267.103 164.49 267.26L164.496 267.267L164.502 267.273C165.436 268.216 166.679 268.731 167.968 268.694C169.092 268.692 170.136 268.319 170.908 267.72C171.678 267.123 172.213 266.267 172.213 265.307C172.213 264.902 172.175 264.514 172.029 264.177C171.871 263.815 171.607 263.552 171.237 263.372C170.887 263.203 170.448 263.112 169.927 263.059C169.402 263.005 168.752 262.987 167.96 262.987C166.768 262.987 165.317 262.979 164.161 262.457C163.599 262.202 163.12 261.831 162.778 261.283C162.434 260.733 162.205 259.968 162.205 258.89C162.205 256.44 164.137 254.394 166.799 253.909L167.209 253.834V253.417V252.541C167.209 252.297 167.298 252.071 167.445 251.911C167.59 251.752 167.776 251.673 167.96 251.673C168.144 251.673 168.331 251.752 168.476 251.911C168.622 252.071 168.711 252.297 168.711 252.541V253.43V253.857L169.133 253.924C170.379 254.123 171.544 254.746 172.461 255.714C172.533 255.793 172.592 255.888 172.633 255.997C172.675 256.106 172.697 256.224 172.697 256.345C172.697 256.465 172.675 256.584 172.633 256.693C172.592 256.802 172.532 256.899 172.459 256.977L172.459 256.978C172.314 257.135 172.128 257.214 171.945 257.214C171.761 257.214 171.575 257.135 171.431 256.978Z" fill="#D7E6F0" stroke="#D7E6F0"/>
<path d="M403.226 85.4189H381.333C380.716 85.422 380.113 85.6078 379.601 85.9529C379.089 86.2979 378.691 86.7868 378.456 87.358C378.217 87.9275 378.151 88.5552 378.268 89.1619C378.385 89.7686 378.679 90.3271 379.113 90.7669L387.964 99.6176C387.652 100.205 387.535 100.876 387.631 101.534C387.726 102.192 388.029 102.802 388.495 103.277C388.788 103.567 389.134 103.796 389.515 103.952C389.896 104.107 390.304 104.186 390.716 104.184C391.221 104.166 391.715 104.027 392.154 103.777L401.005 112.659C401.297 112.949 401.644 113.178 402.025 113.334C402.406 113.489 402.814 113.568 403.226 113.566C403.636 113.577 404.043 113.491 404.414 113.316C404.985 113.081 405.474 112.683 405.819 112.171C406.164 111.659 406.35 111.056 406.353 110.439V88.5464C406.353 87.7169 406.024 86.9215 405.437 86.335C404.851 85.7484 404.055 85.4189 403.226 85.4189V85.4189ZM400.098 102.901L388.871 91.6738H400.098V102.901Z" fill="#95BCEE"/>
<path d="M370.951 131.926C370.818 132.316 370.764 132.729 370.792 133.14C370.819 133.551 370.927 133.952 371.11 134.321C371.294 134.69 371.548 135.02 371.858 135.29C372.169 135.561 372.53 135.767 372.921 135.898C373.242 136.013 373.581 136.066 373.922 136.054C374.489 136.024 375.037 135.84 375.508 135.522C375.978 135.204 376.353 134.763 376.592 134.248C376.832 133.733 376.926 133.162 376.866 132.598C376.805 132.033 376.592 131.495 376.249 131.043C375.906 130.59 375.446 130.239 374.919 130.028C374.391 129.817 373.817 129.753 373.256 129.844C372.695 129.935 372.17 130.177 371.736 130.543C371.303 130.91 370.977 131.388 370.794 131.926H370.951Z" fill="#95BCEE"/>
<path d="M311.811 162.481C312.323 161.883 312.591 161.113 312.56 160.326C312.53 159.539 312.204 158.792 311.647 158.235C311.09 157.678 310.343 157.352 309.556 157.322C308.769 157.291 307.999 157.559 307.401 158.071C306.962 158.507 306.662 159.063 306.538 159.669C306.415 160.275 306.475 160.904 306.709 161.477C306.943 162.049 307.342 162.539 307.855 162.885C308.368 163.231 308.972 163.417 309.59 163.419C310.004 163.418 310.413 163.334 310.794 163.173C311.176 163.012 311.521 162.777 311.811 162.481Z" fill="#95BCEE"/>
<path d="M318.785 154.883C319.407 154.872 320.013 154.688 320.536 154.351C320.877 154.122 321.17 153.827 321.397 153.484C321.624 153.141 321.782 152.757 321.86 152.353C321.939 151.949 321.937 151.534 321.854 151.131C321.772 150.728 321.611 150.345 321.38 150.004C320.916 149.316 320.197 148.84 319.382 148.681C318.567 148.523 317.722 148.695 317.033 149.16C316.345 149.624 315.869 150.343 315.711 151.158C315.552 151.974 315.724 152.818 316.189 153.507C316.476 153.931 316.863 154.279 317.315 154.519C317.768 154.759 318.272 154.884 318.785 154.883Z" fill="#95BCEE"/>
<path d="M346.088 147.97C346.088 147.141 345.758 146.345 345.172 145.759C344.585 145.172 343.79 144.843 342.96 144.843C342.131 144.843 341.336 145.172 340.749 145.759C340.163 146.345 339.833 147.141 339.833 147.97C339.833 148.8 340.163 149.595 340.749 150.182C341.336 150.768 342.131 151.098 342.96 151.098C343.79 151.098 344.585 150.768 345.172 150.182C345.758 149.595 346.088 148.8 346.088 147.97Z" fill="#95BCEE"/>
<path d="M381.865 113.037C382.277 113.039 382.685 112.96 383.066 112.804C383.447 112.649 383.793 112.419 384.085 112.13C384.52 111.691 384.816 111.134 384.934 110.528C385.053 109.922 384.989 109.294 384.752 108.725C384.514 108.155 384.114 107.668 383.6 107.325C383.086 106.983 382.482 106.8 381.865 106.8C381.248 106.8 380.644 106.983 380.13 107.325C379.616 107.668 379.216 108.155 378.978 108.725C378.741 109.294 378.677 109.922 378.796 110.528C378.914 111.134 379.21 111.691 379.645 112.13C379.937 112.419 380.283 112.649 380.664 112.804C381.045 112.96 381.453 113.039 381.865 113.037Z" fill="#95BCEE"/>
<path d="M355.469 151.098H355.845C356.656 151.049 357.417 150.686 357.966 150.086C358.514 149.485 358.807 148.695 358.783 147.882C358.759 147.069 358.419 146.298 357.835 145.732C357.251 145.165 356.47 144.849 355.657 144.849C354.844 144.849 354.063 145.165 353.479 145.732C352.895 146.298 352.555 147.069 352.531 147.882C352.507 148.695 352.8 149.485 353.348 150.086C353.897 150.686 354.658 151.049 355.469 151.098Z" fill="#95BCEE"/>
<path d="M368.823 145.494C369.303 145.104 369.656 144.581 369.839 143.991C370.022 143.401 370.026 142.77 369.85 142.177C369.675 141.585 369.328 141.058 368.853 140.663C368.378 140.267 367.797 140.021 367.183 139.956C366.568 139.891 365.948 140.009 365.401 140.295C364.854 140.582 364.403 141.024 364.107 141.567C363.811 142.109 363.682 142.727 363.737 143.342C363.791 143.957 364.027 144.543 364.414 145.025C364.708 145.387 365.08 145.68 365.502 145.88C365.924 146.08 366.386 146.183 366.853 146.182C367.569 146.185 368.265 145.942 368.823 145.494Z" fill="#95BCEE"/>
<path d="M330.543 151.098C331.373 151.098 332.168 150.768 332.755 150.182C333.341 149.595 333.671 148.8 333.671 147.97C333.671 147.141 333.341 146.345 332.755 145.759C332.168 145.172 331.373 144.843 330.543 144.843C329.714 144.843 328.918 145.172 328.332 145.759C327.745 146.345 327.416 147.141 327.416 147.97C327.416 148.8 327.745 149.595 328.332 150.182C328.918 150.768 329.714 151.098 330.543 151.098Z" fill="#95BCEE"/>
<path d="M376.454 117.569C375.686 117.477 374.912 117.673 374.279 118.119C373.647 118.564 373.203 119.229 373.032 119.983C372.861 120.737 372.975 121.528 373.353 122.203C373.731 122.878 374.346 123.389 375.078 123.637H375.829C376.658 123.736 377.493 123.502 378.15 122.986C378.807 122.47 379.232 121.714 379.332 120.885C379.431 120.055 379.197 119.22 378.681 118.563C378.165 117.906 377.409 117.481 376.579 117.382L376.454 117.569Z" fill="#95BCEE"/>
<path d="M272.154 192.377C271.438 192.79 270.915 193.469 270.698 194.265C270.482 195.062 270.589 195.912 270.996 196.631C271.302 197.169 271.761 197.605 272.315 197.882C272.869 198.16 273.493 198.267 274.107 198.189C274.722 198.112 275.3 197.854 275.767 197.447C276.235 197.041 276.571 196.505 276.734 195.907C276.896 195.31 276.878 194.677 276.681 194.09C276.483 193.503 276.116 192.987 275.625 192.609C275.135 192.231 274.543 192.007 273.925 191.966C273.307 191.925 272.69 192.068 272.154 192.377Z" fill="#95BCEE"/>
<path d="M280.848 184.622C280.265 185.208 279.938 186.001 279.938 186.827C279.938 187.653 280.265 188.446 280.848 189.032C281.434 189.615 282.227 189.941 283.053 189.941C283.879 189.941 284.672 189.615 285.258 189.032C285.84 188.446 286.167 187.653 286.167 186.827C286.167 186.001 285.84 185.208 285.258 184.622C284.672 184.04 283.879 183.713 283.053 183.713C282.227 183.713 281.434 184.04 280.848 184.622Z" fill="#95BCEE"/>
<path d="M289.698 175.774C289.116 176.36 288.789 177.152 288.789 177.979C288.789 178.805 289.116 179.598 289.698 180.184C290.284 180.766 291.077 181.093 291.903 181.093C292.729 181.093 293.522 180.766 294.108 180.184C294.435 179.903 294.701 179.558 294.889 179.17C295.077 178.782 295.182 178.36 295.199 177.929C295.215 177.498 295.143 177.069 294.986 176.667C294.828 176.266 294.59 175.901 294.285 175.597C293.98 175.292 293.616 175.053 293.215 174.896C292.813 174.739 292.384 174.666 291.953 174.683C291.522 174.7 291.1 174.805 290.712 174.993C290.324 175.181 289.979 175.446 289.698 175.774Z" fill="#95BCEE"/>
<path d="M298.551 166.921C297.968 167.507 297.641 168.299 297.641 169.125C297.641 169.952 297.968 170.744 298.551 171.33C299.128 171.92 299.915 172.257 300.74 172.269C301.254 172.271 301.761 172.146 302.216 171.905C302.67 171.665 303.058 171.316 303.346 170.889C303.634 170.463 303.811 169.972 303.864 169.461C303.917 168.949 303.842 168.432 303.647 167.956C303.452 167.48 303.143 167.06 302.747 166.732C302.351 166.404 301.88 166.179 301.376 166.076C300.872 165.974 300.35 165.997 299.857 166.145C299.365 166.292 298.916 166.558 298.551 166.921Z" fill="#95BCEE"/>
<path d="M261.74 194.877C261.121 194.877 260.517 195.06 260.002 195.404C259.488 195.748 259.087 196.236 258.85 196.808C258.614 197.379 258.552 198.008 258.672 198.615C258.793 199.221 259.091 199.778 259.528 200.216C259.966 200.653 260.523 200.951 261.13 201.072C261.736 201.192 262.365 201.13 262.937 200.894C263.508 200.657 263.996 200.256 264.34 199.742C264.684 199.228 264.867 198.623 264.867 198.004C264.867 197.175 264.538 196.379 263.951 195.793C263.365 195.206 262.569 194.877 261.74 194.877Z" fill="#95BCEE"/>
<path d="M212.67 205.859C212.229 206.296 211.928 206.855 211.806 207.464C211.684 208.073 211.746 208.705 211.984 209.278C212.222 209.852 212.626 210.342 213.143 210.685C213.661 211.029 214.269 211.21 214.891 211.207C215.304 211.205 215.714 211.121 216.095 210.96C216.476 210.799 216.821 210.564 217.111 210.268C217.693 209.682 218.02 208.89 218.02 208.064C218.02 207.237 217.693 206.445 217.111 205.859C216.82 205.566 216.474 205.333 216.093 205.174C215.712 205.015 215.303 204.934 214.891 204.934C214.478 204.934 214.069 205.015 213.688 205.174C213.307 205.333 212.961 205.566 212.67 205.859Z" fill="#95BCEE"/>
<path d="M223.178 197.382C222.542 197.69 222.029 198.204 221.723 198.841C221.417 199.477 221.335 200.198 221.491 200.887C221.647 201.576 222.031 202.192 222.582 202.635C223.132 203.077 223.816 203.32 224.523 203.324C224.999 203.326 225.47 203.219 225.899 203.012C226.622 202.637 227.17 201.995 227.427 201.222C227.685 200.45 227.63 199.607 227.276 198.874C226.921 198.141 226.295 197.575 225.53 197.296C224.764 197.018 223.921 197.048 223.178 197.382Z" fill="#95BCEE"/>
<path d="M246.102 198.004C246.102 198.623 246.285 199.228 246.629 199.742C246.973 200.256 247.461 200.657 248.032 200.894C248.604 201.13 249.233 201.192 249.839 201.072C250.446 200.951 251.003 200.653 251.441 200.216C251.878 199.778 252.176 199.221 252.297 198.615C252.417 198.008 252.355 197.379 252.119 196.808C251.882 196.236 251.481 195.748 250.967 195.404C250.452 195.06 249.848 194.877 249.229 194.877C248.4 194.877 247.604 195.206 247.018 195.793C246.431 196.379 246.102 197.175 246.102 198.004Z" fill="#95BCEE"/>
<path d="M233.593 198.004C233.593 198.623 233.776 199.228 234.12 199.742C234.464 200.256 234.952 200.657 235.524 200.894C236.095 201.13 236.724 201.192 237.331 201.072C237.937 200.951 238.495 200.653 238.932 200.216C239.369 199.778 239.667 199.221 239.788 198.615C239.908 198.008 239.847 197.379 239.61 196.808C239.373 196.236 238.972 195.748 238.458 195.404C237.944 195.06 237.339 194.877 236.72 194.877C235.891 194.877 235.096 195.206 234.509 195.793C233.923 196.379 233.593 197.175 233.593 198.004Z" fill="#95BCEE"/>
<defs>
<filter id="filter0_d" x="278.695" y="50.042" width="419.657" height="350.853" filterUnits="userSpaceOnUse" color-interpolation-filters="sRGB">
<feFlood flood-opacity="0" result="BackgroundImageFix"/>
<feColorMatrix in="SourceAlpha" type="matrix" values="0 0 0 0 0 0 0 0 0 0 0 0 0 0 0 0 0 0 127 0"/>
<feOffset dy="4"/>
<feGaussianBlur stdDeviation="15"/>
<feColorMatrix type="matrix" values="0 0 0 0 0 0 0 0 0 0 0 0 0 0 0 0 0 0 0.5 0"/>
<feBlend mode="normal" in2="BackgroundImageFix" result="effect1_dropShadow"/>
<feBlend mode="normal" in="SourceGraphic" in2="effect1_dropShadow" result="shape"/>
</filter>
<filter id="filter1_d" x="0.351807" y="0" width="538.5" height="450.931" filterUnits="userSpaceOnUse" color-interpolation-filters="sRGB">
<feFlood flood-opacity="0" result="BackgroundImageFix"/>
<feColorMatrix in="SourceAlpha" type="matrix" values="0 0 0 0 0 0 0 0 0 0 0 0 0 0 0 0 0 0 127 0"/>
<feOffset dy="4"/>
<feGaussianBlur stdDeviation="15"/>
<feColorMatrix type="matrix" values="0 0 0 0 0 0 0 0 0 0 0 0 0 0 0 0 0 0 0.5 0"/>
<feBlend mode="normal" in2="BackgroundImageFix" result="effect1_dropShadow"/>
<feBlend mode="normal" in="SourceGraphic" in2="effect1_dropShadow" result="shape"/>
</filter>
</defs>
</svg>
