<svg width="689" height="445" viewBox="0 0 689 445" fill="none" xmlns="http://www.w3.org/2000/svg">
<g filter="url(#filter0_d)">
<rect x="304.216" y="75.2803" width="354.2" height="286.44" fill="#1C2124"/>
</g>
<path d="M527.519 271.161C558.302 271.161 583.257 246.207 583.257 215.424C583.257 184.641 558.302 159.687 527.519 159.687C496.737 159.687 471.782 184.641 471.782 215.424C471.782 246.207 496.737 271.161 527.519 271.161Z" fill="#B1D7FB"/>
<path d="M488.349 215.424C488.349 187.456 508.949 164.301 535.803 160.3C533.1 159.897 530.335 159.687 527.519 159.687C496.737 159.687 471.782 184.641 471.782 215.424C471.782 246.207 496.737 271.161 527.519 271.161C530.335 271.161 533.1 270.95 535.803 270.547C508.949 266.546 488.349 243.392 488.349 215.424Z" fill="#9DC6FB"/>
<path d="M527.531 259.212C551.715 259.212 571.32 239.607 571.32 215.423C571.32 191.239 551.715 171.634 527.531 171.634C503.347 171.634 483.741 191.239 483.741 215.423C483.741 239.607 503.347 259.212 527.531 259.212Z" fill="#9DC6FB"/>
<path d="M502.668 215.423C502.668 194.489 517.36 176.988 536.994 172.662C533.946 171.991 530.78 171.634 527.531 171.634C503.347 171.634 483.741 191.239 483.741 215.423C483.741 239.607 503.347 259.212 527.531 259.212C530.78 259.212 533.946 258.855 536.994 258.183C517.359 253.858 502.668 236.358 502.668 215.423Z" fill="#80B4FB"/>
<path d="M543.837 208.513H511.224C508.691 208.513 506.619 210.585 506.619 213.117V237.157C506.619 239.689 508.691 241.761 511.224 241.761H543.837C546.37 241.761 548.442 239.689 548.442 237.157V213.117C548.442 210.585 546.369 208.513 543.837 208.513Z" fill="#FFE181"/>
<path d="M518.675 237.157V213.117C518.675 210.585 520.746 208.513 523.279 208.513H511.224C508.691 208.513 506.619 210.585 506.619 213.117V237.157C506.619 239.689 508.691 241.761 511.224 241.761H523.279C520.746 241.761 518.675 239.689 518.675 237.157Z" fill="#FEC458"/>
<path d="M527.53 228.335C530.546 228.335 532.991 225.89 532.991 222.874C532.991 219.858 530.546 217.413 527.53 217.413C524.514 217.413 522.069 219.858 522.069 222.874C522.069 225.89 524.514 228.335 527.53 228.335Z" fill="#FEC458"/>
<path d="M528.093 222.875C528.093 220.972 529.067 219.299 530.542 218.321C529.678 217.749 528.644 217.414 527.53 217.414C524.514 217.414 522.07 219.859 522.07 222.875C522.07 225.891 524.514 228.336 527.53 228.336C528.644 228.336 529.678 228.001 530.542 227.429C529.067 226.451 528.093 224.777 528.093 222.875Z" fill="#F9AB49"/>
<path d="M527.519 139.099C532.222 139.099 536.035 135.109 536.035 130.187C536.035 125.265 532.222 121.274 527.519 121.274C522.816 121.274 519.003 125.265 519.003 130.187C519.003 135.109 522.816 139.099 527.519 139.099Z" fill="#FFE181"/>
<path d="M527.519 309.572C532.222 309.572 536.035 305.582 536.035 300.66C536.035 295.738 532.222 291.748 527.519 291.748C522.816 291.748 519.003 295.738 519.003 300.66C519.003 305.582 522.816 309.572 527.519 309.572Z" fill="#FFE181"/>
<path d="M461.419 177.262C463.77 173.189 462.221 167.892 457.959 165.431C453.696 162.97 448.335 164.277 445.983 168.35C443.631 172.423 445.181 177.72 449.443 180.181C453.706 182.642 459.067 181.335 461.419 177.262Z" fill="#FFE181"/>
<path d="M609.051 262.501C611.402 258.428 609.853 253.132 605.591 250.671C601.328 248.21 595.966 249.516 593.615 253.589C591.263 257.662 592.812 262.959 597.075 265.42C601.337 267.881 606.699 266.574 609.051 262.501Z" fill="#FFE181"/>
<path d="M457.959 265.412C462.221 262.951 463.77 257.655 461.419 253.582C459.067 249.509 453.706 248.202 449.443 250.663C445.181 253.124 443.631 258.421 445.983 262.494C448.335 266.567 453.696 267.873 457.959 265.412Z" fill="#FFE181"/>
<path d="M605.59 180.177C609.853 177.716 611.402 172.419 609.051 168.346C606.699 164.273 601.337 162.967 597.075 165.428C592.812 167.889 591.263 173.186 593.615 177.258C595.966 181.331 601.328 182.638 605.59 180.177Z" fill="#FFE181"/>
<path d="M527.287 130.187C527.287 126.838 529.052 123.923 531.661 122.4C530.435 121.684 529.023 121.274 527.519 121.274C522.816 121.274 519.003 125.264 519.003 130.187C519.003 135.109 522.816 139.099 527.519 139.099C529.023 139.099 530.435 138.69 531.661 137.974C529.052 136.45 527.287 133.535 527.287 130.187Z" fill="#FEC458"/>
<path d="M527.287 300.66C527.287 297.312 529.052 294.396 531.661 292.873C530.435 292.157 529.023 291.748 527.519 291.748C522.816 291.748 519.003 295.738 519.003 300.66C519.003 305.583 522.816 309.572 527.519 309.572C529.023 309.572 530.435 309.163 531.661 308.447C529.052 306.924 527.287 304.009 527.287 300.66Z" fill="#FEC458"/>
<path d="M457.728 180.18C453.466 177.719 451.917 172.422 454.268 168.349C455.065 166.968 456.209 165.906 457.538 165.201C453.349 163.058 448.259 164.409 445.984 168.349C443.633 172.422 445.182 177.719 449.445 180.18C452.262 181.807 455.56 181.786 458.151 180.409C458.009 180.337 457.868 180.261 457.728 180.18Z" fill="#FEC458"/>
<path d="M605.362 265.417C601.099 262.956 599.551 257.66 601.902 253.586C602.699 252.206 603.843 251.144 605.172 250.438C600.983 248.296 595.893 249.647 593.619 253.586C591.267 257.659 592.816 262.956 597.079 265.417C599.897 267.044 603.194 267.024 605.785 265.647C605.643 265.574 605.502 265.498 605.362 265.417Z" fill="#FEC458"/>
<path d="M454.268 262.498C451.916 258.425 453.465 253.128 457.728 250.667C457.868 250.586 458.009 250.51 458.15 250.438C455.559 249.061 452.262 249.04 449.444 250.667C445.181 253.128 443.632 258.425 445.984 262.498C448.258 266.438 453.349 267.789 457.537 265.646C456.208 264.941 455.065 263.879 454.268 262.498Z" fill="#FEC458"/>
<path d="M601.902 177.261C599.55 173.188 601.099 167.891 605.362 165.43C605.502 165.349 605.643 165.273 605.784 165.2C603.193 163.824 599.896 163.803 597.078 165.43C592.815 167.891 591.266 173.188 593.618 177.261C595.893 181.2 600.983 182.551 605.171 180.409C603.843 179.703 602.699 178.642 601.902 177.261Z" fill="#FEC458"/>
<path d="M527.517 235.98C529.087 235.98 530.359 234.707 530.359 233.137V230.68C533.543 229.516 535.823 226.457 535.823 222.875C535.823 218.295 532.097 214.568 527.517 214.568C522.936 214.568 519.21 218.295 519.21 222.875C519.21 226.457 521.49 229.517 524.674 230.68V233.137C524.674 234.707 525.947 235.98 527.517 235.98ZM527.517 220.253C528.962 220.253 530.138 221.429 530.138 222.875C530.138 224.32 528.962 225.496 527.517 225.496C526.071 225.496 524.895 224.32 524.895 222.875C524.895 221.429 526.071 220.253 527.517 220.253Z" fill="black"/>
<path d="M534.149 244.614H543.832C547.94 244.614 551.282 241.273 551.282 237.165V213.112C551.282 209.102 548.094 205.831 544.121 205.677V200.385C544.121 191.229 536.672 183.78 527.516 183.78C518.361 183.78 510.912 191.229 510.912 200.385V205.677C506.939 205.831 503.751 209.102 503.751 213.112V237.165C503.751 241.273 507.093 244.614 511.2 244.614H520.884C522.454 244.614 523.727 243.342 523.727 241.772C523.727 240.202 522.454 238.93 520.884 238.93H511.2C510.244 238.93 509.436 238.122 509.436 237.165V213.112C509.436 212.156 510.244 211.347 511.2 211.347H543.832C544.789 211.347 545.597 212.155 545.597 213.112V237.165C545.597 238.122 544.789 238.93 543.832 238.93H534.149C532.579 238.93 531.306 240.202 531.306 241.772C531.306 243.342 532.579 244.614 534.149 244.614ZM538.437 205.662H516.596V200.385C516.596 194.363 521.495 189.465 527.516 189.465C533.538 189.465 538.436 194.363 538.436 200.385V205.662H538.437Z" fill="black"/>
<g filter="url(#filter1_d)">
<rect x="30.0959" y="26" width="471.24" height="385" fill="#1C2124"/>
</g>
<path d="M413.37 220.214C406.518 216.481 399.922 212.544 393.428 208.453C393.581 205.794 393.735 203.186 393.735 200.579C393.735 135.436 340.761 82.4619 275.618 82.4619C210.423 82.4619 157.399 135.487 157.399 200.63C157.399 265.773 210.423 318.747 275.567 318.747C287.992 318.747 300.162 316.804 311.769 313.071C324.808 324.576 341.784 335.314 351.499 341.143C353.902 342.523 356.356 342.523 358.862 341.143C376.452 330.814 417.153 304.736 417.153 286.789V226.554C417.153 223.946 415.722 221.492 413.37 220.214ZM238.444 103.835C231.899 112.221 226.326 122.857 221.979 135.129H195.186C206.537 121.221 221.417 110.38 238.444 103.835ZM185.317 149.548H217.582C214.207 162.894 212.111 177.671 211.599 193.42H172.125C173.199 177.569 177.852 162.689 185.317 149.548ZM185.317 251.66C177.852 238.57 173.199 223.691 172.125 207.84H211.651C212.162 223.537 214.207 238.315 217.582 251.66H185.317ZM195.186 266.08H221.979C226.326 278.352 231.95 288.987 238.444 297.424C221.417 290.879 206.537 279.988 195.186 266.08ZM268.357 303.202C256.085 299.265 245.091 285.561 237.422 266.131H268.357V303.202ZM268.357 251.66H232.615C228.934 238.468 226.633 223.588 226.07 207.84H268.357V251.66ZM268.357 193.42H226.07C226.633 177.671 228.934 162.74 232.615 149.548H268.357V193.42ZM268.357 135.129H237.422C245.143 115.698 256.085 101.995 268.357 98.0574V135.129ZM365.765 149.548C373.23 162.638 377.883 177.518 379.008 193.42H371.185C367.401 190.608 363.617 187.744 359.987 184.83C357.328 182.682 353.595 182.682 350.936 184.83C347.306 187.744 343.573 190.608 339.738 193.42H339.483C338.971 177.722 336.926 162.945 333.551 149.548H365.765ZM355.896 135.129H329.154C324.808 122.857 319.183 112.221 312.689 103.784C329.716 110.329 344.596 121.221 355.896 135.129ZM282.776 98.0574C295.048 101.995 305.991 115.698 313.661 135.129H282.776V98.0574ZM282.776 149.548H318.467C322.149 162.74 324.45 177.62 325.012 193.42H282.776V149.548ZM282.776 303.151V266.131H293.77V286.789C293.77 289.294 294.588 291.902 295.969 294.663C292.44 298.14 287.992 301.413 282.776 303.151ZM293.77 226.554V251.66H282.776V207.84H318.518C311.718 212.135 304.763 216.328 297.554 220.214C295.253 221.492 293.77 223.946 293.77 226.554ZM402.734 286.789C402.478 292.873 380.696 311.026 355.283 326.57C330.074 310.974 308.496 292.873 308.241 286.789V230.849C325.063 221.492 340.914 211.01 355.487 199.658C370.06 211.01 385.962 221.492 402.734 230.849V286.789Z" fill="#0E82F8"/>
<path d="M387.292 240.565C384.479 237.753 379.929 237.753 377.065 240.565L348.022 269.609L333.858 255.445C331.046 252.633 326.495 252.633 323.631 255.445C320.819 258.257 320.819 262.808 323.631 265.671L342.908 284.948C345.772 287.71 350.169 287.812 353.135 284.948L387.292 250.792C390.104 247.928 390.104 243.378 387.292 240.565Z" fill="#93D318"/>
<defs>
<filter id="filter0_d" x="274.216" y="49.2803" width="414.2" height="346.44" filterUnits="userSpaceOnUse" color-interpolation-filters="sRGB">
<feFlood flood-opacity="0" result="BackgroundImageFix"/>
<feColorMatrix in="SourceAlpha" type="matrix" values="0 0 0 0 0 0 0 0 0 0 0 0 0 0 0 0 0 0 127 0"/>
<feOffset dy="4"/>
<feGaussianBlur stdDeviation="15"/>
<feColorMatrix type="matrix" values="0 0 0 0 0 0 0 0 0 0 0 0 0 0 0 0 0 0 0.5 0"/>
<feBlend mode="normal" in2="BackgroundImageFix" result="effect1_dropShadow"/>
<feBlend mode="normal" in="SourceGraphic" in2="effect1_dropShadow" result="shape"/>
</filter>
<filter id="filter1_d" x="0.0959473" y="0" width="531.24" height="445" filterUnits="userSpaceOnUse" color-interpolation-filters="sRGB">
<feFlood flood-opacity="0" result="BackgroundImageFix"/>
<feColorMatrix in="SourceAlpha" type="matrix" values="0 0 0 0 0 0 0 0 0 0 0 0 0 0 0 0 0 0 127 0"/>
<feOffset dy="4"/>
<feGaussianBlur stdDeviation="15"/>
<feColorMatrix type="matrix" values="0 0 0 0 0 0 0 0 0 0 0 0 0 0 0 0 0 0 0.5 0"/>
<feBlend mode="normal" in2="BackgroundImageFix" result="effect1_dropShadow"/>
<feBlend mode="normal" in="SourceGraphic" in2="effect1_dropShadow" result="shape"/>
</filter>
</defs>
</svg>
