<svg width="264" height="185" viewBox="0 0 264 185" fill="none" xmlns="http://www.w3.org/2000/svg">
<g filter="url(#filter0_d)">
<rect x="119" y="42" width="115" height="93" fill="#1C2124"/>
</g>
<path d="M164.25 71.8752V95.5002L190.5 108.625V85.0002L164.25 71.8752Z" fill="#B52F28"/>
<path d="M216.75 71.8752V95.5002L190.5 108.625V85.0002L216.75 71.8752Z" fill="#A72B25"/>
<path d="M190.5 58.7502L164.25 71.8752L190.5 85.0002L216.75 71.8752L190.5 58.7502Z" fill="#D23F34"/>
<path d="M186.562 56.1252H194.438V64.0002H186.562V56.1252Z" fill="#F8CED7"/>
<path d="M186.562 81.0627H194.438V88.9377H186.562V81.0627Z" fill="#F8CED7"/>
<path d="M186.562 103.375H194.438V111.25H186.562V103.375Z" fill="#F8CED7"/>
<path d="M212.812 91.5627H220.688V99.4377H212.812V91.5627Z" fill="#F8CED7"/>
<path d="M212.812 67.9377H220.688V75.8127H212.812V67.9377Z" fill="#F8CED7"/>
<path d="M160.312 67.9377H168.188V75.8127H160.312V67.9377Z" fill="#F8CED7"/>
<path d="M160.312 91.5627H168.188V99.4377H160.312V91.5627Z" fill="#F8CED7"/>
<path d="M191.813 119.894V111.25H189.188V119.894L184.866 115.572L183.01 117.428L189.572 123.991C189.828 124.247 190.164 124.375 190.5 124.375C190.836 124.375 191.172 124.247 191.428 123.991L197.991 117.428L196.135 115.572L191.813 119.894Z" fill="#61668C"/>
<path d="M189.188 47.4812V56.1253H191.813V47.4812L196.135 51.8033L197.991 49.9474L191.428 43.3849C190.915 42.8717 190.085 42.8717 189.572 43.3849L183.01 49.9474L184.866 51.8033L189.188 47.4812Z" fill="#61668C"/>
<path d="M160.312 90.2503C159.588 90.2503 159 90.8383 159 91.5628V99.4378C159 100.162 159.588 100.75 160.312 100.75H168.188C168.862 100.75 169.398 100.235 169.471 99.5783L185.25 107.468V111.25C185.25 111.975 185.838 112.563 186.562 112.563H189.188V119.894L184.865 115.572L183.01 117.428L189.572 123.991C189.828 124.247 190.164 124.375 190.5 124.375C190.836 124.375 191.172 124.247 191.428 123.991L197.99 117.428L196.135 115.572L191.812 119.894V112.563H194.438C195.162 112.563 195.75 111.975 195.75 111.25V107.468L211.529 99.5783C211.602 100.235 212.138 100.75 212.812 100.75H220.688C221.412 100.75 222 100.162 222 99.4378V91.5628C222 90.8383 221.412 90.2503 220.688 90.2503H218.062V77.1253H220.688C221.412 77.1253 222 76.5373 222 75.8128V67.9378C222 67.2133 221.412 66.6253 220.688 66.6253H212.812C212.138 66.6253 211.602 67.1411 211.529 67.7974L195.75 59.908V56.1253C195.75 55.4008 195.162 54.8128 194.438 54.8128H191.812V47.4812L196.135 51.8033L197.99 49.9474L191.428 43.3849C190.915 42.8717 190.085 42.8717 189.572 43.3849L183.01 49.9474L184.865 51.8033L189.188 47.4812V54.8128H186.562C185.838 54.8128 185.25 55.4008 185.25 56.1253V59.908L169.471 67.7974C169.398 67.1411 168.862 66.6253 168.188 66.6253H160.312C159.588 66.6253 159 67.2133 159 67.9378V75.8128C159 76.5373 159.588 77.1253 160.312 77.1253H162.938V90.2503H160.312ZM166.875 98.1253H161.625V92.8753H166.875V98.1253ZM193.125 109.938H187.875V104.688H193.125V109.938ZM219.375 98.1253H214.125V92.8753H219.375V98.1253ZM215.438 90.2503H212.812C212.088 90.2503 211.5 90.8383 211.5 91.5628V96.658L195.75 104.533V103.375C195.75 102.651 195.162 102.063 194.438 102.063H191.812V90.2503H194.438C195.162 90.2503 195.75 89.6623 195.75 88.9378V83.8427L211.529 75.9533C211.602 76.6095 212.138 77.1253 212.812 77.1253H215.438V90.2503ZM187.875 87.6253V82.3753H193.125V87.6253H187.875ZM214.125 69.2503H219.375V74.5003H214.125V69.2503ZM187.875 57.4378H193.125V62.6878H187.875V57.4378ZM186.562 65.3128H194.438C195.162 65.3128 195.75 64.7248 195.75 64.0003V62.8427L211.5 70.7177V73.033L195.721 80.9224C195.648 80.2661 195.112 79.7503 194.438 79.7503H186.562C185.888 79.7503 185.352 80.2661 185.279 80.9224L169.5 73.033V70.7177L185.25 62.8427V64.0003C185.25 64.7248 185.838 65.3128 186.562 65.3128ZM161.625 69.2503H166.875V74.5003H161.625V69.2503ZM165.562 77.1253H168.188C168.862 77.1253 169.398 76.6095 169.471 75.9533L185.25 83.8427V88.9378C185.25 89.6623 185.838 90.2503 186.562 90.2503H189.188V102.063H186.562C185.838 102.063 185.25 102.651 185.25 103.375V104.533L169.5 96.658V91.5628C169.5 90.8383 168.912 90.2503 168.188 90.2503H165.562V77.1253Z" fill="black"/>
<g filter="url(#filter1_d)">
<rect x="30" y="26" width="153" height="125" fill="#1C2124"/>
</g>
<path d="M127.828 91.3438V85.6562L123.21 85.0406C122.769 82.8978 121.919 80.9058 120.756 79.1384L123.591 75.4301L119.57 71.4091L115.862 74.2443C114.094 73.0812 112.102 72.2323 109.959 71.7901L109.344 67.1719H103.656L103.041 71.7901C100.898 72.2309 98.9058 73.0812 97.1384 74.2443L93.4301 71.4091L89.4091 75.4301L92.2443 79.1384C91.0812 80.9058 90.2323 82.8978 89.7901 85.0406L85.1719 85.6562V91.3438L89.7901 91.9594C90.2309 94.1022 91.0812 96.0942 92.2443 97.8616L89.4091 101.57L93.4301 105.591L97.1384 102.756C98.9058 103.919 100.898 104.768 103.041 105.21L103.656 109.828H109.344L109.959 105.21C112.102 104.769 114.094 103.919 115.862 102.756L119.57 105.591L123.591 101.57L120.756 97.8616C121.919 96.0942 122.768 94.1022 123.21 91.9594L127.828 91.3438ZM106.5 99.875C100.218 99.875 95.125 94.7818 95.125 88.5C95.125 82.2182 100.218 77.125 106.5 77.125C112.782 77.125 117.875 82.2182 117.875 88.5C117.875 94.7818 112.782 99.875 106.5 99.875Z" fill="#2862BE"/>
<path d="M137.781 82.8125H149.156V94.1875H137.781V82.8125Z" fill="#F6B940"/>
<path d="M137.781 111.25H149.156V122.625H137.781V111.25Z" fill="#F6B940"/>
<path d="M137.781 54.375H149.156V65.75H137.781V54.375Z" fill="#F6B940"/>
<path d="M75.2188 94.1875H63.8438V82.8125H75.2188V94.1875Z" fill="#F6B940"/>
<path d="M75.2188 122.625H63.8438V111.25H75.2188V122.625Z" fill="#F6B940"/>
<path d="M75.2188 65.75H63.8438V54.375H75.2188V65.75Z" fill="#F6B940"/>
<path d="M137.781 61.4844V58.6406H132.094C131.309 58.6406 130.672 59.2776 130.672 60.0625V87.0781H127.828V89.9219H130.672V116.938C130.672 117.722 131.309 118.359 132.094 118.359H137.781V115.516H133.516V89.9219H137.781V87.0781H133.516V61.4844H137.781Z" fill="#61668C"/>
<path d="M82.3281 60.0625C82.3281 59.2776 81.6911 58.6406 80.9062 58.6406H75.2188V61.4844H79.4844V87.0781H75.2188V89.9219H79.4844V115.516H75.2188V118.359H80.9062C81.6911 118.359 82.3281 117.722 82.3281 116.938V89.9219H85.1719V87.0781H82.3281V60.0625Z" fill="#61668C"/>
<path d="M106.5 75.7031C99.4447 75.7031 93.7031 81.4447 93.7031 88.5C93.7031 95.5553 99.4447 101.297 106.5 101.297C113.555 101.297 119.297 95.5553 119.297 88.5C119.297 81.4447 113.555 75.7031 106.5 75.7031ZM106.5 98.4531C101.012 98.4531 96.5469 93.9884 96.5469 88.5C96.5469 83.0116 101.012 78.5469 106.5 78.5469C111.988 78.5469 116.453 83.0116 116.453 88.5C116.453 93.9884 111.988 98.4531 106.5 98.4531Z" fill="#D3D3D3"/>
<defs>
<filter id="filter0_d" x="89" y="16" width="175" height="153" filterUnits="userSpaceOnUse" color-interpolation-filters="sRGB">
<feFlood flood-opacity="0" result="BackgroundImageFix"/>
<feColorMatrix in="SourceAlpha" type="matrix" values="0 0 0 0 0 0 0 0 0 0 0 0 0 0 0 0 0 0 127 0"/>
<feOffset dy="4"/>
<feGaussianBlur stdDeviation="15"/>
<feColorMatrix type="matrix" values="0 0 0 0 0 0 0 0 0 0 0 0 0 0 0 0 0 0 0.5 0"/>
<feBlend mode="normal" in2="BackgroundImageFix" result="effect1_dropShadow"/>
<feBlend mode="normal" in="SourceGraphic" in2="effect1_dropShadow" result="shape"/>
</filter>
<filter id="filter1_d" x="0" y="0" width="213" height="185" filterUnits="userSpaceOnUse" color-interpolation-filters="sRGB">
<feFlood flood-opacity="0" result="BackgroundImageFix"/>
<feColorMatrix in="SourceAlpha" type="matrix" values="0 0 0 0 0 0 0 0 0 0 0 0 0 0 0 0 0 0 127 0"/>
<feOffset dy="4"/>
<feGaussianBlur stdDeviation="15"/>
<feColorMatrix type="matrix" values="0 0 0 0 0 0 0 0 0 0 0 0 0 0 0 0 0 0 0.5 0"/>
<feBlend mode="normal" in2="BackgroundImageFix" result="effect1_dropShadow"/>
<feBlend mode="normal" in="SourceGraphic" in2="effect1_dropShadow" result="shape"/>
</filter>
</defs>
</svg>
