<svg width="604" height="393" viewBox="0 0 604 393" fill="none" xmlns="http://www.w3.org/2000/svg">
<g filter="url(#filter0_d)">
<rect x="267.096" y="68.624" width="306.36" height="247.752" fill="#1C2124"/>
</g>
<path d="M428.56 207.272C424.556 199.217 422.458 189.632 422.458 181.106C422.458 156.264 443.138 137.168 467.911 137.168C492.09 137.168 511.896 157.431 511.896 181.884L520.342 209.383H506.958V222.205C506.958 229.422 501.108 235.272 493.892 235.272H478.585L476.024 249.942H428.079L431.761 234.672C433.985 225.449 432.783 215.768 428.56 207.272Z" fill="#F2BB88"/>
<path d="M434.433 201C454.849 201 471.4 184.449 471.4 164.033C471.4 143.616 454.849 127.065 434.433 127.065C414.016 127.065 397.465 143.616 397.465 164.033C397.465 184.449 414.016 201 434.433 201Z" fill="#F5737F"/>
<path d="M421.314 185.145C424.625 185.145 427.308 182.462 427.308 179.151C427.308 175.841 424.625 173.157 421.314 173.157C418.004 173.157 415.32 175.841 415.32 179.151C415.32 182.462 418.004 185.145 421.314 185.145Z" fill="#FFCBBE"/>
<path d="M447.127 197.952V189.162H451.167C451.675 186.907 452.563 184.798 453.762 182.904L450.903 180.045L457.119 173.829L459.978 176.689C461.872 175.49 463.982 174.602 466.236 174.095V170.053H475.026V174.095C477.28 174.602 479.39 175.49 481.284 176.689L484.143 173.829L490.359 180.045L487.5 182.904C488.699 184.798 489.588 186.908 490.095 189.162H494.135V197.952H490.096C489.589 200.207 488.701 202.318 487.502 204.213L490.359 207.069L484.143 213.285L481.287 210.429C479.392 211.628 477.281 212.517 475.026 213.024V217.061H466.236V213.024C463.98 212.517 461.87 211.628 459.975 210.429L457.119 213.285L450.903 207.069L453.76 204.213C452.561 202.318 451.672 200.207 451.166 197.952H447.127Z" fill="#91DEF5"/>
<path d="M462.169 193.56C462.169 188.887 465.958 185.099 470.631 185.099C475.304 185.099 479.092 188.887 479.092 193.56C479.092 198.233 475.304 202.022 470.631 202.022C465.958 202.022 462.169 198.233 462.169 193.56Z" fill="white"/>
<path d="M444.036 172.199C444.524 172.686 445.163 172.93 445.802 172.93C446.441 172.93 447.08 172.686 447.568 172.199C448.543 171.223 448.543 169.642 447.568 168.667L445.802 166.901L447.568 165.135C448.543 164.159 448.543 162.578 447.568 161.602C446.592 160.627 445.011 160.627 444.036 161.602L442.27 163.368L440.504 161.602C439.528 160.627 437.947 160.627 436.971 161.602C435.996 162.578 435.996 164.159 436.971 165.135L438.737 166.901L436.971 168.667C435.996 169.642 435.996 171.223 436.971 172.199C437.459 172.686 438.098 172.93 438.737 172.93C439.377 172.93 440.016 172.686 440.503 172.199L442.269 170.433L444.036 172.199Z" fill="black"/>
<path d="M413.178 152.926C413.666 153.414 414.305 153.658 414.944 153.658C415.584 153.658 416.223 153.414 416.71 152.926L418.476 151.16L420.242 152.926C420.73 153.414 421.369 153.658 422.008 153.658C422.648 153.658 423.287 153.414 423.774 152.926C424.75 151.951 424.75 150.37 423.774 149.394L422.008 147.628L423.774 145.862C424.75 144.887 424.75 143.305 423.774 142.33C422.799 141.355 421.218 141.355 420.242 142.33L418.476 144.096L416.71 142.33C415.735 141.355 414.154 141.355 413.178 142.33C412.203 143.305 412.203 144.887 413.178 145.862L414.944 147.628L413.178 149.394C412.203 150.37 412.203 151.951 413.178 152.926Z" fill="black"/>
<path d="M448.594 152.879C449.082 153.366 449.721 153.61 450.36 153.61C451 153.61 451.639 153.366 452.126 152.879L456.012 148.993C456.987 148.018 456.987 146.437 456.012 145.461L452.126 141.576C451.151 140.601 449.57 140.601 448.594 141.576C447.637 142.533 447.622 144.072 448.543 145.051C434.721 146.949 423.251 157.103 419.841 170.792C415.859 171.491 412.822 174.973 412.822 179.153C412.822 183.835 416.631 187.644 421.314 187.644C425.996 187.644 429.805 183.835 429.805 179.153C429.805 175.726 427.765 172.77 424.836 171.429C427.818 160.408 436.948 152.173 448.041 150.186C447.683 151.085 447.866 152.151 448.594 152.879ZM421.314 182.649C419.386 182.649 417.818 181.081 417.818 179.153C417.818 177.225 419.386 175.656 421.314 175.656C423.242 175.656 424.811 177.225 424.811 179.153C424.811 181.081 423.242 182.649 421.314 182.649Z" fill="black"/>
<path d="M470.631 182.6C464.588 182.6 459.672 187.516 459.672 193.559C459.672 199.601 464.588 204.518 470.631 204.518C476.674 204.518 481.59 199.601 481.59 193.559C481.59 187.516 476.674 182.6 470.631 182.6ZM470.631 199.523C467.343 199.523 464.667 196.847 464.667 193.559C464.667 190.27 467.343 187.595 470.631 187.595C473.92 187.595 476.595 190.27 476.595 193.559C476.595 196.847 473.92 199.523 470.631 199.523Z" fill="black"/>
<g filter="url(#filter1_d)">
<rect x="30" y="26" width="407.592" height="333" fill="#1C2124"/>
</g>
<g clip-path="url(#clip0)">
<path d="M309.16 63.2949H182.408C177.734 63.2949 173.948 67.0811 173.948 71.7547V274.578H317.62V71.7547C317.62 67.0811 313.834 63.2949 309.16 63.2949V63.2949Z" fill="#2F4156"/>
<path d="M258.461 84.424H233.107C230.775 84.424 228.881 82.5309 228.881 80.1983C228.881 77.8657 230.775 75.9727 233.107 75.9727H258.461C260.794 75.9727 262.687 77.8657 262.687 80.1983C262.687 82.5309 260.794 84.424 258.461 84.424Z" fill="white"/>
<path d="M307.242 308.384H184.326C178.592 308.384 173.948 303.74 173.948 298.005V257.676H317.62V298.005C317.62 303.74 312.976 308.384 307.242 308.384Z" fill="#D7E6F0"/>
<path d="M245.784 295.705C252.785 295.705 258.461 290.03 258.461 283.029C258.461 276.027 252.785 270.352 245.784 270.352C238.783 270.352 233.107 276.027 233.107 283.029C233.107 290.03 238.783 295.705 245.784 295.705Z" fill="#B8BEC3"/>
<path d="M245.784 181.614L220.43 168.937V135.132L245.784 147.809V181.614Z" fill="#ED8A19"/>
<path d="M271.138 135.131L245.784 147.808L220.43 135.131L245.784 122.454L271.138 135.131Z" fill="#EBBA16"/>
<path d="M245.784 181.614L271.138 168.937V135.132L245.784 147.809V181.614Z" fill="#D37313"/>
<path d="M271.138 228.095L245.784 215.419V181.613L271.138 194.29V228.095Z" fill="#3FEFEF"/>
<path d="M296.492 181.613L271.138 194.29L245.784 181.613L271.138 168.937L296.492 181.613Z" fill="#12A2A8"/>
<path d="M271.138 228.095L296.492 215.419V181.613L271.138 194.29V228.095Z" fill="#1DD1D9"/>
<path d="M220.43 228.095L195.076 215.419V181.613L220.43 194.29V228.095Z" fill="#FC3E81"/>
<path d="M245.784 181.613L220.43 194.29L195.076 181.613L220.43 168.937L245.784 181.613Z" fill="#FD82AC"/>
<path d="M220.43 228.095L245.784 215.419V181.613L220.43 194.29V228.095Z" fill="#F01054"/>
</g>
<defs>
<filter id="filter0_d" x="237.096" y="42.624" width="366.36" height="307.752" filterUnits="userSpaceOnUse" color-interpolation-filters="sRGB">
<feFlood flood-opacity="0" result="BackgroundImageFix"/>
<feColorMatrix in="SourceAlpha" type="matrix" values="0 0 0 0 0 0 0 0 0 0 0 0 0 0 0 0 0 0 127 0"/>
<feOffset dy="4"/>
<feGaussianBlur stdDeviation="15"/>
<feColorMatrix type="matrix" values="0 0 0 0 0 0 0 0 0 0 0 0 0 0 0 0 0 0 0.5 0"/>
<feBlend mode="normal" in2="BackgroundImageFix" result="effect1_dropShadow"/>
<feBlend mode="normal" in="SourceGraphic" in2="effect1_dropShadow" result="shape"/>
</filter>
<filter id="filter1_d" x="0" y="0" width="467.592" height="393" filterUnits="userSpaceOnUse" color-interpolation-filters="sRGB">
<feFlood flood-opacity="0" result="BackgroundImageFix"/>
<feColorMatrix in="SourceAlpha" type="matrix" values="0 0 0 0 0 0 0 0 0 0 0 0 0 0 0 0 0 0 127 0"/>
<feOffset dy="4"/>
<feGaussianBlur stdDeviation="15"/>
<feColorMatrix type="matrix" values="0 0 0 0 0 0 0 0 0 0 0 0 0 0 0 0 0 0 0.5 0"/>
<feBlend mode="normal" in2="BackgroundImageFix" result="effect1_dropShadow"/>
<feBlend mode="normal" in="SourceGraphic" in2="effect1_dropShadow" result="shape"/>
</filter>
<clipPath id="clip0">
<rect width="245.088" height="245.088" fill="white" transform="translate(123.24 63.2949)"/>
</clipPath>
</defs>
</svg>
