<svg width="690" height="447" viewBox="0 0 690 447" fill="none" xmlns="http://www.w3.org/2000/svg">
<g filter="url(#filter0_d)">
<rect x="305" y="76" width="355" height="287" fill="#1C2124"/>
</g>
<path d="M489.135 227.552C484.493 218.214 482.062 207.103 482.062 197.219C482.062 168.421 506.034 146.284 534.752 146.284C562.782 146.284 585.742 169.773 585.742 198.121L595.533 229.999H580.017V244.863C580.017 253.229 573.236 260.01 564.871 260.01H547.127L544.158 277.017H488.577L492.845 259.315C495.423 248.623 494.03 237.401 489.135 227.552Z" fill="#F2BB88"/>
<path d="M495.943 220.282C519.61 220.282 538.797 201.095 538.797 177.428C538.797 153.76 519.61 134.573 495.943 134.573C472.275 134.573 453.088 153.76 453.088 177.428C453.088 201.095 472.275 220.282 495.943 220.282Z" fill="#F5737F"/>
<path d="M480.735 201.902C484.573 201.902 487.684 198.791 487.684 194.954C487.684 191.116 484.573 188.005 480.735 188.005C476.898 188.005 473.787 191.116 473.787 194.954C473.787 198.791 476.898 201.902 480.735 201.902Z" fill="#FFCBBE"/>
<path d="M510.659 216.747V206.557H515.342C515.93 203.943 516.96 201.497 518.35 199.302L515.036 195.987L522.242 188.782L525.556 192.097C527.752 190.707 530.197 189.678 532.811 189.091V184.404H543.001V189.091C545.614 189.678 548.059 190.707 550.255 192.097L553.57 188.782L560.775 195.987L557.461 199.302C558.851 201.497 559.881 203.943 560.469 206.557H565.153V216.747H560.47C559.883 219.361 558.853 221.807 557.463 224.004L560.775 227.316L553.569 234.521L550.258 231.21C548.062 232.6 545.615 233.631 543 234.219V238.899H532.81V234.219C530.196 233.631 527.749 232.6 525.552 231.21L522.241 234.521L515.036 227.316L518.348 224.004C516.958 221.807 515.928 219.361 515.34 216.747H510.659Z" fill="#91DEF5"/>
<path d="M528.096 211.654C528.096 206.237 532.488 201.845 537.905 201.845C543.322 201.845 547.714 206.237 547.714 211.654C547.714 217.071 543.322 221.463 537.905 221.463C532.488 221.463 528.096 217.072 528.096 211.654Z" fill="white"/>
<path d="M507.075 186.893C507.64 187.458 508.381 187.741 509.122 187.741C509.863 187.741 510.604 187.458 511.169 186.893C512.3 185.762 512.3 183.929 511.169 182.798L509.122 180.751L511.169 178.704C512.3 177.573 512.3 175.74 511.169 174.609C510.038 173.479 508.206 173.479 507.074 174.609L505.027 176.656L502.98 174.609C501.849 173.479 500.016 173.479 498.885 174.609C497.755 175.74 497.755 177.573 498.885 178.704L500.933 180.751L498.885 182.798C497.755 183.929 497.755 185.762 498.885 186.893C499.451 187.458 500.192 187.741 500.933 187.741C501.673 187.741 502.414 187.458 502.98 186.893L505.027 184.846L507.075 186.893Z" fill="black"/>
<path d="M471.304 164.551C471.869 165.117 472.61 165.399 473.351 165.399C474.092 165.399 474.833 165.117 475.398 164.551L477.445 162.504L479.492 164.551C480.058 165.117 480.799 165.399 481.54 165.399C482.281 165.399 483.021 165.117 483.587 164.551C484.717 163.421 484.717 161.588 483.587 160.457L481.54 158.41L483.587 156.362C484.717 155.232 484.717 153.399 483.587 152.268C482.456 151.137 480.623 151.137 479.492 152.268L477.445 154.315L475.398 152.268C474.267 151.137 472.434 151.137 471.303 152.268C470.172 153.398 470.172 155.231 471.303 156.362L473.35 158.41L471.303 160.457C470.173 161.588 470.173 163.421 471.304 164.551Z" fill="black"/>
<path d="M512.36 164.496C512.925 165.061 513.666 165.344 514.407 165.344C515.148 165.344 515.889 165.061 516.454 164.496L520.958 159.992C522.088 158.861 522.088 157.028 520.958 155.897L516.454 151.393C515.324 150.263 513.491 150.263 512.359 151.393C511.25 152.502 511.232 154.287 512.3 155.422C496.277 157.622 482.98 169.393 479.028 185.261C474.411 186.072 470.891 190.108 470.891 194.954C470.891 200.382 475.307 204.798 480.735 204.798C486.163 204.798 490.578 200.382 490.578 194.954C490.578 190.982 488.213 187.555 484.817 186C488.274 173.224 498.858 163.677 511.718 161.374C511.303 162.416 511.516 163.652 512.36 164.496ZM480.735 199.007C478.5 199.007 476.682 197.189 476.682 194.954C476.682 192.719 478.5 190.901 480.735 190.901C482.97 190.901 484.789 192.719 484.789 194.954C484.789 197.189 482.97 199.007 480.735 199.007Z" fill="black"/>
<path d="M537.905 198.95C530.9 198.95 525.201 204.649 525.201 211.654C525.201 218.659 530.9 224.358 537.905 224.358C544.91 224.358 550.61 218.659 550.61 211.654C550.61 204.649 544.91 198.95 537.905 198.95ZM537.905 218.568C534.093 218.568 530.992 215.466 530.992 211.654C530.992 207.842 534.093 204.74 537.905 204.74C541.718 204.74 544.819 207.842 544.819 211.654C544.819 215.466 541.718 218.568 537.905 218.568Z" fill="black"/>
<g filter="url(#filter1_d)">
<rect x="30" y="26" width="473" height="387" fill="#1C2124"/>
</g>
<path d="M290.484 155.448L254.866 191.066C253.491 192.303 251.704 192.991 250.053 192.991C248.266 192.991 246.477 192.303 245.102 191.066C242.489 188.315 242.489 183.914 245.102 181.301L280.72 145.683C283.334 143.07 287.734 143.07 290.486 145.683C293.097 148.434 293.097 152.835 290.484 155.448Z" fill="#727272"/>
<path d="M290.485 155.448L267.794 178.139V158.61L280.721 145.683C283.333 143.07 287.735 143.07 290.485 145.683C293.098 148.434 293.098 152.835 290.485 155.448Z" fill="#727272"/>
<path d="M227.98 196.605C226.946 196.605 225.899 196.37 224.91 195.88L194.507 180.677C191.108 178.978 189.731 174.848 191.43 171.451C193.137 168.06 197.266 166.676 200.658 168.375L231.061 183.578C234.46 185.277 235.837 189.406 234.138 192.803C232.929 195.215 230.504 196.605 227.98 196.605Z" fill="#97A1A5"/>
<path d="M306.304 139.494C304.209 139.494 302.148 138.549 300.797 136.742C298.514 133.707 299.132 129.395 302.174 127.119L335.185 102.368C338.213 100.085 342.518 100.689 344.808 103.744C347.091 106.779 346.474 111.091 343.431 113.367L310.42 138.117C309.185 139.045 307.742 139.494 306.304 139.494Z" fill="#727272"/>
<path d="M185.28 147.747C173.865 147.747 164.652 156.96 164.652 168.376C164.652 179.789 173.865 189.004 185.28 189.004C196.696 189.004 205.909 179.789 205.909 168.376C205.909 156.96 196.696 147.747 185.28 147.747Z" fill="#D3D3D3"/>
<path d="M240.289 175.251C228.874 175.251 219.661 184.464 219.661 195.88C219.661 207.294 228.874 216.508 240.289 216.508C251.705 216.508 260.918 207.294 260.918 195.88C260.918 184.464 251.705 175.251 240.289 175.251Z" fill="#C6E2E7"/>
<path d="M295.299 120.242C283.883 120.242 274.67 129.455 274.67 140.871C274.67 152.284 283.883 161.499 295.299 161.499C306.714 161.499 315.927 152.284 315.927 140.871C315.927 129.455 306.714 120.242 295.299 120.242Z" fill="#FDBF00"/>
<path d="M350.308 78.9854C338.892 78.9854 329.679 88.1983 329.679 99.6138C329.679 111.027 338.892 120.242 350.308 120.242C361.723 120.242 370.936 111.027 370.936 99.6138C370.936 88.1983 361.723 78.9854 350.308 78.9854Z" fill="#E63950"/>
<path d="M370.936 154.623V303.789H329.679V154.623C329.679 150.772 332.704 147.747 336.556 147.747H364.06C367.912 147.747 370.936 150.772 370.936 154.623Z" fill="#E63950"/>
<path d="M315.927 195.88V303.789H274.67V195.88C274.67 192.028 277.695 189.004 281.546 189.004H309.051C312.903 189.004 315.927 192.028 315.927 195.88Z" fill="#FDBF00"/>
<path d="M260.918 250.889V303.789H219.661V250.889C219.661 247.037 222.685 244.013 226.537 244.013H254.042C257.893 244.013 260.918 247.037 260.918 250.889Z" fill="#C6E2E7"/>
<path d="M205.909 223.384V303.789H164.652V223.384C164.652 219.533 167.676 216.508 171.528 216.508H199.033C202.884 216.508 205.909 219.533 205.909 223.384Z" fill="#D3D3D3"/>
<path d="M350.308 120.242V78.9854C361.723 78.9854 370.936 88.1983 370.936 99.6138C370.936 111.027 361.723 120.242 350.308 120.242Z" fill="#CC2E43"/>
<path d="M370.936 154.623V303.789H350.308V147.747H364.06C367.912 147.747 370.936 150.772 370.936 154.623Z" fill="#CC2E43"/>
<path d="M295.299 161.499V120.242C306.714 120.242 315.927 129.455 315.927 140.871C315.927 152.284 306.714 161.499 295.299 161.499Z" fill="#FF9F00"/>
<path d="M315.927 195.88V303.789H295.299V189.004H309.051C312.903 189.004 315.927 192.028 315.927 195.88Z" fill="#FF9F00"/>
<path d="M240.29 216.508V175.251C251.705 175.251 260.918 184.464 260.918 195.88C260.918 207.294 251.705 216.508 240.29 216.508Z" fill="#A8D3D8"/>
<path d="M260.918 250.889V303.789H240.29V244.013H254.042C257.894 244.013 260.918 247.037 260.918 250.889Z" fill="#A8D3D8"/>
<path d="M185.28 189.004V147.747C196.696 147.747 205.909 156.96 205.909 168.376C205.909 179.789 196.696 189.004 185.28 189.004Z" fill="#A0A9AD"/>
<path d="M205.909 223.384V303.789H185.28V216.508H199.033C202.884 216.508 205.909 219.533 205.909 223.384Z" fill="#A0A9AD"/>
<path d="M385.147 306.815C385.147 310.665 382.123 313.691 378.271 313.691H157.317C153.466 313.691 150.441 310.665 150.441 306.815C150.441 302.963 153.466 299.939 157.317 299.939H378.271C382.123 299.939 385.147 302.963 385.147 306.815Z" fill="#465A61"/>
<path d="M385.147 306.815C385.147 310.665 382.123 313.691 378.271 313.691H267.794V299.939H378.271C382.123 299.939 385.147 302.963 385.147 306.815Z" fill="#3B4A51"/>
<defs>
<filter id="filter0_d" x="275" y="50" width="415" height="347" filterUnits="userSpaceOnUse" color-interpolation-filters="sRGB">
<feFlood flood-opacity="0" result="BackgroundImageFix"/>
<feColorMatrix in="SourceAlpha" type="matrix" values="0 0 0 0 0 0 0 0 0 0 0 0 0 0 0 0 0 0 127 0"/>
<feOffset dy="4"/>
<feGaussianBlur stdDeviation="15"/>
<feColorMatrix type="matrix" values="0 0 0 0 0 0 0 0 0 0 0 0 0 0 0 0 0 0 0.5 0"/>
<feBlend mode="normal" in2="BackgroundImageFix" result="effect1_dropShadow"/>
<feBlend mode="normal" in="SourceGraphic" in2="effect1_dropShadow" result="shape"/>
</filter>
<filter id="filter1_d" x="0" y="0" width="533" height="447" filterUnits="userSpaceOnUse" color-interpolation-filters="sRGB">
<feFlood flood-opacity="0" result="BackgroundImageFix"/>
<feColorMatrix in="SourceAlpha" type="matrix" values="0 0 0 0 0 0 0 0 0 0 0 0 0 0 0 0 0 0 127 0"/>
<feOffset dy="4"/>
<feGaussianBlur stdDeviation="15"/>
<feColorMatrix type="matrix" values="0 0 0 0 0 0 0 0 0 0 0 0 0 0 0 0 0 0 0.5 0"/>
<feBlend mode="normal" in2="BackgroundImageFix" result="effect1_dropShadow"/>
<feBlend mode="normal" in="SourceGraphic" in2="effect1_dropShadow" result="shape"/>
</filter>
</defs>
</svg>
