<svg width="638" height="413" viewBox="0 0 638 413" fill="none" xmlns="http://www.w3.org/2000/svg">
<g filter="url(#filter0_d)">
<rect x="282" y="71" width="326" height="263" fill="#1C2124"/>
</g>
<path d="M540.178 243.563L509.227 212.612L507.93 213.909C505.782 216.057 502.294 216.057 500.146 213.909C497.998 211.761 497.998 208.273 500.146 206.125L501.443 204.828L493.659 197.044L467.713 222.99L475.497 230.774L476.795 229.477C478.943 227.328 482.43 227.328 484.578 229.477C486.727 231.625 486.727 235.112 484.578 237.261L483.281 238.558L514.232 269.509C515.171 270.44 516.207 271.268 517.322 271.976L542.646 246.653C541.937 245.537 541.109 244.502 540.178 243.563Z" fill="#88B337"/>
<path d="M542.645 246.652L517.321 271.976C525.837 277.445 537.175 274.978 542.645 266.462C546.521 260.43 546.521 252.687 542.645 246.652Z" fill="#DADDDF"/>
<path d="M426.2 145.151L423.605 134.772L405.443 124.394L395.065 134.772L405.443 152.934L415.822 155.529L475.497 215.205L485.876 204.826L426.2 145.151Z" fill="#CFD2D4"/>
<path d="M544.675 146.029L527.389 163.314L511.822 158.125L506.633 142.558L523.918 125.272C508.708 121.391 493.234 130.575 489.353 145.785C488.177 150.395 488.177 155.227 489.353 159.837L430.507 218.683C415.142 214.783 399.525 224.074 395.625 239.439C391.726 254.805 401.017 270.421 416.382 274.321C431.747 278.221 447.364 268.93 451.264 253.564C452.439 248.93 452.439 244.073 451.264 239.44L510.109 180.594C525.329 184.465 540.804 175.265 544.675 160.045C545.845 155.447 545.845 150.629 544.675 146.029ZM431.389 259.314H415.822L408.038 246.341L415.822 233.368H431.389L439.173 246.341L431.389 259.314Z" fill="#DADDDF"/>
<path d="M545.551 256.535C545.548 253.03 544.539 249.6 542.645 246.652L535.173 254.125V273.042C541.514 269.988 545.548 263.574 545.551 256.535Z" fill="#CFD2D4"/>
<path d="M392.812 136.07L403.191 154.232C403.541 154.847 404.127 155.291 404.812 155.462L414.495 157.883L447.706 191.094L451.375 187.425L417.645 153.695C417.313 153.363 416.898 153.127 416.441 153.013L407.137 150.677L398.3 135.206L405.876 127.63L421.355 136.475L423.69 145.779C423.805 146.236 424.041 146.653 424.373 146.986L458.103 180.715L461.771 177.047L428.561 143.836L426.14 134.158C425.968 133.47 425.525 132.884 424.91 132.534L406.748 122.155C405.733 121.579 404.459 121.75 403.634 122.573L393.256 132.951C392.42 133.771 392.239 135.05 392.812 136.07Z" fill="black"/>
<path d="M497.013 169.263L439.932 226.344L443.601 230.013L500.682 172.932L497.013 169.263Z" fill="black"/>
<path d="M433.612 232.032C433.142 231.251 432.299 230.773 431.388 230.773H415.821C414.91 230.773 414.067 231.251 413.597 232.032L405.813 245.005C405.321 245.827 405.321 246.855 405.813 247.678L413.597 260.651C414.067 261.431 414.91 261.909 415.821 261.909H431.388C432.299 261.909 433.142 261.432 433.612 260.651L441.396 247.678C441.889 246.855 441.889 245.827 441.396 245.005L433.612 232.032ZM429.92 256.72H417.289L411.062 246.341L417.289 235.963H429.92L436.147 246.341L429.92 256.72Z" fill="black"/>
<path d="M517.014 184.069C534.151 184.126 548.089 170.281 548.146 153.144C548.154 150.537 547.835 147.937 547.194 145.41C546.849 144.019 545.44 143.173 544.05 143.518C543.593 143.632 543.175 143.869 542.843 144.201L526.692 160.342L513.877 156.071L509.604 143.259L525.755 127.105C526.767 126.091 526.767 124.448 525.753 123.436C525.418 123.102 524.997 122.865 524.538 122.751C507.92 118.543 491.037 128.602 486.828 145.221C486.19 147.742 485.871 150.335 485.879 152.934C485.884 154.976 486.097 157.013 486.509 159.013L429.688 215.835C427.687 215.423 425.651 215.212 423.609 215.205C406.414 215.205 392.474 229.145 392.474 246.34C392.474 263.534 406.414 277.475 423.609 277.475C440.803 277.475 454.744 263.534 454.744 246.34C454.739 244.298 454.526 242.261 454.113 240.261L467.717 226.657L473.666 232.607C474.678 233.618 476.323 233.618 477.335 232.607L478.632 231.309C479.771 230.178 481.608 230.178 482.747 231.309C483.883 232.443 483.886 234.283 482.752 235.419C482.75 235.422 482.75 235.422 482.747 235.425L481.45 236.722C480.438 237.734 480.438 239.379 481.45 240.391L512.401 271.341C520.543 279.556 533.801 279.616 542.015 271.476C550.23 263.334 550.29 250.076 542.15 241.862C542.106 241.817 542.062 241.773 542.015 241.727L511.065 210.776C510.053 209.764 508.408 209.764 507.396 210.776L506.099 212.073C504.959 213.204 503.123 213.204 501.983 212.073C500.847 210.939 500.844 209.099 501.978 207.963C501.981 207.96 501.981 207.96 501.983 207.958L503.281 206.66C504.292 205.649 504.292 204.004 503.281 202.992L497.331 197.042L510.935 183.439C512.935 183.852 514.972 184.062 517.014 184.069ZM527.208 272.286C525.322 272.283 523.454 271.943 521.689 271.279L541.953 251.015C545.012 259.149 540.897 268.222 532.763 271.279C530.986 271.946 529.105 272.288 527.208 272.286ZM497.814 204.852C494.942 208.28 495.391 213.388 498.818 216.261C501.83 218.785 506.22 218.782 509.23 216.253L538.347 245.395C538.663 245.712 538.959 246.046 539.245 246.386L517.061 268.57C516.721 268.285 516.386 267.989 516.07 267.673L486.93 238.53C489.802 235.103 489.353 229.994 485.926 227.122C482.913 224.597 478.523 224.6 475.513 227.129L471.362 222.978L493.663 200.711L497.814 204.852ZM508.291 178.756L449.432 237.604C448.786 238.247 448.527 239.184 448.747 240.068C452.307 254.048 443.859 268.267 429.879 271.826C415.9 275.383 401.681 266.938 398.122 252.958C394.562 238.979 403.01 224.76 416.99 221.2C421.219 220.124 425.65 220.124 429.879 221.2C430.764 221.416 431.698 221.156 432.344 220.515L491.19 161.667C491.833 161.024 492.092 160.087 491.872 159.203C488.336 145.386 496.669 131.321 510.486 127.787C513.096 127.118 515.797 126.864 518.487 127.03L504.801 140.721C504.105 141.417 503.862 142.444 504.173 143.376L509.362 158.943C509.621 159.719 510.229 160.326 511.004 160.583L526.572 165.772C527.503 166.083 528.531 165.842 529.226 165.147L542.913 151.46C542.944 151.956 542.96 152.446 542.96 152.934C543.032 167.191 531.536 178.807 517.278 178.88C515.073 178.89 512.878 178.62 510.742 178.073C509.858 177.852 508.921 178.112 508.278 178.755C508.278 178.756 508.291 178.756 508.291 178.756Z" fill="black"/>
<path d="M500.678 226.343L497.009 230.013L522.954 255.958L526.623 252.289L500.678 226.343Z" fill="black"/>
<g filter="url(#filter1_d)">
<rect x="30" y="26" width="433" height="353" fill="#1C2124"/>
</g>
<path d="M346.579 102.022C346.579 110.82 339.447 117.95 330.651 117.95C321.852 117.95 314.722 110.82 314.722 102.022C314.722 93.2249 321.852 86.0928 330.651 86.0928C339.447 86.0928 346.579 93.2249 346.579 102.022Z" fill="#0E82F8"/>
<path d="M181.371 283.158C181.371 291.955 174.24 299.087 165.442 299.087C156.645 299.087 149.513 291.955 149.513 283.158C149.513 274.36 156.645 267.229 165.442 267.229C174.24 267.229 181.371 274.36 181.371 283.158Z" fill="#0E82F8"/>
<path d="M320.142 176.984C318.244 168.158 314.771 159.917 310.027 152.575L319.564 143.036L297.547 121.037L288.018 130.566C280.676 125.822 272.435 122.349 263.609 120.451V106.975H232.485V120.451C223.657 122.349 215.417 125.822 208.075 130.566L198.545 121.037L176.528 143.036L186.066 152.575C181.321 159.917 177.848 168.158 175.951 176.984H162.437L162.419 208.108H175.951C177.847 216.936 181.319 225.176 186.066 232.518L176.491 242.093L198.492 264.11L208.075 254.527C215.417 259.274 223.657 262.746 232.485 264.642V278.209H263.609V264.642C272.435 262.746 280.676 259.274 288.02 254.527L297.602 264.11L319.601 242.093L310.027 232.518C314.773 225.176 318.246 216.936 320.142 208.108H333.673V176.984H320.142ZM248.046 228.744C228.079 228.744 211.893 212.559 211.893 192.592C211.893 172.624 228.079 156.439 248.046 156.439C268.013 156.439 284.199 172.624 284.199 192.592C284.199 212.559 268.013 228.744 248.046 228.744Z" fill="#D7E6F0"/>
<path d="M227.506 278.208C227.506 280.957 229.736 283.185 232.484 283.185H263.608C266.357 283.185 268.586 280.957 268.586 278.208V268.558C275.131 266.796 281.388 264.202 287.268 260.815L294.081 267.628C295.014 268.561 296.28 269.086 297.602 269.086C298.921 269.086 300.189 268.561 301.122 267.626L323.121 245.611C325.064 243.667 325.064 240.515 323.121 238.573L316.316 231.767C319.703 225.887 322.297 219.63 324.058 213.085H333.672C336.421 213.085 338.649 210.857 338.649 208.107V176.983C338.649 174.233 336.421 172.005 333.672 172.005H324.056C322.295 165.462 319.703 159.205 316.316 153.325L323.084 146.557C324.017 145.623 324.542 144.355 324.542 143.035C324.541 141.715 324.016 140.447 323.082 139.514L301.065 117.515C299.123 115.572 295.971 115.572 294.027 117.517L287.268 124.277C281.388 120.89 275.131 118.296 268.586 116.535V106.974C268.586 104.224 266.357 101.996 263.608 101.996H232.484C229.736 101.996 227.506 104.224 227.506 106.974V116.537C220.963 118.296 214.706 120.89 208.826 124.277L202.065 117.517C200.123 115.574 196.971 115.572 195.026 117.515L173.011 139.516C172.076 140.449 171.551 141.715 171.551 143.035C171.551 144.355 172.076 145.623 173.009 146.557L179.778 153.325C176.391 159.205 173.797 165.46 172.035 172.005H162.44C159.69 172.005 157.462 174.233 157.462 176.981L157.444 208.105C157.442 209.426 157.967 210.693 158.901 211.627C159.834 212.56 161.1 213.085 162.422 213.085H172.035C173.797 219.63 176.391 225.887 179.778 231.767L172.973 238.573C171.03 240.515 171.028 243.667 172.973 245.611L194.972 267.626C195.905 268.56 197.171 269.086 198.491 269.086H198.493C199.813 269.086 201.079 268.561 202.013 267.628L208.824 260.815C214.706 264.202 220.963 266.796 227.506 268.558V278.208ZM210.776 250.346C208.806 249.072 206.214 249.349 204.554 251.007L198.493 257.068L183.531 242.094L189.586 236.037C191.244 234.378 191.52 231.787 190.247 229.817C185.734 222.832 182.56 215.177 180.818 207.061C180.324 204.769 178.298 203.13 175.951 203.13H167.402L167.413 181.961H175.951C178.298 181.961 180.324 180.323 180.818 178.029C182.56 169.915 185.734 162.26 190.247 155.275C191.52 153.306 191.244 150.714 189.586 149.055L183.57 143.037L198.544 128.075L204.554 134.087C206.214 135.745 208.804 136.02 210.776 134.748C217.758 130.235 225.414 127.062 233.53 125.319C235.822 124.826 237.461 122.798 237.461 120.453V111.952H258.63V120.451C258.63 122.798 260.268 124.826 262.562 125.318C270.676 127.062 278.333 130.233 285.316 134.746C287.285 136.02 289.877 135.745 291.536 134.085L297.548 128.075L312.522 143.037L306.506 149.053C304.845 150.714 304.571 153.306 305.845 155.275C310.358 162.26 313.529 169.915 315.273 178.029C315.765 180.323 317.793 181.961 320.14 181.961H328.694V203.13H320.14C317.793 203.13 315.767 204.769 315.273 207.061C313.531 215.175 310.358 222.832 305.845 229.815C304.571 231.787 304.847 234.378 306.506 236.037L312.561 242.092L297.599 257.066L291.538 251.007C289.877 249.347 287.285 249.072 285.316 250.346C278.331 254.859 270.676 258.03 262.562 259.775C260.268 260.268 258.63 262.295 258.63 264.641V273.23H237.461V264.641C237.461 262.297 235.822 260.268 233.53 259.775C225.416 258.032 217.76 254.859 210.776 250.346Z" fill="#0E82F8"/>
<path d="M289.176 192.589C289.176 169.91 270.726 151.459 248.046 151.459C225.366 151.459 206.916 169.91 206.916 192.589C206.916 215.269 225.366 233.72 248.046 233.72C270.726 233.72 289.176 215.269 289.176 192.589ZM216.871 192.589C216.871 175.399 230.855 161.414 248.046 161.414C265.237 161.414 279.221 175.401 279.221 192.589C279.221 209.778 265.237 223.764 248.046 223.764C230.855 223.764 216.871 209.78 216.871 192.589Z" fill="#0E82F8"/>
<path d="M293.881 83.9857C295.191 83.9857 296.474 83.4529 297.4 82.5274C298.326 81.596 298.858 80.3127 298.858 79.0021C298.858 77.6994 298.327 76.4141 297.4 75.4827C296.474 74.5572 295.191 74.0244 293.881 74.0244C292.566 74.0244 291.289 74.5572 290.363 75.4827C289.436 76.4141 288.903 77.6935 288.903 79.0021C288.903 80.3166 289.436 81.596 290.363 82.5274C291.289 83.4529 292.566 83.9857 293.881 83.9857Z" fill="#D7E6F0"/>
<path d="M202.431 301.283C201.122 301.283 199.837 301.816 198.911 302.742C197.986 303.667 197.453 304.952 197.453 306.261C197.453 307.575 197.986 308.855 198.911 309.78C199.837 310.706 201.122 311.239 202.431 311.239C203.739 311.239 205.024 310.706 205.95 309.78C206.876 308.855 207.408 307.57 207.408 306.261C207.408 304.952 206.876 303.667 205.95 302.742C205.024 301.816 203.739 301.283 202.431 301.283Z" fill="#D7E6F0"/>
<defs>
<filter id="filter0_d" x="252" y="45" width="386" height="323" filterUnits="userSpaceOnUse" color-interpolation-filters="sRGB">
<feFlood flood-opacity="0" result="BackgroundImageFix"/>
<feColorMatrix in="SourceAlpha" type="matrix" values="0 0 0 0 0 0 0 0 0 0 0 0 0 0 0 0 0 0 127 0"/>
<feOffset dy="4"/>
<feGaussianBlur stdDeviation="15"/>
<feColorMatrix type="matrix" values="0 0 0 0 0 0 0 0 0 0 0 0 0 0 0 0 0 0 0.5 0"/>
<feBlend mode="normal" in2="BackgroundImageFix" result="effect1_dropShadow"/>
<feBlend mode="normal" in="SourceGraphic" in2="effect1_dropShadow" result="shape"/>
</filter>
<filter id="filter1_d" x="0" y="0" width="493" height="413" filterUnits="userSpaceOnUse" color-interpolation-filters="sRGB">
<feFlood flood-opacity="0" result="BackgroundImageFix"/>
<feColorMatrix in="SourceAlpha" type="matrix" values="0 0 0 0 0 0 0 0 0 0 0 0 0 0 0 0 0 0 127 0"/>
<feOffset dy="4"/>
<feGaussianBlur stdDeviation="15"/>
<feColorMatrix type="matrix" values="0 0 0 0 0 0 0 0 0 0 0 0 0 0 0 0 0 0 0.5 0"/>
<feBlend mode="normal" in2="BackgroundImageFix" result="effect1_dropShadow"/>
<feBlend mode="normal" in="SourceGraphic" in2="effect1_dropShadow" result="shape"/>
</filter>
</defs>
</svg>
