<svg width="41" height="41" viewBox="0 0 41 41" fill="none" xmlns="http://www.w3.org/2000/svg">
<path d="M20.16 0C9.0258 0 0 9.0258 0 20.16C0 31.2942 9.0258 40.32 20.16 40.32C31.2942 40.32 40.32 31.2942 40.32 20.16C40.32 9.0258 31.2942 0 20.16 0ZM15.225 28.5159H11.1426V15.3783H15.225V28.5159ZM13.1586 13.7655C11.8692 13.7655 11.0355 12.852 11.0355 11.7222C11.0355 10.5693 11.8944 9.6831 13.2111 9.6831C14.5278 9.6831 15.3342 10.5693 15.3594 11.7222C15.3594 12.852 14.5278 13.7655 13.1586 13.7655ZM30.135 28.5159H26.0526V21.2352C26.0526 19.5405 25.4604 18.3897 23.9841 18.3897C22.8564 18.3897 22.1865 19.1688 21.8904 19.9185C21.7812 20.1852 21.7539 20.5632 21.7539 20.9391V28.5138H17.6694V19.5678C17.6694 17.9277 17.6169 16.5564 17.5623 15.3762H21.1092L21.2961 17.2011H21.378C21.9156 16.3443 23.2323 15.0801 25.4352 15.0801C28.1211 15.0801 30.135 16.8798 30.135 20.748V28.5159Z" fill="#E8E8E8"/>
</svg>
