<svg width="144" height="76" viewBox="0 0 144 76" fill="none" xmlns="http://www.w3.org/2000/svg">
<path d="M7.938 8.186C7.938 6.842 7.182 6.03 5.404 5.568L3.864 5.162C2.632 4.84 2.254 4.434 2.254 3.65C2.254 2.81 2.982 2.236 4.228 2.236C5.18 2.236 6.104 2.67 6.902 3.51L7.784 2.488C6.846 1.55 5.6 1.032 4.242 1.032C3.248 1.032 2.45 1.284 1.848 1.802C1.246 2.32 0.952 2.964 0.952 3.734C0.952 5.064 1.666 5.89 3.514 6.38L4.83 6.73C5.53 6.912 6.006 7.122 6.244 7.346C6.482 7.57 6.608 7.878 6.608 8.27C6.608 9.292 5.852 9.978 4.55 9.978C3.374 9.978 2.198 9.39 1.428 8.508L0.546 9.53C0.938 9.992 1.498 10.37 2.24 10.692C2.982 11.014 3.752 11.168 4.564 11.168C5.586 11.168 6.398 10.888 7.014 10.328C7.63 9.754 7.938 9.04 7.938 8.186ZM12.742 11.168C14.142 11.168 15.192 10.44 15.822 9.04L14.758 8.494C14.296 9.558 13.652 10.076 12.756 10.076C12.126 10.076 11.608 9.838 11.202 9.376C10.796 8.9 10.6 8.284 10.6 7.542C10.6 6.772 10.796 6.156 11.188 5.666C11.594 5.176 12.098 4.938 12.728 4.938C13.568 4.938 14.184 5.4 14.674 6.366L15.766 5.792C15.192 4.518 14.142 3.832 12.756 3.832C11.762 3.832 10.936 4.182 10.292 4.882C9.66197 5.568 9.33997 6.464 9.33997 7.542C9.33997 8.634 9.64797 9.516 10.278 10.174C10.908 10.832 11.72 11.168 12.742 11.168ZM18.7465 11V8.004C18.7465 6.226 19.5445 5.134 20.7905 5.134C20.9725 5.134 21.1685 5.162 21.2945 5.176L21.4065 4C21.1685 3.958 20.9865 3.944 20.7765 3.944C19.8385 3.944 19.0965 4.504 18.6905 5.526V4H17.5145V11H18.7465ZM22.1368 7.5C22.1368 8.578 22.4588 9.46 23.1168 10.146C23.7748 10.832 24.6288 11.168 25.6648 11.168C26.7008 11.168 27.5548 10.832 28.2128 10.146C28.8708 9.46 29.2068 8.578 29.2068 7.5C29.2068 6.422 28.8708 5.554 28.2128 4.868C27.5548 4.182 26.7008 3.832 25.6648 3.832C24.6288 3.832 23.7748 4.182 23.1168 4.868C22.4588 5.554 22.1368 6.422 22.1368 7.5ZM27.9468 7.5C27.9468 8.242 27.7368 8.858 27.3028 9.348C26.8688 9.838 26.3228 10.076 25.6648 10.076C25.0068 10.076 24.4608 9.838 24.0268 9.348C23.6068 8.858 23.3968 8.242 23.3968 7.5C23.3968 6.758 23.6068 6.142 24.0268 5.652C24.4608 5.162 25.0068 4.924 25.6648 4.924C26.3228 4.924 26.8688 5.162 27.3028 5.652C27.7368 6.142 27.9468 6.758 27.9468 7.5ZM32.309 11V0.78H31.077V11H32.309ZM35.9458 11V0.78H34.7138V11H35.9458ZM43.7076 5.064H45.7376V4H43.7076V3.286C43.7076 2.18 44.0996 1.704 44.9536 1.704C45.1916 1.704 45.4016 1.732 45.8496 1.858L46.0736 0.807999C45.5836 0.654 45.2756 0.611999 44.8976 0.611999C43.3716 0.611999 42.4756 1.634 42.4756 3.202V4H41.2716V5.064H42.4756V11H43.7076V5.064ZM46.5548 7.5C46.5548 8.578 46.8768 9.46 47.5348 10.146C48.1928 10.832 49.0468 11.168 50.0828 11.168C51.1188 11.168 51.9728 10.832 52.6308 10.146C53.2888 9.46 53.6248 8.578 53.6248 7.5C53.6248 6.422 53.2888 5.554 52.6308 4.868C51.9728 4.182 51.1188 3.832 50.0828 3.832C49.0468 3.832 48.1928 4.182 47.5348 4.868C46.8768 5.554 46.5548 6.422 46.5548 7.5ZM52.3648 7.5C52.3648 8.242 52.1548 8.858 51.7208 9.348C51.2868 9.838 50.7408 10.076 50.0828 10.076C49.4248 10.076 48.8788 9.838 48.4448 9.348C48.0248 8.858 47.8148 8.242 47.8148 7.5C47.8148 6.758 48.0248 6.142 48.4448 5.652C48.8788 5.162 49.4248 4.924 50.0828 4.924C50.7408 4.924 51.2868 5.162 51.7208 5.652C52.1548 6.142 52.3648 6.758 52.3648 7.5ZM56.727 11V8.004C56.727 6.226 57.525 5.134 58.771 5.134C58.953 5.134 59.149 5.162 59.275 5.176L59.387 4C59.149 3.958 58.967 3.944 58.757 3.944C57.819 3.944 57.077 4.504 56.671 5.526V4H55.495V11H56.727ZM65.7466 5.064H67.7766V4H65.7466V3.286C65.7466 2.18 66.1386 1.704 66.9926 1.704C67.2306 1.704 67.4406 1.732 67.8886 1.858L68.1126 0.807999C67.6226 0.654 67.3146 0.611999 66.9366 0.611999C65.4106 0.611999 64.5146 1.634 64.5146 3.202V4H63.3106V5.064H64.5146V11H65.7466V5.064ZM69.1509 8.606C69.1509 9.348 69.3889 9.95 69.8509 10.44C70.3129 10.93 70.9429 11.168 71.7129 11.168C72.7209 11.168 73.4909 10.72 73.9949 9.866V11H75.1709V4H73.9389V7.304C73.9389 8.984 73.1969 10.02 71.9509 10.02C70.9009 10.02 70.3829 9.488 70.3829 8.312V4H69.1509V8.606ZM78.8071 11V0.78H77.5751V11H78.8071ZM82.4438 11V0.78H81.2118V11H82.4438ZM92.1936 3.832C91.1296 3.832 90.2756 4.294 89.7296 5.148V4H88.5536V14.052H89.7856V9.95C90.3456 10.748 91.1716 11.168 92.1936 11.168C93.1456 11.168 93.9156 10.818 94.5176 10.132C95.1196 9.432 95.4136 8.536 95.4136 7.444C95.4136 6.366 95.1196 5.498 94.5176 4.84C93.9296 4.168 93.1596 3.832 92.1936 3.832ZM94.1536 7.5C94.1536 9.026 93.2856 10.076 91.9836 10.076C91.3256 10.076 90.7936 9.838 90.3736 9.348C89.9676 8.858 89.7576 8.242 89.7576 7.5C89.7576 6.73 89.9676 6.114 90.3736 5.652C90.7796 5.176 91.3256 4.938 91.9836 4.938C93.2856 4.938 94.1536 5.988 94.1536 7.5ZM96.7579 7.5C96.7579 8.578 97.0799 9.46 97.7379 10.146C98.3959 10.832 99.2499 11.168 100.286 11.168C101.322 11.168 102.176 10.832 102.834 10.146C103.492 9.46 103.828 8.578 103.828 7.5C103.828 6.422 103.492 5.554 102.834 4.868C102.176 4.182 101.322 3.832 100.286 3.832C99.2499 3.832 98.3959 4.182 97.7379 4.868C97.0799 5.554 96.7579 6.422 96.7579 7.5ZM102.568 7.5C102.568 8.242 102.358 8.858 101.924 9.348C101.49 9.838 100.944 10.076 100.286 10.076C99.6279 10.076 99.0819 9.838 98.6479 9.348C98.2279 8.858 98.0179 8.242 98.0179 7.5C98.0179 6.758 98.2279 6.142 98.6479 5.652C99.0819 5.162 99.6279 4.924 100.286 4.924C100.944 4.924 101.49 5.162 101.924 5.652C102.358 6.142 102.568 6.758 102.568 7.5ZM106.93 11V8.004C106.93 6.226 107.728 5.134 108.974 5.134C109.156 5.134 109.352 5.162 109.478 5.176L109.59 4C109.352 3.958 109.17 3.944 108.96 3.944C108.022 3.944 107.28 4.504 106.874 5.526V4H105.698V11H106.93ZM111.353 8.97C111.353 10.412 112.151 11.168 113.663 11.168C114.279 11.168 114.783 10.986 115.273 10.636L114.825 9.712C114.377 9.992 114.111 10.076 113.719 10.076C112.935 10.076 112.585 9.74 112.585 8.858V5.064H114.769V4H112.585V1.2L111.353 1.62V4H110.149V5.064H111.353V8.97ZM118.301 5.064H120.331V4H118.301V3.286C118.301 2.18 118.693 1.704 119.547 1.704C119.785 1.704 119.995 1.732 120.443 1.858L120.667 0.807999C120.177 0.654 119.869 0.611999 119.491 0.611999C117.965 0.611999 117.069 1.634 117.069 3.202V4H115.865V5.064H117.069V11H118.301V5.064ZM121.149 7.5C121.149 8.578 121.471 9.46 122.129 10.146C122.787 10.832 123.641 11.168 124.677 11.168C125.713 11.168 126.567 10.832 127.225 10.146C127.883 9.46 128.219 8.578 128.219 7.5C128.219 6.422 127.883 5.554 127.225 4.868C126.567 4.182 125.713 3.832 124.677 3.832C123.641 3.832 122.787 4.182 122.129 4.868C121.471 5.554 121.149 6.422 121.149 7.5ZM126.959 7.5C126.959 8.242 126.749 8.858 126.315 9.348C125.881 9.838 125.335 10.076 124.677 10.076C124.019 10.076 123.473 9.838 123.039 9.348C122.619 8.858 122.409 8.242 122.409 7.5C122.409 6.758 122.619 6.142 123.039 5.652C123.473 5.162 124.019 4.924 124.677 4.924C125.335 4.924 125.881 5.162 126.315 5.652C126.749 6.142 126.959 6.758 126.959 7.5ZM131.321 11V0.78H130.089V11H131.321ZM135.237 1.508C135.237 1.018 134.831 0.611999 134.341 0.611999C133.851 0.611999 133.459 1.018 133.459 1.508C133.459 1.998 133.851 2.39 134.341 2.39C134.845 2.39 135.237 1.998 135.237 1.508ZM134.957 11V4H133.725V11H134.957ZM136.83 7.5C136.83 8.578 137.152 9.46 137.81 10.146C138.468 10.832 139.322 11.168 140.358 11.168C141.394 11.168 142.248 10.832 142.906 10.146C143.564 9.46 143.9 8.578 143.9 7.5C143.9 6.422 143.564 5.554 142.906 4.868C142.248 4.182 141.394 3.832 140.358 3.832C139.322 3.832 138.468 4.182 137.81 4.868C137.152 5.554 136.83 6.422 136.83 7.5ZM142.64 7.5C142.64 8.242 142.43 8.858 141.996 9.348C141.562 9.838 141.016 10.076 140.358 10.076C139.7 10.076 139.154 9.838 138.72 9.348C138.3 8.858 138.09 8.242 138.09 7.5C138.09 6.758 138.3 6.142 138.72 5.652C139.154 5.162 139.7 4.924 140.358 4.924C141.016 4.924 141.562 5.162 141.996 5.652C142.43 6.142 142.64 6.758 142.64 7.5Z" fill="#F4F4F4"/>
<path d="M72.9001 43L72.9001 60.4" stroke="#0E82F8" stroke-width="2" stroke-linecap="round" stroke-linejoin="round"/>
<path d="M66 55L72.9 61L79.8 55" stroke="#0E82F8" stroke-width="2" stroke-linecap="round"/>
<rect x="58" y="28" width="29" height="47" rx="14.5" stroke="#0E82F8" stroke-width="2"/>
</svg>
