<svg width="68" height="55" viewBox="0 0 68 55" fill="none" xmlns="http://www.w3.org/2000/svg">
<path d="M52.5972 0C44.1687 0 37.3115 5.42857 37.3115 12.1429C37.3115 15.2857 38.8115 18.1429 41.3115 20.2857C40.883 21.6429 40.0972 23.4286 38.883 25C38.0258 26.0714 38.8115 27.6429 40.1687 27.4286C44.6687 26.7857 47.4544 25.3571 49.2401 24C50.3115 24.2143 51.4544 24.2857 52.5972 24.2857C61.0258 24.2857 67.8829 18.8571 67.8829 12.1429C67.8829 5.5 61.0258 0 52.5972 0ZM44.7401 14.4286C43.5258 14.4286 42.5258 13.4286 42.5258 12.2143C42.5258 11 43.5258 10 44.7401 10C45.9544 10 47.0258 11 47.0258 12.2143C47.0258 13.4286 45.9544 14.4286 44.7401 14.4286ZM52.5972 14.4286C51.3829 14.4286 50.383 13.4286 50.383 12.2143C50.383 11 51.3829 10 52.5972 10C53.8115 10 54.883 11 54.883 12.2143C54.883 13.4286 53.8115 14.4286 52.5972 14.4286ZM60.4544 14.4286C59.2401 14.4286 58.1687 13.4286 58.1687 12.2143C58.1687 11 59.1687 10 60.4544 10C61.6687 10 62.6687 11 62.6687 12.2143C62.6687 13.4286 61.6687 14.4286 60.4544 14.4286Z" fill="#046BD3"/>
<path d="M6.52568 17.5H8.38282C9.73996 22 14.0257 25.3571 19.0971 25.3571C24.1685 25.3571 28.4543 22 29.8114 17.5H31.6685C32.0257 17.5 32.3828 17.3571 32.6685 17.0714C32.9543 16.7857 33.0971 16.4286 33.0971 16.0714V11.5C33.0971 10.7143 32.4542 10.0714 31.6685 10.0714H30.3114C30.0257 4.5 25.1685 0 19.1685 0C13.1685 0 8.23996 4.42857 7.95425 10.0714H6.59711C6.02568 10.0714 5.59711 10.3571 5.38282 10.8571C5.31139 11.0714 5.23996 11.2857 5.23996 11.5V16.0714C5.09711 16.8571 5.73996 17.5 6.52568 17.5ZM11.1685 13.5C11.1685 13.5 11.4542 8.85714 11.6685 7C11.74 6.57143 12.1685 6.28571 12.5971 6.35714C14.24 6.71429 16.4542 6.92857 19.0257 6.92857C21.5257 6.92857 23.8114 6.71429 25.4542 6.35714C25.8828 6.28571 26.3114 6.57143 26.3828 7C26.5971 8.92857 26.8828 13.5 26.8828 13.5C26.8828 13.7857 27.0971 14 27.3828 14H27.9542V14.4286C27.9542 14.7857 27.8828 15.2143 27.8114 15.5714L26.8828 16.3571C25.8114 17.2857 24.4542 17.7857 23.0971 17.7857H21.0971C20.9542 17.2857 20.5257 16.9286 19.9542 16.9286H18.1685C17.5257 16.9286 16.9542 17.5 16.9542 18.1429V18.8571C16.9542 19.5 17.5257 20.0714 18.1685 20.0714H19.9542C20.5257 20.0714 20.9542 19.6429 21.0971 19.1429H23.1685C24.6685 19.1429 26.0971 18.6429 27.3114 17.7857C25.9543 20.9286 22.74 23.1429 19.0257 23.1429C14.0971 23.1429 10.0971 19.2857 10.0971 14.5V14.0714H10.6685C10.9542 14 11.1685 13.7857 11.1685 13.5Z" fill="#046BD3"/>
<path d="M33.0971 30.3571C32.1686 27.5714 29.6686 25.7143 26.74 25.7143H25.74L21.4543 37L19.9543 30.5714H20.0971C20.5971 30.5714 21.0257 30.1429 21.0257 29.6429V27.9286C21.0257 27.4286 20.5971 27 20.0971 27H17.8828C17.3828 27 16.9543 27.4286 16.9543 27.9286V29.6429C16.9543 30.1429 17.3828 30.5714 17.8828 30.5714H18.0257L16.5257 37L12.24 25.7143H11.24C8.31141 25.7143 5.81141 27.5714 4.88284 30.3571L0.239985 44.9286C-0.474301 47.0714 0.454271 49.4286 2.38284 50.5714C7.38284 53.5 13.1686 55 19.0257 55C24.9543 55 30.6686 53.4286 35.6686 50.5714C37.5971 49.4286 38.5257 47.0714 37.8114 44.9286L33.0971 30.3571Z" fill="#046BD3"/>
</svg>
