<svg width="53" height="55" viewBox="0 0 53 55" fill="none" xmlns="http://www.w3.org/2000/svg">
<path d="M38.7336 45.7164C38.7336 46.8483 38.3967 48.6537 36.7389 49.9386C31.7158 53.8314 17.056 58.3646 7.09349 47.1801C-5.30567 33.2598 0.834423 15.4012 8.23046 14.7658C9.95259 14.6177 11.4659 15.5192 12.3649 16.833L16.1589 22.3746C17.1544 23.8186 16.727 25.6283 15.9106 26.8868C14.96 28.353 9.81298 31.6486 9.78081 32.3952C9.57624 37.1539 17.8142 44.3915 20.6727 43.7997C20.8712 43.7586 21.7465 43.0826 23.859 40.6547C27.5321 36.4331 30.7992 37.6265 31.5707 38.1684L37.0455 42.0085C37.8977 42.607 38.7336 44.064 38.7336 45.7164ZM53 13.1755C53 20.4407 45.5809 26.351 36.4615 26.351C34.1147 26.351 32.6512 26.1814 30.4999 25.6566L17.504 30.1885C17.4196 30.218 17.3335 30.2322 17.2479 30.2322C16.9978 30.2322 16.7568 30.1111 16.6062 29.896C16.4047 29.6072 16.4156 29.2189 16.6329 28.9423L17.7863 27.4731C19.7755 24.9389 22.0428 21.8227 22.8465 20.4094C20.8797 18.1695 19.9224 15.7982 19.9224 13.1761C19.9224 5.91088 27.3415 0 36.4609 0C45.5803 0 53 5.91026 53 13.1755ZM30.6529 13.2554C30.6529 11.5495 29.2822 10.162 27.5971 10.162C25.912 10.162 24.5413 11.5495 24.5413 13.2554C24.5413 14.9612 25.912 16.3488 27.5971 16.3488C29.2822 16.3488 30.6529 14.9612 30.6529 13.2554ZM39.3054 13.2554C39.3054 11.5495 37.9348 10.162 36.2497 10.162C34.5646 10.162 33.1939 11.5495 33.1939 13.2554C33.1939 14.9612 34.5646 16.3488 36.2497 16.3488C37.9348 16.3488 39.3054 14.9612 39.3054 13.2554ZM47.958 13.2554C47.958 11.5495 46.5874 10.162 44.9022 10.162C43.2171 10.162 41.8465 11.5495 41.8465 13.2554C41.8465 14.9612 43.2171 16.3488 44.9022 16.3488C46.5868 16.3488 47.958 14.9612 47.958 13.2554Z" fill="#046BD3"/>
</svg>
