<svg width="65" height="41" viewBox="0 0 65 41" fill="none" xmlns="http://www.w3.org/2000/svg">
<path fill-rule="evenodd" clip-rule="evenodd" d="M47.002 7.70256C49.4482 7.74519 51.2415 9.0119 52.1266 10.9196C52.1873 11.0501 52.2485 11.1975 52.3011 11.3332C52.3154 11.3706 52.3276 11.4185 52.3404 11.4527L52.4414 11.4143C52.4271 11.3496 52.3949 11.2443 52.3597 11.1354C51.8067 9.4045 50.4196 7.18262 45.1292 7.18262C38.9027 7.18262 31.7145 11.6679 29.2264 16.8285C26.7404 21.9895 29.7723 26.0081 36.0019 25.9975C40.9857 25.9886 45.3226 23.7162 48.6376 20.7465C49.7401 19.7587 50.7293 18.6951 51.5914 17.6116C45.3394 25.1434 36.6044 23.4199 38.2481 15.2297C39.0986 10.9917 43.0177 7.63257 47.002 7.70256Z" fill="#0079B5"/>
<path fill-rule="evenodd" clip-rule="evenodd" d="M53.3517 1.32605C51.909 0.417197 50.0805 0.0319732 48.3184 0.377201C46.9793 0.639806 45.7911 1.29237 45.4294 1.96441C45.4294 1.96441 45.4115 1.99651 45.3998 2.03598L45.5651 2.12123C45.587 2.09176 45.5998 2.06229 45.5998 2.06229C45.9355 1.43867 47.0685 0.826629 48.3552 0.575076C49.4801 0.354572 51.7049 0.337205 53.5583 1.80337C55.7224 3.67423 55.7336 8.04116 53.9098 11.7966C51.8263 16.0872 46.6747 20.1447 42.349 20.1447C38.7549 20.1447 37.7545 17.6912 38.2489 15.2288C38.2484 15.2294 38.2484 15.2299 38.2478 15.231C36.6066 23.4127 45.3228 25.1394 51.5738 17.6333C52.7099 16.2082 53.6282 14.7494 54.2955 13.3869C56.8815 8.10483 56.5142 3.2548 53.3517 1.32605Z" fill="#EF7F1A"/>
<path fill-rule="evenodd" clip-rule="evenodd" d="M59.4371 29.641L59.858 28.5664H58.6219L58.254 29.3795L58.4004 29.641H59.4371Z" fill="white"/>
<path fill-rule="evenodd" clip-rule="evenodd" d="M61.5484 29.641L61.9693 28.5664H60.7327L60.3654 29.3795L60.5118 29.641H61.5484Z" fill="white"/>
<path fill-rule="evenodd" clip-rule="evenodd" d="M62.9921 40.5073H64.7562L60.6836 30.6099H58.172L58.0634 30.8019L58.2613 30.9725C58.4975 31.1761 58.5817 31.5119 58.4715 31.8076L55.2223 40.5073H55.2753H55.2759H57.5058L57.6144 40.3126L57.3471 40.0826C57.0492 39.8258 56.9415 39.4021 57.0793 39.0274L57.4405 38.0438H61.1279L61.2004 37.9144L60.829 36.8808H57.8675L59.7015 31.886L62.9921 40.5073Z" fill="white"/>
<path fill-rule="evenodd" clip-rule="evenodd" d="M46.8068 39.0763V30.6104H44.6198L44.5111 30.8024L44.956 31.1856C45.2024 31.3982 45.3452 31.7129 45.3452 32.0444V40.5078H47.5267L47.6353 40.313L47.1961 39.9352C46.9497 39.7226 46.8068 39.4079 46.8068 39.0763Z" fill="white"/>
<path fill-rule="evenodd" clip-rule="evenodd" d="M41.614 35.0029C41.3309 34.8613 41.0074 34.7718 40.7677 34.656C39.4846 34.0361 38.7714 33.5556 38.7714 32.8299C38.7714 31.9279 39.428 31.4406 40.6014 31.4406C41.46 31.4406 42.5027 31.9379 42.8486 32.1752L43.0971 31.9684V30.6996L43.0491 30.6838C43.0394 30.6807 42.0324 30.356 40.6978 30.356C39.8749 30.356 39.0122 30.5596 38.3898 30.8996C37.5343 31.3685 37.1567 32.0979 37.1567 33.0099C37.1567 34.4266 38.0755 34.8502 38.9658 35.3897C38.9658 35.3897 39.8545 35.8696 40.2218 36.0333C41.1952 36.4659 42.2466 37.0005 42.2466 37.9415C42.2466 38.9109 41.1018 39.6461 40.0698 39.6461C38.9311 39.6461 37.7378 39.0309 37.1777 38.5893L36.9119 38.7946L37.2532 40.2844L37.2873 40.2976C37.2991 40.3018 38.4556 40.7475 39.9422 40.7475C42.5731 40.7475 43.9496 39.0366 43.9496 37.7184C43.9496 36.428 43.0557 35.7223 41.614 35.0029Z" fill="white"/>
<path fill-rule="evenodd" clip-rule="evenodd" d="M50.4613 30.6104H48.2742L48.1655 30.8024L48.6104 31.1856C48.8568 31.3982 48.9996 31.7129 48.9996 32.0444V40.5078H54.1645L54.6165 39.2742H50.4613V30.6104Z" fill="white"/>
<path fill-rule="evenodd" clip-rule="evenodd" d="M27.9267 38.81L26.2269 35.823L26.2662 35.7382C27.7385 35.3972 28.8129 34.1579 28.8129 33.0301C28.8129 31.7576 27.8018 30.6104 25.855 30.6104H21.7681L21.6599 30.8024L22.4649 31.4966V36.1414L23.6689 38.9721H23.8444V31.6539H25.5167C26.6886 31.6539 27.2931 32.5044 27.2931 33.1385C27.2931 34.8341 25.8611 35.2809 24.6898 35.4109L24.678 35.413L24.5745 35.5988L27.1926 40.5078H29.1777L29.2863 40.3136L28.8813 40.031C28.5803 39.8384 28.2711 39.4184 27.9267 38.81Z" fill="white"/>
<path fill-rule="evenodd" clip-rule="evenodd" d="M17.4878 29.641L17.9086 28.5664H16.6725L16.3047 29.3795L16.4511 29.641H17.4878Z" fill="white"/>
<path fill-rule="evenodd" clip-rule="evenodd" d="M19.5991 29.641L20.02 28.5664H18.7833L18.416 29.3795L18.5624 29.641H19.5991Z" fill="white"/>
<path fill-rule="evenodd" clip-rule="evenodd" d="M16.2227 30.6104L16.1141 30.8024L16.312 30.9729C16.5482 31.1761 16.6324 31.5118 16.5217 31.8081L13.2725 40.5072H15.5565L15.6651 40.313L15.3978 40.0831C15.0999 39.8262 14.9922 39.4026 15.1295 39.0279L15.4906 38.0443H19.1786L19.2511 37.9149L18.8797 36.8813H15.9182L17.7522 31.8865L21.0427 40.5072H22.8069L18.7343 30.6104H16.2227Z" fill="white"/>
<path fill-rule="evenodd" clip-rule="evenodd" d="M30.1153 30.6104L29.522 31.6708L29.6128 31.8329H32.3687V40.5078H34.5603L34.669 40.313L34.2201 39.9268C33.9731 39.7142 33.8303 39.3995 33.8303 39.0679V31.8329H36.1347L36.8219 30.6104H36.7183H30.1153Z" fill="white"/>
<path fill-rule="evenodd" clip-rule="evenodd" d="M12.8383 30.6104L12.7296 30.8024L12.9276 30.9729C13.1638 31.1761 13.2479 31.5118 13.1372 31.8081L10.8354 38.2954L8.40802 30.6104H8.40649H6.80918L6.70051 30.8024L6.89896 30.9729C7.13466 31.1761 7.21884 31.5118 7.10813 31.8081L4.77465 38.2033L2.30852 30.6104H0.352561L0.243896 30.8024L0.469899 30.9208C0.823951 31.0561 1.03006 31.4082 1.15811 31.8607L3.92727 40.5072H5.18737L7.75247 33.4237L10.0293 40.5072H11.2869L14.8636 30.6104H12.8383Z" fill="white"/>
</svg>
