<svg width="682" height="441" viewBox="0 0 682 441" fill="none" xmlns="http://www.w3.org/2000/svg">
<g filter="url(#filter0_d)">
<rect x="301" y="75" width="351" height="283" fill="#1C2124"/>
</g>
<path d="M578.997 260.696L545.683 227.382L544.287 228.779C541.974 231.091 538.221 231.091 535.909 228.779C533.596 226.466 533.596 222.713 535.909 220.4L537.305 219.004L528.927 210.626L501 238.553L509.378 246.931L510.774 245.535C513.086 243.223 516.84 243.223 519.152 245.535C521.465 247.847 521.465 251.601 519.152 253.913L517.756 255.31L551.07 288.624C552.081 289.626 553.196 290.517 554.396 291.28L581.653 264.023C580.891 262.822 580 261.707 578.997 260.696Z" fill="#88B337"/>
<path d="M581.652 264.022L554.395 291.279C563.561 297.167 575.765 294.511 581.652 285.345C585.825 278.852 585.825 270.518 581.652 264.022Z" fill="#DADDDF"/>
<path d="M456.316 154.772L453.524 143.601L433.975 132.43L422.804 143.601L433.975 163.15L445.146 165.943L509.378 230.175L520.549 219.004L456.316 154.772Z" fill="#CFD2D4"/>
<path d="M583.837 155.716L565.232 174.321L548.476 168.736L542.89 151.98L561.496 133.375C545.125 129.197 528.469 139.083 524.291 155.453C523.026 160.416 523.026 165.616 524.291 170.579L460.953 233.917C444.414 229.72 427.605 239.721 423.407 256.259C419.21 272.798 429.211 289.607 445.749 293.804C462.287 298.002 479.097 288.001 483.294 271.463C484.559 266.475 484.559 261.247 483.294 256.259L546.633 192.921C563.015 197.087 579.671 187.185 583.837 170.802C585.097 165.854 585.097 160.668 583.837 155.716ZM461.902 277.651H445.146L436.768 263.688L445.146 249.724H461.902L470.28 263.688L461.902 277.651Z" fill="#DADDDF"/>
<path d="M584.781 274.66C584.778 270.887 583.692 267.195 581.653 264.022L573.61 272.065V292.427C580.435 289.14 584.778 282.237 584.781 274.66Z" fill="#CFD2D4"/>
<path d="M420.379 144.996L431.55 164.545C431.927 165.207 432.558 165.685 433.295 165.869L443.718 168.475L479.464 204.221L483.413 200.273L447.108 163.967C446.75 163.609 446.304 163.355 445.812 163.232L435.797 160.719L426.286 144.066L434.44 135.912L451.102 145.432L453.615 155.447C453.738 155.938 453.992 156.388 454.35 156.745L490.655 193.051L494.604 189.102L458.857 153.355L456.251 142.938C456.067 142.198 455.589 141.567 454.928 141.19L435.379 130.019C434.287 129.399 432.916 129.583 432.028 130.468L420.856 141.639C419.957 142.522 419.762 143.899 420.379 144.996Z" fill="black"/>
<path d="M532.536 180.724L471.097 242.163L475.046 246.112L536.485 184.673L532.536 180.724Z" fill="black"/>
<path d="M464.295 248.285C463.789 247.445 462.881 246.931 461.901 246.931H445.145C444.165 246.931 443.257 247.444 442.752 248.285L434.373 262.249C433.843 263.134 433.843 264.24 434.373 265.125L442.752 279.089C443.257 279.93 444.165 280.444 445.145 280.444H461.901C462.882 280.444 463.789 279.93 464.295 279.089L472.673 265.125C473.203 264.24 473.203 263.134 472.673 262.249L464.295 248.285ZM460.321 274.858H446.726L440.023 263.687L446.726 252.516H460.321L467.023 263.687L460.321 274.858Z" fill="black"/>
<path d="M554.064 196.662C572.51 196.724 587.513 181.822 587.574 163.376C587.582 160.569 587.239 157.771 586.549 155.051C586.178 153.554 584.661 152.644 583.164 153.015C582.673 153.138 582.223 153.392 581.866 153.75L564.481 171.123L550.688 166.526L546.088 152.736L563.473 135.349C564.562 134.257 564.562 132.489 563.47 131.4C563.11 131.039 562.658 130.785 562.163 130.662C544.276 126.133 526.104 136.96 521.574 154.847C520.887 157.562 520.544 160.352 520.552 163.15C520.558 165.348 520.787 167.54 521.231 169.693L460.07 230.854C457.917 230.41 455.725 230.183 453.527 230.175C435.02 230.175 420.015 245.18 420.015 263.687C420.015 282.195 435.02 297.2 453.527 297.2C472.034 297.2 487.04 282.195 487.04 263.687C487.034 261.49 486.805 259.297 486.361 257.144L501.003 242.502L507.407 248.906C508.496 249.995 510.266 249.995 511.355 248.906L512.752 247.51C513.978 246.292 515.955 246.292 517.181 247.51C518.404 248.73 518.407 250.71 517.187 251.933C517.184 251.936 517.184 251.936 517.181 251.939L515.785 253.335C514.696 254.424 514.696 256.195 515.785 257.284L549.099 290.598C557.863 299.44 572.133 299.504 580.975 290.743C589.817 281.98 589.881 267.709 581.12 258.867C581.073 258.82 581.025 258.772 580.975 258.722L547.661 225.408C546.572 224.319 544.801 224.319 543.712 225.408L542.316 226.804C541.089 228.022 539.112 228.022 537.886 226.804C536.663 225.584 536.66 223.604 537.881 222.38C537.883 222.378 537.883 222.378 537.886 222.375L539.282 220.978C540.372 219.889 540.372 218.119 539.282 217.03L532.879 210.626L547.521 195.984C549.674 196.428 551.867 196.654 554.064 196.662ZM565.037 291.614C563.007 291.612 560.996 291.246 559.097 290.531L580.908 268.72C584.2 277.475 579.771 287.241 571.016 290.531C569.103 291.249 567.079 291.617 565.037 291.614ZM533.398 219.032C530.307 222.721 530.79 228.22 534.479 231.312C537.722 234.029 542.447 234.026 545.686 231.303L577.026 262.671C577.367 263.012 577.685 263.372 577.992 263.738L554.115 287.616C553.749 287.308 553.388 286.99 553.048 286.649L521.683 255.282C524.774 251.592 524.291 246.093 520.602 243.002C517.36 240.285 512.635 240.288 509.395 243.01L504.927 238.542L528.93 214.575L533.398 219.032ZM544.675 190.943L481.323 254.284C480.627 254.977 480.348 255.985 480.585 256.937C484.417 271.984 475.324 287.289 460.277 291.12C445.229 294.949 429.925 285.859 426.094 270.811C422.262 255.764 431.355 240.46 446.402 236.629C450.955 235.47 455.725 235.47 460.277 236.629C461.229 236.861 462.234 236.581 462.93 235.891L526.268 172.55C526.961 171.857 527.24 170.849 527.003 169.897C523.196 155.026 532.166 139.886 547.038 136.083C549.847 135.362 552.754 135.089 555.65 135.267L540.919 150.004C540.17 150.753 539.908 151.859 540.243 152.862L545.828 169.618C546.107 170.453 546.761 171.106 547.596 171.383L564.352 176.968C565.355 177.303 566.461 177.043 567.209 176.295L581.941 161.563C581.974 162.097 581.991 162.625 581.991 163.15C582.069 178.496 569.695 190.998 554.349 191.077C551.975 191.088 549.613 190.797 547.314 190.208C546.362 189.971 545.354 190.25 544.661 190.943C544.661 190.943 544.675 190.943 544.675 190.943Z" fill="black"/>
<path d="M536.481 242.165L532.532 246.115L560.458 274.041L564.407 270.091L536.481 242.165Z" fill="black"/>
<g filter="url(#filter1_d)">
<rect x="30" y="26" width="466" height="381" fill="#1C2124"/>
</g>
<path d="M370.617 108.348C370.617 117.818 362.94 125.493 353.472 125.493C344.002 125.493 336.327 117.818 336.327 108.348C336.327 98.8794 344.002 91.2026 353.472 91.2026C362.94 91.2026 370.617 98.8794 370.617 108.348Z" fill="#0E82F8"/>
<path d="M192.793 303.316C192.793 312.784 185.118 320.461 175.648 320.461C166.179 320.461 158.503 312.784 158.503 303.316C158.503 293.846 166.179 286.171 175.648 286.171C185.118 286.171 192.793 293.846 192.793 303.316Z" fill="#0E82F8"/>
<path d="M342.16 189.032C340.118 179.533 336.38 170.663 331.273 162.76L341.539 152.492L317.841 128.813L307.584 139.071C299.681 133.964 290.811 130.226 281.311 128.183V113.677H247.81V128.183C238.309 130.226 229.439 133.964 221.536 139.071L211.279 128.813L187.581 152.492L197.847 162.76C192.74 170.663 189.002 179.533 186.959 189.032H172.414L172.395 222.533H186.959C189 232.035 192.738 240.905 197.847 248.807L187.541 259.113L211.222 282.811L221.536 272.497C229.439 277.606 238.309 281.344 247.81 283.384V297.986H281.311V283.384C290.811 281.344 299.681 277.606 307.586 272.497L317.899 282.811L341.578 259.113L331.273 248.807C336.382 240.905 340.12 232.035 342.16 222.533H356.725V189.032H342.16ZM264.56 244.745C243.068 244.745 225.647 227.324 225.647 205.832C225.647 184.34 243.068 166.919 264.56 166.919C286.052 166.919 303.473 184.34 303.473 205.832C303.473 227.324 286.052 244.745 264.56 244.745Z" fill="#D7E6F0"/>
<path d="M175.647 280.814C171.807 280.814 168.115 281.773 164.84 283.572C147.586 261.455 138.116 233.979 138.116 205.832C138.116 136.109 194.837 79.3875 264.56 79.3875C273.036 79.3875 281.508 80.2309 289.742 81.8948C292.638 82.4808 295.468 80.6056 296.054 77.7048C296.64 74.8041 294.765 71.9787 291.864 71.3905C282.933 69.5865 273.748 68.6719 264.56 68.6719C227.924 68.6719 193.479 82.9391 167.573 108.845C141.667 134.751 127.4 169.196 127.4 205.832C127.4 236.65 137.864 266.725 156.916 290.835C154.463 294.499 153.145 298.807 153.145 303.317C153.145 309.328 155.487 314.978 159.737 319.227C163.986 323.478 169.637 325.82 175.647 325.82C181.658 325.82 187.309 323.478 191.56 319.227C195.81 314.978 198.15 309.326 198.15 303.315C198.15 297.306 195.81 291.653 191.56 287.405C187.309 283.154 181.658 280.814 175.647 280.814ZM183.981 311.651C181.757 313.878 178.795 315.104 175.647 315.104C172.5 315.104 169.54 313.878 167.314 311.651C165.087 309.424 163.86 306.465 163.86 303.317C163.86 300.167 165.087 297.208 167.314 294.981C169.538 292.754 172.5 291.53 175.647 291.53C178.795 291.53 181.754 292.756 183.981 294.981C186.208 297.208 187.435 300.167 187.435 303.317C187.435 306.465 186.208 309.424 183.981 311.651Z" fill="#D7E6F0"/>
<path d="M372.199 120.823C378.024 112.085 377.088 100.139 369.384 92.4353C365.134 88.1867 359.483 85.8447 353.472 85.8447C347.461 85.8447 341.81 88.1867 337.56 92.4353C333.309 96.6859 330.969 102.337 330.969 108.348C330.969 114.358 333.309 120.009 337.56 124.26C341.81 128.51 347.461 130.85 353.472 130.85C357.313 130.85 361.004 129.892 364.28 128.092C381.534 150.212 391.004 177.685 391.004 205.833C391.004 275.555 334.282 332.277 264.56 332.277C256.167 332.277 247.775 331.45 239.619 329.818C236.718 329.238 233.894 331.12 233.313 334.02C232.733 336.923 234.614 339.744 237.515 340.326C246.362 342.095 255.462 342.993 264.56 342.993C301.196 342.993 335.641 328.725 361.546 302.819C387.452 276.914 401.72 242.469 401.72 205.833C401.72 175.013 391.253 144.936 372.199 120.823ZM345.138 116.684C342.911 114.457 341.685 111.497 341.685 108.348C341.685 105.2 342.911 102.24 345.138 100.014C347.363 97.7868 350.324 96.5604 353.472 96.5604C356.62 96.5604 359.581 97.7868 361.808 100.014C366.402 104.61 366.402 112.088 361.808 116.684C359.581 118.908 356.62 120.135 353.472 120.135C350.322 120.135 347.363 118.908 345.138 116.684Z" fill="#D7E6F0"/>
<path d="M242.451 297.986C242.451 300.945 244.851 303.344 247.809 303.344H281.31C284.269 303.344 286.667 300.945 286.667 297.986V287.599C293.712 285.703 300.447 282.911 306.776 279.265L314.109 286.599C315.114 287.603 316.476 288.168 317.9 288.168C319.319 288.168 320.683 287.603 321.688 286.597L345.367 262.901C347.458 260.808 347.458 257.415 345.367 255.325L338.042 247.999C341.688 241.671 344.479 234.936 346.376 227.891H356.723C359.682 227.891 362.081 225.492 362.081 222.533V189.032C362.081 186.073 359.682 183.674 356.723 183.674H346.373C344.477 176.632 341.688 169.897 338.042 163.568L345.327 156.282C346.332 155.278 346.897 153.913 346.897 152.492C346.895 151.071 346.33 149.707 345.325 148.702L321.627 125.023C319.536 122.932 316.144 122.932 314.051 125.025L306.776 132.302C300.447 128.656 293.712 125.864 286.667 123.968V113.677C286.667 110.718 284.269 108.32 281.31 108.32H247.809C244.851 108.32 242.451 110.718 242.451 113.677V123.97C235.408 125.864 228.673 128.656 222.344 132.302L215.067 125.025C212.977 122.934 209.584 122.932 207.491 125.023L183.795 148.704C182.789 149.709 182.224 151.071 182.224 152.492C182.224 153.913 182.789 155.278 183.793 156.282L191.079 163.568C187.433 169.897 184.641 176.63 182.745 183.674H172.416C169.457 183.674 167.058 186.073 167.058 189.03L167.04 222.531C167.037 223.952 167.603 225.317 168.607 226.321C169.612 227.326 170.974 227.891 172.397 227.891H182.745C184.641 234.936 187.433 241.671 191.079 247.999L183.753 255.325C181.663 257.415 181.661 260.808 183.753 262.901L207.432 286.597C208.437 287.601 209.8 288.168 211.221 288.168H211.223C212.644 288.168 214.006 287.603 215.011 286.599L222.342 279.265C228.673 282.911 235.408 285.703 242.451 287.599V297.986ZM224.443 267.997C222.323 266.626 219.534 266.923 217.746 268.709L211.223 275.232L195.118 259.115L201.635 252.595C203.42 250.81 203.718 248.02 202.347 245.9C197.489 238.383 194.073 230.143 192.198 221.407C191.667 218.94 189.486 217.175 186.96 217.175H177.757L177.77 194.39H186.96C189.486 194.39 191.667 192.628 192.198 190.158C194.073 181.424 197.489 173.185 202.347 165.667C203.718 163.547 203.42 160.757 201.635 158.972L195.16 152.494L211.277 136.389L217.746 142.861C219.534 144.646 222.321 144.941 224.443 143.572C231.959 138.715 240.199 135.299 248.935 133.424C251.402 132.892 253.166 130.709 253.166 128.185V119.035H275.952V128.183C275.952 130.709 277.714 132.892 280.184 133.422C288.917 135.299 297.159 138.713 304.675 143.57C306.795 144.941 309.585 144.646 311.37 142.859L317.841 136.389L333.958 152.494L327.483 158.97C325.696 160.757 325.401 163.547 326.771 165.667C331.629 173.185 335.043 181.424 336.92 190.158C337.449 192.628 339.632 194.39 342.158 194.39H351.365V217.175H342.158C339.632 217.175 337.451 218.94 336.92 221.407C335.045 230.141 331.629 238.383 326.771 245.898C325.401 248.02 325.698 250.81 327.483 252.595L334 259.113L317.895 275.23L311.372 268.709C309.585 266.921 306.795 266.626 304.675 267.997C297.157 272.855 288.917 276.268 280.184 278.145C277.714 278.677 275.952 280.858 275.952 283.384V292.628H253.166V283.384C253.166 280.86 251.402 278.677 248.935 278.145C240.201 276.27 231.961 272.855 224.443 267.997Z" fill="#0E82F8"/>
<path d="M308.831 205.831C308.831 181.42 288.971 161.56 264.56 161.56C240.148 161.56 220.289 181.42 220.289 205.831C220.289 230.243 240.148 250.102 264.56 250.102C288.971 250.102 308.831 230.243 308.831 205.831ZM231.004 205.831C231.004 187.328 246.057 172.276 264.56 172.276C283.063 172.276 298.115 187.33 298.115 205.831C298.115 224.333 283.063 239.387 264.56 239.387C246.057 239.387 231.004 224.335 231.004 205.831Z" fill="#0E82F8"/>
<path d="M313.893 88.9348C315.304 88.9348 316.685 88.3613 317.682 87.3651C318.678 86.3626 319.251 84.9813 319.251 83.5707C319.251 82.1685 318.68 80.7851 317.682 79.7826C316.685 78.7863 315.304 78.2129 313.893 78.2129C312.479 78.2129 311.104 78.7863 310.107 79.7826C309.109 80.7851 308.536 82.1622 308.536 83.5707C308.536 84.9855 309.109 86.3626 310.107 87.3651C311.104 88.3613 312.479 88.9348 313.893 88.9348Z" fill="#D7E6F0"/>
<path d="M215.461 322.825C214.052 322.825 212.669 323.398 211.673 324.395C210.676 325.391 210.103 326.774 210.103 328.183C210.103 329.598 210.676 330.975 211.673 331.971C212.669 332.967 214.052 333.541 215.461 333.541C216.869 333.541 218.253 332.967 219.249 331.971C220.245 330.975 220.819 329.591 220.819 328.183C220.819 326.774 220.245 325.391 219.249 324.395C218.253 323.398 216.869 322.825 215.461 322.825Z" fill="#D7E6F0"/>
<defs>
<filter id="filter0_d" x="271" y="49" width="411" height="343" filterUnits="userSpaceOnUse" color-interpolation-filters="sRGB">
<feFlood flood-opacity="0" result="BackgroundImageFix"/>
<feColorMatrix in="SourceAlpha" type="matrix" values="0 0 0 0 0 0 0 0 0 0 0 0 0 0 0 0 0 0 127 0"/>
<feOffset dy="4"/>
<feGaussianBlur stdDeviation="15"/>
<feColorMatrix type="matrix" values="0 0 0 0 0 0 0 0 0 0 0 0 0 0 0 0 0 0 0.5 0"/>
<feBlend mode="normal" in2="BackgroundImageFix" result="effect1_dropShadow"/>
<feBlend mode="normal" in="SourceGraphic" in2="effect1_dropShadow" result="shape"/>
</filter>
<filter id="filter1_d" x="0" y="0" width="526" height="441" filterUnits="userSpaceOnUse" color-interpolation-filters="sRGB">
<feFlood flood-opacity="0" result="BackgroundImageFix"/>
<feColorMatrix in="SourceAlpha" type="matrix" values="0 0 0 0 0 0 0 0 0 0 0 0 0 0 0 0 0 0 127 0"/>
<feOffset dy="4"/>
<feGaussianBlur stdDeviation="15"/>
<feColorMatrix type="matrix" values="0 0 0 0 0 0 0 0 0 0 0 0 0 0 0 0 0 0 0.5 0"/>
<feBlend mode="normal" in2="BackgroundImageFix" result="effect1_dropShadow"/>
<feBlend mode="normal" in="SourceGraphic" in2="effect1_dropShadow" result="shape"/>
</filter>
</defs>
</svg>
