<svg width="714" height="461" viewBox="0 0 714 461" fill="none" xmlns="http://www.w3.org/2000/svg">
<g filter="url(#filter0_d)">
<rect x="315" y="78" width="369" height="297" fill="#1C2124"/>
</g>
<path d="M506.626 234.86C501.807 225.166 499.283 213.632 499.283 203.371C499.283 173.476 524.169 150.496 553.981 150.496C583.078 150.496 606.913 174.88 606.913 204.307L617.077 237.4H600.97V252.831C600.97 261.515 593.931 268.554 585.247 268.554H566.827L563.745 286.209H506.046L510.478 267.833C513.154 256.733 511.708 245.084 506.626 234.86Z" fill="#F2BB88"/>
<path d="M513.693 227.312C538.262 227.312 558.18 207.394 558.18 182.825C558.18 158.256 538.262 138.338 513.693 138.338C489.123 138.338 469.206 158.256 469.206 182.825C469.206 207.394 489.123 227.312 513.693 227.312Z" fill="#F5737F"/>
<path d="M497.906 208.232C501.889 208.232 505.119 205.003 505.119 201.019C505.119 197.035 501.889 193.806 497.906 193.806C493.922 193.806 490.692 197.035 490.692 201.019C490.692 205.003 493.922 208.232 497.906 208.232Z" fill="#FFCBBE"/>
<path d="M528.969 223.641V213.063H533.831C534.442 210.35 535.511 207.811 536.954 205.532L533.514 202.092L540.993 194.612L544.434 198.053C546.714 196.61 549.252 195.542 551.965 194.932V190.067H562.543V194.932C565.256 195.542 567.794 196.61 570.074 198.053L573.515 194.612L580.995 202.092L577.554 205.532C578.997 207.811 580.067 210.35 580.677 213.063H585.539V223.641H580.679C580.069 226.355 579 228.895 577.557 231.175L580.994 234.613L573.515 242.093L570.077 238.656C567.797 240.099 565.257 241.169 562.543 241.779V246.638H551.965V241.779C549.25 241.169 546.71 240.099 544.43 238.656L540.993 242.093L533.513 234.613L536.951 231.175C535.508 228.895 534.439 226.355 533.829 223.641H528.969Z" fill="#91DEF5"/>
<path d="M547.071 218.356C547.071 212.732 551.63 208.173 557.254 208.173C562.878 208.173 567.437 212.732 567.437 218.356C567.437 223.979 562.878 228.538 557.254 228.538C551.63 228.538 547.071 223.98 547.071 218.356Z" fill="white"/>
<path d="M525.25 192.651C525.837 193.238 526.606 193.532 527.375 193.532C528.145 193.532 528.914 193.238 529.501 192.651C530.674 191.478 530.674 189.575 529.501 188.401L527.375 186.275L529.501 184.15C530.674 182.977 530.674 181.073 529.501 179.9C528.327 178.726 526.424 178.726 525.25 179.9L523.125 182.025L521 179.9C519.826 178.726 517.923 178.726 516.749 179.9C515.575 181.073 515.575 182.976 516.749 184.15L518.874 186.275L516.749 188.401C515.575 189.574 515.575 191.477 516.749 192.651C517.336 193.238 518.105 193.532 518.874 193.532C519.643 193.532 520.412 193.238 520.999 192.651L523.124 190.526L525.25 192.651Z" fill="black"/>
<path d="M488.116 169.459C488.703 170.046 489.472 170.339 490.241 170.339C491.01 170.339 491.779 170.046 492.366 169.459L494.491 167.334L496.616 169.459C497.203 170.046 497.973 170.339 498.742 170.339C499.511 170.339 500.28 170.046 500.867 169.459C502.041 168.285 502.041 166.382 500.867 165.208L498.742 163.083L500.867 160.958C502.041 159.784 502.041 157.881 500.867 156.707C499.693 155.534 497.79 155.534 496.616 156.707L494.491 158.832L492.366 156.707C491.192 155.534 489.289 155.534 488.115 156.707C486.941 157.881 486.941 159.784 488.115 160.958L490.24 163.083L488.115 165.208C486.942 166.382 486.942 168.285 488.116 169.459Z" fill="black"/>
<path d="M530.736 169.401C531.323 169.988 532.092 170.281 532.861 170.281C533.63 170.281 534.399 169.988 534.986 169.401L539.661 164.725C540.835 163.552 540.835 161.649 539.661 160.475L534.986 155.799C533.812 154.626 531.91 154.626 530.735 155.799C529.584 156.951 529.565 158.803 530.673 159.981C514.04 162.265 500.237 174.484 496.134 190.958C491.341 191.799 487.687 195.989 487.687 201.019C487.687 206.654 492.271 211.238 497.906 211.238C503.541 211.238 508.125 206.654 508.125 201.019C508.125 196.896 505.669 193.338 502.144 191.725C505.732 178.462 516.72 168.551 530.069 166.16C529.638 167.242 529.859 168.525 530.736 169.401ZM497.906 205.227C495.586 205.227 493.699 203.34 493.699 201.019C493.699 198.699 495.586 196.812 497.906 196.812C500.227 196.812 502.114 198.699 502.114 201.019C502.114 203.34 500.227 205.227 497.906 205.227Z" fill="black"/>
<path d="M557.254 205.168C549.982 205.168 544.066 211.084 544.066 218.356C544.066 225.628 549.982 231.544 557.254 231.544C564.526 231.544 570.442 225.628 570.442 218.356C570.442 211.084 564.526 205.168 557.254 205.168ZM557.254 225.533C553.297 225.533 550.077 222.313 550.077 218.356C550.077 214.399 553.297 211.179 557.254 211.179C561.211 211.179 564.431 214.399 564.431 218.356C564.431 222.313 561.211 225.533 557.254 225.533Z" fill="black"/>
<g filter="url(#filter1_d)">
<rect x="30" y="26" width="490" height="401" fill="#1C2124"/>
</g>
<path d="M311.886 166.275L271.992 206.169C270.451 207.555 268.45 208.325 266.601 208.325C264.599 208.325 262.595 207.555 261.055 206.169C258.129 203.088 258.129 198.158 261.055 195.232L300.949 155.338C303.877 152.412 308.805 152.412 311.888 155.338C314.812 158.419 314.812 163.348 311.886 166.275Z" fill="#727272"/>
<path d="M311.886 166.275L286.47 191.69V169.817L300.949 155.338C303.875 152.412 308.805 152.412 311.886 155.338C314.812 158.419 314.812 163.348 311.886 166.275Z" fill="#727272"/>
<path d="M241.877 212.372C240.72 212.372 239.546 212.11 238.439 211.56L204.386 194.532C200.579 192.629 199.037 188.004 200.94 184.199C202.851 180.401 207.476 178.85 211.275 180.754L245.329 197.781C249.135 199.685 250.678 204.31 248.774 208.114C247.42 210.816 244.705 212.372 241.877 212.372Z" fill="#97A1A5"/>
<path d="M329.604 148.405C327.257 148.405 324.949 147.346 323.437 145.322C320.88 141.923 321.571 137.093 324.979 134.544L361.953 106.822C365.344 104.265 370.166 104.941 372.731 108.362C375.288 111.762 374.596 116.591 371.189 119.141L334.215 146.862C332.831 147.901 331.215 148.405 329.604 148.405Z" fill="#727272"/>
<path d="M194.051 157.649C181.265 157.649 170.946 167.968 170.946 180.754C170.946 193.537 181.265 203.858 194.051 203.858C206.837 203.858 217.156 193.537 217.156 180.754C217.156 167.968 206.837 157.649 194.051 157.649Z" fill="#D3D3D3"/>
<path d="M255.664 188.455C242.878 188.455 232.559 198.774 232.559 211.56C232.559 224.344 242.878 234.665 255.664 234.665C268.45 234.665 278.769 224.344 278.769 211.56C278.769 198.774 268.45 188.455 255.664 188.455Z" fill="#C6E2E7"/>
<path d="M317.277 126.842C304.491 126.842 294.172 137.161 294.172 149.947C294.172 162.731 304.491 173.052 317.277 173.052C330.063 173.052 340.382 162.731 340.382 149.947C340.382 137.161 330.063 126.842 317.277 126.842Z" fill="#FDBF00"/>
<path d="M378.89 80.6323C366.104 80.6323 355.785 90.9513 355.785 103.737C355.785 116.521 366.104 126.842 378.89 126.842C391.676 126.842 401.995 116.521 401.995 103.737C401.995 90.9513 391.676 80.6323 378.89 80.6323Z" fill="#E63950"/>
<path d="M401.995 165.35V332.424H355.785V165.35C355.785 161.036 359.173 157.649 363.487 157.649H394.293C398.607 157.649 401.995 161.036 401.995 165.35Z" fill="#E63950"/>
<path d="M340.382 211.56V332.423H294.172V211.56C294.172 207.246 297.559 203.858 301.874 203.858H332.68C336.994 203.858 340.382 207.246 340.382 211.56Z" fill="#FDBF00"/>
<path d="M278.769 273.173V332.423H232.559V273.173C232.559 268.859 235.947 265.471 240.261 265.471H271.067C275.381 265.471 278.769 268.859 278.769 273.173Z" fill="#C6E2E7"/>
<path d="M217.156 242.367V332.424H170.946V242.367C170.946 238.053 174.333 234.665 178.647 234.665H209.454C213.768 234.665 217.156 238.053 217.156 242.367Z" fill="#D3D3D3"/>
<path d="M378.89 126.842V80.6323C391.676 80.6323 401.995 90.9513 401.995 103.737C401.995 116.521 391.676 126.842 378.89 126.842Z" fill="#CC2E43"/>
<path d="M401.995 165.35V332.424H378.89V157.649H394.293C398.608 157.649 401.995 161.036 401.995 165.35Z" fill="#CC2E43"/>
<path d="M317.277 173.052V126.842C330.063 126.842 340.382 137.161 340.382 149.947C340.382 162.731 330.063 173.052 317.277 173.052Z" fill="#FF9F00"/>
<path d="M340.382 211.56V332.423H317.277V203.858H332.681C336.995 203.858 340.382 207.246 340.382 211.56Z" fill="#FF9F00"/>
<path d="M255.664 234.665V188.455C268.449 188.455 278.768 198.774 278.768 211.56C278.768 224.344 268.449 234.665 255.664 234.665Z" fill="#A8D3D8"/>
<path d="M278.768 273.173V332.423H255.664V265.471H271.067C275.381 265.471 278.768 268.859 278.768 273.173Z" fill="#A8D3D8"/>
<path d="M194.051 203.858V157.649C206.837 157.649 217.156 167.968 217.156 180.754C217.156 193.537 206.837 203.858 194.051 203.858Z" fill="#A0A9AD"/>
<path d="M217.156 242.367V332.424H194.051V234.665H209.454C213.768 234.665 217.156 238.053 217.156 242.367Z" fill="#A0A9AD"/>
<path d="M417.912 335.813C417.912 340.125 414.524 343.515 410.21 343.515H162.731C158.417 343.515 155.029 340.125 155.029 335.813C155.029 331.499 158.417 328.112 162.731 328.112H410.21C414.524 328.112 417.912 331.499 417.912 335.813Z" fill="#465A61"/>
<path d="M417.911 335.813C417.911 340.125 414.524 343.515 410.21 343.515H286.47V328.112H410.21C414.524 328.112 417.911 331.499 417.911 335.813Z" fill="#3B4A51"/>
<defs>
<filter id="filter0_d" x="285" y="52" width="429" height="357" filterUnits="userSpaceOnUse" color-interpolation-filters="sRGB">
<feFlood flood-opacity="0" result="BackgroundImageFix"/>
<feColorMatrix in="SourceAlpha" type="matrix" values="0 0 0 0 0 0 0 0 0 0 0 0 0 0 0 0 0 0 127 0"/>
<feOffset dy="4"/>
<feGaussianBlur stdDeviation="15"/>
<feColorMatrix type="matrix" values="0 0 0 0 0 0 0 0 0 0 0 0 0 0 0 0 0 0 0.5 0"/>
<feBlend mode="normal" in2="BackgroundImageFix" result="effect1_dropShadow"/>
<feBlend mode="normal" in="SourceGraphic" in2="effect1_dropShadow" result="shape"/>
</filter>
<filter id="filter1_d" x="0" y="0" width="550" height="461" filterUnits="userSpaceOnUse" color-interpolation-filters="sRGB">
<feFlood flood-opacity="0" result="BackgroundImageFix"/>
<feColorMatrix in="SourceAlpha" type="matrix" values="0 0 0 0 0 0 0 0 0 0 0 0 0 0 0 0 0 0 127 0"/>
<feOffset dy="4"/>
<feGaussianBlur stdDeviation="15"/>
<feColorMatrix type="matrix" values="0 0 0 0 0 0 0 0 0 0 0 0 0 0 0 0 0 0 0.5 0"/>
<feBlend mode="normal" in2="BackgroundImageFix" result="effect1_dropShadow"/>
<feBlend mode="normal" in="SourceGraphic" in2="effect1_dropShadow" result="shape"/>
</filter>
</defs>
</svg>
