<svg width="676" height="437" viewBox="0 0 676 437" fill="none" xmlns="http://www.w3.org/2000/svg">
<g filter="url(#filter0_d)">
<rect x="298.792" y="74.2561" width="346.84" height="280.488" fill="#1C2124"/>
</g>
<path d="M481.591 231.225C477.058 222.105 474.683 211.254 474.683 201.601C474.683 173.476 498.095 151.857 526.141 151.857C553.515 151.857 575.938 174.797 575.938 202.481L585.5 233.614H570.348V248.131C570.348 256.3 563.725 262.923 555.555 262.923H538.226L535.327 279.532H481.046L485.214 262.245C487.732 251.802 486.372 240.843 481.591 231.225Z" fill="#F2BB88"/>
<path d="M488.24 224.123C511.354 224.123 530.092 205.386 530.092 182.271C530.092 159.157 511.354 140.419 488.24 140.419C465.125 140.419 446.388 159.157 446.388 182.271C446.388 205.386 465.125 224.123 488.24 224.123Z" fill="#F5737F"/>
<path d="M473.387 206.174C477.135 206.174 480.173 203.135 480.173 199.388C480.173 195.64 477.135 192.602 473.387 192.602C469.639 192.602 466.601 195.64 466.601 199.388C466.601 203.135 469.639 206.174 473.387 206.174Z" fill="#FFCBBE"/>
<path d="M502.61 220.671V210.719H507.184C507.759 208.167 508.765 205.778 510.122 203.634L506.886 200.397L513.922 193.36L517.16 196.598C519.304 195.241 521.692 194.235 524.244 193.662V189.085H534.196V193.662C536.748 194.235 539.136 195.241 541.28 196.598L544.518 193.36L551.554 200.397L548.318 203.634C549.675 205.778 550.681 208.167 551.256 210.719H555.83V220.671H551.257C550.683 223.224 549.677 225.613 548.32 227.758L551.554 230.992L544.517 238.029L541.284 234.796C539.139 236.154 536.749 237.16 534.196 237.734V242.305H524.244V237.734C521.69 237.16 519.301 236.154 517.156 234.796L513.922 238.029L506.885 230.992L510.119 227.758C508.762 225.613 507.756 223.224 507.182 220.671H502.61Z" fill="#91DEF5"/>
<path d="M519.64 215.698C519.64 210.407 523.929 206.118 529.22 206.118C534.51 206.118 538.799 210.407 538.799 215.698C538.799 220.988 534.51 225.278 529.22 225.278C523.929 225.278 519.64 220.989 519.64 215.698Z" fill="white"/>
<path d="M499.112 191.516C499.664 192.068 500.388 192.344 501.111 192.344C501.835 192.344 502.559 192.068 503.111 191.516C504.215 190.412 504.215 188.622 503.111 187.517L501.111 185.518L503.111 183.518C504.215 182.414 504.215 180.624 503.111 179.52C502.006 178.416 500.217 178.416 499.112 179.52L497.112 181.519L495.113 179.52C494.009 178.416 492.219 178.416 491.114 179.52C490.01 180.624 490.01 182.414 491.114 183.518L493.114 185.518L491.114 187.517C490.01 188.621 490.01 190.412 491.114 191.516C491.666 192.068 492.39 192.344 493.114 192.344C493.837 192.344 494.561 192.068 495.113 191.516L497.112 189.517L499.112 191.516Z" fill="black"/>
<path d="M464.177 169.697C464.729 170.249 465.453 170.525 466.176 170.525C466.9 170.525 467.623 170.249 468.175 169.697L470.175 167.698L472.174 169.697C472.726 170.249 473.45 170.525 474.173 170.525C474.897 170.525 475.621 170.249 476.173 169.697C477.277 168.593 477.277 166.803 476.173 165.698L474.173 163.699L476.173 161.7C477.277 160.595 477.277 158.805 476.173 157.701C475.068 156.597 473.279 156.597 472.174 157.701L470.175 159.7L468.175 157.701C467.071 156.597 465.281 156.597 464.176 157.701C463.072 158.805 463.072 160.595 464.176 161.7L466.176 163.699L464.176 165.698C463.073 166.803 463.073 168.593 464.177 169.697Z" fill="black"/>
<path d="M504.272 169.642C504.824 170.194 505.548 170.471 506.272 170.471C506.995 170.471 507.719 170.194 508.271 169.642L512.669 165.244C513.774 164.14 513.774 162.35 512.669 161.245L508.271 156.846C507.167 155.743 505.377 155.742 504.272 156.846C503.188 157.93 503.171 159.672 504.214 160.781C488.566 162.929 475.58 174.425 471.72 189.922C467.211 190.714 463.773 194.656 463.773 199.388C463.773 204.689 468.086 209.002 473.387 209.002C478.688 209.002 483 204.689 483 199.388C483 195.509 480.69 192.162 477.374 190.644C480.75 178.167 491.087 168.843 503.645 166.594C503.24 167.612 503.448 168.818 504.272 169.642ZM473.388 203.347C471.205 203.347 469.429 201.571 469.429 199.388C469.429 197.206 471.205 195.43 473.388 195.43C475.57 195.43 477.346 197.206 477.346 199.388C477.346 201.571 475.57 203.347 473.388 203.347Z" fill="black"/>
<path d="M529.22 203.291C522.379 203.291 516.813 208.857 516.813 215.698C516.813 222.539 522.379 228.105 529.22 228.105C536.061 228.105 541.627 222.539 541.627 215.698C541.627 208.857 536.061 203.291 529.22 203.291ZM529.22 222.45C525.497 222.45 522.468 219.421 522.468 215.698C522.468 211.975 525.497 208.946 529.22 208.946C532.943 208.946 535.972 211.975 535.972 215.698C535.972 219.421 532.943 222.45 529.22 222.45Z" fill="black"/>
<g filter="url(#filter1_d)">
<rect x="30.3682" y="26" width="461.448" height="377" fill="#1C2124"/>
</g>
<g clip-path="url(#clip0)">
<path d="M346.415 68.2241H202.914C197.623 68.2241 193.336 72.5106 193.336 77.8017V307.424H355.992V77.8017C355.992 72.5106 351.706 68.2241 346.415 68.2241V68.2241Z" fill="#2F4156"/>
<path d="M289.016 92.1439H260.312C257.672 92.1439 255.528 90.0007 255.528 87.3599C255.528 84.7192 257.672 82.5759 260.312 82.5759H289.016C291.657 82.5759 293.8 84.7192 293.8 87.3599C293.8 90.0007 291.657 92.1439 289.016 92.1439Z" fill="white"/>
<path d="M344.243 345.696H205.086C198.594 345.696 193.336 340.439 193.336 333.947V288.288H355.992V333.947C355.992 340.439 350.735 345.696 344.243 345.696Z" fill="#EAEFF0"/>
<path d="M274.664 331.344C282.59 331.344 289.016 324.919 289.016 316.992C289.016 309.066 282.59 302.64 274.664 302.64C266.738 302.64 260.312 309.066 260.312 316.992C260.312 324.919 266.738 331.344 274.664 331.344Z" fill="#B8BEC3"/>
<path d="M274.664 202.176L245.96 187.824V149.552L274.664 163.904V202.176Z" fill="#ED8A19"/>
<path d="M303.368 149.552L274.664 163.904L245.96 149.552L274.664 135.2L303.368 149.552Z" fill="#EBBA16"/>
<path d="M274.664 202.176L303.368 187.824V149.552L274.664 163.904V202.176Z" fill="#D37313"/>
<path d="M303.368 254.8L274.664 240.448V202.176L303.368 216.528V254.8Z" fill="#3FEFEF"/>
<path d="M332.072 202.176L303.368 216.528L274.664 202.176L303.368 187.824L332.072 202.176Z" fill="#12A2A8"/>
<path d="M303.368 254.8L332.072 240.448V202.176L303.368 216.528V254.8Z" fill="#1DD1D9"/>
<path d="M245.961 254.8L217.257 240.448V202.176L245.961 216.528V254.8Z" fill="#FC3E81"/>
<path d="M274.665 202.176L245.961 216.528L217.257 202.176L245.961 187.824L274.665 202.176Z" fill="#FD82AC"/>
<path d="M245.96 254.8L274.664 240.448V202.176L245.96 216.528V254.8Z" fill="#F01054"/>
</g>
<defs>
<filter id="filter0_d" x="268.792" y="48.2561" width="406.84" height="340.488" filterUnits="userSpaceOnUse" color-interpolation-filters="sRGB">
<feFlood flood-opacity="0" result="BackgroundImageFix"/>
<feColorMatrix in="SourceAlpha" type="matrix" values="0 0 0 0 0 0 0 0 0 0 0 0 0 0 0 0 0 0 127 0"/>
<feOffset dy="4"/>
<feGaussianBlur stdDeviation="15"/>
<feColorMatrix type="matrix" values="0 0 0 0 0 0 0 0 0 0 0 0 0 0 0 0 0 0 0.5 0"/>
<feBlend mode="normal" in2="BackgroundImageFix" result="effect1_dropShadow"/>
<feBlend mode="normal" in="SourceGraphic" in2="effect1_dropShadow" result="shape"/>
</filter>
<filter id="filter1_d" x="0.368164" y="0" width="521.448" height="437" filterUnits="userSpaceOnUse" color-interpolation-filters="sRGB">
<feFlood flood-opacity="0" result="BackgroundImageFix"/>
<feColorMatrix in="SourceAlpha" type="matrix" values="0 0 0 0 0 0 0 0 0 0 0 0 0 0 0 0 0 0 127 0"/>
<feOffset dy="4"/>
<feGaussianBlur stdDeviation="15"/>
<feColorMatrix type="matrix" values="0 0 0 0 0 0 0 0 0 0 0 0 0 0 0 0 0 0 0.5 0"/>
<feBlend mode="normal" in2="BackgroundImageFix" result="effect1_dropShadow"/>
<feBlend mode="normal" in="SourceGraphic" in2="effect1_dropShadow" result="shape"/>
</filter>
<clipPath id="clip0">
<rect x="135.928" y="68.2241" width="277.472" height="277.472" fill="white"/>
</clipPath>
</defs>
</svg>
