<svg width="47" height="47" viewBox="0 0 47 47" fill="none" xmlns="http://www.w3.org/2000/svg">
<path d="M26.1111 3.65576C25.5367 3.65576 25.0667 4.12576 25.0667 4.70021C25.0667 5.27465 25.5367 5.74465 26.1111 5.74465C29.8711 5.74465 32.9 8.77354 32.9 12.5335C32.9 13.108 33.37 13.578 33.9444 13.578C34.5189 13.578 34.9889 13.108 34.9889 12.5335C34.9889 7.62465 31.02 3.65576 26.1111 3.65576Z" fill="url(#paint0_linear)"/>
<path d="M35.7722 32.3778H37.0778C42.5611 32.3778 47 27.9389 47 22.4556C47 17.7033 43.6056 13.7344 39.1667 12.7422C39.01 5.69222 33.2133 0 26.1111 0C21.62 0 17.5989 2.29778 15.2489 5.79667C14.4133 5.43111 13.5256 5.22222 12.5333 5.22222C8.77333 5.22222 5.74444 8.14667 5.74444 11.75C5.74444 12.3244 5.84889 12.8467 5.95333 13.3689C2.45444 14.8833 0 18.3822 0 22.4556C0 27.9389 4.43889 32.3778 9.92222 32.3778H11.2278V39.6889H10.0267C9.55667 38.1744 8.19889 37.0778 6.52778 37.0778C4.49111 37.0778 2.87222 38.6967 2.87222 40.7333C2.87222 42.77 4.49111 44.3889 6.52778 44.3889C8.19889 44.3889 9.55667 43.2922 10.0267 41.7778H12.2722C12.8467 41.7778 13.3167 41.3078 13.3167 40.7333V32.3778H17.4944V39.8456C15.98 40.3156 14.8833 41.6733 14.8833 43.3444C14.8833 45.3811 16.5022 47 18.5389 47C20.5756 47 22.1944 45.3811 22.1944 43.3444C22.1944 41.6733 21.0978 40.3156 19.5833 39.8456V32.3778H27.4167V39.8456C25.9022 40.3156 24.8056 41.6733 24.8056 43.3444C24.8056 45.3811 26.4244 47 28.4611 47C30.4978 47 32.1167 45.3811 32.1167 43.3444C32.1167 41.6733 31.02 40.3156 29.5056 39.8456V32.3778H33.6833V40.7333C33.6833 41.3078 34.1533 41.7778 34.7278 41.7778H36.9733C37.4433 43.2922 38.8011 44.3889 40.4722 44.3889C42.5089 44.3889 44.1278 42.77 44.1278 40.7333C44.1278 38.6967 42.5089 37.0778 40.4722 37.0778C38.8011 37.0778 37.4433 38.1744 36.9733 39.6889H35.7722V32.3778ZM6.52778 42.3C5.64 42.3 4.96111 41.6211 4.96111 40.7333C4.96111 39.8456 5.64 39.1667 6.52778 39.1667C7.41556 39.1667 8.09444 39.8456 8.09444 40.7333C8.09444 41.6211 7.41556 42.3 6.52778 42.3ZM20.1056 43.3444C20.1056 44.2322 19.4267 44.9111 18.5389 44.9111C17.6511 44.9111 16.9722 44.2322 16.9722 43.3444C16.9722 42.4567 17.6511 41.7778 18.5389 41.7778C19.4267 41.7778 20.1056 42.4567 20.1056 43.3444ZM30.0278 43.3444C30.0278 44.2322 29.3489 44.9111 28.4611 44.9111C27.5733 44.9111 26.8944 44.2322 26.8944 43.3444C26.8944 42.4567 27.5733 41.7778 28.4611 41.7778C29.3489 41.7778 30.0278 42.4567 30.0278 43.3444ZM2.08889 22.4556C2.08889 19.3744 3.91667 16.5544 6.78889 15.3011L8.40778 14.57L7.93778 12.8467C7.83333 12.4811 7.78111 12.1156 7.78111 11.75C7.78111 9.29556 9.87 7.31111 12.4811 7.31111C13.16 7.31111 13.7867 7.46778 14.4133 7.67667L15.98 8.35556L16.92 6.94556C19.0611 3.91667 22.4556 2.08889 26.1111 2.08889C32.0122 2.08889 36.9211 6.89333 37.0778 12.7944L37.13 14.4656L38.7489 14.8311C42.3 15.5622 44.9111 18.8 44.9111 22.4556C44.9111 26.79 41.4122 30.2889 37.0778 30.2889H9.92222C5.58778 30.2889 2.08889 26.79 2.08889 22.4556ZM40.4722 39.1667C41.36 39.1667 42.0389 39.8456 42.0389 40.7333C42.0389 41.6211 41.36 42.3 40.4722 42.3C39.5844 42.3 38.9056 41.6211 38.9056 40.7333C38.9056 39.8456 39.5844 39.1667 40.4722 39.1667Z" fill="url(#paint1_linear)"/>
<defs>
<linearGradient id="paint0_linear" x1="25.0667" y1="4.15187" x2="34.3274" y2="13.2472" gradientUnits="userSpaceOnUse">
<stop stop-color="#46DEFF"/>
<stop offset="1" stop-color="#5685FF"/>
</linearGradient>
<linearGradient id="paint1_linear" x1="3.85195e-07" y1="2.35" x2="43.8667" y2="45.4333" gradientUnits="userSpaceOnUse">
<stop stop-color="#46DEFF"/>
<stop offset="1" stop-color="#5685FF"/>
</linearGradient>
</defs>
</svg>
