<svg width="54" height="54" viewBox="0 0 54 54" fill="none" xmlns="http://www.w3.org/2000/svg">
<path d="M52.2533 28.1328C50.8553 27.3712 49.5094 26.5679 48.1844 25.7332C48.2157 25.1907 48.247 24.6586 48.247 24.1265C48.247 10.8348 37.4384 0.026123 24.1467 0.026123C10.8445 0.026123 0.0253906 10.8452 0.0253906 24.137C0.0253906 37.4287 10.8445 48.2373 24.1362 48.2373C26.6715 48.2373 29.1545 47.8409 31.5228 47.0793C34.1833 49.4267 37.647 51.6177 39.6293 52.807C40.1197 53.0887 40.6205 53.0887 41.1317 52.807C44.7207 50.6995 53.0254 45.3787 53.0254 41.7167V29.4265C53.0254 28.8944 52.7333 28.3936 52.2533 28.1328ZM16.5618 4.38715C15.2264 6.09817 14.0892 8.26825 13.2024 10.7722H7.73543C10.0516 7.93439 13.0876 5.72258 16.5618 4.38715ZM5.72185 13.7143H12.3051C11.6165 16.4373 11.1888 19.4525 11.0844 22.6659H3.03012C3.24921 19.4316 4.19862 16.3956 5.72185 13.7143ZM5.72185 34.5492C4.19862 31.8783 3.24921 28.8423 3.03012 25.608H11.0949C11.1992 28.811 11.6165 31.8261 12.3051 34.5492H5.72185ZM7.73543 37.4913H13.2024C14.0892 39.9952 15.2368 42.1653 16.5618 43.8868C13.0876 42.5513 10.0516 40.3291 7.73543 37.4913ZM22.6652 45.0657C20.1612 44.2623 17.9181 41.4663 16.3531 37.5017H22.6652V45.0657ZM22.6652 34.5492H15.3724C14.6213 31.8574 14.1518 28.8214 14.037 25.608H22.6652V34.5492ZM22.6652 22.6659H14.037C14.1518 19.4525 14.6213 16.406 15.3724 13.7143H22.6652V22.6659ZM22.6652 10.7722H16.3531C17.9285 6.80762 20.1612 4.01156 22.6652 3.20821V10.7722ZM42.5402 13.7143C44.0634 16.3852 45.0128 19.4212 45.2423 22.6659H43.6461C42.874 22.0921 42.102 21.5078 41.3612 20.9131C40.8187 20.4749 40.0571 20.4749 39.5146 20.9131C38.7738 21.5078 38.0122 22.0921 37.2297 22.6659H37.1776C37.0732 19.4629 36.6559 16.4478 35.9673 13.7143H42.5402ZM40.5266 10.7722H35.0701C34.1833 8.26825 33.0356 6.09817 31.7106 4.37671C35.1848 5.71215 38.2209 7.93439 40.5266 10.7722ZM25.6073 3.20821C28.1112 4.01156 30.3439 6.80762 31.9089 10.7722H25.6073V3.20821ZM25.6073 13.7143H32.8896C33.6407 16.406 34.1102 19.4421 34.225 22.6659H25.6073V13.7143ZM25.6073 45.0553V37.5017H27.8504V41.7167C27.8504 42.2279 28.0173 42.76 28.299 43.3234C27.5791 44.0328 26.6715 44.7005 25.6073 45.0553ZM27.8504 29.4265V34.5492H25.6073V25.608H32.9C31.5124 26.4844 30.0935 27.3399 28.6224 28.1328C28.153 28.3936 27.8504 28.8944 27.8504 29.4265ZM50.0833 41.7167C50.0311 42.9582 45.5866 46.6619 40.4014 49.8336C35.2579 46.6515 30.8551 42.9582 30.8029 41.7167V30.3029C34.2354 28.3936 37.4697 26.2549 40.4431 23.9387C43.4165 26.2549 46.6612 28.3936 50.0833 30.3029V41.7167Z" fill="url(#paint0_linear)"/>
<path d="M46.9325 32.2853C46.3587 31.7115 45.4301 31.7115 44.8459 32.2853L38.9199 38.2113L36.0299 35.3214C35.4561 34.7475 34.5276 34.7475 33.9433 35.3214C33.3695 35.8952 33.3695 36.8237 33.9433 37.408L37.8766 41.3412C38.4608 41.9046 39.3581 41.9255 39.9632 41.3412L46.9325 34.372C47.5063 33.7877 47.5063 32.8592 46.9325 32.2853Z" fill="url(#paint1_linear)"/>
<defs>
<linearGradient id="paint0_linear" x1="0.0253906" y1="0.026123" x2="47.7176" y2="53.0253" gradientUnits="userSpaceOnUse">
<stop stop-color="#102BBB"/>
<stop offset="1" stop-color="#5E74ED"/>
</linearGradient>
<linearGradient id="paint1_linear" x1="33.5129" y1="31.855" x2="41.6857" y2="44.5375" gradientUnits="userSpaceOnUse">
<stop stop-color="#102BBB"/>
<stop offset="1" stop-color="#5E74ED"/>
</linearGradient>
</defs>
</svg>
