<svg width="42" height="52" viewBox="0 0 42 52" fill="none" xmlns="http://www.w3.org/2000/svg">
<path d="M38.7233 -0.000976562H3.09881C1.75977 -0.000976562 0.670166 1.08944 0.670166 2.42767V49.5714C0.670166 50.9096 1.76058 52 3.09881 52H38.7241C40.0632 52 41.1528 50.9096 41.1528 49.5714V2.42767C41.1528 1.08944 40.0624 -0.000976562 38.7233 -0.000976562ZM37.979 47.0891C37.979 47.9959 37.2453 48.741 36.3272 48.741H5.49496C4.57761 48.741 3.84309 47.9959 3.84309 47.0891V40.2557C3.84309 39.3384 4.5768 38.6039 5.49496 38.6039H36.3272C37.2445 38.6039 37.979 39.3376 37.979 40.2557V47.0891ZM37.979 35.3001C37.979 36.2183 37.2453 36.9626 36.3272 36.9626H5.49496C4.57761 36.9626 3.84309 36.2175 3.84309 35.3001V28.4773C3.84309 27.56 4.5768 26.8149 5.49496 26.8149H36.3272C37.2445 26.8149 37.979 27.56 37.979 28.4773V35.3001ZM37.979 23.5225C37.979 24.4399 37.2453 25.1744 36.3272 25.1744H5.49496C4.57761 25.1744 3.84309 24.4407 3.84309 23.5225V16.6892C3.84309 15.7824 4.5768 15.0373 5.49496 15.0373H36.3272C37.2445 15.0373 37.979 15.7824 37.979 16.6892V23.5225ZM37.979 11.7441C37.979 12.6509 37.2453 13.396 36.3272 13.396H5.49496C4.57761 13.396 3.84309 12.6509 3.84309 11.7441V4.91076C3.84309 3.99341 4.5768 3.25889 5.49496 3.25889H36.3272C37.2445 3.25889 37.979 3.99341 37.979 4.91076V11.7441Z" fill="url(#paint0_linear)"/>
<path d="M33.1746 6.85425C32.3539 6.85425 31.6958 7.5124 31.6958 8.32249C31.6958 9.14314 32.3539 9.80129 33.1746 9.80129C33.9847 9.80129 34.6428 9.14314 34.6428 8.32249C34.6428 7.5124 33.9847 6.85425 33.1746 6.85425Z" fill="url(#paint1_linear)"/>
<path d="M28.4359 6.85425C27.6258 6.85425 26.9677 7.5124 26.9677 8.32249C26.9677 9.14314 27.6258 9.80129 28.4359 9.80129C29.2565 9.80129 29.9147 9.14314 29.9147 8.32249C29.9147 7.5124 29.2557 6.85425 28.4359 6.85425Z" fill="url(#paint2_linear)"/>
<path d="M23.707 6.85425C22.8863 6.85425 22.2281 7.5124 22.2281 8.32249C22.2281 9.14314 22.8863 9.80129 23.707 9.80129C24.517 9.80129 25.1752 9.14314 25.1752 8.32249C25.1752 7.5124 24.517 6.85425 23.707 6.85425Z" fill="url(#paint3_linear)"/>
<path d="M17.6943 4.98633H7.76193C7.39467 4.98633 7.09241 5.28859 7.09241 5.64448C7.09241 6.01174 7.39467 6.30344 7.76193 6.30344H17.6935C18.0607 6.30344 18.3524 6.01174 18.3524 5.64448C18.3524 5.28859 18.0607 4.98633 17.6943 4.98633Z" fill="url(#paint4_linear)"/>
<path d="M17.6943 7.66357H7.76193C7.39467 7.66357 7.09241 7.96584 7.09241 8.32254C7.09241 8.70036 7.39467 8.9815 7.76193 8.9815H17.6935C18.0607 8.9815 18.3524 8.70117 18.3524 8.32254C18.3524 7.96584 18.0607 7.66357 17.6943 7.66357Z" fill="url(#paint5_linear)"/>
<path d="M17.6943 10.3513H7.76193C7.39467 10.3513 7.09241 10.643 7.09241 11.0103C7.09241 11.3775 7.39467 11.6692 7.76193 11.6692H17.6935C18.0607 11.6692 18.3524 11.3775 18.3524 11.0103C18.3524 10.643 18.0607 10.3513 17.6943 10.3513Z" fill="url(#paint6_linear)"/>
<path d="M33.1746 18.6318C32.3539 18.6318 31.6958 19.29 31.6958 20.1106C31.6958 20.9207 32.3539 21.5789 33.1746 21.5789C33.9847 21.5789 34.6428 20.9207 34.6428 20.1106C34.6428 19.2908 33.9847 18.6318 33.1746 18.6318Z" fill="url(#paint7_linear)"/>
<path d="M28.4359 18.6318C27.6258 18.6318 26.9677 19.29 26.9677 20.1106C26.9677 20.9207 27.6258 21.5789 28.4359 21.5789C29.2565 21.5789 29.9147 20.9207 29.9147 20.1106C29.9147 19.2908 29.2557 18.6318 28.4359 18.6318Z" fill="url(#paint8_linear)"/>
<path d="M23.707 18.6318C22.8863 18.6318 22.2281 19.29 22.2281 20.1106C22.2281 20.9207 22.8863 21.5789 23.707 21.5789C24.517 21.5789 25.1752 20.9207 25.1752 20.1106C25.1752 19.2908 24.517 18.6318 23.707 18.6318Z" fill="url(#paint9_linear)"/>
<path d="M17.6943 16.7646H7.76193C7.39467 16.7646 7.09241 17.0669 7.09241 17.4228C7.09241 17.8006 7.39467 18.0809 7.76193 18.0809H17.6935C18.0607 18.0809 18.3524 17.8006 18.3524 17.4228C18.3524 17.0669 18.0607 16.7646 17.6943 16.7646Z" fill="url(#paint10_linear)"/>
<path d="M17.6943 19.4524H7.76193C7.39467 19.4524 7.09241 19.7441 7.09241 20.1105C7.09241 20.4778 7.39467 20.7687 7.76193 20.7687H17.6935C18.0607 20.7687 18.3524 20.477 18.3524 20.1105C18.3524 19.7441 18.0607 19.4524 17.6943 19.4524Z" fill="url(#paint11_linear)"/>
<path d="M17.6943 22.1299H7.76193C7.39467 22.1299 7.09241 22.4321 7.09241 22.788C7.09241 23.1659 7.39467 23.4462 7.76193 23.4462H17.6935C18.0607 23.4462 18.3524 23.1659 18.3524 22.788C18.3524 22.4321 18.0607 22.1299 17.6943 22.1299Z" fill="url(#paint12_linear)"/>
<path d="M33.1746 30.4094C32.3539 30.4094 31.6958 31.0789 31.6958 31.8882C31.6958 32.6975 32.3539 33.367 33.1746 33.367C33.9847 33.367 34.6428 32.6975 34.6428 31.8882C34.6428 31.0789 33.9847 30.4094 33.1746 30.4094Z" fill="url(#paint13_linear)"/>
<path d="M28.4359 30.4094C27.6258 30.4094 26.9677 31.0789 26.9677 31.8882C26.9677 32.6975 27.6258 33.367 28.4359 33.367C29.2565 33.367 29.9147 32.6975 29.9147 31.8882C29.9147 31.0789 29.2557 30.4094 28.4359 30.4094Z" fill="url(#paint14_linear)"/>
<path d="M23.707 30.4094C22.8863 30.4094 22.2281 31.0789 22.2281 31.8882C22.2281 32.6975 22.8863 33.367 23.707 33.367C24.517 33.367 25.1752 32.6975 25.1752 31.8882C25.1752 31.0789 24.517 30.4094 23.707 30.4094Z" fill="url(#paint15_linear)"/>
<path d="M17.6943 28.553H7.76193C7.39467 28.553 7.09241 28.8447 7.09241 29.2111C7.09241 29.5784 7.39467 29.8701 7.76193 29.8701H17.6935C18.0607 29.8701 18.3524 29.5784 18.3524 29.2111C18.3524 28.8447 18.0607 28.553 17.6943 28.553Z" fill="url(#paint16_linear)"/>
<path d="M17.6943 31.2302H7.76193C7.39467 31.2302 7.09241 31.5325 7.09241 31.8892C7.09241 32.267 7.39467 32.5473 7.76193 32.5473H17.6935C18.0607 32.5473 18.3524 32.267 18.3524 31.8892C18.3524 31.5325 18.0607 31.2302 17.6943 31.2302Z" fill="url(#paint17_linear)"/>
<path d="M17.6943 33.9075H7.76193C7.39467 33.9075 7.09241 34.2097 7.09241 34.5664C7.09241 34.9443 7.39467 35.2246 7.76193 35.2246H17.6935C18.0607 35.2246 18.3524 34.9434 18.3524 34.5664C18.3524 34.2097 18.0607 33.9075 17.6943 33.9075Z" fill="url(#paint18_linear)"/>
<path d="M33.1746 42.1985C32.3539 42.1985 31.6958 42.8566 31.6958 43.6667C31.6958 44.4874 32.3539 45.1455 33.1746 45.1455C33.9847 45.1455 34.6428 44.4866 34.6428 43.6667C34.6428 42.8566 33.9847 42.1985 33.1746 42.1985Z" fill="url(#paint19_linear)"/>
<path d="M28.4359 42.1985C27.6258 42.1985 26.9677 42.8566 26.9677 43.6667C26.9677 44.4874 27.6258 45.1455 28.4359 45.1455C29.2565 45.1455 29.9147 44.4866 29.9147 43.6667C29.9147 42.8566 29.2557 42.1985 28.4359 42.1985Z" fill="url(#paint20_linear)"/>
<path d="M23.707 42.1985C22.8863 42.1985 22.2281 42.8566 22.2281 43.6667C22.2281 44.4874 22.8863 45.1455 23.707 45.1455C24.517 45.1455 25.1752 44.4866 25.1752 43.6667C25.1752 42.8566 24.517 42.1985 23.707 42.1985Z" fill="url(#paint21_linear)"/>
<path d="M17.6943 40.3313H7.76193C7.39467 40.3313 7.09241 40.6336 7.09241 40.9894C7.09241 41.3567 7.39467 41.6484 7.76193 41.6484H17.6935C18.0607 41.6484 18.3524 41.3567 18.3524 40.9894C18.3524 40.6336 18.0607 40.3313 17.6943 40.3313Z" fill="url(#paint22_linear)"/>
<path d="M17.6943 43.0088H7.76193C7.39467 43.0088 7.09241 43.3111 7.09241 43.6669C7.09241 44.0448 7.39467 44.3259 7.76193 44.3259H17.6935C18.0607 44.3259 18.3524 44.0456 18.3524 43.6669C18.3524 43.3111 18.0607 43.0088 17.6943 43.0088Z" fill="url(#paint23_linear)"/>
<path d="M17.6943 45.6963H7.76193C7.39467 45.6963 7.09241 45.988 7.09241 46.3544C7.09241 46.7217 7.39467 47.0134 7.76193 47.0134H17.6935C18.0607 47.0134 18.3524 46.7217 18.3524 46.3544C18.3524 45.988 18.0607 45.6963 17.6943 45.6963Z" fill="url(#paint24_linear)"/>
<defs>
<linearGradient id="paint0_linear" x1="0.670166" y1="2.59907" x2="47.5147" y2="38.4162" gradientUnits="userSpaceOnUse">
<stop stop-color="#FF7246"/>
<stop offset="1" stop-color="#FFB198"/>
</linearGradient>
<linearGradient id="paint1_linear" x1="31.6958" y1="7.0016" x2="34.4464" y2="9.70306" gradientUnits="userSpaceOnUse">
<stop stop-color="#FF7246"/>
<stop offset="1" stop-color="#FFB198"/>
</linearGradient>
<linearGradient id="paint2_linear" x1="26.9677" y1="7.0016" x2="29.7182" y2="9.70306" gradientUnits="userSpaceOnUse">
<stop stop-color="#FF7246"/>
<stop offset="1" stop-color="#FFB198"/>
</linearGradient>
<linearGradient id="paint3_linear" x1="22.2281" y1="7.0016" x2="24.9787" y2="9.70306" gradientUnits="userSpaceOnUse">
<stop stop-color="#FF7246"/>
<stop offset="1" stop-color="#FFB198"/>
</linearGradient>
<linearGradient id="paint4_linear" x1="7.09241" y1="5.05218" x2="7.38118" y2="7.47679" gradientUnits="userSpaceOnUse">
<stop stop-color="#FF7246"/>
<stop offset="1" stop-color="#FFB198"/>
</linearGradient>
<linearGradient id="paint5_linear" x1="7.09241" y1="7.72947" x2="7.38153" y2="10.1555" gradientUnits="userSpaceOnUse">
<stop stop-color="#FF7246"/>
<stop offset="1" stop-color="#FFB198"/>
</linearGradient>
<linearGradient id="paint6_linear" x1="7.09241" y1="10.4172" x2="7.38153" y2="12.8433" gradientUnits="userSpaceOnUse">
<stop stop-color="#FF7246"/>
<stop offset="1" stop-color="#FFB198"/>
</linearGradient>
<linearGradient id="paint7_linear" x1="31.6958" y1="18.7792" x2="34.4464" y2="21.4806" gradientUnits="userSpaceOnUse">
<stop stop-color="#FF7246"/>
<stop offset="1" stop-color="#FFB198"/>
</linearGradient>
<linearGradient id="paint8_linear" x1="26.9677" y1="18.7792" x2="29.7182" y2="21.4806" gradientUnits="userSpaceOnUse">
<stop stop-color="#FF7246"/>
<stop offset="1" stop-color="#FFB198"/>
</linearGradient>
<linearGradient id="paint9_linear" x1="22.2281" y1="18.7792" x2="24.9787" y2="21.4806" gradientUnits="userSpaceOnUse">
<stop stop-color="#FF7246"/>
<stop offset="1" stop-color="#FFB198"/>
</linearGradient>
<linearGradient id="paint10_linear" x1="7.09241" y1="16.8305" x2="7.38082" y2="19.2536" gradientUnits="userSpaceOnUse">
<stop stop-color="#FF7246"/>
<stop offset="1" stop-color="#FFB198"/>
</linearGradient>
<linearGradient id="paint11_linear" x1="7.09241" y1="19.5182" x2="7.38082" y2="21.9414" gradientUnits="userSpaceOnUse">
<stop stop-color="#FF7246"/>
<stop offset="1" stop-color="#FFB198"/>
</linearGradient>
<linearGradient id="paint12_linear" x1="7.09241" y1="22.1957" x2="7.38082" y2="24.6189" gradientUnits="userSpaceOnUse">
<stop stop-color="#FF7246"/>
<stop offset="1" stop-color="#FFB198"/>
</linearGradient>
<linearGradient id="paint13_linear" x1="31.6958" y1="30.5573" x2="34.456" y2="33.2586" gradientUnits="userSpaceOnUse">
<stop stop-color="#FF7246"/>
<stop offset="1" stop-color="#FFB198"/>
</linearGradient>
<linearGradient id="paint14_linear" x1="26.9677" y1="30.5573" x2="29.7279" y2="33.2586" gradientUnits="userSpaceOnUse">
<stop stop-color="#FF7246"/>
<stop offset="1" stop-color="#FFB198"/>
</linearGradient>
<linearGradient id="paint15_linear" x1="22.2281" y1="30.5573" x2="24.9884" y2="33.2586" gradientUnits="userSpaceOnUse">
<stop stop-color="#FF7246"/>
<stop offset="1" stop-color="#FFB198"/>
</linearGradient>
<linearGradient id="paint16_linear" x1="7.09241" y1="28.6188" x2="7.38118" y2="31.0434" gradientUnits="userSpaceOnUse">
<stop stop-color="#FF7246"/>
<stop offset="1" stop-color="#FFB198"/>
</linearGradient>
<linearGradient id="paint17_linear" x1="7.09241" y1="31.2961" x2="7.38118" y2="33.7207" gradientUnits="userSpaceOnUse">
<stop stop-color="#FF7246"/>
<stop offset="1" stop-color="#FFB198"/>
</linearGradient>
<linearGradient id="paint18_linear" x1="7.09241" y1="33.9733" x2="7.38118" y2="36.3979" gradientUnits="userSpaceOnUse">
<stop stop-color="#FF7246"/>
<stop offset="1" stop-color="#FFB198"/>
</linearGradient>
<linearGradient id="paint19_linear" x1="31.6958" y1="42.3458" x2="34.4464" y2="45.0473" gradientUnits="userSpaceOnUse">
<stop stop-color="#FF7246"/>
<stop offset="1" stop-color="#FFB198"/>
</linearGradient>
<linearGradient id="paint20_linear" x1="26.9677" y1="42.3458" x2="29.7182" y2="45.0473" gradientUnits="userSpaceOnUse">
<stop stop-color="#FF7246"/>
<stop offset="1" stop-color="#FFB198"/>
</linearGradient>
<linearGradient id="paint21_linear" x1="22.2281" y1="42.3458" x2="24.9787" y2="45.0473" gradientUnits="userSpaceOnUse">
<stop stop-color="#FF7246"/>
<stop offset="1" stop-color="#FFB198"/>
</linearGradient>
<linearGradient id="paint22_linear" x1="7.09241" y1="40.3972" x2="7.38118" y2="42.8218" gradientUnits="userSpaceOnUse">
<stop stop-color="#FF7246"/>
<stop offset="1" stop-color="#FFB198"/>
</linearGradient>
<linearGradient id="paint23_linear" x1="7.09241" y1="43.0746" x2="7.38118" y2="45.4993" gradientUnits="userSpaceOnUse">
<stop stop-color="#FF7246"/>
<stop offset="1" stop-color="#FFB198"/>
</linearGradient>
<linearGradient id="paint24_linear" x1="7.09241" y1="45.7621" x2="7.38118" y2="48.1868" gradientUnits="userSpaceOnUse">
<stop stop-color="#FF7246"/>
<stop offset="1" stop-color="#FFB198"/>
</linearGradient>
</defs>
</svg>
