<svg width="54" height="39" viewBox="0 0 54 39" fill="none" xmlns="http://www.w3.org/2000/svg">
<path d="M16.4333 22.2279H11.0666C11.0744 19.8443 11.8686 17.5304 13.3252 15.6483C14.7817 13.7662 16.8184 12.4221 19.1166 11.8262V16.8384H35.2166V11.8262C37.5149 12.4221 39.5516 13.7662 41.0081 15.6483C42.4647 17.5304 43.2589 19.8443 43.2666 22.2279H37.9V38.3964H54V22.2279H48.6333C48.6317 18.2501 47.17 14.4124 44.5278 11.4489H54V6.05942H35.2166V0.669922H19.1166V6.05942H0.333313V11.4489H9.80548C7.16324 14.4124 5.70156 18.2501 5.69998 22.2279H0.333313V38.3964H16.4333V22.2279Z" fill="url(#paint0_linear)"/>
<defs>
<linearGradient id="paint0_linear" x1="0.333313" y1="0.669922" x2="31.186" y2="49.435" gradientUnits="userSpaceOnUse">
<stop stop-color="#102BBB"/>
<stop offset="1" stop-color="#5E74ED"/>
</linearGradient>
</defs>
</svg>
