<svg width="65" height="34" viewBox="0 0 65 34" fill="none" xmlns="http://www.w3.org/2000/svg">
<path d="M19.9141 5.59193L16.2757 1.95358C15.7367 1.41456 14.8608 1.41456 14.3218 1.95358L0.711635 15.4963C0.172619 16.0353 0.172619 16.9112 0.711635 17.4503L14.3218 31.0604C14.8608 31.5994 15.7367 31.5994 16.2757 31.0604L19.9141 27.422C20.4531 26.883 20.4531 26.0071 19.9141 25.4681L10.9529 16.507L19.9141 7.54586C20.4531 7.00684 20.4531 6.13094 19.9141 5.59193Z" fill="url(#paint0_linear)"/>
<path d="M63.9111 15.4963L50.3009 1.95358C49.7619 1.41456 48.886 1.41456 48.347 1.95358L44.7086 5.59193C44.1696 6.13094 44.1696 7.00684 44.7086 7.54586L53.6698 16.507L44.7086 25.4681C44.1696 26.0071 44.1696 26.883 44.7086 27.422L48.347 31.0604C48.886 31.5994 49.7619 31.5994 50.3009 31.0604L63.8437 17.4503C64.4501 16.9786 64.4501 16.0353 63.9111 15.4963Z" fill="url(#paint1_linear)"/>
<path d="M39.6555 0H35.276C34.6696 0 34.1306 0.404261 33.9285 0.943276L23.6198 31.1281C23.2829 32.0714 23.9567 33.0147 24.9674 33.0147H29.3469C29.9533 33.0147 30.4923 32.6104 30.6944 32.0714L41.0704 1.88655C41.34 0.943276 40.6662 0 39.6555 0Z" fill="url(#paint2_linear)"/>
<defs>
<linearGradient id="paint0_linear" x1="0.307373" y1="3.04508" x2="25.9376" y2="19.8835" gradientUnits="userSpaceOnUse">
<stop stop-color="#FF7246"/>
<stop offset="1" stop-color="#FFB198"/>
</linearGradient>
<linearGradient id="paint1_linear" x1="44.3044" y1="3.04508" x2="69.9306" y2="19.874" gradientUnits="userSpaceOnUse">
<stop stop-color="#FF7246"/>
<stop offset="1" stop-color="#FFB198"/>
</linearGradient>
<linearGradient id="paint2_linear" x1="23.5322" y1="1.65073" x2="48.859" y2="14.9097" gradientUnits="userSpaceOnUse">
<stop stop-color="#FF7246"/>
<stop offset="1" stop-color="#FFB198"/>
</linearGradient>
</defs>
</svg>
