<svg width="50" height="51" viewBox="0 0 50 51" fill="none" xmlns="http://www.w3.org/2000/svg">
<path d="M36.4099 20.1474C37.7079 18.1565 37.7079 15.4322 36.2023 13.4413C34.6966 11.398 32.1526 10.6122 29.8683 11.2932L23.8458 3.12017C23.3266 2.38669 22.3401 2.12473 21.5614 2.54387C20.6788 3.06778 20.4192 4.168 20.9903 5.00627C19.6404 12.7078 14.3967 19.152 11.022 22.6622C10.1913 22.0859 9.10103 22.0335 8.21843 22.6622L3.23429 26.382C0.430718 28.4777 -0.192298 32.5118 1.93634 35.3933L1.521 34.8694L0.534554 35.6029C-0.0365443 36.022 -0.192298 36.8603 0.274964 37.489L3.23429 41.4707C3.64964 42.0471 4.48033 42.2042 5.10334 41.7327L6.03787 40.9992L5.46677 40.2657C7.2839 42.7281 10.4509 43.514 13.0987 42.3614L23.1189 50.7964C23.3785 51.0584 23.7938 51.0584 24.1054 50.8488L24.4688 50.5869L28.3107 47.7053L29.9202 46.5003C30.2836 46.2384 30.3355 45.6621 29.9721 45.3477L27.8435 43.5664C27.48 43.2521 26.9608 43.2521 26.5974 43.514C25.6629 44.1951 24.3649 44.1951 23.4823 43.4616L17.979 38.956L19.3808 37.9081C20.2115 37.2794 20.523 36.1792 20.1596 35.2362C24.4688 32.9833 32.1007 29.7874 39.7327 30.7305C40.3557 31.464 41.4979 31.5688 42.2767 30.8877C42.9516 30.259 42.9516 29.2111 42.4324 28.4777L36.4099 20.1474ZM38.9539 9.45954L43.99 5.68736C44.6649 5.16344 45.5994 5.32061 46.1186 6.0017V6.0541C46.6378 6.73519 46.482 7.67823 45.8071 8.20215L40.771 11.9743C40.0961 12.4983 39.1616 12.3411 38.6424 11.66V11.6076C38.1232 10.9265 38.279 9.98346 38.9539 9.45954ZM40.7191 2.3343L37.3445 7.78301C36.8772 8.5165 35.8908 8.72606 35.1639 8.20215C34.489 7.73062 34.3332 6.83997 34.7486 6.15888L38.1232 0.710163C38.5905 -0.0233183 39.5769 -0.232884 40.3038 0.291031C40.9787 0.710163 41.1345 1.60082 40.7191 2.3343ZM49.9086 13.2841C50.2201 14.1224 49.701 15.0654 48.8703 15.275L42.692 16.9515C41.9132 17.1611 41.1345 16.742 40.8749 15.9561C40.5634 15.1178 41.0826 14.1748 41.9132 13.9652L48.0915 12.3411C48.8703 12.1315 49.649 12.5506 49.9086 13.2841Z" fill="url(#paint0_linear)"/>
<defs>
<linearGradient id="paint0_linear" x1="4.09782e-07" y1="2.55" x2="47.5737" y2="48.358" gradientUnits="userSpaceOnUse">
<stop stop-color="#FFD646"/>
<stop offset="1" stop-color="#FFB198"/>
</linearGradient>
</defs>
</svg>
 