<svg width="53" height="52" viewBox="0 0 53 52" fill="none" xmlns="http://www.w3.org/2000/svg">
<path d="M50.3047 20.9307H46.3739C45.8893 19.3153 45.2432 17.7537 44.4355 16.2999L47.2355 13.4999C47.9355 12.7999 47.9355 11.723 47.2355 11.0768L41.9047 5.74606C41.2047 5.04606 40.1278 5.04606 39.4278 5.74606L36.6278 8.54606C35.1201 7.68452 33.5585 7.09221 31.997 6.60759V2.62298C31.997 1.65375 31.2432 0.899902 30.2739 0.899902H22.7355C21.7662 0.899902 21.0124 1.65375 21.0124 2.62298V6.55375C19.397 6.98452 17.8355 7.63067 16.3278 8.49221L13.5278 5.69221C12.8278 4.99221 11.7509 4.99221 11.0509 5.69221L5.72009 11.023C5.02009 11.723 5.02009 12.7999 5.72009 13.4999L8.52009 16.2999C7.65855 17.8076 7.01239 19.3691 6.58162 20.9845H2.65085C1.68162 20.9845 0.873932 21.7922 0.927778 22.7076V30.2461C0.927778 31.2153 1.68162 31.9691 2.65085 31.9691H6.58162C7.01239 33.5845 7.65855 35.1461 8.52009 36.5999L5.72009 39.3999C5.07393 40.0461 5.07393 41.1768 5.72009 41.8768L11.0509 47.2076C11.697 47.8537 12.8278 47.8537 13.5278 47.2076L16.3278 44.4076C17.7816 45.2153 19.397 45.8614 20.9585 46.3461V50.2768C20.9585 51.2461 21.7124 51.9999 22.6816 51.9999H30.2201C31.1893 51.9999 31.997 51.1922 31.9432 50.2768V46.3461C33.0201 46.023 34.0432 45.6461 35.0662 45.1614L28.6585 38.6999C24.8355 39.3999 20.6893 38.2153 17.7278 35.2537C12.8816 30.4076 12.8816 22.5461 17.7278 17.6999C22.5739 12.8537 30.4355 12.8537 35.2816 17.6999C38.2432 20.6614 39.4278 24.7537 38.7278 28.6307L45.2432 35.1461C45.7278 34.123 46.1047 33.0461 46.4278 31.9691H50.3585C51.3278 31.9691 52.1355 31.1614 52.0816 30.2461V22.7076C52.0816 21.6845 51.2739 20.9307 50.3047 20.9307Z" fill="url(#paint0_linear)"/>
<path d="M33.2893 28.7922C34.1509 26.2614 33.5586 23.3537 31.5124 21.3075C29.7355 19.5306 27.3124 18.8306 25.0509 19.2614C24.4586 19.3691 24.2432 20.1229 24.6739 20.5537L27.2047 23.0845C28.3355 24.2152 28.3355 25.9922 27.2047 27.1229C26.0739 28.2537 24.297 28.2537 23.1662 27.1229L20.6355 24.5922C20.2047 24.1614 19.4509 24.3768 19.3432 24.9691C18.9662 27.2306 19.6124 29.7075 21.3893 31.4306C23.4355 33.4768 26.3432 34.0152 28.8739 33.2075L40.397 44.7306C41.6355 45.9691 43.6278 45.9691 44.8124 44.7306C46.0509 43.4922 46.0509 41.4999 44.8124 40.3152L33.2893 28.7922Z" fill="url(#paint1_linear)"/>
<defs>
<linearGradient id="paint0_linear" x1="26.5047" y1="0.899902" x2="26.5047" y2="51.9999" gradientUnits="userSpaceOnUse">
<stop stop-color="#14D2BC"/>
<stop offset="1" stop-color="#36C8B7"/>
</linearGradient>
<linearGradient id="paint1_linear" x1="32.4905" y1="19.1379" x2="32.4905" y2="45.6595" gradientUnits="userSpaceOnUse">
<stop stop-color="#14D2BC"/>
<stop offset="1" stop-color="#36C8B7"/>
</linearGradient>
</defs>
</svg>
