<svg width="418" height="518" viewBox="0 0 418 518" fill="none" xmlns="http://www.w3.org/2000/svg">
<g clip-path="url(#clip0)">
<path opacity="0.5" d="M187.814 17.7684L210.136 4.89329V0L187.814 12.8751V17.7684Z" fill="#42E8E0"/>
<path opacity="0.5" d="M176.356 24.3733L184.406 19.7405V14.8472L176.356 19.48V24.3733Z" fill="#42E8E0"/>
<path opacity="0.5" d="M167.487 29.4895L172.947 26.3452V21.4519L167.487 24.5963V29.4895Z" fill="#42E8E0"/>
<path opacity="0.5" d="M197.97 23.0893L210.137 16.0749V11.1816L197.97 18.196V23.0893Z" fill="#42E8E0"/>
<path opacity="0.5" d="M179.654 33.6576L194.56 25.0617V20.1685L179.654 28.7643V33.6576Z" fill="#42E8E0"/>
<path opacity="0.5" d="M170.785 38.7742L176.244 35.6299V30.7366L170.785 33.8809V38.7742Z" fill="#42E8E0"/>
<path opacity="0.5" d="M162.326 43.6492L167.804 40.5049V35.6116L162.326 38.7559V43.6492Z" fill="#42E8E0"/>
<path d="M201.342 32.355L210.136 27.2756V22.3823L201.342 27.4431V32.355Z" fill="#42E8E0"/>
<path d="M194.914 36.0578L197.933 34.3088V29.4155L194.914 31.1459V36.0578Z" fill="#42E8E0"/>
<path opacity="0.5" d="M186.045 41.1742L191.504 38.0112V33.1179L186.045 36.2623V41.1742Z" fill="#42E8E0"/>
<path opacity="0.5" d="M177.642 57.1939L210.137 38.458V33.5647L177.642 52.3006V57.1939Z" fill="#42E8E0"/>
<path opacity="0.5" d="M166.201 63.7991L174.232 59.1663V54.2544L166.201 58.9058V63.7991Z" fill="#42E8E0"/>
<path opacity="0.5" d="M201.342 54.719L210.136 49.6396V44.7463L201.342 49.8257V54.719Z" fill="#42E8E0"/>
<path opacity="0.5" d="M180.679 66.6266L197.932 56.6911V51.7979L180.679 61.7333V66.6266Z" fill="#42E8E0"/>
<path opacity="0.5" d="M171.81 71.7437L177.269 68.5993V63.7061L171.81 66.8504V71.7437Z" fill="#42E8E0"/>
<path opacity="0.5" d="M192.138 71.2226L210.137 60.8406V55.9287L192.138 66.3107V71.2226Z" fill="#42E8E0"/>
<path d="M175.686 80.6932L188.728 73.1765V68.2832L175.686 75.7999V80.6932Z" fill="#42E8E0"/>
<path opacity="0.5" d="M163.481 87.7439L172.276 82.6645V77.7712L163.481 82.832V87.7439Z" fill="#42E8E0"/>
<path opacity="0.5" d="M204.062 75.5206L210.137 72.0227V67.1294L204.062 70.6273V75.5206Z" fill="#42E8E0"/>
<path opacity="0.5" d="M192.604 82.1252L200.653 77.4924V72.5991L192.604 77.2319V82.1252Z" fill="#42E8E0"/>
<path opacity="0.5" d="M176.244 91.5583L189.194 84.0974V79.2041L176.244 86.665V91.5583Z" fill="#42E8E0"/>
<path opacity="0.5" d="M191.504 93.9396L210.136 83.2041V78.3108L191.504 89.0463V93.9396Z" fill="#42E8E0"/>
<path opacity="0.5" d="M170.636 105.978L188.094 95.9121V91.0188L170.636 101.084V105.978Z" fill="#42E8E0"/>
<path d="M161.767 111.095L167.226 107.95V103.057L161.767 106.201V111.095Z" fill="#42E8E0"/>
<path opacity="0.5" d="M153.252 116.006L158.711 112.862V107.968L153.252 111.113V116.006Z" fill="#42E8E0"/>
<path opacity="0.5" d="M198.976 100.824L210.136 94.3867V89.4934L198.976 95.931V100.824Z" fill="#42E8E0"/>
<path d="M152.282 38.2534L136.799 47.1841V42.2908L152.282 33.3601V38.2534Z" fill="#42E8E0"/>
<path opacity="0.5" d="M148.966 51.352L136.799 58.3664V53.4731L148.966 46.4587V51.352Z" fill="#42E8E0"/>
<path opacity="0.5" d="M145.593 64.4871L136.799 69.5478V64.6545L145.593 59.5752V64.4871Z" fill="#42E8E0"/>
<path opacity="0.5" d="M149.599 73.3618L136.799 80.7482V75.855L149.599 68.4685V73.3618Z" fill="#42E8E0"/>
<path opacity="0.5" d="M145.593 86.851L136.799 91.9304V87.0371L145.593 81.9578V86.851Z" fill="#42E8E0"/>
<path opacity="0.5" d="M147.96 96.675L136.799 103.113V98.2193L147.96 91.7817V96.675Z" fill="#42E8E0"/>
<path opacity="0.5" d="M142.873 110.797L136.799 114.313V109.401L142.873 105.903V110.797Z" fill="#42E8E0"/>
<path opacity="0.5" d="M148.593 118.686L136.799 125.495V120.584L148.593 113.792V118.686Z" fill="#42E8E0"/>
<path opacity="0.5" d="M147.96 130.24L136.799 136.677V131.784L147.96 125.346V130.24Z" fill="#42E8E0"/>
<path opacity="0.5" d="M190.814 105.531L195.566 102.796V97.9031L190.814 100.638V105.531Z" fill="#42E8E0"/>
<path opacity="0.5" d="M176.71 113.662L187.405 107.503V102.61L176.71 108.769V113.662Z" fill="#42E8E0"/>
<path opacity="0.5" d="M101.211 67.5013L123.551 54.6262V49.7329L101.211 62.608V67.5013Z" fill="#42E8E0"/>
<path opacity="0.5" d="M89.7715 74.1062L97.8021 69.4734V64.5801L89.7715 69.2129V74.1062Z" fill="#42E8E0"/>
<path d="M80.8838 79.2225L86.3431 76.0781V71.1848L80.8838 74.3292V79.2225Z" fill="#42E8E0"/>
<path opacity="0.5" d="M111.385 72.8415L123.552 65.8272V60.9153L111.385 67.9296V72.8415Z" fill="#42E8E0"/>
<path opacity="0.5" d="M93.0508 83.3902L107.975 74.7944V69.9011L93.0508 78.4969V83.3902Z" fill="#42E8E0"/>
<path d="M84.1816 88.5071L89.6409 85.3628V80.4695L84.1816 83.6138V88.5071Z" fill="#42E8E0"/>
<path opacity="0.5" d="M75.7412 93.3819L81.2005 90.2375V85.3442L75.7412 88.4886V93.3819Z" fill="#42E8E0"/>
<path opacity="0.5" d="M114.738 82.0879L123.551 77.0085V72.1152L114.738 77.176V82.0879Z" fill="#42E8E0"/>
<path opacity="0.5" d="M108.329 85.7721L111.329 84.0417V79.1484L108.329 80.8788V85.7721Z" fill="#42E8E0"/>
<path opacity="0.5" d="M99.4414 90.8882L104.919 87.7439V82.8506L99.4414 85.9949V90.8882Z" fill="#42E8E0"/>
<path opacity="0.5" d="M91.0566 106.927L123.552 88.1909V83.2976L91.0566 102.034V106.927Z" fill="#42E8E0"/>
<path opacity="0.5" d="M79.5977 113.532L87.6469 108.899V103.987L79.5977 108.62V113.532Z" fill="#42E8E0"/>
<path opacity="0.5" d="M114.738 104.452L123.551 99.3725V94.4792L114.738 99.5586V104.452Z" fill="#42E8E0"/>
<path opacity="0.5" d="M94.0752 116.36L111.329 106.424V101.512L94.0752 111.466V116.36Z" fill="#42E8E0"/>
<path opacity="0.5" d="M85.2061 121.477L90.6654 118.332V113.439L85.2061 116.583V121.477Z" fill="#42E8E0"/>
<path d="M105.534 120.955L123.552 110.555V105.662L105.534 116.044V120.955Z" fill="#42E8E0"/>
<path opacity="0.5" d="M89.1006 130.426L102.125 122.909V118.016L89.1006 125.533V130.426Z" fill="#42E8E0"/>
<path opacity="0.5" d="M76.8779 137.477L85.691 132.397V127.504L76.8779 132.565V137.477Z" fill="#42E8E0"/>
<path opacity="0.5" d="M117.459 125.253L123.552 121.755V116.843L117.459 120.36V125.253Z" fill="#42E8E0"/>
<path opacity="0.5" d="M106.019 131.858L114.049 127.226V122.332L106.019 126.965V131.858Z" fill="#42E8E0"/>
<path d="M89.6406 141.291L102.59 133.83V128.937L89.6406 136.398V141.291Z" fill="#42E8E0"/>
<path opacity="0.5" d="M104.919 143.672L123.551 132.937V128.044L104.919 138.779V143.672Z" fill="#42E8E0"/>
<path opacity="0.5" d="M84.0322 155.711L101.509 145.645V140.752L84.0322 150.817V155.711Z" fill="#42E8E0"/>
<path opacity="0.5" d="M75.1631 160.827L80.6224 157.683V152.79L75.1631 155.934V160.827Z" fill="#42E8E0"/>
<path opacity="0.5" d="M66.6484 165.739L72.1077 162.594V157.701L66.6484 160.846V165.739Z" fill="#42E8E0"/>
<path opacity="0.5" d="M112.372 150.557L123.552 144.12V139.226L112.372 145.664V150.557Z" fill="#42E8E0"/>
<path d="M65.6789 87.9865L50.1953 96.9172V92.024L65.6789 83.0933V87.9865Z" fill="#42E8E0"/>
<path opacity="0.5" d="M62.3623 101.085L50.1953 108.099V103.206L62.3623 96.1917V101.085Z" fill="#42E8E0"/>
<path opacity="0.5" d="M59.0085 114.22L50.1953 119.281V114.387L59.0085 109.327V114.22Z" fill="#42E8E0"/>
<path opacity="0.5" d="M62.9958 123.095L50.1953 130.481V125.588L62.9958 118.201V123.095Z" fill="#42E8E0"/>
<path opacity="0.5" d="M59.0085 136.584L50.1953 141.663V136.77L59.0085 131.69V136.584Z" fill="#42E8E0"/>
<path opacity="0.5" d="M61.3748 146.408L50.1953 152.845V147.952L61.3748 141.515V146.408Z" fill="#42E8E0"/>
<path opacity="0.5" d="M56.2881 160.53L50.1953 164.046V159.134L56.2881 155.636V160.53Z" fill="#42E8E0"/>
<path opacity="0.5" d="M61.9896 168.419L50.1953 175.228V170.335L61.9896 163.525V168.419Z" fill="#42E8E0"/>
<path opacity="0.5" d="M61.3748 179.973L50.1953 186.41V181.517L61.3748 175.079V179.973Z" fill="#42E8E0"/>
<path d="M104.229 155.264L108.962 152.529V147.636L104.229 150.371V155.264Z" fill="#42E8E0"/>
<path opacity="0.5" d="M90.125 163.395L100.801 157.236V152.343L90.125 158.501V163.395Z" fill="#42E8E0"/>
<path opacity="0.5" d="M187.814 118.518L210.136 105.643V100.75L187.814 113.625V118.518Z" fill="#42E8E0"/>
<path opacity="0.5" d="M176.356 125.123L184.406 120.491V115.579L176.356 120.23V125.123Z" fill="#42E8E0"/>
<path opacity="0.5" d="M167.487 130.24L172.947 127.095V122.183L167.487 125.346V130.24Z" fill="#42E8E0"/>
<path opacity="0.5" d="M197.97 123.839L210.137 116.825V111.932L197.97 118.946V123.839Z" fill="#42E8E0"/>
<path opacity="0.5" d="M179.654 134.408L194.56 125.812V120.918L179.654 129.514V134.408Z" fill="#42E8E0"/>
<path opacity="0.5" d="M170.785 139.524L176.244 136.379V131.486L170.785 134.63V139.524Z" fill="#42E8E0"/>
<path opacity="0.5" d="M162.326 144.398L167.804 141.235V136.342L162.326 139.486V144.398Z" fill="#42E8E0"/>
<path opacity="0.5" d="M201.342 133.086L210.136 128.025V123.114L201.342 128.193V133.086Z" fill="#42E8E0"/>
<path opacity="0.5" d="M194.914 136.789L197.933 135.058V130.165L194.914 131.895V136.789Z" fill="#42E8E0"/>
<path opacity="0.5" d="M186.045 141.906L191.504 138.761V133.868L186.045 137.013V141.906Z" fill="#42E8E0"/>
<path opacity="0.5" d="M177.642 157.943L210.137 139.207V134.314L177.642 153.031V157.943Z" fill="#42E8E0"/>
<path opacity="0.5" d="M166.201 164.549L174.232 159.897V155.004L166.201 159.637V164.549Z" fill="#42E8E0"/>
<path opacity="0.5" d="M201.342 155.469L210.136 150.39V145.497L201.342 150.576V155.469Z" fill="#42E8E0"/>
<path opacity="0.5" d="M180.679 167.376L197.932 157.422V152.529L180.679 162.483V167.376Z" fill="#42E8E0"/>
<path opacity="0.5" d="M171.81 172.493L177.269 169.349V164.456L171.81 167.6V172.493Z" fill="#42E8E0"/>
<path opacity="0.5" d="M192.138 171.953L210.137 161.572V156.678L192.138 167.06V171.953Z" fill="#42E8E0"/>
<path opacity="0.5" d="M175.686 181.442L188.728 173.926V169.032L175.686 176.549V181.442Z" fill="#42E8E0"/>
<path opacity="0.5" d="M163.481 188.475L172.276 183.415V178.503L163.481 183.582V188.475Z" fill="#42E8E0"/>
<path opacity="0.5" d="M204.062 176.27L210.137 172.772V167.86L204.062 171.377V176.27Z" fill="#42E8E0"/>
<path opacity="0.5" d="M192.604 182.875L200.653 178.242V173.349L192.604 177.982V182.875Z" fill="#42E8E0"/>
<path opacity="0.5" d="M176.244 192.308L189.194 184.847V179.935L176.244 187.415V192.308Z" fill="#42E8E0"/>
<path opacity="0.5" d="M191.504 194.69L210.136 183.954V179.042L191.504 189.796V194.69Z" fill="#42E8E0"/>
<path opacity="0.5" d="M170.636 206.727L188.094 196.662V191.768L170.636 201.834V206.727Z" fill="#42E8E0"/>
<path opacity="0.5" d="M161.767 211.844L167.226 208.699V203.787L161.767 206.95V211.844Z" fill="#42E8E0"/>
<path opacity="0.5" d="M153.252 216.756L158.711 213.612V208.7L153.252 211.863V216.756Z" fill="#42E8E0"/>
<path opacity="0.5" d="M198.976 201.574L210.136 195.136V190.243L198.976 196.68V201.574Z" fill="#42E8E0"/>
<path opacity="0.5" d="M152.282 139.003L136.799 147.934V143.04L152.282 134.11V139.003Z" fill="#42E8E0"/>
<path opacity="0.5" d="M148.966 152.102L136.799 159.116V154.223L148.966 147.208V152.102Z" fill="#42E8E0"/>
<path opacity="0.5" d="M145.593 165.218L136.799 170.297V165.404L145.593 160.325V165.218Z" fill="#42E8E0"/>
<path opacity="0.5" d="M149.599 174.112L136.799 181.498V176.586L149.599 169.2V174.112Z" fill="#42E8E0"/>
<path opacity="0.5" d="M145.593 187.601L136.799 192.68V187.769L145.593 182.708V187.601Z" fill="#42E8E0"/>
<path opacity="0.5" d="M147.96 197.425L136.799 203.862V198.969L147.96 192.531V197.425Z" fill="#42E8E0"/>
<path opacity="0.5" d="M142.873 211.546L136.799 215.044V210.151L142.873 206.635V211.546Z" fill="#42E8E0"/>
<path opacity="0.5" d="M148.593 219.435L136.799 226.226V221.333L148.593 214.542V219.435Z" fill="#42E8E0"/>
<path opacity="0.5" d="M147.96 230.989L136.799 237.427V232.515L147.96 226.096V230.989Z" fill="#42E8E0"/>
<path opacity="0.5" d="M190.814 206.281L195.566 203.546V198.653L190.814 201.388V206.281Z" fill="#42E8E0"/>
<path opacity="0.5" d="M176.71 214.412L187.405 208.235V203.341L176.71 209.518V214.412Z" fill="#42E8E0"/>
<path opacity="0.5" d="M167.878 252.033L185.914 241.632V236.739L167.878 247.139V252.033Z" fill="#42E8E0"/>
<path opacity="0.5" d="M155.524 259.158L162.623 255.065V250.172L155.524 254.265V259.158Z" fill="#42E8E0"/>
<path opacity="0.5" d="M101.211 168.251L123.551 155.376V150.482L101.211 163.358V168.251Z" fill="#42E8E0"/>
<path opacity="0.5" d="M89.7715 174.856L97.8021 170.223V165.33L89.7715 169.962V174.856Z" fill="#42E8E0"/>
<path opacity="0.5" d="M80.8838 179.972L86.3431 176.809V171.916L80.8838 175.079V179.972Z" fill="#42E8E0"/>
<path opacity="0.5" d="M111.385 173.572L123.552 166.558V161.665L111.385 168.679V173.572Z" fill="#42E8E0"/>
<path opacity="0.5" d="M93.0508 184.14L107.975 175.545V170.651L93.0508 179.247V184.14Z" fill="#42E8E0"/>
<path opacity="0.5" d="M84.1816 189.256L89.6409 186.112V181.219L84.1816 184.363V189.256Z" fill="#42E8E0"/>
<path opacity="0.5" d="M75.7412 194.131L81.2005 190.968V186.075L75.7412 189.238V194.131Z" fill="#42E8E0"/>
<path opacity="0.5" d="M114.738 182.819L123.551 177.74V172.846L114.738 177.926V182.819Z" fill="#42E8E0"/>
<path opacity="0.5" d="M108.329 186.522L111.329 184.791V179.898L108.329 181.628V186.522Z" fill="#42E8E0"/>
<path opacity="0.5" d="M99.4414 191.638L104.919 188.494V183.601L99.4414 186.745V191.638Z" fill="#42E8E0"/>
<path opacity="0.5" d="M91.0566 207.676L123.552 188.94V184.047L91.0566 202.764V207.676Z" fill="#42E8E0"/>
<path opacity="0.5" d="M79.5977 214.282L87.6469 209.63V204.737L79.5977 209.37V214.282Z" fill="#42E8E0"/>
<path opacity="0.5" d="M114.738 205.202L123.551 200.123V195.229L114.738 200.309V205.202Z" fill="#42E8E0"/>
<path opacity="0.5" d="M94.0752 217.109L111.329 207.155V202.262L94.0752 212.216V217.109Z" fill="#42E8E0"/>
<path opacity="0.5" d="M85.2061 222.226L90.6654 219.081V214.169L85.2061 217.332V222.226Z" fill="#42E8E0"/>
<path opacity="0.5" d="M105.534 221.686L123.552 211.304V206.411L105.534 216.793V221.686Z" fill="#42E8E0"/>
<path opacity="0.5" d="M89.1006 231.175L102.125 223.659V218.765L89.1006 226.282V231.175Z" fill="#42E8E0"/>
<path opacity="0.5" d="M76.8779 238.208L85.691 233.147V228.235L76.8779 233.315V238.208Z" fill="#42E8E0"/>
<path opacity="0.5" d="M117.459 226.003L123.552 222.487V217.594L117.459 221.11V226.003Z" fill="#42E8E0"/>
<path opacity="0.5" d="M106.019 232.608L114.049 227.975V223.063L106.019 227.715V232.608Z" fill="#42E8E0"/>
<path opacity="0.5" d="M89.6406 242.041L102.59 234.58V229.668L89.6406 237.148V242.041Z" fill="#42E8E0"/>
<path opacity="0.5" d="M104.919 244.423L123.551 233.687V228.794L104.919 239.529V244.423Z" fill="#42E8E0"/>
<path opacity="0.5" d="M84.0322 256.46L101.509 246.394V241.501L84.0322 251.567V256.46Z" fill="#42E8E0"/>
<path opacity="0.5" d="M75.1631 261.577L80.6224 258.432V253.52L75.1631 256.683V261.577Z" fill="#42E8E0"/>
<path opacity="0.5" d="M66.6484 266.489L72.1077 263.344V258.432L66.6484 261.595V266.489Z" fill="#42E8E0"/>
<path opacity="0.5" d="M112.372 251.306L123.552 244.869V239.976L112.372 246.413V251.306Z" fill="#42E8E0"/>
<path opacity="0.5" d="M65.6789 188.736L50.1953 197.667V192.773L65.6789 183.843V188.736Z" fill="#42E8E0"/>
<path opacity="0.5" d="M62.3623 201.834L50.1953 208.849V203.955L62.3623 196.941V201.834Z" fill="#42E8E0"/>
<path opacity="0.5" d="M59.0085 214.951L50.1953 220.03V215.137L59.0085 210.058V214.951Z" fill="#42E8E0"/>
<path opacity="0.5" d="M62.9958 223.844L50.1953 231.231V226.319L62.9958 218.933V223.844Z" fill="#42E8E0"/>
<path opacity="0.5" d="M59.0085 237.334L50.1953 242.414V237.52L59.0085 232.441V237.334Z" fill="#42E8E0"/>
<path opacity="0.5" d="M61.3748 247.157L50.1953 253.595V248.702L61.3748 242.264V247.157Z" fill="#42E8E0"/>
<path opacity="0.5" d="M56.2881 261.279L50.1953 264.777V259.884L56.2881 256.367V261.279Z" fill="#42E8E0"/>
<path opacity="0.5" d="M61.9896 269.168L50.1953 275.959V271.066L61.9896 264.275V269.168Z" fill="#42E8E0"/>
<path opacity="0.5" d="M61.3748 280.722L50.1953 287.16V282.266L61.3748 275.829V280.722Z" fill="#42E8E0"/>
<path opacity="0.5" d="M104.229 256.014L108.962 253.279V248.385L104.229 251.121V256.014Z" fill="#42E8E0"/>
<path opacity="0.5" d="M90.125 264.145L100.801 257.986V253.074L90.125 259.251V264.145Z" fill="#42E8E0"/>
<path opacity="0.5" d="M81.2744 301.766L99.3106 291.365V286.472L81.2744 296.872V301.766Z" fill="#42E8E0"/>
<path opacity="0.5" d="M68.9209 308.891L76.0385 304.798V299.905L68.9209 303.998V308.891Z" fill="#42E8E0"/>
<path d="M300.709 434.758C269.649 434.758 240.452 427.781 218.484 415.111C195.883 402.087 183.437 384.579 183.437 365.787C183.437 346.996 195.883 329.469 218.484 316.445C263.836 290.304 337.62 290.304 382.971 316.445C405.554 329.469 418 346.996 418 365.787C418 384.579 405.554 402.087 382.953 415.111C360.985 427.781 331.788 434.758 300.709 434.758ZM300.709 301.077C271.698 301.077 242.706 307.44 220.59 320.166C199.367 332.409 187.703 348.596 187.703 365.787C187.703 382.979 199.367 399.166 220.571 411.39C241.905 423.688 270.338 430.46 300.69 430.46C331.043 430.46 359.457 423.688 380.81 411.39C402.163 399.091 413.64 382.96 413.64 365.787C413.64 348.614 401.958 332.409 380.754 320.166C358.731 307.44 329.794 301.077 300.728 301.077H300.709Z" fill="url(#paint0_linear)"/>
<g opacity="0.67">
<path opacity="0.67" d="M300.727 415.11C347.981 415.11 386.287 393.028 386.287 365.787C386.287 338.546 347.981 316.463 300.727 316.463C253.474 316.463 215.167 338.546 215.167 365.787C215.167 393.028 253.474 415.11 300.727 415.11Z" fill="#24126A"/>
</g>
<path d="M195.938 328.595V305.375H203.988C210.077 297.351 217.799 290.706 226.645 285.876C267.636 262.284 333.893 262.284 374.81 285.876C383.652 290.711 391.373 297.355 397.467 305.375H405.498V328.595C405.498 344.056 395.268 359.499 374.81 371.295C333.819 394.887 267.543 394.887 226.626 371.295C206.168 359.517 195.938 344.056 195.938 328.595Z" fill="url(#paint1_linear)"/>
<path d="M300.727 365.787C358.59 365.787 405.497 338.74 405.497 305.375C405.497 272.01 358.59 244.962 300.727 244.962C242.864 244.962 195.957 272.01 195.957 305.375C195.957 338.74 242.864 365.787 300.727 365.787Z" fill="#BCBEFF"/>
<path d="M203.969 304.481V272.852H211.422C217.042 265.467 224.159 259.349 232.309 254.897C270.095 233.11 331.359 233.11 369.145 254.897C377.308 259.36 384.438 265.491 390.07 272.889H397.523V304.519C397.523 318.808 388.076 333.078 369.183 343.981C331.396 365.75 270.133 365.75 232.346 343.981C213.397 333.041 203.95 318.77 203.969 304.481Z" fill="#24126A"/>
<g opacity="0.51">
<path opacity="0.51" d="M203.969 296.853V265.223H211.422C217.042 257.81 224.174 251.671 232.346 247.213C270.133 225.426 331.396 225.426 369.183 247.213C377.351 251.676 384.482 257.814 390.107 265.223H397.56V296.853C397.56 311.123 388.113 325.394 369.22 336.297C331.433 358.066 270.17 358.084 232.383 336.297C213.397 325.413 203.95 311.142 203.969 296.853Z" fill="#453C9E"/>
</g>
<path d="M300.727 328.576C354.165 328.576 397.485 303.603 397.485 272.796C397.485 241.99 354.165 217.017 300.727 217.017C247.289 217.017 203.969 241.99 203.969 272.796C203.969 303.603 247.289 328.576 300.727 328.576Z" fill="#BCBEFF"/>
<g opacity="0.51">
<path opacity="0.51" d="M234.06 313.859C250.699 335.014 272.629 346.326 291.187 352.373C269.685 351.145 248.761 345.805 232.29 336.316C213.397 325.413 203.95 311.143 203.969 296.854V287.402C215.662 294.135 225.892 303.129 234.06 313.859Z" fill="#5351AF"/>
</g>
<path d="M195.938 272.294V249.093H203.988C210.077 241.069 217.799 234.424 226.645 229.594C267.636 206.002 333.893 206.002 374.81 229.594C383.652 234.429 391.373 241.073 397.467 249.093H405.498V272.294C405.498 287.755 395.268 303.217 374.81 315.087C333.819 338.679 267.543 338.679 226.626 315.087C206.168 303.273 195.938 287.755 195.938 272.294Z" fill="url(#paint2_linear)"/>
<path d="M300.727 309.505C358.59 309.505 405.497 282.458 405.497 249.093C405.497 215.728 358.59 188.68 300.727 188.68C242.864 188.68 195.957 215.728 195.957 249.093C195.957 282.458 242.864 309.505 300.727 309.505Z" fill="#BCBEFF"/>
<path d="M203.969 247.027V215.398H211.422C217.048 207.989 224.178 201.852 232.346 197.388C270.133 175.6 331.396 175.6 369.183 197.388C377.347 201.857 384.476 207.993 390.107 215.398H397.56V247.027C397.56 261.317 388.113 275.587 369.22 286.471C331.433 308.259 270.17 308.259 232.383 286.471C213.397 275.587 203.95 261.317 203.969 247.027Z" fill="#24126A"/>
<g opacity="0.51">
<path opacity="0.51" d="M203.969 239.79V208.16H211.422C217.042 200.746 224.174 194.608 232.346 190.15C270.133 168.363 331.396 168.363 369.183 190.15C377.351 194.613 384.482 200.751 390.107 208.16H397.56V239.79C397.56 254.06 388.113 268.331 369.22 279.234C331.433 301.021 270.17 301.021 232.383 279.234C213.397 268.331 203.95 254.06 203.969 239.79Z" fill="#453C9E"/>
</g>
<path d="M300.727 271.121C354.165 271.121 397.485 246.148 397.485 215.341C397.485 184.535 354.165 159.562 300.727 159.562C247.289 159.562 203.969 184.535 203.969 215.341C203.969 246.148 247.289 271.121 300.727 271.121Z" fill="#BCBEFF"/>
<g opacity="0.51">
<path opacity="0.51" d="M234.06 253.428C254.742 279.717 283.604 290.806 303.988 295.476C278.144 295.979 252.022 290.602 232.29 279.234C213.397 268.331 203.95 254.06 203.969 239.79V226.989C215.654 233.724 225.883 242.711 234.06 253.428Z" fill="#5351AF"/>
</g>
<path d="M195.938 214.839V191.638H203.988C210.072 183.609 217.795 176.963 226.645 172.139C267.636 148.547 333.893 148.547 374.81 172.139C383.656 176.969 391.378 183.614 397.467 191.638H405.498V214.839C405.498 230.301 395.268 245.762 374.81 257.632C333.819 281.224 267.543 281.224 226.626 257.632C206.168 245.762 195.938 230.301 195.938 214.839Z" fill="url(#paint3_linear)"/>
<path d="M300.727 252.051C358.59 252.051 405.497 225.003 405.497 191.638C405.497 158.273 358.59 131.225 300.727 131.225C242.864 131.225 195.957 158.273 195.957 191.638C195.957 225.003 242.864 252.051 300.727 252.051Z" fill="#BCBEFF"/>
<path d="M203.969 189.573V157.944H211.422C217.042 150.53 224.174 144.391 232.346 139.933C270.133 118.146 331.396 118.146 369.183 139.933C377.351 144.397 384.482 150.534 390.107 157.944H397.56V189.573C397.56 203.844 388.113 218.133 369.22 229.017C331.433 250.804 270.17 250.804 232.383 229.017C213.397 218.133 203.95 203.844 203.969 189.573Z" fill="#24126A"/>
<g opacity="0.51">
<path opacity="0.51" d="M203.969 180.699V149.069H211.422C217.042 141.655 224.174 135.517 232.346 131.059C270.133 109.271 331.396 109.271 369.183 131.059C377.351 135.522 384.482 141.66 390.107 149.069H397.56V180.699C397.56 194.988 388.113 209.258 369.22 220.161C331.433 241.93 270.17 241.93 232.383 220.161C213.397 209.258 203.95 194.988 203.969 180.699Z" fill="#453C9E"/>
</g>
<path d="M300.727 213.667C354.165 213.667 397.485 188.694 397.485 157.887C397.485 127.081 354.165 102.108 300.727 102.108C247.289 102.108 203.969 127.081 203.969 157.887C203.969 188.694 247.289 213.667 300.727 213.667Z" fill="#BCBEFF"/>
<path d="M195.938 157.385V134.166H203.988C210.077 126.142 217.799 119.497 226.645 114.667C267.636 91.0749 333.893 91.0749 374.81 114.667C383.652 119.502 391.373 126.146 397.467 134.166H405.498V157.385C405.498 172.847 395.268 188.308 374.81 200.178C333.819 223.752 267.543 223.752 226.626 200.178C206.168 188.308 195.938 172.847 195.938 157.385Z" fill="url(#paint4_linear)"/>
<path d="M300.727 194.578C358.59 194.578 405.497 167.53 405.497 134.166C405.497 100.801 358.59 73.7529 300.727 73.7529C242.864 73.7529 195.957 100.801 195.957 134.166C195.957 167.53 242.864 194.578 300.727 194.578Z" fill="#BCBEFF"/>
<path d="M300.727 194.578C358.59 194.578 405.497 167.53 405.497 134.166C405.497 100.801 358.59 73.7529 300.727 73.7529C242.864 73.7529 195.957 100.801 195.957 134.166C195.957 167.53 242.864 194.578 300.727 194.578Z" fill="#BCBEFF"/>
<g opacity="0.51">
<path opacity="0.51" d="M234.06 192.997C256.773 221.873 289.361 232.403 309.726 236.236C282.057 237.725 253.494 232.366 232.29 220.161C213.397 209.258 203.95 194.987 203.969 180.698V166.521C215.658 173.267 225.887 182.267 234.06 192.997Z" fill="#5351AF"/>
</g>
<path d="M195.938 157.385V134.166H203.988C210.077 126.142 217.799 119.497 226.645 114.667C267.636 91.0749 333.893 91.0749 374.81 114.667C383.652 119.502 391.373 126.146 397.467 134.166H405.498V157.385C405.498 172.847 395.268 188.308 374.81 200.178C333.819 223.752 267.543 223.752 226.626 200.178C206.168 188.308 195.938 172.847 195.938 157.385Z" fill="url(#paint5_linear)"/>
<path d="M300.727 194.578C358.59 194.578 405.497 167.53 405.497 134.166C405.497 100.801 358.59 73.7529 300.727 73.7529C242.864 73.7529 195.957 100.801 195.957 134.166C195.957 167.53 242.864 194.578 300.727 194.578Z" fill="#BCBEFF"/>
<path d="M300.727 194.578C358.59 194.578 405.497 167.53 405.497 134.166C405.497 100.801 358.59 73.7529 300.727 73.7529C242.864 73.7529 195.957 100.801 195.957 134.166C195.957 167.53 242.864 194.578 300.727 194.578Z" fill="#BCBEFF"/>
<path d="M226.03 175.042C267.021 198.634 333.297 198.634 374.214 175.042C399.274 160.604 408.945 140.658 403.318 121.96C410.174 141.179 400.691 161.962 374.81 176.884C333.819 200.476 267.543 200.476 226.626 176.884C210.77 167.748 201.1 156.417 197.522 144.547C201.51 155.729 210.994 166.371 226.03 175.042Z" fill="white"/>
<path d="M226.03 232.571C267.021 256.163 333.297 256.144 374.214 232.571C399.274 218.114 408.945 198.169 403.318 179.47C410.174 198.69 400.691 219.472 374.81 234.394C333.819 257.986 267.543 257.986 226.626 234.394C210.77 225.259 201.1 213.928 197.522 202.057C201.51 213.183 210.994 223.844 226.03 232.571Z" fill="white"/>
<path d="M226.03 289.969C267.021 313.561 333.297 313.561 374.214 289.969C399.274 275.513 408.945 255.586 403.318 236.869C410.174 256.107 400.691 276.889 374.81 291.793C333.819 315.385 267.543 315.385 226.626 291.793C210.77 282.657 201.1 271.326 197.522 259.475C201.51 270.638 210.994 281.299 226.03 289.969Z" fill="white"/>
<path d="M226.03 347.423C267.021 371.015 333.297 371.015 374.214 347.423C399.274 332.985 408.945 313.04 403.318 294.323C410.174 313.561 400.691 334.343 374.81 349.265C333.819 372.839 267.543 372.857 226.626 349.265C210.77 340.111 201.1 328.799 197.522 316.929C201.51 328.111 210.994 338.753 226.03 347.423Z" fill="white"/>
<path opacity="0.78" d="M395.846 159.525H300.82V103.522H391.132C408.553 120.639 410.155 141.682 395.846 159.525Z" fill="url(#paint6_linear)"/>
<path d="M246.936 128.528V116.602H251.053C254.195 112.485 258.169 109.075 262.717 106.592C283.735 94.4797 317.795 94.4797 338.793 106.592C343.335 109.069 347.298 112.481 350.42 116.602H354.556V128.528C354.556 136.454 349.302 144.399 338.793 150.446C317.795 162.558 283.735 162.558 262.717 150.446C252.171 144.399 246.936 136.454 246.936 128.528Z" fill="url(#paint7_linear)"/>
<path d="M300.727 147.617C330.436 147.617 354.519 133.731 354.519 116.602C354.519 99.4721 330.436 85.5859 300.727 85.5859C271.019 85.5859 246.936 99.4721 246.936 116.602C246.936 133.731 271.019 147.617 300.727 147.617Z" fill="#BCBEFF"/>
<path d="M300.727 147.617C330.436 147.617 354.519 133.731 354.519 116.602C354.519 99.4721 330.436 85.5859 300.727 85.5859C271.019 85.5859 246.936 99.4721 246.936 116.602C246.936 133.731 271.019 147.617 300.727 147.617Z" fill="url(#paint8_linear)"/>
<path d="M275.107 131.375C289.249 139.524 312.186 139.524 326.328 131.375C330.129 129.36 333.271 126.299 335.383 122.555C339.11 115.448 329.905 110.294 320.179 104.694C306.037 96.5447 295.957 94.5167 281.871 102.666C272.145 108.248 262.288 115.448 265.94 122.555C268.088 126.31 271.27 129.371 275.107 131.375Z" fill="#24126A"/>
<path d="M326.328 113.754C312.186 105.605 289.25 105.605 275.108 113.754C271.286 115.761 268.124 118.822 265.996 122.574C262.27 115.466 265.382 107.447 275.108 101.847C289.25 93.679 312.186 93.679 326.328 101.847C336.054 107.429 339.091 115.466 335.439 122.555C333.305 118.814 330.144 115.76 326.328 113.754Z" fill="url(#paint9_linear)"/>
<g opacity="0.51">
<path opacity="0.51" d="M241.738 222.319C248.799 225.091 254.072 224.347 253.513 220.644C252.954 216.942 246.787 211.695 239.744 208.923C232.701 206.151 227.409 206.895 227.968 210.597C228.527 214.3 234.769 219.547 241.738 222.319Z" fill="#6767C1"/>
</g>
<g opacity="0.51">
<path opacity="0.51" d="M241.738 280.611C248.799 283.383 254.072 282.62 253.513 278.918C252.954 275.215 246.787 269.968 239.744 267.196C232.701 264.424 227.409 265.168 227.968 268.871C228.527 272.573 234.769 277.82 241.738 280.611Z" fill="#6767C1"/>
</g>
<g opacity="0.51">
<path opacity="0.51" d="M241.346 339.274C248.408 342.046 253.681 341.284 253.122 337.581C252.563 333.879 246.414 328.632 239.352 325.86C232.291 323.087 227.018 323.832 227.577 327.534C228.136 331.237 234.303 336.483 241.346 339.274Z" fill="#6767C1"/>
</g>
<g opacity="0.51">
<path opacity="0.51" d="M221.725 207.695C222.234 207.877 222.783 207.914 223.312 207.801C223.84 207.689 224.327 207.432 224.717 207.058C225.107 206.685 225.385 206.211 225.52 205.688C225.655 205.166 225.642 204.616 225.481 204.101C225.321 203.586 225.02 203.126 224.612 202.772C224.204 202.418 223.706 202.185 223.172 202.098C222.639 202.011 222.092 202.075 221.593 202.281C221.094 202.488 220.662 202.829 220.347 203.267C219.96 204.04 219.887 204.933 220.144 205.758C220.401 206.583 220.968 207.277 221.725 207.695Z" fill="#6767C1"/>
</g>
<g opacity="0.51">
<path opacity="0.51" d="M221.725 266.247C222.238 266.435 222.793 266.477 223.327 266.366C223.862 266.256 224.355 265.999 224.75 265.623C225.146 265.248 225.428 264.769 225.566 264.242C225.704 263.714 225.691 263.159 225.528 262.638C225.366 262.118 225.062 261.653 224.649 261.296C224.236 260.94 223.732 260.706 223.193 260.62C222.653 260.535 222.101 260.602 221.598 260.814C221.095 261.026 220.662 261.374 220.347 261.819C219.96 262.592 219.887 263.485 220.144 264.31C220.401 265.135 220.968 265.829 221.725 266.247Z" fill="#6767C1"/>
</g>
<g opacity="0.51">
<path opacity="0.51" d="M221.726 324.576C222.234 324.758 222.784 324.794 223.312 324.682C223.84 324.569 224.327 324.312 224.717 323.939C225.107 323.565 225.385 323.091 225.52 322.569C225.655 322.046 225.642 321.497 225.482 320.981C225.321 320.466 225.02 320.006 224.612 319.652C224.204 319.298 223.706 319.065 223.173 318.978C222.639 318.892 222.092 318.955 221.593 319.162C221.094 319.368 220.663 319.71 220.347 320.147C219.955 320.92 219.88 321.814 220.138 322.641C220.395 323.467 220.965 324.161 221.726 324.576Z" fill="#6767C1"/>
</g>
<path d="M335.384 518C335.048 518.006 334.719 517.915 334.433 517.739L266.611 477.049C266.203 476.792 265.91 476.386 265.795 475.917C265.681 475.449 265.753 474.954 265.996 474.537C266.251 474.131 266.653 473.839 267.118 473.721C267.583 473.603 268.076 473.669 268.493 473.905L336.315 514.614C336.722 514.868 337.015 515.269 337.133 515.733C337.251 516.198 337.185 516.69 336.949 517.107C336.785 517.376 336.555 517.599 336.282 517.755C336.008 517.911 335.699 517.995 335.384 518Z" fill="url(#paint10_linear)"/>
<path d="M237.079 491.189C235.257 491.24 233.452 490.817 231.843 489.961L2.66444 357.861C1.8916 357.478 1.23638 356.893 0.767565 356.17C0.298747 355.446 0.0336155 354.61 0 353.749C0.079904 352.721 0.432743 351.732 1.02221 350.885C1.61168 350.038 2.41649 349.364 3.35384 348.93L50.9783 321.468C52.765 320.474 54.7631 319.918 56.8074 319.847C58.8517 319.776 60.8837 320.191 62.7354 321.059L291.914 453.159C292.677 453.541 293.324 454.121 293.786 454.838C294.248 455.555 294.509 456.382 294.542 457.234C294.461 458.26 294.111 459.246 293.525 460.092C292.939 460.939 292.139 461.615 291.206 462.053L243.563 489.515C241.582 490.62 239.349 491.197 237.079 491.189ZM233.669 486.798C234.964 487.345 236.365 487.592 237.769 487.521C239.173 487.45 240.542 487.063 241.774 486.389L289.399 458.927C290.461 458.313 290.927 457.662 290.927 457.271C290.927 456.88 290.629 456.657 290.126 456.359L60.9467 324.259C59.6548 323.715 58.2567 323.47 56.8566 323.541C55.4565 323.612 54.0904 323.997 52.8602 324.669L5.17982 352.093C4.1364 352.707 3.67059 353.358 3.67059 353.749C3.67059 354.14 3.96871 354.363 4.47178 354.661L233.669 486.798Z" fill="url(#paint11_linear)"/>
<path d="M95.6034 244.665C101.923 248.441 107.586 253.216 112.373 258.805C119.397 236.218 140.88 229.222 166.295 243.921C187.312 256.033 205.628 279.885 215.317 305.133C219.065 305.359 222.7 306.502 225.9 308.464C239.613 316.39 250.737 335.609 250.737 351.424C250.737 351.778 250.737 352.075 250.737 352.41C255.266 352.855 259.636 354.318 263.519 356.689C281.071 366.792 295.287 391.389 295.287 411.632C295.287 431.875 281.071 440.061 263.519 429.94L95.6034 333.042C74.4183 320.836 57.2578 291.142 57.2578 266.731C57.2578 242.32 74.4183 232.459 95.6034 244.665Z" fill="url(#paint12_linear)"/>
<path d="M95.6034 244.665C99.2068 246.799 102.584 249.292 105.684 252.107L124.465 241.278C134.769 234.022 149.712 234.339 166.332 243.921C187.349 256.033 205.665 279.885 215.354 305.133C219.102 305.359 222.737 306.502 225.937 308.463C239.651 316.389 250.774 335.609 250.774 351.424C250.774 351.777 250.774 352.075 250.774 352.41C255.304 352.855 259.674 354.318 263.556 356.689C281.108 366.792 295.324 391.389 295.324 411.632C295.324 421.642 291.822 428.712 286.176 432.098L286.045 432.191L240.061 458.834L230.018 410.59L95.6034 333.042C74.4183 320.836 57.2578 291.142 57.2578 266.731C57.2578 242.32 74.4183 232.459 95.6034 244.665Z" fill="url(#paint13_radial)"/>
<path d="M21.6885 269.131L68.2695 242.097C75.2194 237.948 84.8897 238.469 95.5847 244.646C99.1881 246.78 102.565 249.273 105.665 252.088L124.446 241.259C134.75 234.003 149.693 234.32 166.313 243.901C187.331 256.014 205.646 279.866 215.335 305.114C219.083 305.34 222.718 306.483 225.919 308.444C239.632 316.37 250.756 335.59 250.756 351.405C250.756 351.758 250.756 352.056 250.756 352.391C255.285 352.836 259.655 354.299 263.537 356.67C281.089 366.773 295.306 391.37 295.306 411.613C295.306 421.623 291.803 428.693 286.157 432.079L286.027 432.172L240.042 458.815L229.999 410.571L95.6033 333.041C78.4429 323.143 63.9282 301.765 59.0279 280.945L21.6885 269.131Z" fill="url(#paint14_linear)"/>
<path d="M49.4693 271.4C55.7849 275.182 61.4475 279.957 66.2385 285.541C73.2816 262.972 94.7648 255.958 120.161 270.656C141.178 282.787 159.513 306.621 169.201 331.869C172.951 332.101 176.585 333.252 179.785 335.218C193.498 343.125 204.603 362.345 204.603 378.16C204.603 378.513 204.603 378.83 204.603 379.146C209.132 379.591 213.502 381.054 217.385 383.425C234.937 393.547 249.153 418.143 249.153 438.368C249.153 458.592 234.937 466.797 217.385 456.676L49.488 359.926C28.2843 347.609 11.1797 317.915 11.1797 293.504C11.1797 269.093 28.2843 259.195 49.4693 271.4Z" fill="url(#paint15_linear)"/>
<path d="M66.2565 285.541C61.4655 279.957 55.8028 275.182 49.4873 271.401C36.4446 263.958 25.0602 264.758 18.1289 272.108C24.9111 263.605 36.9104 262.247 50.5866 270.136C56.7045 273.791 62.2066 278.387 66.89 283.755C66.6788 284.363 66.4677 284.958 66.2565 285.541Z" fill="white"/>
<path d="M249.134 438.312C249.134 418.088 234.918 393.491 217.366 383.369C213.483 380.998 209.113 379.535 204.584 379.09C204.584 378.774 204.584 378.458 204.584 378.104C204.584 362.289 193.405 343.07 179.766 335.162C176.566 333.196 172.932 332.046 169.182 331.813C159.494 306.565 141.234 282.731 120.142 270.601C100.895 259.437 83.9204 260.851 73.7471 271.977C83.7527 259.698 101.286 257.837 121.241 269.354C142.259 281.466 160.574 305.3 170.282 330.548C174.024 330.787 177.651 331.937 180.846 333.897C194.56 341.804 205.683 361.043 205.683 376.857C205.683 377.192 205.683 377.509 205.683 377.844C210.214 378.271 214.586 379.729 218.465 382.104C236.017 392.226 250.233 416.822 250.233 437.047C250.233 444.991 248.016 451.057 244.29 454.908C247.345 451.038 249.134 445.438 249.134 438.312Z" fill="white"/>
</g>
<defs>
<linearGradient id="paint0_linear" x1="418" y1="365.806" x2="183.437" y2="365.806" gradientUnits="userSpaceOnUse">
<stop stop-color="#42E8E0"/>
<stop offset="0.15" stop-color="#43E3E0"/>
<stop offset="0.33" stop-color="#45D5DF"/>
<stop offset="0.52" stop-color="#49BDDD"/>
<stop offset="0.72" stop-color="#4E9CDB"/>
<stop offset="0.93" stop-color="#5472D8"/>
<stop offset="1" stop-color="#5761D7"/>
</linearGradient>
<linearGradient id="paint1_linear" x1="405.498" y1="328.595" x2="195.938" y2="328.595" gradientUnits="userSpaceOnUse">
<stop stop-color="#5761D7"/>
<stop offset="0.18" stop-color="#5C66D9"/>
<stop offset="0.39" stop-color="#6A73DF"/>
<stop offset="0.61" stop-color="#8289E8"/>
<stop offset="0.85" stop-color="#A3A7F5"/>
<stop offset="1" stop-color="#BCBEFF"/>
</linearGradient>
<linearGradient id="paint2_linear" x1="-539175" y1="17902.8" x2="-515606" y2="17902.8" gradientUnits="userSpaceOnUse">
<stop stop-color="#5761D7"/>
<stop offset="0.18" stop-color="#5C66D9"/>
<stop offset="0.39" stop-color="#6A73DF"/>
<stop offset="0.61" stop-color="#8289E8"/>
<stop offset="0.85" stop-color="#A3A7F5"/>
<stop offset="1" stop-color="#BCBEFF"/>
</linearGradient>
<linearGradient id="paint3_linear" x1="-539175" y1="14112.6" x2="-515606" y2="14112.6" gradientUnits="userSpaceOnUse">
<stop stop-color="#5761D7"/>
<stop offset="0.18" stop-color="#5C66D9"/>
<stop offset="0.39" stop-color="#6A73DF"/>
<stop offset="0.61" stop-color="#8289E8"/>
<stop offset="0.85" stop-color="#A3A7F5"/>
<stop offset="1" stop-color="#BCBEFF"/>
</linearGradient>
<linearGradient id="paint4_linear" x1="-539175" y1="10322.7" x2="-515606" y2="10322.7" gradientUnits="userSpaceOnUse">
<stop stop-color="#5761D7"/>
<stop offset="0.18" stop-color="#5C66D9"/>
<stop offset="0.39" stop-color="#6A73DF"/>
<stop offset="0.61" stop-color="#8289E8"/>
<stop offset="0.85" stop-color="#A3A7F5"/>
<stop offset="1" stop-color="#BCBEFF"/>
</linearGradient>
<linearGradient id="paint5_linear" x1="-539175" y1="10322.7" x2="-515606" y2="10322.7" gradientUnits="userSpaceOnUse">
<stop stop-color="#5761D7"/>
<stop offset="0.18" stop-color="#5C66D9"/>
<stop offset="0.39" stop-color="#6A73DF"/>
<stop offset="0.61" stop-color="#8289E8"/>
<stop offset="0.85" stop-color="#A3A7F5"/>
<stop offset="1" stop-color="#BCBEFF"/>
</linearGradient>
<linearGradient id="paint6_linear" x1="405.479" y1="131.523" x2="300.709" y2="131.523" gradientUnits="userSpaceOnUse">
<stop stop-color="#E9E9FD"/>
<stop offset="0.04" stop-color="#D3D5F7"/>
<stop offset="0.11" stop-color="#B2B6EF"/>
<stop offset="0.18" stop-color="#969BE7"/>
<stop offset="0.27" stop-color="#7F86E1"/>
<stop offset="0.36" stop-color="#6D75DD"/>
<stop offset="0.48" stop-color="#606AD9"/>
<stop offset="0.64" stop-color="#5963D8"/>
<stop offset="1" stop-color="#5761D7"/>
</linearGradient>
<linearGradient id="paint7_linear" x1="-273806" y1="4381.99" x2="-267592" y2="4381.99" gradientUnits="userSpaceOnUse">
<stop stop-color="#5761D7"/>
<stop offset="0.18" stop-color="#5C66D9"/>
<stop offset="0.39" stop-color="#6A73DF"/>
<stop offset="0.61" stop-color="#8289E8"/>
<stop offset="0.85" stop-color="#A3A7F5"/>
<stop offset="1" stop-color="#BCBEFF"/>
</linearGradient>
<linearGradient id="paint8_linear" x1="354.501" y1="116.602" x2="246.917" y2="116.602" gradientUnits="userSpaceOnUse">
<stop stop-color="#C0BFF6"/>
<stop offset="0.29" stop-color="#C5C4F7"/>
<stop offset="0.64" stop-color="#D3D2F9"/>
<stop offset="1" stop-color="#E9E9FD"/>
</linearGradient>
<linearGradient id="paint9_linear" x1="336.93" y1="109.14" x2="264.487" y2="109.14" gradientUnits="userSpaceOnUse">
<stop stop-color="#BCBEFF"/>
<stop offset="0.15" stop-color="#A3A7F5"/>
<stop offset="0.39" stop-color="#8289E8"/>
<stop offset="0.61" stop-color="#6A73DF"/>
<stop offset="0.82" stop-color="#5C66D9"/>
<stop offset="1" stop-color="#5761D7"/>
</linearGradient>
<linearGradient id="paint10_linear" x1="337.284" y1="495.822" x2="265.791" y2="495.822" gradientUnits="userSpaceOnUse">
<stop stop-color="#5761D7"/>
<stop offset="0.07" stop-color="#5472D8"/>
<stop offset="0.28" stop-color="#4E9CDB"/>
<stop offset="0.48" stop-color="#49BDDD"/>
<stop offset="0.67" stop-color="#45D5DF"/>
<stop offset="0.85" stop-color="#43E3E0"/>
<stop offset="1" stop-color="#42E8E0"/>
</linearGradient>
<linearGradient id="paint11_linear" x1="-740569" y1="37666.5" x2="-694002" y2="37666.5" gradientUnits="userSpaceOnUse">
<stop stop-color="#42E8E0"/>
<stop offset="0.15" stop-color="#43E3E0"/>
<stop offset="0.33" stop-color="#45D5DF"/>
<stop offset="0.52" stop-color="#49BDDD"/>
<stop offset="0.72" stop-color="#4E9CDB"/>
<stop offset="0.93" stop-color="#5472D8"/>
<stop offset="1" stop-color="#5761D7"/>
</linearGradient>
<linearGradient id="paint12_linear" x1="629292" y1="24745.1" x2="598747" y2="24745.1" gradientUnits="userSpaceOnUse">
<stop stop-color="#5761D7"/>
<stop offset="0.18" stop-color="#5C66D9"/>
<stop offset="0.39" stop-color="#6A73DF"/>
<stop offset="0.61" stop-color="#8289E8"/>
<stop offset="0.85" stop-color="#A3A7F5"/>
<stop offset="1" stop-color="#BCBEFF"/>
</linearGradient>
<radialGradient id="paint13_radial" cx="0" cy="0" r="1" gradientUnits="userSpaceOnUse" gradientTransform="translate(239.334 311.868) rotate(180) scale(113.546 113.383)">
<stop stop-color="#2B237C"/>
<stop offset="1" stop-color="#180D5B"/>
</radialGradient>
<linearGradient id="paint14_linear" x1="-688038" y1="41808.6" x2="-647863" y2="41808.6" gradientUnits="userSpaceOnUse">
<stop stop-color="#5761D7"/>
<stop offset="0.18" stop-color="#5C66D9"/>
<stop offset="0.39" stop-color="#6A73DF"/>
<stop offset="0.61" stop-color="#8289E8"/>
<stop offset="0.85" stop-color="#A3A7F5"/>
<stop offset="1" stop-color="#BCBEFF"/>
</linearGradient>
<linearGradient id="paint15_linear" x1="623264" y1="26986.1" x2="592724" y2="26986.1" gradientUnits="userSpaceOnUse">
<stop stop-color="#C0BFF6"/>
<stop offset="0.29" stop-color="#C5C4F7"/>
<stop offset="0.64" stop-color="#D3D2F9"/>
<stop offset="1" stop-color="#E9E9FD"/>
</linearGradient>
<clipPath id="clip0">
<rect width="418" height="518" fill="white"/>
</clipPath>
</defs>
</svg>
