<svg width="264" height="185" viewBox="0 0 264 185" fill="none" xmlns="http://www.w3.org/2000/svg">
<g filter="url(#filter0_d)">
<rect x="119" y="42" width="115" height="93" fill="#1C2124"/>
</g>
<path d="M178.672 91.1077C177.169 88.084 176.382 84.4861 176.382 81.2855C176.382 71.9605 184.144 64.7922 193.444 64.7922C202.52 64.7922 209.955 72.3984 209.955 81.5775L213.125 91.9H208.101V96.7132C208.101 99.422 205.905 101.618 203.196 101.618H197.451L196.489 107.125H178.492L179.874 101.393C180.709 97.9307 180.257 94.2969 178.672 91.1077Z" fill="#F2BB88"/>
<path d="M180.877 88.7533C188.54 88.7533 194.753 82.5405 194.753 74.8766C194.753 67.2128 188.54 61 180.877 61C173.213 61 167 67.2128 167 74.8766C167 82.5405 173.213 88.7533 180.877 88.7533Z" fill="#F5737F"/>
<path d="M175.952 82.8018C177.195 82.8018 178.202 81.7944 178.202 80.5518C178.202 79.3091 177.195 78.3018 175.952 78.3018C174.71 78.3018 173.702 79.3091 173.702 80.5518C173.702 81.7944 174.71 82.8018 175.952 82.8018Z" fill="#FFCBBE"/>
<path d="M185.642 87.6085V84.3088H187.158C187.349 83.4626 187.682 82.6707 188.132 81.9596L187.059 80.8865L189.392 78.5533L190.466 79.6267C191.177 79.1768 191.969 78.8434 192.815 78.6532V77.1357H196.114V78.6532C196.96 78.8434 197.752 79.1768 198.463 79.6267L199.537 78.5533L201.87 80.8865L200.797 81.9596C201.247 82.6707 201.58 83.4627 201.771 84.3088H203.287V87.6085H201.771C201.581 88.455 201.248 89.2472 200.797 89.9585L201.87 91.0308L199.537 93.364L198.465 92.2918C197.753 92.7421 196.961 93.0758 196.114 93.2662V94.7816H192.815V93.2662C191.968 93.0759 191.176 92.7421 190.464 92.2918L189.392 93.364L187.059 91.0308L188.132 89.9585C187.681 89.2472 187.348 88.455 187.158 87.6085H185.642Z" fill="#91DEF5"/>
<path d="M191.288 85.9597C191.288 84.2055 192.71 82.7834 194.465 82.7834C196.219 82.7834 197.641 84.2055 197.641 85.9597C197.641 87.7138 196.219 89.1359 194.465 89.1359C192.71 89.1359 191.288 87.7139 191.288 85.9597Z" fill="white"/>
<path d="M184.481 77.9418C184.664 78.1248 184.904 78.2164 185.144 78.2164C185.384 78.2164 185.624 78.1248 185.807 77.9418C186.173 77.5757 186.173 76.9821 185.807 76.6159L185.144 75.953L185.807 75.2901C186.173 74.924 186.173 74.3304 185.807 73.9642C185.441 73.5982 184.848 73.5982 184.481 73.9642L183.818 74.6271L183.155 73.9642C182.789 73.5982 182.196 73.5982 181.83 73.9642C181.463 74.3303 181.463 74.9239 181.83 75.2901L182.492 75.953L181.83 76.6159C181.463 76.982 181.463 77.5756 181.83 77.9418C182.013 78.1248 182.253 78.2164 182.492 78.2164C182.732 78.2164 182.972 78.1248 183.155 77.9418L183.818 77.2789L184.481 77.9418Z" fill="black"/>
<path d="M172.898 70.7074C173.081 70.8904 173.321 70.982 173.561 70.982C173.801 70.982 174.041 70.8904 174.224 70.7074L174.887 70.0445L175.55 70.7074C175.733 70.8904 175.973 70.982 176.213 70.982C176.453 70.982 176.693 70.8904 176.876 70.7074C177.242 70.3414 177.242 69.7477 176.876 69.3815L176.213 68.7186L176.876 68.0557C177.242 67.6896 177.242 67.096 176.876 66.7298C176.51 66.3638 175.916 66.3638 175.55 66.7298L174.887 67.3927L174.224 66.7298C173.858 66.3638 173.264 66.3638 172.898 66.7298C172.532 67.0959 172.532 67.6895 172.898 68.0557L173.561 68.7186L172.898 69.3815C172.532 69.7477 172.532 70.3414 172.898 70.7074Z" fill="black"/>
<path d="M186.193 70.6893C186.376 70.8723 186.616 70.9639 186.855 70.9639C187.095 70.9639 187.335 70.8723 187.518 70.6893L188.977 69.231C189.343 68.8649 189.343 68.2712 188.977 67.9051L187.518 66.4466C187.152 66.0807 186.559 66.0806 186.192 66.4466C185.833 66.8058 185.827 67.3835 186.173 67.7511C180.985 68.4634 176.679 72.275 175.399 77.4135C173.904 77.6761 172.765 78.9829 172.765 80.552C172.765 82.3096 174.194 83.7395 175.952 83.7395C177.71 83.7395 179.14 82.3096 179.14 80.552C179.14 79.2659 178.374 78.1561 177.274 77.6528C178.393 73.5157 181.821 70.4243 185.985 69.6785C185.85 70.016 185.919 70.4161 186.193 70.6893ZM175.952 81.8645C175.228 81.8645 174.64 81.2758 174.64 80.552C174.64 79.8283 175.228 79.2395 175.952 79.2395C176.676 79.2395 177.265 79.8283 177.265 80.552C177.265 81.2758 176.676 81.8645 175.952 81.8645Z" fill="black"/>
<path d="M194.465 81.8459C192.196 81.8459 190.351 83.6914 190.351 85.9597C190.351 88.228 192.196 90.0734 194.465 90.0734C196.733 90.0734 198.578 88.228 198.578 85.9597C198.578 83.6914 196.733 81.8459 194.465 81.8459ZM194.465 88.1984C193.23 88.1984 192.226 87.1941 192.226 85.9597C192.226 84.7253 193.23 83.7209 194.465 83.7209C195.699 83.7209 196.703 84.7253 196.703 85.9597C196.703 87.1941 195.699 88.1984 194.465 88.1984Z" fill="black"/>
<g filter="url(#filter1_d)">
<rect x="30" y="26" width="153" height="125" fill="#1C2124"/>
</g>
<path d="M117.928 69.7142L105.484 82.1582C105.003 82.5905 104.379 82.8307 103.802 82.8307C103.178 82.8307 102.553 82.5905 102.072 82.1582C101.16 81.1973 101.16 79.6595 102.072 78.7468L114.516 66.3027C115.43 65.39 116.967 65.39 117.928 66.3027C118.841 67.2637 118.841 68.8014 117.928 69.7142Z" fill="#727272"/>
<path d="M117.928 69.7142L110 77.6419V70.819L114.516 66.3027C115.429 65.39 116.967 65.39 117.928 66.3027C118.84 67.2637 118.84 68.8014 117.928 69.7142Z" fill="#727272"/>
<path d="M96.0902 84.0932C95.7293 84.0932 95.3633 84.0112 95.0179 83.8398L84.3957 78.5284C83.2083 77.9347 82.7272 76.492 83.3209 75.3053C83.9171 74.1203 85.3598 73.6367 86.5447 74.2305L97.1669 79.5419C98.3543 80.1356 98.8354 81.5782 98.2417 82.765C97.8194 83.6077 96.9723 84.0932 96.0902 84.0932Z" fill="#97A1A5"/>
<path d="M123.454 64.1401C122.722 64.1401 122.002 63.8098 121.531 63.1785C120.733 62.1181 120.949 60.6116 122.012 59.8165L133.545 51.1693C134.603 50.3716 136.107 50.5825 136.907 51.6498C137.705 52.7102 137.489 54.2167 136.426 55.0118L124.893 63.659C124.461 63.9831 123.957 64.1401 123.454 64.1401Z" fill="#727272"/>
<path d="M81.1719 67.0234C77.1836 67.0234 73.9648 70.2422 73.9648 74.2305C73.9648 78.2181 77.1836 81.4375 81.1719 81.4375C85.1601 81.4375 88.3789 78.2181 88.3789 74.2305C88.3789 70.2422 85.1601 67.0234 81.1719 67.0234Z" fill="#D3D3D3"/>
<path d="M100.391 76.6328C96.4024 76.6328 93.1836 79.8516 93.1836 83.8398C93.1836 87.8275 96.4024 91.0469 100.391 91.0469C104.379 91.0469 107.598 87.8275 107.598 83.8398C107.598 79.8516 104.379 76.6328 100.391 76.6328Z" fill="#C6E2E7"/>
<path d="M119.609 57.4141C115.621 57.4141 112.402 60.6328 112.402 64.6211C112.402 68.6087 115.621 71.8281 119.609 71.8281C123.598 71.8281 126.816 68.6087 126.816 64.6211C126.816 60.6328 123.598 57.4141 119.609 57.4141Z" fill="#FDBF00"/>
<path d="M138.828 43C134.84 43 131.621 46.2188 131.621 50.207C131.621 54.1947 134.84 57.4141 138.828 57.4141C142.816 57.4141 146.035 54.1947 146.035 50.207C146.035 46.2188 142.816 43 138.828 43Z" fill="#E63950"/>
<path d="M146.035 69.4258V121.54H131.621V69.4258C131.621 68.0801 132.678 67.0234 134.023 67.0234H143.633C144.979 67.0234 146.035 68.0801 146.035 69.4258Z" fill="#E63950"/>
<path d="M126.816 83.8398V121.54H112.402V83.8398C112.402 82.4942 113.459 81.4375 114.805 81.4375H124.414C125.76 81.4375 126.816 82.4942 126.816 83.8398Z" fill="#FDBF00"/>
<path d="M107.598 103.059V121.54H93.1836V103.059C93.1836 101.713 94.2402 100.656 95.5859 100.656H105.195C106.541 100.656 107.598 101.713 107.598 103.059Z" fill="#C6E2E7"/>
<path d="M88.3789 93.4492V121.54H73.9648V93.4492C73.9648 92.1035 75.0215 91.0469 76.3672 91.0469H85.9766C87.3223 91.0469 88.3789 92.1035 88.3789 93.4492Z" fill="#D3D3D3"/>
<path d="M138.828 57.4141V43C142.816 43 146.035 46.2188 146.035 50.207C146.035 54.1947 142.816 57.4141 138.828 57.4141Z" fill="#CC2E43"/>
<path d="M146.035 69.4258V121.54H138.828V67.0234H143.633C144.979 67.0234 146.035 68.0801 146.035 69.4258Z" fill="#CC2E43"/>
<path d="M119.609 71.8281V57.4141C123.598 57.4141 126.816 60.6328 126.816 64.6211C126.816 68.6087 123.598 71.8281 119.609 71.8281Z" fill="#FF9F00"/>
<path d="M126.816 83.8398V121.54H119.609V81.4375H124.414C125.76 81.4375 126.816 82.4942 126.816 83.8398Z" fill="#FF9F00"/>
<path d="M100.391 91.0469V76.6328C104.379 76.6328 107.598 79.8516 107.598 83.8398C107.598 87.8275 104.379 91.0469 100.391 91.0469Z" fill="#A8D3D8"/>
<path d="M107.598 103.059V121.54H100.391V100.656H105.195C106.541 100.656 107.598 101.713 107.598 103.059Z" fill="#A8D3D8"/>
<path d="M81.1719 81.4375V67.0234C85.1601 67.0234 88.3789 70.2422 88.3789 74.2305C88.3789 78.2181 85.1601 81.4375 81.1719 81.4375Z" fill="#A0A9AD"/>
<path d="M88.3789 93.4492V121.54H81.1719V91.0469H85.9766C87.3223 91.0469 88.3789 92.1035 88.3789 93.4492Z" fill="#A0A9AD"/>
<path d="M151 122.598C151 123.943 149.943 125 148.598 125H71.4023C70.0567 125 69 123.943 69 122.598C69 121.252 70.0567 120.195 71.4023 120.195H148.598C149.943 120.195 151 121.252 151 122.598Z" fill="#465A61"/>
<path d="M151 122.598C151 123.943 149.943 125 148.598 125H110V120.195H148.598C149.943 120.195 151 121.252 151 122.598Z" fill="#3B4A51"/>
<defs>
<filter id="filter0_d" x="89" y="16" width="175" height="153" filterUnits="userSpaceOnUse" color-interpolation-filters="sRGB">
<feFlood flood-opacity="0" result="BackgroundImageFix"/>
<feColorMatrix in="SourceAlpha" type="matrix" values="0 0 0 0 0 0 0 0 0 0 0 0 0 0 0 0 0 0 127 0"/>
<feOffset dy="4"/>
<feGaussianBlur stdDeviation="15"/>
<feColorMatrix type="matrix" values="0 0 0 0 0 0 0 0 0 0 0 0 0 0 0 0 0 0 0.5 0"/>
<feBlend mode="normal" in2="BackgroundImageFix" result="effect1_dropShadow"/>
<feBlend mode="normal" in="SourceGraphic" in2="effect1_dropShadow" result="shape"/>
</filter>
<filter id="filter1_d" x="0" y="0" width="213" height="185" filterUnits="userSpaceOnUse" color-interpolation-filters="sRGB">
<feFlood flood-opacity="0" result="BackgroundImageFix"/>
<feColorMatrix in="SourceAlpha" type="matrix" values="0 0 0 0 0 0 0 0 0 0 0 0 0 0 0 0 0 0 127 0"/>
<feOffset dy="4"/>
<feGaussianBlur stdDeviation="15"/>
<feColorMatrix type="matrix" values="0 0 0 0 0 0 0 0 0 0 0 0 0 0 0 0 0 0 0.5 0"/>
<feBlend mode="normal" in2="BackgroundImageFix" result="effect1_dropShadow"/>
<feBlend mode="normal" in="SourceGraphic" in2="effect1_dropShadow" result="shape"/>
</filter>
</defs>
</svg>
