<svg width="264" height="185" viewBox="0 0 264 185" fill="none" xmlns="http://www.w3.org/2000/svg">
<g filter="url(#filter0_d)">
<rect x="119" y="42" width="115" height="93" fill="#1C2124"/>
</g>
<path d="M191.501 105.598C201.495 105.598 209.598 97.4957 209.598 87.5013C209.598 77.5069 201.495 69.4048 191.501 69.4048C181.507 69.4048 173.405 77.5069 173.405 87.5013C173.405 97.4957 181.507 105.598 191.501 105.598Z" fill="#B1D7FB"/>
<path d="M178.784 87.5013C178.784 78.4209 185.472 70.9031 194.191 69.604C193.313 69.4732 192.415 69.4048 191.501 69.4048C181.507 69.4048 173.405 77.5069 173.405 87.5013C173.405 97.4957 181.507 105.598 191.501 105.598C192.415 105.598 193.313 105.529 194.191 105.399C185.472 104.099 178.784 96.5819 178.784 87.5013Z" fill="#9DC6FB"/>
<path d="M191.505 101.719C199.357 101.719 205.722 95.3534 205.722 87.5014C205.722 79.6495 199.357 73.2842 191.505 73.2842C183.653 73.2842 177.287 79.6495 177.287 87.5014C177.287 95.3534 183.653 101.719 191.505 101.719Z" fill="#9DC6FB"/>
<path d="M183.432 87.5014C183.432 80.7046 188.202 75.0227 194.577 73.6181C193.588 73.4001 192.56 73.2842 191.505 73.2842C183.653 73.2842 177.287 79.6495 177.287 87.5014C177.287 95.3534 183.653 101.719 191.505 101.719C192.56 101.719 193.588 101.603 194.577 101.385C188.202 99.9803 183.432 94.2984 183.432 87.5014Z" fill="#80B4FB"/>
<path d="M196.799 85.2578H186.21C185.388 85.2578 184.715 85.9305 184.715 86.7527V94.5579C184.715 95.3801 185.388 96.0528 186.21 96.0528H196.799C197.621 96.0528 198.294 95.3801 198.294 94.5579V86.7527C198.294 85.9305 197.621 85.2578 196.799 85.2578Z" fill="#FFE181"/>
<path d="M188.629 94.5579V86.7527C188.629 85.9305 189.302 85.2578 190.124 85.2578H186.21C185.388 85.2578 184.715 85.9305 184.715 86.7527V94.5579C184.715 95.3801 185.388 96.0528 186.21 96.0528H190.124C189.302 96.0528 188.629 95.3801 188.629 94.5579Z" fill="#FEC458"/>
<path d="M191.505 91.6939C192.484 91.6939 193.278 90.9001 193.278 89.9208C193.278 88.9416 192.484 88.1477 191.505 88.1477C190.525 88.1477 189.731 88.9416 189.731 89.9208C189.731 90.9001 190.525 91.6939 191.505 91.6939Z" fill="#FEC458"/>
<path d="M191.687 89.9209C191.687 89.3032 192.004 88.76 192.483 88.4425C192.202 88.2567 191.866 88.1479 191.505 88.1479C190.525 88.1479 189.732 88.9417 189.732 89.9211C189.732 90.9003 190.525 91.6942 191.505 91.6942C191.866 91.6942 192.202 91.5854 192.483 91.3996C192.004 91.082 191.687 90.5386 191.687 89.9209Z" fill="#F9AB49"/>
<path d="M191.501 62.7207C193.028 62.7207 194.266 61.4252 194.266 59.8272C194.266 58.2291 193.028 56.9336 191.501 56.9336C189.974 56.9336 188.736 58.2291 188.736 59.8272C188.736 61.4252 189.974 62.7207 191.501 62.7207Z" fill="#FFE181"/>
<path d="M191.501 118.069C193.028 118.069 194.266 116.774 194.266 115.176C194.266 113.578 193.028 112.282 191.501 112.282C189.974 112.282 188.736 113.578 188.736 115.176C188.736 116.774 189.974 118.069 191.501 118.069Z" fill="#FFE181"/>
<path d="M170.04 75.1115C170.803 73.7891 170.3 72.0694 168.916 71.2704C167.533 70.4713 165.792 70.8956 165.028 72.2179C164.265 73.5403 164.768 75.2601 166.152 76.0591C167.536 76.8581 169.276 76.4339 170.04 75.1115Z" fill="#FFE181"/>
<path d="M217.972 102.787C218.736 101.464 218.233 99.7447 216.849 98.9456C215.465 98.1466 213.724 98.5709 212.961 99.8932C212.197 101.216 212.7 102.935 214.084 103.734C215.468 104.533 217.209 104.109 217.972 102.787Z" fill="#FFE181"/>
<path d="M168.916 103.732C170.3 102.933 170.803 101.213 170.04 99.8907C169.276 98.5683 167.536 98.1441 166.152 98.9431C164.768 99.7421 164.265 101.462 165.028 102.784C165.792 104.107 167.533 104.531 168.916 103.732Z" fill="#FFE181"/>
<path d="M216.849 76.0583C218.233 75.2592 218.736 73.5395 217.972 72.2171C217.209 70.8947 215.468 70.4705 214.084 71.2695C212.7 72.0686 212.197 73.7883 212.961 75.1107C213.724 76.4331 215.465 76.8573 216.849 76.0583Z" fill="#FFE181"/>
<path d="M191.426 59.8272C191.426 58.74 191.999 57.7934 192.846 57.2989C192.448 57.0665 191.989 56.9336 191.501 56.9336C189.974 56.9336 188.736 58.229 188.736 59.8272C188.736 61.4253 189.974 62.7207 191.501 62.7207C191.989 62.7207 192.448 62.5878 192.846 62.3554C191.999 61.8608 191.426 60.9142 191.426 59.8272Z" fill="#FEC458"/>
<path d="M191.426 115.176C191.426 114.089 191.999 113.142 192.846 112.648C192.448 112.415 191.989 112.282 191.501 112.282C189.974 112.282 188.736 113.578 188.736 115.176C188.736 116.774 189.974 118.069 191.501 118.069C191.989 118.069 192.448 117.936 192.846 117.704C191.999 117.21 191.426 116.263 191.426 115.176Z" fill="#FEC458"/>
<path d="M168.842 76.0588C167.458 75.2598 166.955 73.5399 167.718 72.2176C167.977 71.7693 168.348 71.4245 168.78 71.1954C167.42 70.4998 165.767 70.9385 165.029 72.2176C164.265 73.5399 164.768 75.2598 166.152 76.0588C167.067 76.5871 168.137 76.5803 168.979 76.1333C168.933 76.1098 168.887 76.085 168.842 76.0588Z" fill="#FEC458"/>
<path d="M216.775 103.733C215.391 102.934 214.888 101.214 215.651 99.8916C215.91 99.4434 216.281 99.0986 216.713 98.8695C215.353 98.1739 213.7 98.6126 212.962 99.8916C212.198 101.214 212.701 102.934 214.085 103.733C215 104.261 216.071 104.254 216.912 103.807C216.866 103.784 216.82 103.759 216.775 103.733Z" fill="#FEC458"/>
<path d="M167.718 102.785C166.955 101.463 167.458 99.7431 168.841 98.9441C168.887 98.9179 168.933 98.8931 168.979 98.8696C168.137 98.4227 167.067 98.4159 166.152 98.9441C164.768 99.7431 164.265 101.463 165.028 102.785C165.767 104.064 167.42 104.503 168.78 103.808C168.348 103.578 167.977 103.234 167.718 102.785Z" fill="#FEC458"/>
<path d="M215.651 75.111C214.888 73.7886 215.391 72.0688 216.775 71.2698C216.82 71.2435 216.866 71.2188 216.912 71.1953C216.07 70.7484 215 70.7416 214.085 71.2698C212.701 72.0688 212.198 73.7886 212.962 75.111C213.7 76.3901 215.353 76.8288 216.713 76.1332C216.281 75.9041 215.91 75.5594 215.651 75.111Z" fill="#FEC458"/>
<path d="M191.5 94.1756C192.01 94.1756 192.423 93.7624 192.423 93.2528V92.4548C193.457 92.0771 194.197 91.0837 194.197 89.9207C194.197 88.4337 192.987 87.2239 191.5 87.2239C190.013 87.2239 188.803 88.4337 188.803 89.9207C188.803 91.0837 189.543 92.0772 190.577 92.4548V93.2528C190.577 93.7624 190.991 94.1756 191.5 94.1756ZM191.5 89.0696C191.969 89.0696 192.351 89.4514 192.351 89.9207C192.351 90.39 191.969 90.7718 191.5 90.7718C191.031 90.7718 190.649 90.39 190.649 89.9207C190.649 89.4514 191.031 89.0696 191.5 89.0696Z" fill="black"/>
<path d="M193.653 96.9789H196.797C198.131 96.9789 199.216 95.894 199.216 94.5603V86.7507C199.216 85.4488 198.181 84.3868 196.891 84.3369V82.6187C196.891 79.646 194.473 77.2275 191.5 77.2275C188.527 77.2275 186.109 79.646 186.109 82.6187V84.3369C184.819 84.3868 183.784 85.4488 183.784 86.7507V94.5603C183.784 95.8939 184.869 96.9789 186.203 96.9789H189.347C189.857 96.9789 190.27 96.5657 190.27 96.056C190.27 95.5464 189.857 95.1332 189.347 95.1332H186.203C185.892 95.1332 185.63 94.8709 185.63 94.5603V86.7507C185.63 86.4403 185.892 86.1778 186.203 86.1778H196.797C197.108 86.1778 197.37 86.4402 197.37 86.7507V94.5603C197.37 94.8709 197.108 95.1332 196.797 95.1332H193.653C193.144 95.1332 192.731 95.5464 192.731 96.056C192.731 96.5657 193.144 96.9789 193.653 96.9789ZM195.046 84.3321H187.955V82.6186C187.955 80.6636 189.545 79.0731 191.5 79.0731C193.455 79.0731 195.045 80.6636 195.045 82.6186V84.3321H195.046Z" fill="black"/>
<g filter="url(#filter1_d)">
<rect x="30" y="26" width="153" height="125" fill="#1C2124"/>
</g>
<path d="M141.387 52.0557V69.8493C141.387 78.9716 139.593 87.8879 136.226 96.1201L135.787 96.3267C134.38 93.3844 133.645 90.1586 133.645 86.8944C131.349 89.7718 130.135 93.2943 130.135 96.8944C130.135 98.3649 130.342 99.8493 130.754 101.294L131.064 102.378C129.361 100.675 127.297 99.3975 125.025 98.649L124.613 98.5073V100.262C124.613 101.642 124.174 102.972 123.348 104.069C121.658 106.327 120.742 109.062 120.742 111.875C120.742 114.043 121.194 116.094 122.02 117.952C119.774 120.288 117.348 122.482 114.755 124.507C112.781 126.055 110.342 126.894 107.839 126.894V52.0557L108.342 52.3908C110.703 53.9653 113.271 55.1781 115.955 55.9783C118.639 56.8036 121.439 57.217 124.278 57.217C128.742 57.217 133.142 56.1843 137.129 54.1846L141.387 52.0557Z" fill="#FCD770"/>
<path d="M101.387 113.991H107.839V120.443H101.387V113.991Z" fill="#FFEAA7"/>
<path d="M88.4837 107.54H97.516V113.991H90.1351C88.4837 112.004 86.9609 109.914 85.5547 107.759L85.9031 107.54H88.4837Z" fill="#FFEAA7"/>
<path d="M101.387 101.088H107.839V107.54H101.387V101.088Z" fill="#FFEAA7"/>
<path d="M88.4839 101.088H93.6452V107.54H88.4839V101.088Z" fill="#FFEAA7"/>
<path d="M107.839 94.6362V101.088H97.5161V94.6362H107.839Z" fill="#FFEAA7"/>
<path d="M84.6128 94.6362V101.088H82.0321L81.7738 101.216C80.6902 99.0749 79.7224 96.8811 78.8706 94.6362H84.6128Z" fill="#FFEAA7"/>
<path d="M101.387 88.1848H107.839V94.6364H101.387V88.1848Z" fill="#FFEAA7"/>
<path d="M88.4839 88.1848H93.6452V94.6364H88.4839V88.1848Z" fill="#FFEAA7"/>
<path d="M97.516 81.7332V88.1848H84.6128V81.7332H97.516Z" fill="#FFEAA7"/>
<path d="M101.387 75.2815H107.839V81.7331H101.387V75.2815Z" fill="#FFEAA7"/>
<path d="M88.4839 75.2815H93.6452V81.7331H88.4839V75.2815Z" fill="#FFEAA7"/>
<path d="M80.7419 75.2815V81.7331H75.3223C74.948 79.6036 74.6771 77.4488 74.5095 75.2815H80.7419Z" fill="#FFEAA7"/>
<path d="M97.516 68.8298V75.2815H84.6128V68.8298H97.516Z" fill="#FFEAA7"/>
<path d="M101.387 62.3782H107.839V68.8298H101.387V62.3782Z" fill="#FFEAA7"/>
<path d="M88.4839 62.3782H93.6452V68.8298H88.4839V62.3782Z" fill="#FFEAA7"/>
<path d="M74.2903 62.3782H80.7419V68.8298H74.2903V62.3782Z" fill="#FFEAA7"/>
<path d="M97.516 56.5586V62.3782H84.6128V56.4036C86.8324 56.946 89.1031 57.2169 91.3996 57.2169C93.4642 57.2169 95.5163 56.9977 97.516 56.5586Z" fill="#FFEAA7"/>
<path d="M101.387 120.443H107.839V126.895C105.336 126.895 102.897 126.055 100.923 124.507C99.284 123.217 97.7095 121.875 96.2 120.469L96.2258 120.443H101.387Z" fill="#FCD770"/>
<path d="M101.387 113.991V120.443H96.2259L96.2 120.469C94.0321 118.43 92.0065 116.262 90.1353 113.991H101.387Z" fill="#FCD770"/>
<path d="M107.839 107.54V113.991H97.5161V107.54H107.839Z" fill="#FCD770"/>
<path d="M84.6129 101.088H88.4839V107.539H85.9032L85.5548 107.759C84.1744 105.642 82.9099 103.462 81.7739 101.216L82.0322 101.088H84.6129Z" fill="#FCD770"/>
<path d="M101.387 101.088V107.54H93.645V101.088H101.387Z" fill="#FCD770"/>
<path d="M97.516 94.6362V101.088H84.6128V94.6362H97.516Z" fill="#FCD770"/>
<path d="M88.4838 88.1846V94.6362H78.8707C78.0579 92.5325 77.3611 90.391 76.7676 88.2104L76.8709 88.1846H88.4838Z" fill="#FCD770"/>
<path d="M101.387 88.1846V94.6362H93.645V88.1846H101.387Z" fill="#FCD770"/>
<path d="M107.839 81.7332V88.1848H97.5161V81.7332H107.839Z" fill="#FCD770"/>
<path d="M84.6128 81.7332V88.1848H76.8709L76.7676 88.2106C76.1741 86.0811 75.6965 83.9263 75.3223 81.7332H84.6128Z" fill="#FCD770"/>
<path d="M88.4839 75.2815V81.7331H80.7419V75.2815H88.4839Z" fill="#FCD770"/>
<path d="M101.387 75.2815V81.7331H93.645V75.2815H101.387Z" fill="#FCD770"/>
<path d="M107.839 68.8298V75.2815H97.5161V68.8298H107.839Z" fill="#FCD770"/>
<path d="M84.6129 68.8298V75.2815H74.5095C74.3678 73.4877 74.2903 71.6682 74.2903 69.8492V68.8298H84.6129Z" fill="#FCD770"/>
<path d="M88.4839 62.3782V68.8298H80.7419V62.3782H88.4839Z" fill="#FCD770"/>
<path d="M101.387 62.3782V68.8298H93.645V62.3782H101.387Z" fill="#FCD770"/>
<path d="M107.839 52.0557V62.3782H97.5161V56.5586C101 55.7975 104.329 54.3912 107.335 52.3908L107.839 52.0557Z" fill="#FCD770"/>
<path d="M84.6129 56.4036V62.3782H74.2903V52.0557L78.5481 54.1846C80.4836 55.1523 82.5224 55.9008 84.6129 56.4036Z" fill="#FCD770"/>
<path d="M148.51 99.3585C150.613 103.023 151.71 107.178 151.71 111.41C151.71 119.965 144.78 126.894 136.226 126.894H135.761C131.606 126.894 127.865 125.217 125.142 122.494C123.839 121.191 122.781 119.655 122.02 117.952C121.194 116.094 120.742 114.043 120.742 111.875C120.742 109.062 121.658 106.327 123.348 104.069C124.174 102.972 124.613 101.642 124.613 100.262V98.5073L125.026 98.649C127.297 99.3975 129.362 100.675 131.065 102.378L130.755 101.294C130.342 99.8493 130.135 98.3649 130.135 96.8944C130.135 93.2943 131.349 89.7718 133.645 86.8944C133.645 90.1586 134.38 93.3844 135.787 96.3267C135.839 96.4426 135.903 96.5586 135.955 96.6751L136.226 97.2169C137.865 96.391 139.091 94.9198 139.593 93.1519C140.729 89.2041 143.619 86.0041 147.426 84.4813L147.839 84.3137L146.819 89.3843C146.638 90.3004 146.548 91.2297 146.548 92.1716C146.548 94.6363 147.194 97.0487 148.42 99.1909L148.51 99.3585Z" fill="#FF826E"/>
<path d="M146.548 111.41C146.548 113.784 145.736 115.978 144.368 117.733L142.548 119.553C140.794 120.92 138.6 121.733 136.226 121.733H135.762C130.329 121.733 125.903 117.307 125.903 111.875C125.903 110.184 126.458 108.52 127.478 107.165C127.632 106.959 127.775 106.739 127.916 106.533L136.226 111.41L136.561 102.817L138.536 101.836C140.084 101.062 141.439 99.952 142.497 98.6106C142.871 99.6943 143.361 100.752 143.929 101.746L144.032 101.926C145.684 104.804 146.548 108.081 146.548 111.41Z" fill="#FC6E51"/>
<path d="M149.632 98.7228L149.534 98.5496C148.426 96.609 147.839 94.4014 147.839 92.1666C147.839 91.3224 147.923 90.4737 148.088 89.6439L149.57 82.2296L146.95 83.2786C144.027 84.448 141.588 86.5693 139.961 89.2168C141.755 82.9353 142.677 76.4528 142.677 69.8544V49.9678L136.555 53.0285C132.764 54.9249 128.52 55.9267 124.282 55.9267C118.845 55.9267 113.581 54.3327 109.057 51.3173L107.839 50.5046L106.621 51.3173C102.097 54.3327 96.8325 55.9267 91.3959 55.9267C87.1564 55.9267 82.9124 54.9249 79.1227 53.0285L73 49.9678V69.8544C73 91.742 82.8866 112.032 100.124 125.527C102.318 127.242 105.057 128.185 107.839 128.185C110.62 128.185 113.36 127.242 115.554 125.524C117.703 123.841 119.758 122.018 121.7 120.099C124.533 124.928 129.765 128.185 135.756 128.185H136.221C145.472 128.185 153 120.657 153 111.405C153 106.965 151.835 102.578 149.632 98.7228ZM87.8129 108.83H96.2258V112.701H90.7161C89.6954 111.445 88.7365 110.149 87.8129 108.83ZM87.1935 63.6686V67.5396H82.0323V63.6686H87.1935ZM106.548 106.249H102.677V102.378H106.548V106.249ZM94.9355 106.249V102.378H100.097V106.249H94.9355ZM96.2258 95.9267V99.7977H85.9032V95.9267H96.2258ZM87.1935 76.5719V80.4428H82.0323V76.5719H87.1935ZM96.2258 70.1202V73.9912H85.9032V70.1202H96.2258ZM94.9355 80.4428V76.5719H100.097V80.4428H94.9355ZM92.3548 76.5719V80.4428H89.7742V76.5719H92.3548ZM96.2258 83.0235V86.8944H85.9032V83.0235H96.2258ZM94.9355 93.346V89.4751H100.097V93.346H94.9355ZM92.3548 89.4751V93.346H89.7742V89.4751H92.3548ZM92.3548 102.378V106.249H89.7742V102.378H92.3548ZM106.548 99.7977H98.8064V95.9267H106.548V99.7977ZM106.548 93.346H102.677V89.4751H106.548V93.346ZM106.548 86.8944H98.8064V83.0235H106.548V86.8944ZM106.548 80.4428H102.677V76.5719H106.548V80.4428ZM106.548 73.9912H98.8064V70.1202H106.548V73.9912ZM106.548 67.5396H102.677V63.6686H106.548V67.5396ZM106.548 61.088H98.8064V57.5629C101.514 56.8736 104.115 55.8101 106.548 54.3844V61.088ZM100.097 63.6686V67.5396H94.9355V63.6686H100.097ZM92.3548 67.5396H89.7742V63.6686H92.3548V67.5396ZM79.4516 67.5396H75.5806V63.6686H79.4516V67.5396ZM83.3226 70.1202V73.9912H75.7085C75.6323 72.7072 75.592 71.4169 75.5869 70.1202H83.3226ZM79.4516 76.5719V80.4428H76.4154C76.217 79.1613 76.0544 77.871 75.9278 76.5719H79.4516ZM83.3226 83.0235V86.8944H77.7429C77.4153 85.6155 77.1236 84.3251 76.871 83.0235H83.3226ZM87.1935 89.4751V93.346H79.7326C79.2658 92.0696 78.8323 90.7805 78.4423 89.4751H87.1935ZM83.3226 95.9267V99.7977H82.467C81.8451 98.5262 81.2699 97.2347 80.7293 95.9267H83.3226ZM87.1935 102.378V106.249H86.0746C85.2738 104.986 84.5291 103.69 83.8153 102.378H87.1935ZM98.8064 108.83H106.548V112.701H98.8064V108.83ZM106.548 115.282V119.152H102.677V115.282H106.548ZM96.2258 58.106V61.088H85.9032V57.9894C87.7146 58.3278 89.5549 58.5073 91.3959 58.5073C93.0258 58.5073 94.6375 58.3624 96.2258 58.106ZM77.9691 55.337C79.6797 56.1926 81.4772 56.8724 83.3226 57.3859V61.088H75.5806V54.1431L77.9691 55.337ZM92.9275 115.282H100.097V119.152H96.7172C95.4011 117.903 94.1303 116.618 92.9275 115.282ZM99.5921 121.733H106.548V125.496C104.796 125.263 103.113 124.587 101.715 123.493C100.987 122.924 100.291 122.327 99.5921 121.733ZM113.963 123.492C112.564 124.587 110.881 125.262 109.129 125.494V54.3844C113.726 57.0771 118.924 58.5073 124.282 58.5073C128.92 58.5073 133.563 57.4104 137.71 55.337L140.097 54.1431V69.8544C140.097 77.8811 138.692 85.7326 135.943 93.2352C135.283 91.1894 134.935 89.0416 134.935 86.8944V83.2156L132.638 86.088C129.692 89.7706 128.399 94.4839 128.989 99.0958C127.872 98.4002 126.675 97.8338 125.428 97.418L123.323 96.7174V100.267C123.323 101.351 122.965 102.426 122.313 103.293C120.468 105.753 119.452 108.804 119.452 111.88C119.452 113.899 119.837 115.827 120.512 117.614C118.459 119.701 116.271 121.685 113.963 123.492ZM136.221 125.604H135.756C128.188 125.604 122.032 119.448 122.032 111.88C122.032 109.359 122.866 106.858 124.378 104.84C125.342 103.558 125.88 101.972 125.902 100.369C127.48 101.073 128.931 102.068 130.151 103.291L133.672 106.812L131.994 100.937C131.035 97.5793 131.315 94.0233 132.706 90.8983C133.095 93.1022 133.8 95.2507 134.799 97.2504L135.647 98.9484L136.801 98.3719C138.764 97.3909 140.235 95.618 140.839 93.5061C141.659 90.6362 143.554 88.1677 146.062 86.609L145.556 89.1367C145.359 90.1341 145.258 91.1522 145.258 92.1666C145.258 94.8506 145.961 97.5005 147.293 99.8285L147.391 100.001C149.372 103.47 150.419 107.412 150.419 111.405C150.419 119.234 144.049 125.604 136.221 125.604Z" fill="black"/>
<path d="M145.153 101.287L145.053 101.111C144.52 100.177 144.068 99.191 143.709 98.1767L142.93 95.969L141.48 97.8068C140.531 99.0077 139.314 100.001 137.956 100.68L135.3 102.007L135.019 109.206L127.506 104.792L126.834 105.827C126.708 106.019 126.577 106.209 126.442 106.39C125.263 107.961 124.613 109.912 124.613 111.88C124.613 118.025 129.612 123.024 135.756 123.024H136.221C138.813 123.024 141.274 122.176 143.335 120.571L141.751 118.536C140.147 119.782 138.235 120.443 136.221 120.443H135.756C131.035 120.443 127.193 116.602 127.193 111.88C127.193 110.593 127.579 109.319 128.292 108.247L137.432 113.616L137.819 103.632L139.109 102.988C140.178 102.456 141.177 101.767 142.064 100.955C142.296 101.445 142.546 101.925 142.814 102.395L142.915 102.571C144.448 105.255 145.258 108.308 145.258 111.405C145.258 113.419 144.598 115.332 143.35 116.935L145.386 118.521C146.989 116.459 147.837 113.999 147.837 111.405C147.839 107.86 146.911 104.361 145.153 101.287Z" fill="black"/>
<defs>
<filter id="filter0_d" x="89" y="16" width="175" height="153" filterUnits="userSpaceOnUse" color-interpolation-filters="sRGB">
<feFlood flood-opacity="0" result="BackgroundImageFix"/>
<feColorMatrix in="SourceAlpha" type="matrix" values="0 0 0 0 0 0 0 0 0 0 0 0 0 0 0 0 0 0 127 0"/>
<feOffset dy="4"/>
<feGaussianBlur stdDeviation="15"/>
<feColorMatrix type="matrix" values="0 0 0 0 0 0 0 0 0 0 0 0 0 0 0 0 0 0 0.5 0"/>
<feBlend mode="normal" in2="BackgroundImageFix" result="effect1_dropShadow"/>
<feBlend mode="normal" in="SourceGraphic" in2="effect1_dropShadow" result="shape"/>
</filter>
<filter id="filter1_d" x="0" y="0" width="213" height="185" filterUnits="userSpaceOnUse" color-interpolation-filters="sRGB">
<feFlood flood-opacity="0" result="BackgroundImageFix"/>
<feColorMatrix in="SourceAlpha" type="matrix" values="0 0 0 0 0 0 0 0 0 0 0 0 0 0 0 0 0 0 127 0"/>
<feOffset dy="4"/>
<feGaussianBlur stdDeviation="15"/>
<feColorMatrix type="matrix" values="0 0 0 0 0 0 0 0 0 0 0 0 0 0 0 0 0 0 0.5 0"/>
<feBlend mode="normal" in2="BackgroundImageFix" result="effect1_dropShadow"/>
<feBlend mode="normal" in="SourceGraphic" in2="effect1_dropShadow" result="shape"/>
</filter>
</defs>
</svg>
